<svg width="19" height="432" viewBox="0 0 19 432" fill="none" xmlns="http://www.w3.org/2000/svg">
<path d="M12.3382 22.808H5.66616L4.56216 26H1.03416L7.05816 9.224H10.9702L16.9942 26H13.4422L12.3382 22.808ZM11.4262 20.12L9.00216 13.112L6.57816 20.12H11.4262Z" fill="#9B9B9B"/>
<path d="M12.4491 61.408C13.3931 61.584 14.1691 62.056 14.7771 62.824C15.3851 63.592 15.6891 64.472 15.6891 65.464C15.6891 66.36 15.4651 67.152 15.0171 67.84C14.5851 68.512 13.9531 69.04 13.1211 69.424C12.2891 69.808 11.3051 70 10.1691 70H2.94506V53.248H9.85706C10.9931 53.248 11.9691 53.432 12.7851 53.8C13.6171 54.168 14.2411 54.68 14.6571 55.336C15.0891 55.992 15.3051 56.736 15.3051 57.568C15.3051 58.544 15.0411 59.36 14.5131 60.016C14.0011 60.672 13.3131 61.136 12.4491 61.408ZM6.30506 60.16H9.37706C10.1771 60.16 10.7931 59.984 11.2251 59.632C11.6571 59.264 11.8731 58.744 11.8731 58.072C11.8731 57.4 11.6571 56.88 11.2251 56.512C10.7931 56.144 10.1771 55.96 9.37706 55.96H6.30506V60.16ZM9.68906 67.264C10.5051 67.264 11.1371 67.072 11.5851 66.688C12.0491 66.304 12.2811 65.76 12.2811 65.056C12.2811 64.336 12.0411 63.776 11.5611 63.376C11.0811 62.96 10.4331 62.752 9.61706 62.752H6.30506V67.264H9.68906Z" fill="#9B9B9B"/>
<path d="M1.12906 105.6C1.12906 103.952 1.49706 102.48 2.23306 101.184C2.98506 99.872 4.00106 98.856 5.28106 98.136C6.57706 97.4 8.02506 97.032 9.62506 97.032C11.4971 97.032 13.1371 97.512 14.5451 98.472C15.9531 99.432 16.9371 100.76 17.4971 102.456H13.6331C13.2491 101.656 12.7051 101.056 12.0011 100.656C11.3131 100.256 10.5131 100.056 9.60106 100.056C8.62506 100.056 7.75306 100.288 6.98506 100.752C6.23306 101.2 5.64106 101.84 5.20906 102.672C4.79306 103.504 4.58506 104.48 4.58506 105.6C4.58506 106.704 4.79306 107.68 5.20906 108.528C5.64106 109.36 6.23306 110.008 6.98506 110.472C7.75306 110.92 8.62506 111.144 9.60106 111.144C10.5131 111.144 11.3131 110.944 12.0011 110.544C12.7051 110.128 13.2491 109.52 13.6331 108.72H17.4971C16.9371 110.432 15.9531 111.768 14.5451 112.728C13.1531 113.672 11.5131 114.144 9.62506 114.144C8.02506 114.144 6.57706 113.784 5.28106 113.064C4.00106 112.328 2.98506 111.312 2.23306 110.016C1.49706 108.72 1.12906 107.248 1.12906 105.6Z" fill="#9B9B9B"/>
<path d="M7.91044 141.248C9.67044 141.248 11.2144 141.592 12.5424 142.28C13.8864 142.968 14.9184 143.952 15.6384 145.232C16.3744 146.496 16.7424 147.968 16.7424 149.648C16.7424 151.328 16.3744 152.8 15.6384 154.064C14.9184 155.312 13.8864 156.28 12.5424 156.968C11.2144 157.656 9.67044 158 7.91044 158H2.05444V141.248H7.91044ZM7.79044 155.144C9.55044 155.144 10.9104 154.664 11.8704 153.704C12.8304 152.744 13.3104 151.392 13.3104 149.648C13.3104 147.904 12.8304 146.544 11.8704 145.568C10.9104 144.576 9.55044 144.08 7.79044 144.08H5.41444V155.144H7.79044Z" fill="#9B9B9B"/>
<path d="M5.12928 187.96V192.16H10.7693V194.824H5.12928V199.264H11.4893V202H1.76928V185.224H11.4893V187.96H5.12928Z" fill="#9B9B9B"/>
<path d="M12.1367 229.248V231.96H5.15272V236.256H10.5047V238.92H5.15272V246H1.79272V229.248H12.1367Z" fill="#9B9B9B"/>
<path d="M13.6091 278.288C13.2251 277.584 12.6971 277.048 12.0251 276.68C11.3531 276.312 10.5691 276.128 9.67306 276.128C8.68106 276.128 7.80106 276.352 7.03306 276.8C6.26506 277.248 5.66506 277.888 5.23306 278.72C4.80106 279.552 4.58506 280.512 4.58506 281.6C4.58506 282.72 4.80106 283.696 5.23306 284.528C5.68106 285.36 6.29706 286 7.08106 286.448C7.86506 286.896 8.77706 287.12 9.81706 287.12C11.0971 287.12 12.1451 286.784 12.9611 286.112C13.7771 285.424 14.3131 284.472 14.5691 283.256H8.80906V280.688H17.8811V283.616C17.6571 284.784 17.1771 285.864 16.4411 286.856C15.7051 287.848 14.7531 288.648 13.5851 289.256C12.4331 289.848 11.1371 290.144 9.69706 290.144C8.08106 290.144 6.61706 289.784 5.30506 289.064C4.00906 288.328 2.98506 287.312 2.23306 286.016C1.49706 284.72 1.12906 283.248 1.12906 281.6C1.12906 279.952 1.49706 278.48 2.23306 277.184C2.98506 275.872 4.00906 274.856 5.30506 274.136C6.61706 273.4 8.07306 273.032 9.67306 273.032C11.5611 273.032 13.2011 273.496 14.5931 274.424C15.9851 275.336 16.9451 276.624 17.4731 278.288H13.6091Z" fill="#9B9B9B"/>
<path d="M15.9504 317.248V334H12.5904V326.872H5.41444V334H2.05444V317.248H5.41444V324.136H12.5904V317.248H15.9504Z" fill="#9B9B9B"/>
<path d="M5.17616 361.248V378H1.81616V361.248H5.17616Z" fill="#9B9B9B"/>
<path d="M11.5803 405.248V417.008C11.5803 418.64 11.1083 419.912 10.1643 420.824C9.22025 421.72 7.95625 422.168 6.37225 422.168C4.77225 422.168 3.47625 421.704 2.48425 420.776C1.50825 419.848 1.02025 418.552 1.02025 416.888H4.38025C4.39625 417.608 4.56425 418.168 4.88425 418.568C5.22025 418.968 5.70025 419.168 6.32425 419.168C6.93225 419.168 7.39625 418.976 7.71625 418.592C8.03625 418.208 8.19625 417.68 8.19625 417.008V405.248H11.5803Z" fill="#9B9B9B"/>
</svg>
