<svg width="396" height="347" viewBox="0 0 396 347" fill="none" xmlns="http://www.w3.org/2000/svg">
<circle opacity="0.9" cx="188.466" cy="167.846" r="151.064" fill="#00CC83"/>
<circle opacity="0.4" cx="70.0474" cy="69.6865" r="69.5322" fill="#003877"/>
<path d="M63.3449 174.846L59.2397 160.3H62.0736L64.6943 170.989H64.8292L67.6275 160.3H70.2057L73.0111 170.996H73.1389L75.7596 160.3H78.5934L74.4883 174.846H71.8889L68.977 164.64H68.8633L65.9443 174.846H63.3449ZM80.4205 174.846V160.3H89.8807V162.509H83.0554V166.458H89.3907V168.667H83.0554V172.637H89.9375V174.846H80.4205ZM97.5299 160.3H100.754L105.072 170.84H105.243L109.561 160.3H112.786V174.846H110.257V164.853H110.122L106.102 174.803H104.213L100.193 164.831H100.058V174.846H97.5299V160.3ZM117.523 174.846H114.71L119.831 160.3H123.084L128.212 174.846H125.399L121.514 163.283H121.401L117.523 174.846ZM117.615 169.143H125.286V171.259H117.615V169.143ZM130.128 174.846V160.3H132.762V166.983H132.94L138.615 160.3H141.832L136.207 166.827L141.882 174.846H138.714L134.375 168.61L132.762 170.513V174.846H130.128ZM143.663 174.846V160.3H153.123V162.509H146.298V166.458H152.633V168.667H146.298V172.637H153.18V174.846H143.663ZM160.772 160.3H163.996L168.315 170.84H168.485L172.803 160.3H176.028V174.846H173.499V164.853H173.364L169.345 174.803H167.455L163.435 164.831H163.3V174.846H160.772V160.3ZM191.894 167.573C191.894 169.14 191.601 170.483 191.014 171.6C190.431 172.713 189.636 173.565 188.627 174.157C187.623 174.749 186.485 175.045 185.211 175.045C183.937 175.045 182.796 174.749 181.788 174.157C180.784 173.56 179.988 172.706 179.401 171.593C178.819 170.475 178.528 169.135 178.528 167.573C178.528 166.006 178.819 164.666 179.401 163.553C179.988 162.436 180.784 161.581 181.788 160.989C182.796 160.397 183.937 160.101 185.211 160.101C186.485 160.101 187.623 160.397 188.627 160.989C189.636 161.581 190.431 162.436 191.014 163.553C191.601 164.666 191.894 166.006 191.894 167.573ZM189.245 167.573C189.245 166.47 189.072 165.539 188.727 164.782C188.386 164.019 187.912 163.444 187.306 163.056C186.7 162.663 186.002 162.466 185.211 162.466C184.42 162.466 183.722 162.663 183.116 163.056C182.51 163.444 182.034 164.019 181.688 164.782C181.347 165.539 181.177 166.47 181.177 167.573C181.177 168.676 181.347 169.609 181.688 170.371C182.034 171.129 182.51 171.704 183.116 172.097C183.722 172.485 184.42 172.68 185.211 172.68C186.002 172.68 186.7 172.485 187.306 172.097C187.912 171.704 188.386 171.129 188.727 170.371C189.072 169.609 189.245 168.676 189.245 167.573ZM195.55 160.3L199.336 171.749H199.485L203.263 160.3H206.161L201.033 174.846H197.78L192.659 160.3H195.55ZM210.712 160.3V174.846H208.077V160.3H210.712ZM213.565 174.846V160.3H223.025V162.509H216.2V166.458H222.535V168.667H216.2V172.637H223.082V174.846H213.565ZM233.618 164.299C233.552 163.679 233.273 163.196 232.78 162.85C232.293 162.504 231.658 162.331 230.877 162.331C230.328 162.331 229.856 162.414 229.463 162.58C229.07 162.746 228.77 162.971 228.561 163.255C228.353 163.539 228.247 163.863 228.242 164.228C228.242 164.531 228.311 164.794 228.448 165.016C228.59 165.239 228.782 165.428 229.023 165.584C229.265 165.736 229.532 165.864 229.826 165.968C230.119 166.072 230.415 166.16 230.713 166.231L232.077 166.572C232.626 166.699 233.154 166.872 233.661 167.09C234.172 167.308 234.629 167.582 235.032 167.914C235.439 168.245 235.761 168.645 235.998 169.114C236.234 169.583 236.353 170.132 236.353 170.762C236.353 171.614 236.135 172.365 235.699 173.013C235.264 173.657 234.634 174.162 233.81 174.526C232.991 174.886 231.999 175.066 230.834 175.066C229.703 175.066 228.72 174.891 227.887 174.54C227.058 174.19 226.409 173.679 225.941 173.006C225.477 172.334 225.226 171.515 225.188 170.549H227.78C227.818 171.055 227.974 171.477 228.249 171.813C228.524 172.149 228.881 172.4 229.321 172.566C229.766 172.732 230.264 172.814 230.813 172.814C231.386 172.814 231.888 172.729 232.319 172.559C232.754 172.384 233.095 172.142 233.341 171.834C233.588 171.522 233.713 171.157 233.718 170.741C233.713 170.362 233.602 170.049 233.384 169.803C233.166 169.552 232.861 169.344 232.468 169.178C232.079 169.008 231.625 168.856 231.104 168.724L229.449 168.297C228.251 167.99 227.304 167.523 226.608 166.898C225.917 166.269 225.571 165.433 225.571 164.391C225.571 163.534 225.803 162.784 226.267 162.14C226.736 161.496 227.373 160.996 228.178 160.641C228.983 160.281 229.894 160.101 230.912 160.101C231.945 160.101 232.849 160.281 233.625 160.641C234.407 160.996 235.02 161.491 235.465 162.126C235.91 162.755 236.14 163.48 236.154 164.299H233.618ZM243.663 174.846V160.3H249.231C250.282 160.3 251.156 160.466 251.852 160.797C252.552 161.124 253.076 161.572 253.421 162.14C253.772 162.708 253.947 163.352 253.947 164.072C253.947 164.663 253.833 165.17 253.606 165.591C253.379 166.008 253.073 166.347 252.69 166.607C252.306 166.867 251.878 167.055 251.404 167.168V167.31C251.92 167.339 252.415 167.497 252.889 167.786C253.367 168.07 253.757 168.473 254.06 168.993C254.363 169.514 254.515 170.144 254.515 170.883C254.515 171.635 254.333 172.313 253.968 172.914C253.604 173.51 253.054 173.982 252.32 174.327C251.586 174.673 250.663 174.846 249.55 174.846H243.663ZM246.298 172.644H249.131C250.088 172.644 250.777 172.462 251.198 172.097C251.624 171.728 251.837 171.254 251.837 170.677C251.837 170.246 251.731 169.858 251.518 169.512C251.305 169.162 251.002 168.887 250.609 168.688C250.216 168.484 249.747 168.383 249.202 168.383H246.298V172.644ZM246.298 166.486H248.904C249.359 166.486 249.768 166.403 250.133 166.238C250.497 166.067 250.784 165.828 250.992 165.52C251.205 165.208 251.312 164.839 251.312 164.412C251.312 163.849 251.113 163.385 250.715 163.02C250.322 162.656 249.737 162.474 248.961 162.474H246.298V166.486ZM256.807 174.846V160.3H266.267V162.509H259.442V166.458H265.777V168.667H259.442V172.637H266.324V174.846H256.807ZM268.316 162.509V160.3H279.922V162.509H275.426V174.846H272.812V162.509H268.316ZM281.52 162.509V160.3H293.125V162.509H288.629V174.846H286.015V162.509H281.52ZM295.362 174.846V160.3H304.822V162.509H297.997V166.458H304.332V168.667H297.997V172.637H304.879V174.846H295.362ZM307.51 174.846V160.3H312.965C314.082 160.3 315.02 160.494 315.777 160.883C316.54 161.271 317.115 161.815 317.503 162.516C317.896 163.212 318.093 164.024 318.093 164.952C318.093 165.885 317.894 166.695 317.496 167.381C317.103 168.063 316.523 168.591 315.756 168.965C314.989 169.334 314.047 169.519 312.929 169.519H309.044V167.331H312.574C313.228 167.331 313.763 167.242 314.179 167.062C314.596 166.877 314.904 166.609 315.103 166.259C315.306 165.904 315.408 165.468 315.408 164.952C315.408 164.436 315.306 163.996 315.103 163.631C314.899 163.262 314.589 162.983 314.172 162.793C313.756 162.599 313.218 162.502 312.56 162.502H310.145V174.846H307.51ZM315.025 168.255L318.625 174.846H315.685L312.148 168.255H315.025Z" fill="white"/>
<circle cx="318.923" cy="269.158" r="76.9395" fill="white"/>
</svg>
