<svg width="263" height="106" viewBox="0 0 263 106" fill="none" xmlns="http://www.w3.org/2000/svg">
<rect width="262.792" height="106" rx="17.6667" fill="#BB180F"/>
<path d="M32.2151 53.1333C32.2151 50.7071 32.7569 48.54 33.8405 46.632C34.9476 44.7004 36.4433 43.2047 38.3278 42.1447C40.2358 41.0611 42.3676 40.5193 44.7231 40.5193C47.4791 40.5193 49.8936 41.226 51.9665 42.6393C54.0393 44.0527 55.488 46.0078 56.3125 48.5047H50.6238C50.0585 47.3269 49.2576 46.4436 48.2211 45.8547C47.2082 45.2658 46.0305 44.9713 44.6878 44.9713C43.2509 44.9713 41.9671 45.3129 40.8365 45.996C39.7293 46.6556 38.8578 47.5978 38.2218 48.8227C37.6093 50.0476 37.3031 51.4844 37.3031 53.1333C37.3031 54.7587 37.6093 56.1956 38.2218 57.444C38.8578 58.6689 39.7293 59.6229 40.8365 60.306C41.9671 60.9656 43.2509 61.2953 44.6878 61.2953C46.0305 61.2953 47.2082 61.0009 48.2211 60.412C49.2576 59.7996 50.0585 58.9044 50.6238 57.7267H56.3125C55.488 60.2471 54.0393 62.214 51.9665 63.6273C49.9171 65.0171 47.5027 65.712 44.7231 65.712C42.3676 65.712 40.2358 65.182 38.3278 64.122C36.4433 63.0384 34.9476 61.5427 33.8405 59.6347C32.7569 57.7267 32.2151 55.5596 32.2151 53.1333ZM77.4269 60.8007H67.6042L65.9789 65.5H60.7849L69.6535 40.802H75.4129L84.2815 65.5H79.0522L77.4269 60.8007ZM76.0842 56.8433L72.5155 46.526L68.9469 56.8433H76.0842ZM110.457 65.5H105.511L94.3099 48.5753V65.5H89.3632V40.802H94.3099L105.511 57.762V40.802H110.457V65.5ZM115.911 53.1333C115.911 50.7071 116.453 48.54 117.536 46.632C118.643 44.7004 120.139 43.2047 122.024 42.1447C123.932 41.0611 126.063 40.5193 128.419 40.5193C131.175 40.5193 133.589 41.226 135.662 42.6393C137.735 44.0527 139.184 46.0078 140.008 48.5047H134.32C133.754 47.3269 132.953 46.4436 131.917 45.8547C130.904 45.2658 129.726 44.9713 128.384 44.9713C126.947 44.9713 125.663 45.3129 124.532 45.996C123.425 46.6556 122.554 47.5978 121.918 48.8227C121.305 50.0476 120.999 51.4844 120.999 53.1333C120.999 54.7587 121.305 56.1956 121.918 57.444C122.554 58.6689 123.425 59.6229 124.532 60.306C125.663 60.9656 126.947 61.2953 128.384 61.2953C129.726 61.2953 130.904 61.0009 131.917 60.412C132.953 59.7996 133.754 58.9044 134.32 57.7267H140.008C139.184 60.2471 137.735 62.214 135.662 63.6273C133.613 65.0171 131.199 65.712 128.419 65.712C126.063 65.712 123.932 65.182 122.024 64.122C120.139 63.0384 118.643 61.5427 117.536 59.6347C116.453 57.7267 115.911 55.5596 115.911 53.1333ZM150.947 44.83V51.0133H159.25V54.9353H150.947V61.472H160.31V65.5H146V40.802H160.31V44.83H150.947ZM171.519 61.578H179.645V65.5H166.572V40.8373H171.519V61.578ZM199.679 60.8007H189.856L188.231 65.5H183.037L191.905 40.802H197.665L206.533 65.5H201.304L199.679 60.8007ZM198.336 56.8433L194.767 46.526L191.199 56.8433H198.336ZM224.335 65.5L218.894 55.8893H216.562V65.5H211.615V40.8373H220.872C222.78 40.8373 224.406 41.1789 225.748 41.862C227.091 42.5216 228.092 43.4284 228.752 44.5827C229.435 45.7133 229.776 46.9853 229.776 48.3987C229.776 50.024 229.305 51.4962 228.363 52.8153C227.421 54.1109 226.019 55.006 224.158 55.5007L230.059 65.5H224.335ZM216.562 52.1793H220.696C222.038 52.1793 223.04 51.8613 223.699 51.2253C224.359 50.5658 224.688 49.6589 224.688 48.5047C224.688 47.374 224.359 46.5024 223.699 45.89C223.04 45.254 222.038 44.936 220.696 44.936H216.562V52.1793Z" fill="#F3F3F3"/>
</svg>
