<svg width="318" height="60" viewBox="0 0 318 60" fill="none" xmlns="http://www.w3.org/2000/svg">
<g filter="url(#filter0_d_155_526)">
<rect x="4" width="310" height="52" rx="11" fill="#00557B" shape-rendering="crispEdges"/>
<path d="M36.1328 26.2891H31.7852L31.7617 24.1445H35.5586C36.1992 24.1445 36.7422 24.0508 37.1875 23.8633C37.6406 23.668 37.9844 23.3906 38.2188 23.0312C38.4531 22.6641 38.5703 22.2227 38.5703 21.707C38.5703 21.1367 38.4609 20.6719 38.2422 20.3125C38.0234 19.9531 37.6875 19.6914 37.2344 19.5273C36.7891 19.3633 36.2188 19.2812 35.5234 19.2812H32.6758V34H29.7344V16.9375H35.5234C36.4609 16.9375 37.2969 17.0273 38.0312 17.207C38.7734 17.3867 39.4023 17.668 39.918 18.0508C40.4414 18.4258 40.8359 18.9023 41.1016 19.4805C41.375 20.0586 41.5117 20.7461 41.5117 21.543C41.5117 22.2461 41.3438 22.8906 41.0078 23.4766C40.6719 24.0547 40.1758 24.5273 39.5195 24.8945C38.8633 25.2617 38.0469 25.4805 37.0703 25.5508L36.1328 26.2891ZM36.0039 34H30.8594L32.1836 31.668H36.0039C36.668 31.668 37.2227 31.5586 37.668 31.3398C38.1133 31.1133 38.4453 30.8047 38.6641 30.4141C38.8906 30.0156 39.0039 29.5508 39.0039 29.0195C39.0039 28.4648 38.9062 27.9844 38.7109 27.5781C38.5156 27.1641 38.207 26.8477 37.7852 26.6289C37.3633 26.4023 36.8125 26.2891 36.1328 26.2891H32.8281L32.8516 24.1445H37.1523L37.8203 24.9531C38.7578 24.9844 39.5273 25.1914 40.1289 25.5742C40.7383 25.957 41.1914 26.4531 41.4883 27.0625C41.7852 27.6719 41.9336 28.3281 41.9336 29.0312C41.9336 30.1172 41.6953 31.0273 41.2188 31.7617C40.75 32.4961 40.0742 33.0547 39.1914 33.4375C38.3086 33.8125 37.2461 34 36.0039 34ZM52.7256 31.457V25.4102C52.7256 24.957 52.6436 24.5664 52.4795 24.2383C52.3155 23.9102 52.0655 23.6562 51.7295 23.4766C51.4014 23.2969 50.9873 23.207 50.4873 23.207C50.0264 23.207 49.628 23.2852 49.292 23.4414C48.9561 23.5977 48.6944 23.8086 48.5069 24.0742C48.3194 24.3398 48.2256 24.6406 48.2256 24.9766H45.4131C45.4131 24.4766 45.5342 23.9922 45.7764 23.5234C46.0186 23.0547 46.3702 22.6367 46.8311 22.2695C47.292 21.9023 47.8428 21.6133 48.4834 21.4023C49.1241 21.1914 49.8428 21.0859 50.6397 21.0859C51.5928 21.0859 52.4366 21.2461 53.1709 21.5664C53.9131 21.8867 54.4952 22.3711 54.917 23.0195C55.3467 23.6602 55.5616 24.4648 55.5616 25.4336V31.0703C55.5616 31.6484 55.6006 32.168 55.6787 32.6289C55.7647 33.082 55.8858 33.4766 56.042 33.8125V34H53.1475C53.0147 33.6953 52.9092 33.3086 52.8311 32.8398C52.7608 32.3633 52.7256 31.9023 52.7256 31.457ZM53.1358 26.2891L53.1592 28.0352H51.1319C50.6084 28.0352 50.1475 28.0859 49.7491 28.1875C49.3506 28.2812 49.0186 28.4219 48.753 28.6094C48.4873 28.7969 48.2881 29.0234 48.1553 29.2891C48.0225 29.5547 47.9561 29.8555 47.9561 30.1914C47.9561 30.5273 48.0342 30.8359 48.1905 31.1172C48.3467 31.3906 48.5733 31.6055 48.8702 31.7617C49.1748 31.918 49.542 31.9961 49.9717 31.9961C50.5498 31.9961 51.0537 31.8789 51.4834 31.6445C51.9209 31.4023 52.2647 31.1094 52.5147 30.7656C52.7647 30.4141 52.8975 30.082 52.9131 29.7695L53.8272 31.0234C53.7334 31.3438 53.5733 31.6875 53.3467 32.0547C53.1202 32.4219 52.8233 32.7734 52.4561 33.1094C52.0967 33.4375 51.6631 33.707 51.1553 33.918C50.6553 34.1289 50.0772 34.2344 49.4209 34.2344C48.5928 34.2344 47.8545 34.0703 47.2061 33.7422C46.5577 33.4062 46.0498 32.957 45.6827 32.3945C45.3155 31.8242 45.1319 31.1797 45.1319 30.4609C45.1319 29.7891 45.2569 29.1953 45.5069 28.6797C45.7647 28.1562 46.1397 27.7188 46.6319 27.3672C47.1319 27.0156 47.7412 26.75 48.46 26.5703C49.1787 26.3828 49.9991 26.2891 50.9209 26.2891H53.1358ZM62.4981 21.3203V34H59.6622V21.3203H62.4981ZM59.4747 17.9922C59.4747 17.5625 59.6153 17.207 59.8966 16.9258C60.1856 16.6367 60.5841 16.4922 61.0919 16.4922C61.5919 16.4922 61.9864 16.6367 62.2755 16.9258C62.5645 17.207 62.7091 17.5625 62.7091 17.9922C62.7091 18.4141 62.5645 18.7656 62.2755 19.0469C61.9864 19.3281 61.5919 19.4688 61.0919 19.4688C60.5841 19.4688 60.1856 19.3281 59.8966 19.0469C59.6153 18.7656 59.4747 18.4141 59.4747 17.9922ZM69.3878 23.7344V34H66.5636V21.3203H69.2589L69.3878 23.7344ZM73.2667 21.2383L73.2433 23.8633C73.0714 23.832 72.8839 23.8086 72.6808 23.793C72.4855 23.7773 72.2902 23.7695 72.0948 23.7695C71.6105 23.7695 71.1847 23.8398 70.8175 23.9805C70.4503 24.1133 70.1417 24.3086 69.8917 24.5664C69.6495 24.8164 69.462 25.1211 69.3292 25.4805C69.1964 25.8398 69.1183 26.2422 69.0948 26.6875L68.4503 26.7344C68.4503 25.9375 68.5284 25.1992 68.6847 24.5195C68.8409 23.8398 69.0753 23.2422 69.3878 22.7266C69.7081 22.2109 70.1066 21.8086 70.5831 21.5195C71.0675 21.2305 71.6261 21.0859 72.2589 21.0859C72.4308 21.0859 72.6144 21.1016 72.8097 21.1328C73.0128 21.1641 73.1652 21.1992 73.2667 21.2383ZM78.8322 23.7344V34H76.008V21.3203H78.7033L78.8322 23.7344ZM82.7111 21.2383L82.6877 23.8633C82.5158 23.832 82.3283 23.8086 82.1252 23.793C81.9298 23.7773 81.7345 23.7695 81.5392 23.7695C81.0548 23.7695 80.6291 23.8398 80.2619 23.9805C79.8947 24.1133 79.5861 24.3086 79.3361 24.5664C79.0939 24.8164 78.9064 25.1211 78.7736 25.4805C78.6408 25.8398 78.5627 26.2422 78.5392 26.6875L77.8947 26.7344C77.8947 25.9375 77.9728 25.1992 78.1291 24.5195C78.2853 23.8398 78.5197 23.2422 78.8322 22.7266C79.1525 22.2109 79.5509 21.8086 80.0275 21.5195C80.5119 21.2305 81.0705 21.0859 81.7033 21.0859C81.8752 21.0859 82.0588 21.1016 82.2541 21.1328C82.4572 21.1641 82.6095 21.1992 82.7111 21.2383ZM84.5969 27.8008V27.5312C84.5969 26.6172 84.7297 25.7695 84.9953 24.9883C85.2609 24.1992 85.6437 23.5156 86.1437 22.9375C86.6516 22.3516 87.2687 21.8984 87.9953 21.5781C88.7297 21.25 89.5578 21.0859 90.4797 21.0859C91.4094 21.0859 92.2375 21.25 92.9641 21.5781C93.6984 21.8984 94.3195 22.3516 94.8273 22.9375C95.3352 23.5156 95.7219 24.1992 95.9875 24.9883C96.2531 25.7695 96.3859 26.6172 96.3859 27.5312V27.8008C96.3859 28.7148 96.2531 29.5625 95.9875 30.3438C95.7219 31.125 95.3352 31.8086 94.8273 32.3945C94.3195 32.9727 93.7023 33.4258 92.9758 33.7539C92.2492 34.0742 91.425 34.2344 90.5031 34.2344C89.5734 34.2344 88.7414 34.0742 88.007 33.7539C87.2805 33.4258 86.6633 32.9727 86.1555 32.3945C85.6477 31.8086 85.2609 31.125 84.9953 30.3438C84.7297 29.5625 84.5969 28.7148 84.5969 27.8008ZM87.4211 27.5312V27.8008C87.4211 28.3711 87.4797 28.9102 87.5969 29.418C87.7141 29.9258 87.8977 30.3711 88.1477 30.7539C88.3977 31.1367 88.718 31.4375 89.1086 31.6562C89.4992 31.875 89.9641 31.9844 90.5031 31.9844C91.0266 31.9844 91.4797 31.875 91.8625 31.6562C92.2531 31.4375 92.5734 31.1367 92.8234 30.7539C93.0734 30.3711 93.257 29.9258 93.3742 29.418C93.4992 28.9102 93.5617 28.3711 93.5617 27.8008V27.5312C93.5617 26.9688 93.4992 26.4375 93.3742 25.9375C93.257 25.4297 93.0695 24.9805 92.8117 24.5898C92.5617 24.1992 92.2414 23.8945 91.8508 23.6758C91.468 23.4492 91.0109 23.3359 90.4797 23.3359C89.9484 23.3359 89.4875 23.4492 89.0969 23.6758C88.7141 23.8945 88.3977 24.1992 88.1477 24.5898C87.8977 24.9805 87.7141 25.4297 87.5969 25.9375C87.4797 26.4375 87.4211 26.9688 87.4211 27.5312Z" fill="#D2DBFF"/>
<path d="M286.29 29.29L281.7 24.7C281.608 24.6074 281.534 24.4975 281.484 24.3765C281.434 24.2556 281.408 24.1259 281.408 23.995C281.408 23.8641 281.434 23.7344 281.484 23.6135C281.534 23.4925 281.608 23.3826 281.7 23.29C281.793 23.1974 281.903 23.124 282.024 23.0739C282.145 23.0238 282.274 22.998 282.405 22.998C282.536 22.998 282.666 23.0238 282.787 23.0739C282.908 23.124 283.018 23.1974 283.11 23.29L287 27.17L290.88 23.29C290.973 23.1974 291.083 23.124 291.204 23.0739C291.325 23.0238 291.454 22.998 291.585 22.998C291.716 22.998 291.846 23.0238 291.967 23.0739C292.088 23.124 292.198 23.1974 292.29 23.29C292.383 23.3826 292.456 23.4925 292.506 23.6135C292.556 23.7344 292.582 23.8641 292.582 23.995C292.582 24.1259 292.556 24.2556 292.506 24.3765C292.456 24.4975 292.383 24.6074 292.29 24.7L287.7 29.29C287.608 29.3827 287.498 29.4563 287.377 29.5064C287.256 29.5566 287.126 29.5824 286.995 29.5824C286.864 29.5824 286.735 29.5566 286.614 29.5064C286.493 29.4563 286.383 29.3827 286.29 29.29Z" fill="#D2DBFF"/>
</g>
<path d="M4 11C4 4.92487 8.92487 0 15 0V52C8.92487 52 4 47.0751 4 41V11Z" fill="#0066CC"/>
<defs>
<filter id="filter0_d_155_526" x="0" y="0" width="318" height="60" filterUnits="userSpaceOnUse" color-interpolation-filters="sRGB">
<feFlood flood-opacity="0" result="BackgroundImageFix"/>
<feColorMatrix in="SourceAlpha" type="matrix" values="0 0 0 0 0 0 0 0 0 0 0 0 0 0 0 0 0 0 127 0" result="hardAlpha"/>
<feOffset dy="4"/>
<feGaussianBlur stdDeviation="2"/>
<feComposite in2="hardAlpha" operator="out"/>
<feColorMatrix type="matrix" values="0 0 0 0 0 0 0 0 0 0 0 0 0 0 0 0 0 0 0.25 0"/>
<feBlend mode="normal" in2="BackgroundImageFix" result="effect1_dropShadow_155_526"/>
<feBlend mode="normal" in="SourceGraphic" in2="effect1_dropShadow_155_526" result="shape"/>
</filter>
</defs>
</svg>
