<svg width="264" height="106" viewBox="0 0 264 106" fill="none" xmlns="http://www.w3.org/2000/svg">
<rect x="0.958008" width="262.792" height="106" rx="17.6667" fill="#03B349"/>
<path d="M20.6443 53.1333C20.6443 50.7071 21.1861 48.54 22.2696 46.632C23.3767 44.7004 24.8725 43.2047 26.757 42.1447C28.665 41.0611 30.7967 40.5193 33.1523 40.5193C35.9083 40.5193 38.3227 41.226 40.3956 42.6393C42.4685 44.0527 43.9172 46.0078 44.7416 48.5047H39.053C38.4876 47.3269 37.6867 46.4436 36.6503 45.8547C35.6374 45.2658 34.4596 44.9713 33.117 44.9713C31.6801 44.9713 30.3963 45.3129 29.2656 45.996C28.1585 46.6556 27.287 47.5978 26.651 48.8227C26.0385 50.0476 25.7323 51.4844 25.7323 53.1333C25.7323 54.7587 26.0385 56.1956 26.651 57.444C27.287 58.6689 28.1585 59.6229 29.2656 60.306C30.3963 60.9656 31.6801 61.2953 33.117 61.2953C34.4596 61.2953 35.6374 61.0009 36.6503 60.412C37.6867 59.7996 38.4876 58.9044 39.053 57.7267H44.7416C43.9172 60.2471 42.4685 62.214 40.3956 63.6273C38.3463 65.0171 35.9318 65.712 33.1523 65.712C30.7967 65.712 28.665 65.182 26.757 64.122C24.8725 63.0384 23.3767 61.5427 22.2696 59.6347C21.1861 57.7267 20.6443 55.5596 20.6443 53.1333ZM62.1814 65.7473C59.8729 65.7473 57.7529 65.2056 55.8214 64.122C53.8898 63.0384 52.3587 61.5427 51.228 59.6347C50.0974 57.7031 49.532 55.5242 49.532 53.098C49.532 50.6953 50.0974 48.54 51.228 46.632C52.3587 44.7004 53.8898 43.1929 55.8214 42.1093C57.7529 41.0258 59.8729 40.484 62.1814 40.484C64.5134 40.484 66.6334 41.0258 68.5414 42.1093C70.4729 43.1929 71.9923 44.7004 73.0994 46.632C74.23 48.54 74.7954 50.6953 74.7954 53.098C74.7954 55.5242 74.23 57.7031 73.0994 59.6347C71.9923 61.5427 70.4729 63.0384 68.5414 64.122C66.6098 65.2056 64.4898 65.7473 62.1814 65.7473ZM62.1814 61.3307C63.6654 61.3307 64.9727 61.0009 66.1034 60.3413C67.234 59.6582 68.1174 58.6924 68.7534 57.444C69.3894 56.1956 69.7074 54.7469 69.7074 53.098C69.7074 51.4491 69.3894 50.0122 68.7534 48.7873C68.1174 47.5389 67.234 46.5849 66.1034 45.9253C64.9727 45.2658 63.6654 44.936 62.1814 44.936C60.6974 44.936 59.3783 45.2658 58.224 45.9253C57.0934 46.5849 56.21 47.5389 55.574 48.7873C54.938 50.0122 54.62 51.4491 54.62 53.098C54.62 54.7469 54.938 56.1956 55.574 57.444C56.21 58.6924 57.0934 59.6582 58.224 60.3413C59.3783 61.0009 60.6974 61.3307 62.1814 61.3307ZM101.336 65.5H96.3896L85.1889 48.5753V65.5H80.2422V40.802H85.1889L96.3896 57.762V40.802H101.336V65.5ZM123.22 40.8373V44.83H112.938V51.1547H120.817V55.0767H112.938V65.5H107.991V40.8373H123.22ZM133.441 40.8373V65.5H128.494V40.8373H133.441ZM152.815 65.5L147.374 55.8893H145.042V65.5H140.095V40.8373H149.352C151.26 40.8373 152.886 41.1789 154.228 41.862C155.571 42.5216 156.572 43.4284 157.232 44.5827C157.915 45.7133 158.256 46.9853 158.256 48.3987C158.256 50.024 157.785 51.4962 156.843 52.8153C155.901 54.1109 154.499 55.006 152.638 55.5007L158.539 65.5H152.815ZM145.042 52.1793H149.176C150.518 52.1793 151.519 51.8613 152.179 51.2253C152.839 50.5658 153.168 49.6589 153.168 48.5047C153.168 47.374 152.839 46.5024 152.179 45.89C151.519 45.254 150.518 44.936 149.176 44.936H145.042V52.1793ZM191.386 40.8373V65.5H186.439V49.4587L179.832 65.5H176.086L169.444 49.4587V65.5H164.497V40.8373H170.115L177.959 59.1753L185.803 40.8373H191.386ZM213.166 60.8007H203.343L201.718 65.5H196.524L205.392 40.802H211.152L220.02 65.5H214.791L213.166 60.8007ZM211.823 56.8433L208.254 46.526L204.686 56.8433H211.823ZM237.822 65.5L232.381 55.8893H230.049V65.5H225.102V40.8373H234.359C236.267 40.8373 237.893 41.1789 239.235 41.862C240.578 42.5216 241.579 43.4284 242.239 44.5827C242.922 45.7133 243.263 46.9853 243.263 48.3987C243.263 50.024 242.792 51.4962 241.85 52.8153C240.908 54.1109 239.506 55.006 237.645 55.5007L243.546 65.5H237.822ZM230.049 52.1793H234.183C235.525 52.1793 236.526 51.8613 237.186 51.2253C237.846 50.5658 238.175 49.6589 238.175 48.5047C238.175 47.374 237.846 46.5024 237.186 45.89C236.526 45.254 235.525 44.936 234.183 44.936H230.049V52.1793Z" fill="#F3F3F3"/>
</svg>
