<svg width="112" height="58" viewBox="0 0 112 58" fill="none" xmlns="http://www.w3.org/2000/svg">
<path d="M28.2668 20.248V37H24.9068V20.248H28.2668ZM51.0505 20.248V37H47.6905V26.104L43.2025 37H40.6585L36.1465 26.104V37H32.7865V20.248H36.6025L41.9305 32.704L47.2585 20.248H51.0505ZM65.8444 33.808H59.1724L58.0684 37H54.5404L60.5644 20.224H64.4764L70.5004 37H66.9484L65.8444 33.808ZM64.9324 31.12L62.5084 24.112L60.0844 31.12H64.9324ZM83.9841 37L80.3601 31.36L77.0721 37H73.2801L78.5601 28.552L73.2081 20.248H77.0721L80.6961 25.864L83.9601 20.248H87.7521L82.4961 28.672L87.8481 37H83.9841Z" fill="#0066CC"/>
<rect x="1.5" y="1.5" width="109" height="55" rx="27.5" stroke="#0066CC" stroke-width="3"/>
</svg>
