<svg width="106" height="36" viewBox="0 0 106 36" fill="none" xmlns="http://www.w3.org/2000/svg">
<rect width="106" height="36" rx="4" fill="#D48C29"/>
<path d="M25.2668 9.248V26H21.9068V9.248H25.2668ZM48.0505 9.248V26H44.6905V15.104L40.2025 26H37.6585L33.1465 15.104V26H29.7865V9.248H33.6025L38.9305 21.704L44.2585 9.248H48.0505ZM62.8444 22.808H56.1724L55.0684 26H51.5404L57.5644 9.224H61.4764L67.5004 26H63.9484L62.8444 22.808ZM61.9324 20.12L59.5084 13.112L57.0844 20.12H61.9324ZM80.9841 26L77.3601 20.36L74.0721 26H70.2801L75.5601 17.552L70.2081 9.248H74.0721L77.6961 14.864L80.9601 9.248H84.7521L79.4961 17.672L84.8481 26H80.9841Z" fill="#141414"/>
</svg>
