<svg width="111" height="58" viewBox="0 0 111 58" fill="none" xmlns="http://www.w3.org/2000/svg">
<path d="M40.4348 24.112C40.5148 22.512 41.0748 21.28 42.1148 20.416C43.1708 19.536 44.5548 19.096 46.2668 19.096C47.4348 19.096 48.4348 19.304 49.2668 19.72C50.0988 20.12 50.7228 20.672 51.1388 21.376C51.5708 22.064 51.7868 22.848 51.7868 23.728C51.7868 24.736 51.5228 25.592 50.9948 26.296C50.4828 26.984 49.8668 27.448 49.1468 27.688V27.784C50.0748 28.072 50.7948 28.584 51.3068 29.32C51.8348 30.056 52.0988 31 52.0988 32.152C52.0988 33.112 51.8748 33.968 51.4268 34.72C50.9948 35.472 50.3468 36.064 49.4828 36.496C48.6348 36.912 47.6108 37.12 46.4108 37.12C44.6028 37.12 43.1308 36.664 41.9948 35.752C40.8588 34.84 40.2588 33.496 40.1948 31.72H43.4588C43.4908 32.504 43.7548 33.136 44.2508 33.616C44.7628 34.08 45.4588 34.312 46.3388 34.312C47.1548 34.312 47.7788 34.088 48.2108 33.64C48.6588 33.176 48.8828 32.584 48.8828 31.864C48.8828 30.904 48.5788 30.216 47.9708 29.8C47.3628 29.384 46.4188 29.176 45.1388 29.176H44.4428V26.416H45.1388C47.4108 26.416 48.5468 25.656 48.5468 24.136C48.5468 23.448 48.3388 22.912 47.9228 22.528C47.5228 22.144 46.9388 21.952 46.1708 21.952C45.4188 21.952 44.8348 22.16 44.4188 22.576C44.0188 22.976 43.7868 23.488 43.7228 24.112H40.4348ZM62.194 20.248C63.954 20.248 65.498 20.592 66.826 21.28C68.17 21.968 69.202 22.952 69.922 24.232C70.658 25.496 71.026 26.968 71.026 28.648C71.026 30.328 70.658 31.8 69.922 33.064C69.202 34.312 68.17 35.28 66.826 35.968C65.498 36.656 63.954 37 62.194 37H56.338V20.248H62.194ZM62.074 34.144C63.834 34.144 65.194 33.664 66.154 32.704C67.114 31.744 67.594 30.392 67.594 28.648C67.594 26.904 67.114 25.544 66.154 24.568C65.194 23.576 63.834 23.08 62.074 23.08H59.698V34.144H62.074Z" fill="#0066CC"/>
<rect x="1.5" y="1.5" width="108" height="55" rx="27.5" stroke="#0066CC" stroke-width="3"/>
</svg>
