<svg width="111" height="58" viewBox="0 0 111 58" fill="none" xmlns="http://www.w3.org/2000/svg">
<path d="M41.1358 33.208C42.6718 31.928 43.8958 30.864 44.8078 30.016C45.7198 29.152 46.4798 28.256 47.0878 27.328C47.6958 26.4 47.9998 25.488 47.9998 24.592C47.9998 23.776 47.8078 23.136 47.4238 22.672C47.0398 22.208 46.4478 21.976 45.6478 21.976C44.8478 21.976 44.2318 22.248 43.7998 22.792C43.3678 23.32 43.1438 24.048 43.1278 24.976H39.8638C39.9278 23.056 40.4958 21.6 41.5678 20.608C42.6558 19.616 44.0318 19.12 45.6958 19.12C47.5198 19.12 48.9198 19.608 49.8958 20.584C50.8718 21.544 51.3598 22.816 51.3598 24.4C51.3598 25.648 51.0238 26.84 50.3518 27.976C49.6798 29.112 48.9118 30.104 48.0478 30.952C47.1838 31.784 46.0558 32.792 44.6638 33.976H51.7438V36.76H39.8878V34.264L41.1358 33.208ZM61.3011 20.248C63.0611 20.248 64.6051 20.592 65.9331 21.28C67.2771 21.968 68.3091 22.952 69.0291 24.232C69.7651 25.496 70.1331 26.968 70.1331 28.648C70.1331 30.328 69.7651 31.8 69.0291 33.064C68.3091 34.312 67.2771 35.28 65.9331 35.968C64.6051 36.656 63.0611 37 61.3011 37H55.4451V20.248H61.3011ZM61.1811 34.144C62.9411 34.144 64.3011 33.664 65.2611 32.704C66.2211 31.744 66.7011 30.392 66.7011 28.648C66.7011 26.904 66.2211 25.544 65.2611 24.568C64.3011 23.576 62.9411 23.08 61.1811 23.08H58.8051V34.144H61.1811Z" fill="#0066CC"/>
<rect x="1.5" y="1.5" width="108" height="55" rx="27.5" stroke="#0066CC" stroke-width="3"/>
</svg>
