<svg width="80" height="36" viewBox="0 0 80 36" fill="none" xmlns="http://www.w3.org/2000/svg">
<rect width="80" height="36" rx="4" fill="#D48C29"/>
<path d="M24.3348 13.112C24.4148 11.512 24.9748 10.28 26.0148 9.416C27.0708 8.536 28.4548 8.096 30.1668 8.096C31.3348 8.096 32.3348 8.304 33.1668 8.72C33.9988 9.12 34.6228 9.672 35.0388 10.376C35.4708 11.064 35.6868 11.848 35.6868 12.728C35.6868 13.736 35.4228 14.592 34.8948 15.296C34.3828 15.984 33.7668 16.448 33.0468 16.688V16.784C33.9748 17.072 34.6948 17.584 35.2068 18.32C35.7348 19.056 35.9988 20 35.9988 21.152C35.9988 22.112 35.7748 22.968 35.3268 23.72C34.8948 24.472 34.2468 25.064 33.3828 25.496C32.5348 25.912 31.5108 26.12 30.3108 26.12C28.5028 26.12 27.0308 25.664 25.8948 24.752C24.7588 23.84 24.1588 22.496 24.0948 20.72H27.3588C27.3908 21.504 27.6548 22.136 28.1508 22.616C28.6628 23.08 29.3588 23.312 30.2388 23.312C31.0548 23.312 31.6788 23.088 32.1108 22.64C32.5588 22.176 32.7828 21.584 32.7828 20.864C32.7828 19.904 32.4788 19.216 31.8708 18.8C31.2628 18.384 30.3188 18.176 29.0388 18.176H28.3428V15.416H29.0388C31.3108 15.416 32.4468 14.656 32.4468 13.136C32.4468 12.448 32.2388 11.912 31.8228 11.528C31.4228 11.144 30.8388 10.952 30.0708 10.952C29.3188 10.952 28.7348 11.16 28.3188 11.576C27.9188 11.976 27.6868 12.488 27.6228 13.112H24.3348ZM46.094 9.248C47.854 9.248 49.398 9.592 50.726 10.28C52.07 10.968 53.102 11.952 53.822 13.232C54.558 14.496 54.926 15.968 54.926 17.648C54.926 19.328 54.558 20.8 53.822 22.064C53.102 23.312 52.07 24.28 50.726 24.968C49.398 25.656 47.854 26 46.094 26H40.238V9.248H46.094ZM45.974 23.144C47.734 23.144 49.094 22.664 50.054 21.704C51.014 20.744 51.494 19.392 51.494 17.648C51.494 15.904 51.014 14.544 50.054 13.568C49.094 12.576 47.734 12.08 45.974 12.08H43.598V23.144H45.974Z" fill="#141414"/>
</svg>
