<svg width="80" height="36" viewBox="0 0 80 36" fill="none" xmlns="http://www.w3.org/2000/svg">
<rect width="80" height="36" rx="4" fill="#D48C29"/>
<path d="M25.6358 22.208C27.1718 20.928 28.3958 19.864 29.3078 19.016C30.2198 18.152 30.9798 17.256 31.5878 16.328C32.1958 15.4 32.4998 14.488 32.4998 13.592C32.4998 12.776 32.3078 12.136 31.9238 11.672C31.5398 11.208 30.9478 10.976 30.1478 10.976C29.3478 10.976 28.7318 11.248 28.2998 11.792C27.8678 12.32 27.6438 13.048 27.6278 13.976H24.3638C24.4278 12.056 24.9958 10.6 26.0678 9.608C27.1558 8.616 28.5318 8.12 30.1958 8.12C32.0198 8.12 33.4198 8.608 34.3958 9.584C35.3718 10.544 35.8598 11.816 35.8598 13.4C35.8598 14.648 35.5238 15.84 34.8518 16.976C34.1798 18.112 33.4118 19.104 32.5478 19.952C31.6838 20.784 30.5558 21.792 29.1638 22.976H36.2438V25.76H24.3878V23.264L25.6358 22.208ZM45.8011 9.248C47.5611 9.248 49.1051 9.592 50.4331 10.28C51.7771 10.968 52.8091 11.952 53.5291 13.232C54.2651 14.496 54.6331 15.968 54.6331 17.648C54.6331 19.328 54.2651 20.8 53.5291 22.064C52.8091 23.312 51.7771 24.28 50.4331 24.968C49.1051 25.656 47.5611 26 45.8011 26H39.9451V9.248H45.8011ZM45.6811 23.144C47.4411 23.144 48.8011 22.664 49.7611 21.704C50.7211 20.744 51.2011 19.392 51.2011 17.648C51.2011 15.904 50.7211 14.544 49.7611 13.568C48.8011 12.576 47.4411 12.08 45.6811 12.08H43.3051V23.144H45.6811Z" fill="#141414"/>
</svg>
