<svg width="318" height="60" viewBox="0 0 318 60" fill="none" xmlns="http://www.w3.org/2000/svg">
<g filter="url(#filter0_d_155_532)">
<rect x="4" width="310" height="52" rx="11" fill="#00557B" shape-rendering="crispEdges"/>
<path d="M39.8125 28.4453H42.7422C42.6484 29.5625 42.3359 30.5586 41.8047 31.4336C41.2734 32.3008 40.5273 32.9844 39.5664 33.4844C38.6055 33.9844 37.4375 34.2344 36.0625 34.2344C35.0078 34.2344 34.0586 34.0469 33.2148 33.6719C32.3711 33.2891 31.6484 32.75 31.0469 32.0547C30.4453 31.3516 29.9844 30.5039 29.6641 29.5117C29.3516 28.5195 29.1953 27.4102 29.1953 26.1836V24.7656C29.1953 23.5391 29.3555 22.4297 29.6758 21.4375C30.0039 20.4453 30.4727 19.5977 31.082 18.8945C31.6914 18.1836 32.4219 17.6406 33.2734 17.2656C34.1328 16.8906 35.0977 16.7031 36.168 16.7031C37.5273 16.7031 38.6758 16.9531 39.6133 17.4531C40.5508 17.9531 41.2773 18.6445 41.793 19.5273C42.3164 20.4102 42.6367 21.4219 42.7539 22.5625H39.8242C39.7461 21.8281 39.5742 21.1992 39.3086 20.6758C39.0508 20.1523 38.668 19.7539 38.1602 19.4805C37.6523 19.1992 36.9883 19.0586 36.168 19.0586C35.4961 19.0586 34.9102 19.1836 34.4102 19.4336C33.9102 19.6836 33.4922 20.0508 33.1562 20.5352C32.8203 21.0195 32.5664 21.6172 32.3945 22.3281C32.2305 23.0312 32.1484 23.8359 32.1484 24.7422V26.1836C32.1484 27.043 32.2227 27.8242 32.3711 28.5273C32.5273 29.2227 32.7617 29.8203 33.0742 30.3203C33.3945 30.8203 33.8008 31.207 34.293 31.4805C34.7852 31.7539 35.375 31.8906 36.0625 31.8906C36.8984 31.8906 37.5742 31.7578 38.0898 31.4922C38.6133 31.2266 39.0078 30.8398 39.2734 30.332C39.5469 29.8164 39.7266 29.1875 39.8125 28.4453ZM49.1162 21.3203V34H46.2803V21.3203H49.1162ZM46.0928 17.9922C46.0928 17.5625 46.2334 17.207 46.5147 16.9258C46.8037 16.6367 47.2022 16.4922 47.71 16.4922C48.21 16.4922 48.6045 16.6367 48.8936 16.9258C49.1827 17.207 49.3272 17.5625 49.3272 17.9922C49.3272 18.4141 49.1827 18.7656 48.8936 19.0469C48.6045 19.3281 48.21 19.4688 47.71 19.4688C47.2022 19.4688 46.8037 19.3281 46.5147 19.0469C46.2334 18.7656 46.0928 18.4141 46.0928 17.9922ZM60.9044 31.375V16H63.7403V34H61.1739L60.9044 31.375ZM52.6544 27.8008V27.5547C52.6544 26.5938 52.7677 25.7188 52.9942 24.9297C53.2208 24.1328 53.5489 23.4492 53.9786 22.8789C54.4083 22.3008 54.9317 21.8594 55.5489 21.5547C56.1661 21.2422 56.8614 21.0859 57.6348 21.0859C58.4005 21.0859 59.0723 21.2344 59.6505 21.5312C60.2286 21.8281 60.7208 22.2539 61.127 22.8086C61.5333 23.3555 61.8575 24.0117 62.0997 24.7773C62.3419 25.5352 62.5138 26.3789 62.6153 27.3086V28.0938C62.5138 29 62.3419 29.8281 62.0997 30.5781C61.8575 31.3281 61.5333 31.9766 61.127 32.5234C60.7208 33.0703 60.2247 33.4922 59.6388 33.7891C59.0606 34.0859 58.3848 34.2344 57.6114 34.2344C56.8458 34.2344 56.1544 34.0742 55.5372 33.7539C54.9278 33.4336 54.4083 32.9844 53.9786 32.4062C53.5489 31.8281 53.2208 31.1484 52.9942 30.3672C52.7677 29.5781 52.6544 28.7227 52.6544 27.8008ZM55.4786 27.5547V27.8008C55.4786 28.3789 55.5294 28.918 55.6309 29.418C55.7403 29.918 55.9083 30.3594 56.1348 30.7422C56.3614 31.1172 56.6544 31.4141 57.0138 31.6328C57.3809 31.8438 57.8184 31.9492 58.3263 31.9492C58.9669 31.9492 59.4942 31.8086 59.9083 31.5273C60.3223 31.2461 60.6466 30.8672 60.8809 30.3906C61.1231 29.9062 61.2872 29.3672 61.3731 28.7734V26.6523C61.3263 26.1914 61.2286 25.7617 61.0802 25.3633C60.9395 24.9648 60.7481 24.6172 60.5059 24.3203C60.2638 24.0156 59.963 23.7812 59.6036 23.6172C59.252 23.4453 58.8341 23.3594 58.3497 23.3594C57.8341 23.3594 57.3966 23.4688 57.0372 23.6875C56.6778 23.9062 56.3809 24.207 56.1466 24.5898C55.92 24.9727 55.752 25.418 55.6427 25.9258C55.5333 26.4336 55.4786 26.9766 55.4786 27.5547ZM74.8019 31.457V25.4102C74.8019 24.957 74.7198 24.5664 74.5558 24.2383C74.3917 23.9102 74.1417 23.6562 73.8058 23.4766C73.4777 23.2969 73.0636 23.207 72.5636 23.207C72.1027 23.207 71.7042 23.2852 71.3683 23.4414C71.0323 23.5977 70.7706 23.8086 70.5831 24.0742C70.3956 24.3398 70.3019 24.6406 70.3019 24.9766H67.4894C67.4894 24.4766 67.6105 23.9922 67.8527 23.5234C68.0948 23.0547 68.4464 22.6367 68.9073 22.2695C69.3683 21.9023 69.9191 21.6133 70.5597 21.4023C71.2003 21.1914 71.9191 21.0859 72.7159 21.0859C73.6691 21.0859 74.5128 21.2461 75.2472 21.5664C75.9894 21.8867 76.5714 22.3711 76.9933 23.0195C77.423 23.6602 77.6378 24.4648 77.6378 25.4336V31.0703C77.6378 31.6484 77.6769 32.168 77.755 32.6289C77.8409 33.082 77.962 33.4766 78.1183 33.8125V34H75.2238C75.0909 33.6953 74.9855 33.3086 74.9073 32.8398C74.837 32.3633 74.8019 31.9023 74.8019 31.457ZM75.212 26.2891L75.2355 28.0352H73.2081C72.6847 28.0352 72.2238 28.0859 71.8253 28.1875C71.4269 28.2812 71.0948 28.4219 70.8292 28.6094C70.5636 28.7969 70.3644 29.0234 70.2316 29.2891C70.0988 29.5547 70.0323 29.8555 70.0323 30.1914C70.0323 30.5273 70.1105 30.8359 70.2667 31.1172C70.423 31.3906 70.6495 31.6055 70.9464 31.7617C71.2511 31.918 71.6183 31.9961 72.048 31.9961C72.6261 31.9961 73.13 31.8789 73.5597 31.6445C73.9972 31.4023 74.3409 31.1094 74.5909 30.7656C74.8409 30.4141 74.9738 30.082 74.9894 29.7695L75.9034 31.0234C75.8097 31.3438 75.6495 31.6875 75.423 32.0547C75.1964 32.4219 74.8995 32.7734 74.5323 33.1094C74.173 33.4375 73.7394 33.707 73.2316 33.918C72.7316 34.1289 72.1534 34.2344 71.4972 34.2344C70.6691 34.2344 69.9308 34.0703 69.2823 33.7422C68.6339 33.4062 68.1261 32.957 67.7589 32.3945C67.3917 31.8242 67.2081 31.1797 67.2081 30.4609C67.2081 29.7891 67.3331 29.1953 67.5831 28.6797C67.8409 28.1562 68.2159 27.7188 68.7081 27.3672C69.2081 27.0156 69.8175 26.75 70.5363 26.5703C71.255 26.3828 72.0753 26.2891 72.9972 26.2891H75.212ZM89.2853 31.375V16H92.1213V34H89.5548L89.2853 31.375ZM81.0353 27.8008V27.5547C81.0353 26.5938 81.1486 25.7188 81.3752 24.9297C81.6017 24.1328 81.9298 23.4492 82.3595 22.8789C82.7892 22.3008 83.3127 21.8594 83.9298 21.5547C84.547 21.2422 85.2423 21.0859 86.0158 21.0859C86.7814 21.0859 87.4533 21.2344 88.0314 21.5312C88.6095 21.8281 89.1017 22.2539 89.508 22.8086C89.9142 23.3555 90.2384 24.0117 90.4806 24.7773C90.7228 25.5352 90.8947 26.3789 90.9963 27.3086V28.0938C90.8947 29 90.7228 29.8281 90.4806 30.5781C90.2384 31.3281 89.9142 31.9766 89.508 32.5234C89.1017 33.0703 88.6056 33.4922 88.0197 33.7891C87.4416 34.0859 86.7658 34.2344 85.9923 34.2344C85.2267 34.2344 84.5353 34.0742 83.9181 33.7539C83.3088 33.4336 82.7892 32.9844 82.3595 32.4062C81.9298 31.8281 81.6017 31.1484 81.3752 30.3672C81.1486 29.5781 81.0353 28.7227 81.0353 27.8008ZM83.8595 27.5547V27.8008C83.8595 28.3789 83.9103 28.918 84.0119 29.418C84.1213 29.918 84.2892 30.3594 84.5158 30.7422C84.7423 31.1172 85.0353 31.4141 85.3947 31.6328C85.7619 31.8438 86.1994 31.9492 86.7072 31.9492C87.3478 31.9492 87.8752 31.8086 88.2892 31.5273C88.7033 31.2461 89.0275 30.8672 89.2619 30.3906C89.5041 29.9062 89.6681 29.3672 89.7541 28.7734V26.6523C89.7072 26.1914 89.6095 25.7617 89.4611 25.3633C89.3205 24.9648 89.1291 24.6172 88.8869 24.3203C88.6447 24.0156 88.3439 23.7812 87.9845 23.6172C87.633 23.4453 87.215 23.3594 86.7306 23.3594C86.215 23.3594 85.7775 23.4688 85.4181 23.6875C85.0588 23.9062 84.7619 24.207 84.5275 24.5898C84.3009 24.9727 84.133 25.418 84.0236 25.9258C83.9142 26.4336 83.8595 26.9766 83.8595 27.5547ZM101.624 34.2344C100.687 34.2344 99.8391 34.082 99.0813 33.7773C98.3313 33.4648 97.6906 33.0312 97.1594 32.4766C96.6359 31.9219 96.2336 31.2695 95.9523 30.5195C95.6711 29.7695 95.5305 28.9609 95.5305 28.0938V27.625C95.5305 26.6328 95.675 25.7344 95.9641 24.9297C96.2531 24.125 96.6555 23.4375 97.1711 22.8672C97.6867 22.2891 98.2961 21.8477 98.9992 21.543C99.7023 21.2383 100.464 21.0859 101.284 21.0859C102.191 21.0859 102.984 21.2383 103.663 21.543C104.343 21.8477 104.905 22.2773 105.351 22.832C105.804 23.3789 106.14 24.0312 106.359 24.7891C106.585 25.5469 106.698 26.3828 106.698 27.2969V28.5039H96.9016V26.4766H103.909V26.2539C103.894 25.7461 103.792 25.2695 103.605 24.8242C103.425 24.3789 103.148 24.0195 102.773 23.7461C102.398 23.4727 101.898 23.3359 101.273 23.3359C100.804 23.3359 100.386 23.4375 100.019 23.6406C99.6594 23.8359 99.3586 24.1211 99.1164 24.4961C98.8742 24.8711 98.6867 25.3242 98.5539 25.8555C98.4289 26.3789 98.3664 26.9688 98.3664 27.625V28.0938C98.3664 28.6484 98.4406 29.1641 98.5891 29.6406C98.7453 30.1094 98.9719 30.5195 99.2688 30.8711C99.5656 31.2227 99.925 31.5 100.347 31.7031C100.769 31.8984 101.249 31.9961 101.788 31.9961C102.468 31.9961 103.073 31.8594 103.605 31.5859C104.136 31.3125 104.597 30.9258 104.988 30.4258L106.476 31.8672C106.202 32.2656 105.847 32.6484 105.409 33.0156C104.972 33.375 104.437 33.668 103.804 33.8945C103.179 34.1211 102.452 34.2344 101.624 34.2344Z" fill="#D2DBFF"/>
<path d="M286.29 29.29L281.7 24.7C281.608 24.6074 281.534 24.4975 281.484 24.3765C281.434 24.2556 281.408 24.1259 281.408 23.995C281.408 23.8641 281.434 23.7344 281.484 23.6135C281.534 23.4925 281.608 23.3826 281.7 23.29C281.793 23.1974 281.903 23.124 282.024 23.0739C282.145 23.0238 282.274 22.998 282.405 22.998C282.536 22.998 282.666 23.0238 282.787 23.0739C282.908 23.124 283.018 23.1974 283.11 23.29L287 27.17L290.88 23.29C290.973 23.1974 291.083 23.124 291.204 23.0739C291.325 23.0238 291.454 22.998 291.585 22.998C291.716 22.998 291.846 23.0238 291.967 23.0739C292.088 23.124 292.198 23.1974 292.29 23.29C292.383 23.3826 292.456 23.4925 292.506 23.6135C292.556 23.7344 292.582 23.8641 292.582 23.995C292.582 24.1259 292.556 24.2556 292.506 24.3765C292.456 24.4975 292.383 24.6074 292.29 24.7L287.7 29.29C287.608 29.3827 287.498 29.4563 287.377 29.5064C287.256 29.5566 287.126 29.5824 286.995 29.5824C286.864 29.5824 286.735 29.5566 286.614 29.5064C286.493 29.4563 286.383 29.3827 286.29 29.29Z" fill="#D2DBFF"/>
</g>
<path d="M4 11C4 4.92487 8.92487 0 15 0V52C8.92487 52 4 47.0751 4 41V11Z" fill="#0066CC"/>
<defs>
<filter id="filter0_d_155_532" x="0" y="0" width="318" height="60" filterUnits="userSpaceOnUse" color-interpolation-filters="sRGB">
<feFlood flood-opacity="0" result="BackgroundImageFix"/>
<feColorMatrix in="SourceAlpha" type="matrix" values="0 0 0 0 0 0 0 0 0 0 0 0 0 0 0 0 0 0 127 0" result="hardAlpha"/>
<feOffset dy="4"/>
<feGaussianBlur stdDeviation="2"/>
<feComposite in2="hardAlpha" operator="out"/>
<feColorMatrix type="matrix" values="0 0 0 0 0 0 0 0 0 0 0 0 0 0 0 0 0 0 0.25 0"/>
<feBlend mode="normal" in2="BackgroundImageFix" result="effect1_dropShadow_155_532"/>
<feBlend mode="normal" in="SourceGraphic" in2="effect1_dropShadow_155_532" result="shape"/>
</filter>
</defs>
</svg>
