<svg width="50" height="50" viewBox="0 0 50 50" fill="none" xmlns="http://www.w3.org/2000/svg">
<rect width="50" height="50" rx="6.66667" fill="#FBC115"/>
<path d="M19.499 17.0852V31.3332H16.6865V20.3274L13.3076 21.4016V19.1848L19.1963 17.0852H19.499ZM34.8545 29.136V31.3332H25.1279V29.4582L29.7275 24.5266C30.1898 24.0123 30.5544 23.5598 30.8213 23.1692C31.0882 22.772 31.2803 22.4172 31.3975 22.1047C31.5212 21.7857 31.583 21.483 31.583 21.1965C31.583 20.7668 31.5114 20.399 31.3682 20.093C31.2249 19.7805 31.0133 19.5396 30.7334 19.3703C30.46 19.2011 30.1214 19.1164 29.7178 19.1164C29.2881 19.1164 28.917 19.2206 28.6045 19.4289C28.2985 19.6373 28.0641 19.927 27.9014 20.2981C27.7451 20.6692 27.667 21.0891 27.667 21.5578H24.8447C24.8447 20.7115 25.0465 19.9367 25.4502 19.2336C25.8538 18.524 26.4235 17.9608 27.1592 17.5442C27.8949 17.121 28.7673 16.9094 29.7764 16.9094C30.7725 16.9094 31.6123 17.0722 32.2959 17.3977C32.986 17.7167 33.5068 18.1789 33.8584 18.7844C34.2165 19.3834 34.3955 20.0995 34.3955 20.9328C34.3955 21.4016 34.3206 21.8606 34.1709 22.3098C34.0212 22.7525 33.8063 23.1952 33.5264 23.6379C33.2529 24.0741 32.9209 24.5168 32.5303 24.966C32.1396 25.4153 31.7067 25.8807 31.2314 26.3625L28.7607 29.136H34.8545Z" fill="white"/>
</svg>
