<svg width="108" height="131" viewBox="0 0 108 131" fill="none" xmlns="http://www.w3.org/2000/svg">
<path d="M43.317 89.9933C42.0044 90.3215 41.0199 90.6496 40.0354 91.306C38.7228 89.337 37.7384 87.0399 36.4257 85.3991C34.1286 82.1174 31.5033 79.164 29.2061 75.8824C25.5964 70.96 22.6429 66.0376 21.3303 59.8025C18.3769 44.3789 26.909 29.2835 41.6762 23.3766C61.0377 15.5007 83.3527 28.6272 86.3062 49.3013C87.6188 58.818 84.6653 66.6939 79.4147 74.2416C77.1176 77.5232 74.1642 80.8048 71.8671 84.4146C70.2263 86.7117 69.2418 89.0088 67.601 91.306C66.9447 92.2904 66.2883 93.2749 65.3039 93.6031C57.7562 96.5565 50.2085 99.1818 42.6608 101.807C41.6763 102.135 41.0199 101.807 40.6918 101.151C40.3636 100.166 40.3637 99.1818 41.3481 98.8537C42.0045 98.5255 42.6607 98.1973 43.317 98.1973C49.8803 95.9002 56.4435 93.6031 63.0067 90.9778C63.663 90.6496 64.3193 89.9933 64.6475 89.337C67.2728 84.4146 70.5545 80.4766 73.8361 75.8824C77.1177 71.6163 80.0711 67.6784 81.3837 62.4278C84.6653 51.9266 82.3682 42.7381 75.1487 34.8622C66.9447 25.6737 56.4436 22.7203 44.6298 26.3301C32.816 29.9398 26.2527 38.1439 23.9556 50.2858C22.3147 58.818 25.2682 66.0376 30.1906 72.6008C33.144 76.5387 36.0975 80.4766 39.051 84.4146C41.0199 85.7272 42.0044 87.6962 43.317 89.9933Z" fill="#0066CC"/>
<path d="M41.6763 122.481C41.3482 122.153 40.6919 121.825 40.6919 121.169C40.6919 120.512 41.0201 119.856 41.3483 119.2C41.3483 118.871 42.0045 118.871 42.3327 118.871C49.5522 116.246 57.1 113.621 64.3195 110.996C65.9603 110.339 66.6166 110.667 66.9448 111.652C67.2729 112.636 66.6166 113.621 65.304 114.277C57.7563 116.902 50.5368 119.528 42.9891 122.481C42.6609 122.153 42.3327 122.153 41.6763 122.481Z" fill="#0066CC"/>
<path d="M41.6763 111.652C41.3482 111.324 40.6919 110.996 40.6919 110.34C40.6919 109.683 41.0201 109.027 41.3483 108.371C41.3483 108.043 42.0045 108.043 42.3327 108.043C49.5522 105.417 57.1 102.792 64.3195 100.167C65.9603 99.5103 66.6166 99.8385 66.9448 100.823C67.2729 101.807 66.9448 102.792 65.304 103.448C57.7563 106.074 50.5368 109.027 42.9891 111.652C42.6609 111.652 42.3327 111.652 41.6763 111.652Z" fill="#0066CC"/>
<path d="M65.3038 120.841C63.0067 128.716 50.2084 133.311 42.3325 129.045C49.8802 126.419 57.4279 123.466 65.3038 120.841Z" fill="#0066CC"/>
<path d="M55.4593 5.98429C55.4593 7.29694 55.4593 8.60958 55.4593 9.92223C55.4593 10.9067 54.803 11.563 53.8185 11.563C52.8341 11.563 52.1777 10.9067 52.1777 9.92223C52.1777 7.29694 52.1777 4.67165 52.1777 1.7182C52.1777 0.733715 52.8341 0.0773926 53.8185 0.0773926C54.803 0.0773926 55.4593 0.733715 55.4593 1.7182C55.4593 3.03084 55.4593 4.67165 55.4593 5.98429Z" fill="#0066CC"/>
<path d="M5.90686 51.927C7.2195 51.927 8.53219 51.927 9.84483 51.927C11.1575 51.927 11.8138 52.5833 11.8138 53.5678C11.8138 54.5523 11.1575 55.2086 9.84483 55.2086C7.21954 55.2086 4.59427 55.2086 1.96899 55.2086C0.656342 55.2086 0 54.5523 0 53.5678C0 52.5833 0.656342 51.927 1.96899 51.927C3.28163 51.927 4.59421 51.927 5.90686 51.927Z" fill="#0066CC"/>
<path d="M101.73 55.5367C100.417 55.5367 99.1043 55.5367 97.7917 55.5367C96.8072 55.5367 96.1509 54.8804 96.1509 53.8959C96.1509 52.9114 96.8072 52.2551 97.7917 52.2551C100.417 52.2551 103.37 52.2551 105.996 52.2551C106.98 52.2551 107.637 52.9114 107.637 53.8959C107.637 54.8804 106.98 55.5367 105.996 55.5367C104.355 55.5367 103.042 55.5367 101.73 55.5367Z" fill="#0066CC"/>
<path d="M16.4081 14.5164C17.0644 14.8445 17.3925 15.1727 17.7207 15.5008C19.6897 17.4698 21.3305 19.1106 23.2995 21.0796C24.284 22.0641 24.284 22.7204 23.2995 23.7049C22.6432 24.3612 21.6586 24.3612 20.6741 23.7049C18.7052 21.7359 16.7363 20.0951 15.0955 18.1261C14.7673 17.798 14.4391 16.8135 14.7673 16.1572C15.0954 15.1727 16.0799 14.8445 16.4081 14.5164Z" fill="#0066CC"/>
<path d="M84.994 83.1025C85.6503 83.4307 85.9784 83.7589 86.3066 84.087C88.2756 85.7278 89.9164 87.6968 91.8854 89.3376C92.8698 90.3221 92.8699 91.3066 92.2135 91.9629C91.5572 92.6192 90.5727 92.6192 89.5882 91.6347C87.6192 89.6658 85.9785 88.025 84.0095 86.056C83.6814 85.7278 83.3532 84.7433 83.6813 84.087C83.6813 83.7589 84.3376 83.4307 84.994 83.1025Z" fill="#0066CC"/>
<path d="M92.8692 16.4855C92.541 17.1418 92.2129 17.47 91.8847 17.7981C89.9158 19.7671 88.2749 21.4079 86.306 23.3769C85.6496 24.0332 84.6652 24.3613 83.6807 23.3769C83.0244 22.7205 83.0244 21.7361 83.6807 20.7516C85.6497 18.7826 87.2904 16.8136 89.2594 15.1728C89.5876 14.8447 90.5721 14.5165 91.2284 14.8447C91.8847 15.1728 92.2129 16.1573 92.8692 16.4855Z" fill="#0066CC"/>
<path d="M16.4077 92.6187C16.0795 92.2906 15.4232 91.9624 15.0951 91.3061C14.7669 90.9779 15.0951 89.9935 15.0951 89.6653C17.064 87.6963 19.033 85.3992 21.3301 83.4302C21.9864 82.7739 22.9709 82.7739 23.6272 83.4302C24.2835 84.0866 24.2835 85.071 23.6272 85.7274C21.6582 87.6963 19.6893 89.6653 17.7203 91.6343C17.3922 92.2906 17.064 92.6187 16.4077 92.6187Z" fill="#0066CC"/>
</svg>
