<svg width="44" height="44" viewBox="0 0 44 44" fill="none" xmlns="http://www.w3.org/2000/svg">
<path d="M22.0004 40.8276C32.3986 40.8276 40.828 32.3982 40.828 22C40.828 11.6018 32.3986 3.17242 22.0004 3.17242C11.6022 3.17242 3.17285 11.6018 3.17285 22C3.17285 32.3982 11.6022 40.8276 22.0004 40.8276Z" stroke="#00264D" stroke-width="4.57143" stroke-linecap="round" stroke-linejoin="round"/>
<path d="M16.9316 16.6897C16.9316 15.6871 17.2289 14.7071 17.7859 13.8735C18.3429 13.0399 19.1346 12.3902 20.0608 12.0066C20.987 11.6229 22.0062 11.5225 22.9895 11.7181C23.9728 11.9137 24.876 12.3965 25.5849 13.1054C26.2938 13.8143 26.7766 14.7175 26.9722 15.7008C27.1678 16.684 27.0674 17.7032 26.6837 18.6295C26.3001 19.5557 25.6504 20.3474 24.8168 20.9044C23.9832 21.4613 23.0032 21.7586 22.0006 21.7586V25.138" stroke="#00264D" stroke-width="5.33333" stroke-linecap="round" stroke-linejoin="round"/>
<path d="M22.0003 30.2069C21.499 30.2069 21.009 30.3556 20.5922 30.634C20.1754 30.9125 19.8506 31.3084 19.6587 31.7715C19.4669 32.2346 19.4167 32.7442 19.5145 33.2358C19.6123 33.7275 19.8537 34.1791 20.2082 34.5335C20.5626 34.888 21.0142 35.1294 21.5059 35.2272C21.9975 35.325 22.5071 35.2748 22.9702 35.083C23.4333 34.8911 23.8292 34.5663 24.1076 34.1495C24.3861 33.7327 24.5348 33.2427 24.5348 32.7414C24.526 32.0719 24.2562 31.4323 23.7828 30.9589C23.3094 30.4855 22.6698 30.2157 22.0003 30.2069Z" fill="#00264D"/>
</svg>
