<svg width="251" height="99" viewBox="0 0 251 99" fill="none" xmlns="http://www.w3.org/2000/svg">
<path d="M54.585 79.4951C51.165 79.4951 48.24 78.8201 45.81 77.4701C43.38 76.1201 41.505 74.2301 40.185 71.8001C38.895 69.3401 38.25 66.4451 38.25 63.1151C38.25 60.6251 38.61 58.3901 39.33 56.4101C40.08 54.4001 41.16 52.6901 42.57 51.2801C43.98 49.8401 45.69 48.7301 47.7 47.9501C49.74 47.1701 52.035 46.7801 54.585 46.7801C56.085 46.7801 57.6 46.9751 59.13 47.3651C60.69 47.7251 62.04 48.2501 63.18 48.9401C63.93 49.3601 64.44 49.8851 64.71 50.5151C64.98 51.1451 65.055 51.7751 64.935 52.4051C64.845 53.0351 64.59 53.5751 64.17 54.0251C63.78 54.4751 63.285 54.7601 62.685 54.8801C62.085 55.0001 61.41 54.8651 60.66 54.4751C59.76 53.9351 58.815 53.5451 57.825 53.3051C56.835 53.0651 55.83 52.9451 54.81 52.9451C52.8 52.9451 51.105 53.3501 49.725 54.1601C48.375 54.9401 47.355 56.0801 46.665 57.5801C45.975 59.0801 45.63 60.9251 45.63 63.1151C45.63 65.2751 45.975 67.1201 46.665 68.6501C47.355 70.1801 48.375 71.3501 49.725 72.1601C51.105 72.9401 52.8 73.3301 54.81 73.3301C55.77 73.3301 56.745 73.2101 57.735 72.9701C58.755 72.7301 59.73 72.3551 60.66 71.8451C61.44 71.4551 62.13 71.3201 62.73 71.4401C63.36 71.5301 63.87 71.8001 64.26 72.2501C64.68 72.6701 64.935 73.1801 65.025 73.7801C65.145 74.3801 65.085 74.9801 64.845 75.5801C64.605 76.1801 64.155 76.6901 63.495 77.1101C62.385 77.8601 61.02 78.4451 59.4 78.8651C57.78 79.2851 56.175 79.4951 54.585 79.4951ZM77.5097 87.1001C76.2797 87.1001 75.1997 86.8601 74.2697 86.3801C73.3697 85.9301 72.6797 85.2551 72.1997 84.3551C71.7497 83.4551 71.5247 82.3751 71.5247 81.1151V73.2851C71.5247 72.0851 71.3147 71.2151 70.8947 70.6751C70.5047 70.1351 69.7847 69.8501 68.7347 69.8201C68.0447 69.7601 67.5047 69.4901 67.1147 69.0101C66.7547 68.5001 66.5747 67.8851 66.5747 67.1651C66.5747 66.4751 66.7547 65.8901 67.1147 65.4101C67.5047 64.9001 68.0447 64.6301 68.7347 64.6001C69.7847 64.5401 70.5047 64.2401 70.8947 63.7001C71.3147 63.1601 71.5247 62.2901 71.5247 61.0901V53.2601C71.5247 51.3701 72.0497 49.9001 73.0997 48.8501C74.1497 47.8001 75.6197 47.2751 77.5097 47.2751H80.7497C81.5597 47.2751 82.2197 47.5151 82.7297 47.9951C83.2697 48.4751 83.5397 49.0751 83.5397 49.7951C83.5397 50.5151 83.3297 51.1151 82.9097 51.5951C82.4897 52.0751 81.9197 52.3151 81.1997 52.3151H80.0297C79.4597 52.3151 79.0247 52.4801 78.7247 52.8101C78.4547 53.1401 78.3197 53.6351 78.3197 54.2951V61.9451C78.3197 62.8751 78.1097 63.7451 77.6897 64.5551C77.2997 65.3651 76.7597 66.0251 76.0697 66.5351C75.4097 67.0451 74.6747 67.3001 73.8647 67.3001V67.1201C74.6747 67.1201 75.4097 67.3751 76.0697 67.8851C76.7597 68.3651 77.2997 69.0101 77.6897 69.8201C78.1097 70.6301 78.3197 71.5151 78.3197 72.4751V80.0801C78.3197 80.7401 78.4547 81.2351 78.7247 81.5651C79.0247 81.8951 79.4747 82.0601 80.0747 82.0601H81.1997C81.9197 82.0601 82.4897 82.3001 82.9097 82.7801C83.3297 83.2601 83.5397 83.8601 83.5397 84.5801C83.5397 85.3001 83.2697 85.9001 82.7297 86.3801C82.2197 86.8601 81.5597 87.1001 80.7497 87.1001H77.5097ZM90.5175 79.4051C89.3775 79.4051 88.5075 79.0901 87.9075 78.4601C87.3075 77.8301 87.0075 76.9451 87.0075 75.8051V50.4701C87.0075 49.3301 87.3075 48.4451 87.9075 47.8151C88.5075 47.1851 89.3775 46.8701 90.5175 46.8701C91.6275 46.8701 92.4825 47.1851 93.0825 47.8151C93.6825 48.4451 93.9825 49.3301 93.9825 50.4701V75.8051C93.9825 76.9451 93.6825 77.8301 93.0825 78.4601C92.5125 79.0901 91.6575 79.4051 90.5175 79.4051ZM103.607 79.4051C102.557 79.4051 101.747 79.1201 101.177 78.5501C100.637 77.9501 100.367 77.1101 100.367 76.0301V50.3801C100.367 49.2401 100.637 48.3701 101.177 47.7701C101.747 47.1701 102.497 46.8701 103.427 46.8701C104.237 46.8701 104.852 47.0351 105.272 47.3651C105.722 47.6651 106.232 48.1751 106.802 48.8951L122.597 69.0101H121.382V50.2001C121.382 49.1501 121.652 48.3401 122.192 47.7701C122.762 47.1701 123.572 46.8701 124.622 46.8701C125.672 46.8701 126.467 47.1701 127.007 47.7701C127.577 48.3401 127.862 49.1501 127.862 50.2001V76.1651C127.862 77.1551 127.607 77.9501 127.097 78.5501C126.587 79.1201 125.897 79.4051 125.027 79.4051C124.187 79.4051 123.512 79.2401 123.002 78.9101C122.522 78.5801 121.997 78.0551 121.427 77.3351L105.677 57.2201H106.847V76.0301C106.847 77.1101 106.577 77.9501 106.037 78.5501C105.497 79.1201 104.687 79.4051 103.607 79.4051ZM134.114 87.1001C133.334 87.1001 132.674 86.8601 132.134 86.3801C131.594 85.9001 131.324 85.3001 131.324 84.5801C131.324 83.8601 131.534 83.2601 131.954 82.7801C132.374 82.3001 132.944 82.0601 133.664 82.0601H134.789C135.389 82.0601 135.824 81.8951 136.094 81.5651C136.394 81.2351 136.544 80.7401 136.544 80.0801V72.4751C136.544 71.5151 136.739 70.6301 137.129 69.8201C137.549 69.0101 138.104 68.3651 138.794 67.8851C139.484 67.3751 140.219 67.1201 140.999 67.1201V67.3001C140.219 67.3001 139.484 67.0451 138.794 66.5351C138.104 66.0251 137.549 65.3651 137.129 64.5551C136.739 63.7451 136.544 62.8751 136.544 61.9451V54.2951C136.544 53.6351 136.394 53.1401 136.094 52.8101C135.824 52.4801 135.404 52.3151 134.834 52.3151H133.664C132.944 52.3151 132.374 52.0751 131.954 51.5951C131.534 51.1151 131.324 50.5151 131.324 49.7951C131.324 49.0751 131.594 48.4751 132.134 47.9951C132.674 47.5151 133.334 47.2751 134.114 47.2751H137.354C138.614 47.2751 139.694 47.5151 140.594 47.9951C141.494 48.4451 142.169 49.1201 142.619 50.0201C143.099 50.8901 143.339 51.9701 143.339 53.2601V61.0901C143.339 62.2901 143.549 63.1601 143.969 63.7001C144.389 64.2401 145.109 64.5401 146.129 64.6001C146.819 64.6301 147.344 64.9001 147.704 65.4101C148.094 65.8901 148.289 66.4901 148.289 67.2101C148.289 67.9001 148.094 68.5001 147.704 69.0101C147.344 69.4901 146.819 69.7601 146.129 69.8201C145.109 69.8501 144.389 70.1351 143.969 70.6751C143.549 71.2151 143.339 72.0851 143.339 73.2851V81.1151C143.339 83.0051 142.814 84.4751 141.764 85.5251C140.714 86.5751 139.244 87.1001 137.354 87.1001H134.114ZM156.527 79.0001C155.357 79.0001 154.457 78.6851 153.827 78.0551C153.197 77.4251 152.882 76.5251 152.882 75.3551V50.9201C152.882 49.7501 153.197 48.8501 153.827 48.2201C154.457 47.5901 155.357 47.2751 156.527 47.2751H172.232C173.132 47.2751 173.807 47.5151 174.257 47.9951C174.737 48.4451 174.977 49.1051 174.977 49.9751C174.977 50.8751 174.737 51.5651 174.257 52.0451C173.807 52.4951 173.132 52.7201 172.232 52.7201H159.542V60.1451H171.197C172.127 60.1451 172.817 60.3851 173.267 60.8651C173.747 61.3151 173.987 61.9901 173.987 62.8901C173.987 63.7901 173.747 64.4801 173.267 64.9601C172.817 65.4101 172.127 65.6351 171.197 65.6351H159.542V73.5551H172.232C173.132 73.5551 173.807 73.7951 174.257 74.2751C174.737 74.7251 174.977 75.3851 174.977 76.2551C174.977 77.1551 174.737 77.8451 174.257 78.3251C173.807 78.7751 173.132 79.0001 172.232 79.0001H156.527ZM183.368 79.4051C182.348 79.4051 181.568 79.1201 181.028 78.5501C180.488 77.9801 180.218 77.1851 180.218 76.1651V50.1101C180.218 49.0901 180.503 48.2951 181.073 47.7251C181.673 47.1551 182.483 46.8701 183.503 46.8701C184.403 46.8701 185.108 47.0501 185.618 47.4101C186.158 47.7401 186.653 48.3251 187.103 49.1651L197.498 68.1551H195.968L206.363 49.1651C206.813 48.3251 207.293 47.7401 207.803 47.4101C208.343 47.0501 209.048 46.8701 209.918 46.8701C210.938 46.8701 211.718 47.1551 212.258 47.7251C212.828 48.2951 213.113 49.0901 213.113 50.1101V76.1651C213.113 77.1851 212.843 77.9801 212.303 78.5501C211.763 79.1201 210.983 79.4051 209.963 79.4051C208.943 79.4051 208.148 79.1201 207.578 78.5501C207.038 77.9801 206.768 77.1851 206.768 76.1651V57.9401H207.758L199.388 72.9251C199.028 73.4951 198.638 73.9301 198.218 74.2301C197.828 74.5001 197.303 74.6351 196.643 74.6351C195.983 74.6351 195.443 74.4851 195.023 74.1851C194.603 73.8851 194.228 73.4651 193.898 72.9251L185.438 57.8951H186.518V76.1651C186.518 77.1851 186.248 77.9801 185.708 78.5501C185.198 79.1201 184.418 79.4051 183.368 79.4051ZM220.447 79.4051C219.607 79.4051 218.917 79.2101 218.377 78.8201C217.867 78.4301 217.537 77.9051 217.387 77.2451C217.267 76.5851 217.402 75.8501 217.792 75.0401L229.312 49.7951C229.792 48.7751 230.362 48.0401 231.022 47.5901C231.682 47.1101 232.447 46.8701 233.317 46.8701C234.187 46.8701 234.952 47.1101 235.612 47.5901C236.272 48.0401 236.827 48.7751 237.277 49.7951L248.887 75.0401C249.277 75.8501 249.412 76.6001 249.292 77.2901C249.202 77.9501 248.902 78.4751 248.392 78.8651C247.882 79.2251 247.222 79.4051 246.412 79.4051C245.392 79.4051 244.597 79.1651 244.027 78.6851C243.487 78.2051 243.007 77.4551 242.587 76.4351L239.887 70.1801L242.677 72.1151H223.912L226.702 70.1801L224.047 76.4351C223.597 77.4851 223.117 78.2501 222.607 78.7301C222.127 79.1801 221.407 79.4051 220.447 79.4051ZM233.227 54.7001L227.467 68.4251L226.252 66.6701H240.337L239.122 68.4251L233.317 54.7001H233.227Z" fill="#00264D"/>
<g filter="url(#filter0_d_545_788)">
<path d="M69.161 8.34186L65.1093 4.29011C62.7497 6.64966 58.8887 6.64965 56.5291 4.2901L4.28532 56.5339L4.42356 56.6721C6.64488 59.046 6.60197 62.7974 4.29009 65.1093L8.34185 69.1611C10.6061 68.0695 13.4089 68.4508 15.2823 70.3242C17.1556 72.1975 17.5322 75.0051 16.4454 77.2646L20.7402 81.5594C23.0044 80.4678 25.8073 80.8492 27.6806 82.7225C29.5492 84.5911 29.9305 87.4035 28.8437 89.6629L32.8907 93.7099C35.2121 91.3885 38.9445 91.3456 41.3231 93.5812L41.4614 93.7195L93.7051 41.4757L93.7004 41.4709C91.3313 39.1018 91.3361 35.2646 93.7051 32.8955L89.6534 28.8437C87.3892 29.9353 84.5863 29.554 82.713 27.6806C80.8444 25.8121 80.4631 22.9997 81.5499 20.7402L77.2598 16.4501C74.9956 17.5417 72.1927 17.1604 70.3194 15.287C68.446 13.4137 68.0695 10.6061 69.161 8.34186Z" fill="#004A9B"/>
<path d="M24.9353 45.1413L53.5359 73.742M44.7507 24.9636L73.3514 53.5642M84.2529 42.6626L42.6581 84.2575C41.905 85.0106 40.6752 85.0106 39.922 84.2575L14.0575 58.393C13.3044 57.6398 13.3044 56.41 14.0575 55.6568L55.6476 14.0668C56.4007 13.3136 57.6305 13.3136 58.3837 14.0668L84.2434 39.9265C84.4237 40.1055 84.567 40.3183 84.665 40.5527C84.7631 40.7871 84.814 41.0385 84.8149 41.2926C84.8157 41.5467 84.7666 41.7984 84.6702 42.0335C84.5738 42.2686 84.432 42.4824 84.2529 42.6626Z" stroke="#6D98FB" stroke-width="3.43697" stroke-miterlimit="10"/>
</g>
<path d="M52.585 76.4951C49.165 76.4951 46.24 75.8201 43.81 74.4701C41.38 73.1201 39.505 71.2301 38.185 68.8001C36.895 66.3401 36.25 63.4451 36.25 60.1151C36.25 57.6251 36.61 55.3901 37.33 53.4101C38.08 51.4001 39.16 49.6901 40.57 48.2801C41.98 46.8401 43.69 45.7301 45.7 44.9501C47.74 44.1701 50.035 43.7801 52.585 43.7801C54.085 43.7801 55.6 43.9751 57.13 44.3651C58.69 44.7251 60.04 45.2501 61.18 45.9401C61.93 46.3601 62.44 46.8851 62.71 47.5151C62.98 48.1451 63.055 48.7751 62.935 49.4051C62.845 50.0351 62.59 50.5751 62.17 51.0251C61.78 51.4751 61.285 51.7601 60.685 51.8801C60.085 52.0001 59.41 51.8651 58.66 51.4751C57.76 50.9351 56.815 50.5451 55.825 50.3051C54.835 50.0651 53.83 49.9451 52.81 49.9451C50.8 49.9451 49.105 50.3501 47.725 51.1601C46.375 51.9401 45.355 53.0801 44.665 54.5801C43.975 56.0801 43.63 57.9251 43.63 60.1151C43.63 62.2751 43.975 64.1201 44.665 65.6501C45.355 67.1801 46.375 68.3501 47.725 69.1601C49.105 69.9401 50.8 70.3301 52.81 70.3301C53.77 70.3301 54.745 70.2101 55.735 69.9701C56.755 69.7301 57.73 69.3551 58.66 68.8451C59.44 68.4551 60.13 68.3201 60.73 68.4401C61.36 68.5301 61.87 68.8001 62.26 69.2501C62.68 69.6701 62.935 70.1801 63.025 70.7801C63.145 71.3801 63.085 71.9801 62.845 72.5801C62.605 73.1801 62.155 73.6901 61.495 74.1101C60.385 74.8601 59.02 75.4451 57.4 75.8651C55.78 76.2851 54.175 76.4951 52.585 76.4951ZM75.5097 84.1001C74.2797 84.1001 73.1997 83.8601 72.2697 83.3801C71.3697 82.9301 70.6797 82.2551 70.1997 81.3551C69.7497 80.4551 69.5247 79.3751 69.5247 78.1151V70.2851C69.5247 69.0851 69.3147 68.2151 68.8947 67.6751C68.5047 67.1351 67.7847 66.8501 66.7347 66.8201C66.0447 66.7601 65.5047 66.4901 65.1147 66.0101C64.7547 65.5001 64.5747 64.8851 64.5747 64.1651C64.5747 63.4751 64.7547 62.8901 65.1147 62.4101C65.5047 61.9001 66.0447 61.6301 66.7347 61.6001C67.7847 61.5401 68.5047 61.2401 68.8947 60.7001C69.3147 60.1601 69.5247 59.2901 69.5247 58.0901V50.2601C69.5247 48.3701 70.0497 46.9001 71.0997 45.8501C72.1497 44.8001 73.6197 44.2751 75.5097 44.2751H78.7497C79.5597 44.2751 80.2197 44.5151 80.7297 44.9951C81.2697 45.4751 81.5397 46.0751 81.5397 46.7951C81.5397 47.5151 81.3297 48.1151 80.9097 48.5951C80.4897 49.0751 79.9197 49.3151 79.1997 49.3151H78.0297C77.4597 49.3151 77.0247 49.4801 76.7247 49.8101C76.4547 50.1401 76.3197 50.6351 76.3197 51.2951V58.9451C76.3197 59.8751 76.1097 60.7451 75.6897 61.5551C75.2997 62.3651 74.7597 63.0251 74.0697 63.5351C73.4097 64.0451 72.6747 64.3001 71.8647 64.3001V64.1201C72.6747 64.1201 73.4097 64.3751 74.0697 64.8851C74.7597 65.3651 75.2997 66.0101 75.6897 66.8201C76.1097 67.6301 76.3197 68.5151 76.3197 69.4751V77.0801C76.3197 77.7401 76.4547 78.2351 76.7247 78.5651C77.0247 78.8951 77.4747 79.0601 78.0747 79.0601H79.1997C79.9197 79.0601 80.4897 79.3001 80.9097 79.7801C81.3297 80.2601 81.5397 80.8601 81.5397 81.5801C81.5397 82.3001 81.2697 82.9001 80.7297 83.3801C80.2197 83.8601 79.5597 84.1001 78.7497 84.1001H75.5097ZM88.5175 76.4051C87.3775 76.4051 86.5075 76.0901 85.9075 75.4601C85.3075 74.8301 85.0075 73.9451 85.0075 72.8051V47.4701C85.0075 46.3301 85.3075 45.4451 85.9075 44.8151C86.5075 44.1851 87.3775 43.8701 88.5175 43.8701C89.6275 43.8701 90.4825 44.1851 91.0825 44.8151C91.6825 45.4451 91.9825 46.3301 91.9825 47.4701V72.8051C91.9825 73.9451 91.6825 74.8301 91.0825 75.4601C90.5125 76.0901 89.6575 76.4051 88.5175 76.4051ZM101.607 76.4051C100.557 76.4051 99.7469 76.1201 99.1769 75.5501C98.6369 74.9501 98.3669 74.1101 98.3669 73.0301V47.3801C98.3669 46.2401 98.6369 45.3701 99.1769 44.7701C99.7469 44.1701 100.497 43.8701 101.427 43.8701C102.237 43.8701 102.852 44.0351 103.272 44.3651C103.722 44.6651 104.232 45.1751 104.802 45.8951L120.597 66.0101H119.382V47.2001C119.382 46.1501 119.652 45.3401 120.192 44.7701C120.762 44.1701 121.572 43.8701 122.622 43.8701C123.672 43.8701 124.467 44.1701 125.007 44.7701C125.577 45.3401 125.862 46.1501 125.862 47.2001V73.1651C125.862 74.1551 125.607 74.9501 125.097 75.5501C124.587 76.1201 123.897 76.4051 123.027 76.4051C122.187 76.4051 121.512 76.2401 121.002 75.9101C120.522 75.5801 119.997 75.0551 119.427 74.3351L103.677 54.2201H104.847V73.0301C104.847 74.1101 104.577 74.9501 104.037 75.5501C103.497 76.1201 102.687 76.4051 101.607 76.4051ZM132.114 84.1001C131.334 84.1001 130.674 83.8601 130.134 83.3801C129.594 82.9001 129.324 82.3001 129.324 81.5801C129.324 80.8601 129.534 80.2601 129.954 79.7801C130.374 79.3001 130.944 79.0601 131.664 79.0601H132.789C133.389 79.0601 133.824 78.8951 134.094 78.5651C134.394 78.2351 134.544 77.7401 134.544 77.0801V69.4751C134.544 68.5151 134.739 67.6301 135.129 66.8201C135.549 66.0101 136.104 65.3651 136.794 64.8851C137.484 64.3751 138.219 64.1201 138.999 64.1201V64.3001C138.219 64.3001 137.484 64.0451 136.794 63.5351C136.104 63.0251 135.549 62.3651 135.129 61.5551C134.739 60.7451 134.544 59.8751 134.544 58.9451V51.2951C134.544 50.6351 134.394 50.1401 134.094 49.8101C133.824 49.4801 133.404 49.3151 132.834 49.3151H131.664C130.944 49.3151 130.374 49.0751 129.954 48.5951C129.534 48.1151 129.324 47.5151 129.324 46.7951C129.324 46.0751 129.594 45.4751 130.134 44.9951C130.674 44.5151 131.334 44.2751 132.114 44.2751H135.354C136.614 44.2751 137.694 44.5151 138.594 44.9951C139.494 45.4451 140.169 46.1201 140.619 47.0201C141.099 47.8901 141.339 48.9701 141.339 50.2601V58.0901C141.339 59.2901 141.549 60.1601 141.969 60.7001C142.389 61.2401 143.109 61.5401 144.129 61.6001C144.819 61.6301 145.344 61.9001 145.704 62.4101C146.094 62.8901 146.289 63.4901 146.289 64.2101C146.289 64.9001 146.094 65.5001 145.704 66.0101C145.344 66.4901 144.819 66.7601 144.129 66.8201C143.109 66.8501 142.389 67.1351 141.969 67.6751C141.549 68.2151 141.339 69.0851 141.339 70.2851V78.1151C141.339 80.0051 140.814 81.4751 139.764 82.5251C138.714 83.5751 137.244 84.1001 135.354 84.1001H132.114ZM154.527 76.0001C153.357 76.0001 152.457 75.6851 151.827 75.0551C151.197 74.4251 150.882 73.5251 150.882 72.3551V47.9201C150.882 46.7501 151.197 45.8501 151.827 45.2201C152.457 44.5901 153.357 44.2751 154.527 44.2751H170.232C171.132 44.2751 171.807 44.5151 172.257 44.9951C172.737 45.4451 172.977 46.1051 172.977 46.9751C172.977 47.8751 172.737 48.5651 172.257 49.0451C171.807 49.4951 171.132 49.7201 170.232 49.7201H157.542V57.1451H169.197C170.127 57.1451 170.817 57.3851 171.267 57.8651C171.747 58.3151 171.987 58.9901 171.987 59.8901C171.987 60.7901 171.747 61.4801 171.267 61.9601C170.817 62.4101 170.127 62.6351 169.197 62.6351H157.542V70.5551H170.232C171.132 70.5551 171.807 70.7951 172.257 71.2751C172.737 71.7251 172.977 72.3851 172.977 73.2551C172.977 74.1551 172.737 74.8451 172.257 75.3251C171.807 75.7751 171.132 76.0001 170.232 76.0001H154.527ZM181.368 76.4051C180.348 76.4051 179.568 76.1201 179.028 75.5501C178.488 74.9801 178.218 74.1851 178.218 73.1651V47.1101C178.218 46.0901 178.503 45.2951 179.073 44.7251C179.673 44.1551 180.483 43.8701 181.503 43.8701C182.403 43.8701 183.108 44.0501 183.618 44.4101C184.158 44.7401 184.653 45.3251 185.103 46.1651L195.498 65.1551H193.968L204.363 46.1651C204.813 45.3251 205.293 44.7401 205.803 44.4101C206.343 44.0501 207.048 43.8701 207.918 43.8701C208.938 43.8701 209.718 44.1551 210.258 44.7251C210.828 45.2951 211.113 46.0901 211.113 47.1101V73.1651C211.113 74.1851 210.843 74.9801 210.303 75.5501C209.763 76.1201 208.983 76.4051 207.963 76.4051C206.943 76.4051 206.148 76.1201 205.578 75.5501C205.038 74.9801 204.768 74.1851 204.768 73.1651V54.9401H205.758L197.388 69.9251C197.028 70.4951 196.638 70.9301 196.218 71.2301C195.828 71.5001 195.303 71.6351 194.643 71.6351C193.983 71.6351 193.443 71.4851 193.023 71.1851C192.603 70.8851 192.228 70.4651 191.898 69.9251L183.438 54.8951H184.518V73.1651C184.518 74.1851 184.248 74.9801 183.708 75.5501C183.198 76.1201 182.418 76.4051 181.368 76.4051ZM218.447 76.4051C217.607 76.4051 216.917 76.2101 216.377 75.8201C215.867 75.4301 215.537 74.9051 215.387 74.2451C215.267 73.5851 215.402 72.8501 215.792 72.0401L227.312 46.7951C227.792 45.7751 228.362 45.0401 229.022 44.5901C229.682 44.1101 230.447 43.8701 231.317 43.8701C232.187 43.8701 232.952 44.1101 233.612 44.5901C234.272 45.0401 234.827 45.7751 235.277 46.7951L246.887 72.0401C247.277 72.8501 247.412 73.6001 247.292 74.2901C247.202 74.9501 246.902 75.4751 246.392 75.8651C245.882 76.2251 245.222 76.4051 244.412 76.4051C243.392 76.4051 242.597 76.1651 242.027 75.6851C241.487 75.2051 241.007 74.4551 240.587 73.4351L237.887 67.1801L240.677 69.1151H221.912L224.702 67.1801L222.047 73.4351C221.597 74.4851 221.117 75.2501 220.607 75.7301C220.127 76.1801 219.407 76.4051 218.447 76.4051ZM231.227 51.7001L225.467 65.4251L224.252 63.6701H238.337L237.122 65.4251L231.317 51.7001H231.227Z" fill="#D2DBFF"/>
<defs>
<filter id="filter0_d_545_788" x="4.28516" y="4.2901" width="94.678" height="94.6875" filterUnits="userSpaceOnUse" color-interpolation-filters="sRGB">
<feFlood flood-opacity="0" result="BackgroundImageFix"/>
<feColorMatrix in="SourceAlpha" type="matrix" values="0 0 0 0 0 0 0 0 0 0 0 0 0 0 0 0 0 0 127 0" result="hardAlpha"/>
<feOffset dx="5.25811" dy="5.25811"/>
<feComposite in2="hardAlpha" operator="out"/>
<feColorMatrix type="matrix" values="0 0 0 0 0 0 0 0 0 0.14902 0 0 0 0 0.301961 0 0 0 1 0"/>
<feBlend mode="normal" in2="BackgroundImageFix" result="effect1_dropShadow_545_788"/>
<feBlend mode="normal" in="SourceGraphic" in2="effect1_dropShadow_545_788" result="shape"/>
</filter>
</defs>
</svg>
