<svg width="46" height="46" viewBox="0 0 46 46" fill="none" xmlns="http://www.w3.org/2000/svg">
<path d="M34.5003 7.66667V9.58333H30.667V7.66667C30.667 6.6125 29.8045 5.75 28.7503 5.75H17.2503C16.1962 5.75 15.3337 6.6125 15.3337 7.66667V9.58333H11.5003V7.66667C11.5003 6.6125 10.6378 5.75 9.58366 5.75C8.52949 5.75 7.66699 6.6125 7.66699 7.66667V38.3333C7.66699 39.3875 8.52949 40.25 9.58366 40.25C10.6378 40.25 11.5003 39.3875 11.5003 38.3333V36.4167H15.3337V38.3333C15.3337 39.3875 16.1962 40.25 17.2503 40.25H28.7503C29.8045 40.25 30.667 39.3875 30.667 38.3333V36.4167H34.5003V38.3333C34.5003 39.3875 35.3628 40.25 36.417 40.25C37.4712 40.25 38.3337 39.3875 38.3337 38.3333V7.66667C38.3337 6.6125 37.4712 5.75 36.417 5.75C35.3628 5.75 34.5003 6.6125 34.5003 7.66667ZM15.3337 32.5833H11.5003V28.75H15.3337V32.5833ZM15.3337 24.9167H11.5003V21.0833H15.3337V24.9167ZM15.3337 17.25H11.5003V13.4167H15.3337V17.25ZM34.5003 32.5833H30.667V28.75H34.5003V32.5833ZM34.5003 24.9167H30.667V21.0833H34.5003V24.9167ZM34.5003 17.25H30.667V13.4167H34.5003V17.25Z" fill="#00264D"/>
</svg>
