<svg width="46" height="46" viewBox="0 0 46 46" fill="none" xmlns="http://www.w3.org/2000/svg">
<path d="M23 6.22916C22.6188 6.22916 22.2531 6.38061 21.9835 6.65019C21.714 6.91977 21.5625 7.28541 21.5625 7.66666C21.5625 8.04791 21.714 8.41354 21.9835 8.68312C22.2531 8.95271 22.6188 9.10416 23 9.10416C24.8248 9.10416 26.6318 9.46358 28.3177 10.1619C30.0036 10.8602 31.5355 11.8838 32.8258 13.1742C34.1162 14.4645 35.1397 15.9964 35.8381 17.6823C36.5364 19.3682 36.8958 21.1752 36.8958 23C36.8958 24.8248 36.5364 26.6318 35.8381 28.3177C35.1397 30.0036 34.1162 31.5355 32.8258 32.8258C31.5355 34.1162 30.0036 35.1397 28.3177 35.8381C26.6318 36.5364 24.8248 36.8958 23 36.8958C22.6188 36.8958 22.2531 37.0473 21.9835 37.3169C21.714 37.5864 21.5625 37.9521 21.5625 38.3333C21.5625 38.7146 21.714 39.0802 21.9835 39.3498C22.2531 39.6194 22.6188 39.7708 23 39.7708C27.4479 39.7708 31.7136 38.0039 34.8588 34.8588C38.0039 31.7136 39.7708 27.4479 39.7708 23C39.7708 18.5521 38.0039 14.2864 34.8588 11.1412C31.7136 7.99608 27.4479 6.22916 23 6.22916Z" fill="#00264D" stroke="#00264D" stroke-width="1.8"/>
<path d="M20.0678 18.2658C19.8139 17.9933 19.6757 17.6329 19.6822 17.2605C19.6888 16.8881 19.8397 16.5328 20.1031 16.2694C20.3664 16.006 20.7217 15.8552 21.0942 15.8486C21.4666 15.842 21.827 15.9802 22.0995 16.2342L27.8495 21.9842C28.1187 22.2537 28.2699 22.6191 28.2699 23C28.2699 23.3809 28.1187 23.7463 27.8495 24.0158L22.0995 29.7658C21.9679 29.9071 21.8092 30.0203 21.6329 30.0989C21.4565 30.1775 21.2662 30.2197 21.0732 30.2231C20.8801 30.2265 20.6884 30.191 20.5094 30.1187C20.3304 30.0464 20.1678 29.9388 20.0313 29.8023C19.8948 29.6658 19.7872 29.5032 19.7149 29.3242C19.6426 29.1452 19.6071 28.9535 19.6105 28.7605C19.6139 28.5675 19.6562 28.3771 19.7347 28.2008C19.8133 28.0245 19.9266 27.8658 20.0678 27.7342L23.3645 24.4375H7.66699C7.28574 24.4375 6.92011 24.286 6.65053 24.0165C6.38094 23.7469 6.22949 23.3813 6.22949 23C6.22949 22.6188 6.38094 22.2531 6.65053 21.9835C6.92011 21.714 7.28574 21.5625 7.66699 21.5625H23.3645L20.0678 18.2658Z" fill="#00264D" stroke="#00264D" stroke-width="1.8"/>
</svg>
