<svg width="20" height="19" viewBox="0 0 20 19" fill="none" xmlns="http://www.w3.org/2000/svg">
<path d="M13 9.46973C13 10.0631 12.8241 10.6431 12.4944 11.1364C12.1648 11.6298 11.6962 12.0143 11.1481 12.2414C10.5999 12.4684 9.99667 12.5278 9.41473 12.4121C8.83279 12.2963 8.29824 12.0106 7.87868 11.591C7.45912 11.1715 7.1734 10.6369 7.05764 10.055C6.94189 9.47305 7.0013 8.86985 7.22836 8.32168C7.45542 7.7735 7.83994 7.30496 8.33329 6.97532C8.82664 6.64567 9.40666 6.46973 10 6.46973C10.7949 6.4722 11.5565 6.78906 12.1186 7.35114C12.6807 7.91321 12.9975 8.67484 13 9.46973ZM19.375 5.34473V13.5947C19.375 14.9871 18.8219 16.3225 17.8373 17.307C16.8527 18.2916 15.5174 18.8447 14.125 18.8447H5.875C4.48261 18.8447 3.14726 18.2916 2.16269 17.307C1.17812 16.3225 0.625 14.9871 0.625 13.5947V5.34473C0.625 3.95234 1.17812 2.61698 2.16269 1.63242C3.14726 0.64785 4.48261 0.0947266 5.875 0.0947266H14.125C15.5174 0.0947266 16.8527 0.64785 17.8373 1.63242C18.8219 2.61698 19.375 3.95234 19.375 5.34473ZM14.5 9.46973C14.5 8.57971 14.2361 7.70968 13.7416 6.96966C13.2471 6.22964 12.5443 5.65286 11.7221 5.31227C10.8998 4.97167 9.99501 4.88256 9.12209 5.05619C8.24918 5.22983 7.44736 5.65841 6.81802 6.28775C6.18868 6.91708 5.7601 7.71891 5.58647 8.59182C5.41283 9.46474 5.50195 10.3695 5.84254 11.1918C6.18314 12.0141 6.75991 12.7169 7.49993 13.2113C8.23995 13.7058 9.10998 13.9697 10 13.9697C11.1935 13.9697 12.3381 13.4956 13.182 12.6517C14.0259 11.8078 14.5 10.6632 14.5 9.46973ZM16 4.59473C16 4.37222 15.934 4.15472 15.8104 3.96971C15.6868 3.78471 15.5111 3.64051 15.3055 3.55536C15.1 3.47021 14.8738 3.44793 14.6555 3.49134C14.4373 3.53475 14.2368 3.6419 14.0795 3.79923C13.9222 3.95657 13.815 4.15702 13.7716 4.37525C13.7282 4.59348 13.7505 4.81968 13.8356 5.02525C13.9208 5.23081 14.065 5.40651 14.25 5.53013C14.435 5.65375 14.6525 5.71973 14.875 5.71973C15.1734 5.71973 15.4595 5.6012 15.6705 5.39022C15.8815 5.17924 16 4.8931 16 4.59473Z" fill="white"/>
</svg>
