<svg width="778" height="74" viewBox="0 0 778 74" fill="none" xmlns="http://www.w3.org/2000/svg">
<path d="M6.6026 29.2153H10.3006V31H4.35166V19.7775H6.6026V29.2153ZM14.7861 21.5943V24.408H18.5645V26.1926H14.7861V29.1671H19.0468V31H12.5352V19.7614H19.0468V21.5943H14.7861ZM29.7102 23.1539C29.453 22.6823 29.0993 22.3232 28.6491 22.0767C28.1989 21.8301 27.6737 21.7069 27.0734 21.7069C26.4089 21.7069 25.8193 21.8569 25.3048 22.157C24.7903 22.4572 24.3884 22.8859 24.099 23.4433C23.8096 24.0007 23.6649 24.6438 23.6649 25.3727C23.6649 26.123 23.8096 26.7768 24.099 27.3342C24.3991 27.8916 24.8118 28.3203 25.337 28.6204C25.8622 28.9206 26.4732 29.0706 27.1699 29.0706C28.0274 29.0706 28.7295 28.8455 29.2761 28.3953C29.8228 27.9344 30.1819 27.2967 30.3534 26.4821H26.4946V24.7617H32.5721V26.7232C32.4221 27.5057 32.1005 28.2292 31.6074 28.8938C31.1144 29.5583 30.4766 30.0943 29.6941 30.5016C28.9224 30.8982 28.0542 31.0965 27.0895 31.0965C26.0069 31.0965 25.0261 30.8553 24.1472 30.373C23.279 29.8799 22.593 29.1993 22.0892 28.331C21.5961 27.4628 21.3496 26.4767 21.3496 25.3727C21.3496 24.2686 21.5961 23.2825 22.0892 22.4143C22.593 21.5354 23.279 20.8547 24.1472 20.3724C25.0261 19.8793 26.0015 19.6328 27.0734 19.6328C28.3382 19.6328 29.4369 19.9436 30.3694 20.5653C31.302 21.1763 31.9451 22.0391 32.2988 23.1539H29.7102ZM37.2923 21.5943V24.408H41.0707V26.1926H37.2923V29.1671H41.553V31H35.0414V19.7614H41.553V21.5943H37.2923ZM54.0011 31H51.7502L46.6534 23.2986V31H44.4025V19.7614H46.6534L51.7502 27.4789V19.7614H54.0011V31ZM60.9525 19.7775C62.1316 19.7775 63.1659 20.0079 64.0556 20.4688C64.9559 20.9297 65.6473 21.5889 66.1296 22.4464C66.6227 23.2932 66.8692 24.2794 66.8692 25.4048C66.8692 26.5303 66.6227 27.5164 66.1296 28.3632C65.6473 29.1993 64.9559 29.8477 64.0556 30.3086C63.1659 30.7695 62.1316 31 60.9525 31H57.0294V19.7775H60.9525ZM60.8721 29.0867C62.0512 29.0867 62.9623 28.7651 63.6054 28.122C64.2485 27.4789 64.5701 26.5732 64.5701 25.4048C64.5701 24.2365 64.2485 23.3254 63.6054 22.6715C62.9623 22.007 62.0512 21.6747 60.8721 21.6747H59.2804V29.0867H60.8721ZM76.2395 28.8616H71.7698L71.0302 31H68.6667L72.7023 19.7614H75.3231L79.3587 31H76.9791L76.2395 28.8616ZM75.6285 27.0609L74.0046 22.3661L72.3808 27.0609H75.6285Z" fill="#B0B0B0"/>
<path d="M23 72.5H24.5V71V57C24.5 52.8579 21.1421 49.5 17 49.5H9C4.85786 49.5 1.5 52.8579 1.5 57V71V72.5H3H23Z" stroke="#003877" stroke-width="3"/>
<path d="M41.3127 55.7775C42.4918 55.7775 43.5261 56.0079 44.4158 56.4688C45.3162 56.9297 46.0075 57.5889 46.4899 58.4464C46.9829 59.2932 47.2295 60.2794 47.2295 61.4048C47.2295 62.5303 46.9829 63.5164 46.4899 64.3632C46.0075 65.1993 45.3162 65.8477 44.4158 66.3086C43.5261 66.7695 42.4918 67 41.3127 67H37.3897V55.7775H41.3127ZM41.2323 65.0867C42.4114 65.0867 43.3225 64.7651 43.9656 64.122C44.6087 63.4789 44.9303 62.5732 44.9303 61.4048C44.9303 60.2365 44.6087 59.3254 43.9656 58.6715C43.3225 58.007 42.4114 57.6747 41.2323 57.6747H39.6406V65.0867H41.2323ZM50.8599 57.0316C50.4633 57.0316 50.131 56.9083 49.863 56.6618C49.6058 56.4045 49.4771 56.0883 49.4771 55.7132C49.4771 55.338 49.6058 55.0272 49.863 54.7806C50.131 54.5234 50.4633 54.3948 50.8599 54.3948C51.2564 54.3948 51.5834 54.5234 51.8406 54.7806C52.1086 55.0272 52.2426 55.338 52.2426 55.7132C52.2426 56.0883 52.1086 56.4045 51.8406 56.6618C51.5834 56.9083 51.2564 57.0316 50.8599 57.0316ZM51.9692 58.0927V67H49.7183V58.0927H51.9692ZM58.4056 67.1447C57.6768 67.1447 57.0229 67.0161 56.4441 66.7588C55.8653 66.4909 55.4044 66.1318 55.0614 65.6816C54.7291 65.2314 54.5469 64.733 54.5147 64.1863H56.7817C56.8246 64.5293 56.9908 64.8134 57.2802 65.0385C57.5803 65.2636 57.9501 65.3761 58.3896 65.3761C58.8183 65.3761 59.1506 65.2904 59.3864 65.1189C59.6329 64.9474 59.7562 64.7276 59.7562 64.4597C59.7562 64.1703 59.6061 63.9559 59.306 63.8165C59.0166 63.6665 58.5503 63.5057 57.9072 63.3342C57.2426 63.1734 56.696 63.0073 56.2672 62.8358C55.8492 62.6643 55.4848 62.4017 55.1739 62.0479C54.8738 61.6942 54.7237 61.2172 54.7237 60.617C54.7237 60.1239 54.8631 59.6737 55.1418 59.2664C55.4312 58.8591 55.8385 58.5376 56.3637 58.3017C56.8996 58.0659 57.5267 57.948 58.2449 57.948C59.306 57.948 60.1528 58.216 60.7852 58.7519C61.4176 59.2771 61.766 59.9899 61.8303 60.8903H59.6758C59.6436 60.5366 59.4936 60.2579 59.2256 60.0543C58.9684 59.8399 58.62 59.7327 58.1805 59.7327C57.7732 59.7327 57.457 59.8077 57.2319 59.9578C57.0176 60.1079 56.9104 60.3169 56.9104 60.5848C56.9104 60.885 57.0604 61.1154 57.3606 61.2762C57.6607 61.4263 58.1269 61.5817 58.7594 61.7425C59.4025 61.9032 59.9331 62.0694 60.3511 62.2409C60.7691 62.4124 61.1282 62.6803 61.4283 63.0448C61.7392 63.3985 61.8999 63.8701 61.9107 64.4597C61.9107 64.9742 61.766 65.4351 61.4766 65.8424C61.1979 66.2497 60.7906 66.5713 60.2546 66.8071C59.7294 67.0322 59.1131 67.1447 58.4056 67.1447ZM66.8132 59.379C67.1026 58.9717 67.4992 58.634 68.003 58.3661C68.5175 58.0874 69.1017 57.948 69.7555 57.948C70.5165 57.948 71.2025 58.1356 71.8135 58.5108C72.4352 58.8859 72.9229 59.4219 73.2766 60.1186C73.6411 60.8046 73.8233 61.6031 73.8233 62.5142C73.8233 63.4253 73.6411 64.2346 73.2766 64.942C72.9229 65.6387 72.4352 66.18 71.8135 66.5659C71.2025 66.9518 70.5165 67.1447 69.7555 67.1447C69.1017 67.1447 68.5229 67.0107 68.0191 66.7428C67.526 66.4748 67.1241 66.1371 66.8132 65.7298V71.2446H64.5623V58.0927H66.8132V59.379ZM71.5241 62.5142C71.5241 61.9783 71.4116 61.5174 71.1865 61.1315C70.9721 60.7349 70.6827 60.4348 70.3183 60.2311C69.9645 60.0275 69.5787 59.9256 69.1606 59.9256C68.7533 59.9256 68.3674 60.0328 68.003 60.2472C67.6493 60.4509 67.3599 60.751 67.1348 61.1476C66.9204 61.5442 66.8132 62.0104 66.8132 62.5464C66.8132 63.0823 66.9204 63.5486 67.1348 63.9452C67.3599 64.3418 67.6493 64.6472 68.003 64.8616C68.3674 65.0653 68.7533 65.1671 69.1606 65.1671C69.5787 65.1671 69.9645 65.0599 70.3183 64.8455C70.6827 64.6312 70.9721 64.3257 71.1865 63.9291C71.4116 63.5325 71.5241 63.0609 71.5241 62.5142ZM80.2181 67.1447C79.3606 67.1447 78.5888 66.9571 77.9028 66.582C77.2168 66.1961 76.6756 65.6548 76.279 64.9581C75.8931 64.2614 75.7001 63.4575 75.7001 62.5464C75.7001 61.6353 75.8984 60.8314 76.295 60.1346C76.7023 59.4379 77.2544 58.902 77.9511 58.5268C78.6478 58.141 79.4249 57.948 80.2824 57.948C81.1399 57.948 81.917 58.141 82.6137 58.5268C83.3105 58.902 83.8571 59.4379 84.2537 60.1346C84.661 60.8314 84.8647 61.6353 84.8647 62.5464C84.8647 63.4575 84.6557 64.2614 84.2376 64.9581C83.8303 65.6548 83.2729 66.1961 82.5655 66.582C81.8688 66.9571 81.0863 67.1447 80.2181 67.1447ZM80.2181 65.1832C80.6254 65.1832 81.0059 65.0867 81.3596 64.8938C81.7241 64.6901 82.0135 64.39 82.2279 63.9934C82.4422 63.5968 82.5494 63.1145 82.5494 62.5464C82.5494 61.6996 82.3243 61.0511 81.8741 60.6009C81.4347 60.14 80.8934 59.9096 80.2503 59.9096C79.6071 59.9096 79.0658 60.14 78.6264 60.6009C78.1976 61.0511 77.9832 61.6996 77.9832 62.5464C77.9832 63.3931 78.1923 64.047 78.6103 64.5079C79.039 64.9581 79.575 65.1832 80.2181 65.1832ZM92.2557 57.9641C93.3169 57.9641 94.1743 58.3017 94.8282 58.977C95.482 59.6416 95.809 60.5741 95.809 61.7746V67H93.558V62.0801C93.558 61.3727 93.3812 60.8314 93.0274 60.4562C92.6737 60.0703 92.1914 59.8774 91.5804 59.8774C90.9587 59.8774 90.4657 60.0703 90.1012 60.4562C89.7475 60.8314 89.5707 61.3727 89.5707 62.0801V67H87.3197V58.0927H89.5707V59.2021C89.8708 58.8162 90.2513 58.5161 90.7122 58.3017C91.1838 58.0767 91.6983 57.9641 92.2557 57.9641ZM101.101 58.0927V67H98.8499V58.0927H101.101ZM101.728 55.7775L98.0299 57.4657V55.8579L101.728 53.9446V55.7775ZM107.935 64.9259L110.186 58.0927H112.581L109.285 67H106.552L103.272 58.0927H105.684L107.935 64.9259ZM122.93 62.3534C122.93 62.675 122.908 62.9644 122.865 63.2216H116.354C116.407 63.8648 116.632 64.3685 117.029 64.733C117.426 65.0974 117.913 65.2796 118.492 65.2796C119.328 65.2796 119.923 64.9206 120.277 64.2024H122.704C122.447 65.0599 121.954 65.7673 121.225 66.3247C120.496 66.8714 119.601 67.1447 118.54 67.1447C117.683 67.1447 116.911 66.9571 116.225 66.582C115.55 66.1961 115.019 65.6548 114.633 64.9581C114.258 64.2614 114.071 63.4575 114.071 62.5464C114.071 61.6246 114.258 60.8153 114.633 60.1186C115.008 59.4219 115.534 58.8859 116.209 58.5108C116.884 58.1356 117.661 57.948 118.54 57.948C119.387 57.948 120.143 58.1302 120.807 58.4947C121.483 58.8591 122.002 59.379 122.367 60.0543C122.742 60.7188 122.93 61.4852 122.93 62.3534ZM120.598 61.7103C120.588 61.1315 120.379 60.6706 119.971 60.3276C119.564 59.9739 119.065 59.797 118.476 59.797C117.919 59.797 117.447 59.9685 117.061 60.3115C116.686 60.6438 116.455 61.1101 116.37 61.7103H120.598ZM127.627 55.1022V67H125.376V55.1022H127.627Z" fill="#C6C6C6"/>
<path d="M359 72.5H360.5V71V57C360.5 52.8579 357.142 49.5 353 49.5H345C340.858 49.5 337.5 52.8579 337.5 57V71V72.5H339H359Z" fill="#2B3955" stroke="#2B3955" stroke-width="3"/>
<path d="M372.319 61.3727C372.319 60.2686 372.565 59.2825 373.058 58.4143C373.562 57.5354 374.243 56.8547 375.1 56.3724C375.968 55.8793 376.938 55.6328 378.01 55.6328C379.264 55.6328 380.363 55.9543 381.306 56.5975C382.25 57.2406 382.909 58.1302 383.284 59.2664H380.695C380.438 58.7305 380.074 58.3285 379.602 58.0606C379.141 57.7926 378.605 57.6586 377.994 57.6586C377.34 57.6586 376.756 57.814 376.242 58.1249C375.738 58.425 375.341 58.8538 375.052 59.4111C374.773 59.9685 374.634 60.6224 374.634 61.3727C374.634 62.1123 374.773 62.7661 375.052 63.3342C375.341 63.8916 375.738 64.3257 376.242 64.6365C376.756 64.9366 377.34 65.0867 377.994 65.0867C378.605 65.0867 379.141 64.9527 379.602 64.6848C380.074 64.4061 380.438 63.9988 380.695 63.4628H383.284C382.909 64.6097 382.25 65.5047 381.306 66.1479C380.374 66.7803 379.275 67.0965 378.01 67.0965C376.938 67.0965 375.968 66.8553 375.1 66.373C374.243 65.8799 373.562 65.1993 373.058 64.331C372.565 63.4628 372.319 62.4767 372.319 61.3727ZM389.966 67.1447C389.108 67.1447 388.336 66.9571 387.65 66.582C386.964 66.1961 386.423 65.6548 386.026 64.9581C385.641 64.2614 385.448 63.4575 385.448 62.5464C385.448 61.6353 385.646 60.8314 386.043 60.1346C386.45 59.4379 387.002 58.902 387.699 58.5268C388.395 58.141 389.172 57.948 390.03 57.948C390.887 57.948 391.664 58.141 392.361 58.5268C393.058 58.902 393.605 59.4379 394.001 60.1346C394.408 60.8314 394.612 61.6353 394.612 62.5464C394.612 63.4575 394.403 64.2614 393.985 64.9581C393.578 65.6548 393.02 66.1961 392.313 66.582C391.616 66.9571 390.834 67.1447 389.966 67.1447ZM389.966 65.1832C390.373 65.1832 390.753 65.0867 391.107 64.8938C391.472 64.6901 391.761 64.39 391.975 63.9934C392.19 63.5968 392.297 63.1145 392.297 62.5464C392.297 61.6996 392.072 61.0511 391.622 60.6009C391.182 60.14 390.641 59.9096 389.998 59.9096C389.355 59.9096 388.813 60.14 388.374 60.6009C387.945 61.0511 387.731 61.6996 387.731 62.5464C387.731 63.3931 387.94 64.047 388.358 64.5079C388.787 64.9581 389.322 65.1832 389.966 65.1832ZM408.129 57.9641C409.222 57.9641 410.101 58.3017 410.766 58.977C411.441 59.6416 411.779 60.5741 411.779 61.7746V67H409.528V62.0801C409.528 61.3834 409.351 60.8528 408.997 60.4884C408.643 60.1132 408.161 59.9256 407.55 59.9256C406.939 59.9256 406.451 60.1132 406.087 60.4884C405.733 60.8528 405.556 61.3834 405.556 62.0801V67H403.306V62.0801C403.306 61.3834 403.129 60.8528 402.775 60.4884C402.421 60.1132 401.939 59.9256 401.328 59.9256C400.706 59.9256 400.213 60.1132 399.849 60.4884C399.495 60.8528 399.318 61.3834 399.318 62.0801V67H397.067V58.0927H399.318V59.17C399.608 58.7948 399.977 58.5 400.428 58.2857C400.888 58.0713 401.392 57.9641 401.939 57.9641C402.636 57.9641 403.257 58.1142 403.804 58.4143C404.351 58.7037 404.774 59.1217 405.074 59.6684C405.363 59.1539 405.782 58.7412 406.328 58.4304C406.886 58.1195 407.486 57.9641 408.129 57.9641ZM416.97 59.379C417.259 58.9717 417.656 58.634 418.159 58.3661C418.674 58.0874 419.258 57.948 419.912 57.948C420.673 57.948 421.359 58.1356 421.97 58.5108C422.591 58.8859 423.079 59.4219 423.433 60.1186C423.797 60.8046 423.98 61.6031 423.98 62.5142C423.98 63.4253 423.797 64.2346 423.433 64.942C423.079 65.6387 422.591 66.18 421.97 66.5659C421.359 66.9518 420.673 67.1447 419.912 67.1447C419.258 67.1447 418.679 67.0107 418.175 66.7428C417.682 66.4748 417.28 66.1371 416.97 65.7298V71.2446H414.719V58.0927H416.97V59.379ZM421.68 62.5142C421.68 61.9783 421.568 61.5174 421.343 61.1315C421.128 60.7349 420.839 60.4348 420.475 60.2311C420.121 60.0275 419.735 59.9256 419.317 59.9256C418.91 59.9256 418.524 60.0328 418.159 60.2472C417.806 60.4509 417.516 60.751 417.291 61.1476C417.077 61.5442 416.97 62.0104 416.97 62.5464C416.97 63.0823 417.077 63.5486 417.291 63.9452C417.516 64.3418 417.806 64.6472 418.159 64.8616C418.524 65.0653 418.91 65.1671 419.317 65.1671C419.735 65.1671 420.121 65.0599 420.475 64.8455C420.839 64.6312 421.128 64.3257 421.343 63.9291C421.568 63.5325 421.68 63.0609 421.68 62.5142ZM428.67 59.4754C428.959 59.0038 429.335 58.634 429.796 58.3661C430.267 58.0981 430.803 57.9641 431.403 57.9641V60.3276H430.808C430.101 60.3276 429.565 60.4937 429.201 60.826C428.847 61.1583 428.67 61.7371 428.67 62.5624V67H426.419V58.0927H428.67V59.4754ZM433.145 62.5142C433.145 61.6138 433.321 60.8153 433.675 60.1186C434.04 59.4219 434.527 58.8859 435.138 58.5108C435.76 58.1356 436.451 57.948 437.212 57.948C437.877 57.948 438.456 58.082 438.949 58.35C439.453 58.6179 439.855 58.9556 440.155 59.3629V58.0927H442.422V67H440.155V65.6977C439.865 66.1157 439.463 66.4641 438.949 66.7428C438.445 67.0107 437.861 67.1447 437.196 67.1447C436.446 67.1447 435.76 66.9518 435.138 66.5659C434.527 66.18 434.04 65.6387 433.675 64.942C433.321 64.2346 433.145 63.4253 433.145 62.5142ZM440.155 62.5464C440.155 61.9997 440.047 61.5334 439.833 61.1476C439.619 60.751 439.329 60.4509 438.965 60.2472C438.6 60.0328 438.209 59.9256 437.791 59.9256C437.373 59.9256 436.987 60.0275 436.634 60.2311C436.28 60.4348 435.99 60.7349 435.765 61.1315C435.551 61.5174 435.444 61.9783 435.444 62.5142C435.444 63.0501 435.551 63.5218 435.765 63.9291C435.99 64.3257 436.28 64.6312 436.634 64.8455C436.998 65.0599 437.384 65.1671 437.791 65.1671C438.209 65.1671 438.6 65.0653 438.965 64.8616C439.329 64.6472 439.619 64.3471 439.833 63.9612C440.047 63.5646 440.155 63.093 440.155 62.5464ZM444.845 62.5142C444.845 61.6138 445.022 60.8153 445.376 60.1186C445.74 59.4219 446.233 58.8859 446.855 58.5108C447.477 58.1356 448.168 57.948 448.929 57.948C449.508 57.948 450.06 58.0767 450.585 58.3339C451.11 58.5804 451.528 58.9127 451.839 59.3307V55.1022H454.122V67H451.839V65.6816C451.56 66.1211 451.169 66.4748 450.665 66.7428C450.162 67.0107 449.577 67.1447 448.913 67.1447C448.163 67.1447 447.477 66.9518 446.855 66.5659C446.233 66.18 445.74 65.6387 445.376 64.942C445.022 64.2346 444.845 63.4253 444.845 62.5142ZM451.855 62.5464C451.855 61.9997 451.748 61.5334 451.534 61.1476C451.319 60.751 451.03 60.4509 450.665 60.2472C450.301 60.0328 449.91 59.9256 449.492 59.9256C449.074 59.9256 448.688 60.0275 448.334 60.2311C447.98 60.4348 447.691 60.7349 447.466 61.1315C447.252 61.5174 447.144 61.9783 447.144 62.5142C447.144 63.0501 447.252 63.5218 447.466 63.9291C447.691 64.3257 447.98 64.6312 448.334 64.8455C448.699 65.0599 449.084 65.1671 449.492 65.1671C449.91 65.1671 450.301 65.0653 450.665 64.8616C451.03 64.6472 451.319 64.3471 451.534 63.9612C451.748 63.5646 451.855 63.093 451.855 62.5464ZM461.08 67.1447C460.222 67.1447 459.451 66.9571 458.765 66.582C458.079 66.1961 457.537 65.6548 457.141 64.9581C456.755 64.2614 456.562 63.4575 456.562 62.5464C456.562 61.6353 456.76 60.8314 457.157 60.1346C457.564 59.4379 458.116 58.902 458.813 58.5268C459.509 58.141 460.287 57.948 461.144 57.948C462.002 57.948 462.779 58.141 463.475 58.5268C464.172 58.902 464.719 59.4379 465.115 60.1346C465.523 60.8314 465.726 61.6353 465.726 62.5464C465.726 63.4575 465.517 64.2614 465.099 64.9581C464.692 65.6548 464.135 66.1961 463.427 66.582C462.73 66.9571 461.948 67.1447 461.08 67.1447ZM461.08 65.1832C461.487 65.1832 461.868 65.0867 462.221 64.8938C462.586 64.6901 462.875 64.39 463.09 63.9934C463.304 63.5968 463.411 63.1145 463.411 62.5464C463.411 61.6996 463.186 61.0511 462.736 60.6009C462.296 60.14 461.755 59.9096 461.112 59.9096C460.469 59.9096 459.928 60.14 459.488 60.6009C459.059 61.0511 458.845 61.6996 458.845 62.5464C458.845 63.3931 459.054 64.047 459.472 64.5079C459.901 64.9581 460.437 65.1832 461.08 65.1832Z" fill="#C6C6C6"/>
<path d="M185 72.5H186.5V71V57C186.5 52.8579 183.142 49.5 179 49.5H171C166.858 49.5 163.5 52.8579 163.5 57V71V72.5H165H185Z" fill="#CC8000" stroke="#CC8000" stroke-width="3"/>
<path d="M201.984 67.1125C201.202 67.1125 200.494 66.9786 199.862 66.7106C199.24 66.4426 198.747 66.0568 198.383 65.553C198.018 65.0492 197.831 64.4543 197.82 63.7683H200.232C200.264 64.2292 200.425 64.5936 200.714 64.8616C201.014 65.1296 201.421 65.2636 201.936 65.2636C202.461 65.2636 202.874 65.1403 203.174 64.8938C203.474 64.6365 203.624 64.3042 203.624 63.8969C203.624 63.5646 203.522 63.2913 203.319 63.0769C203.115 62.8626 202.858 62.6964 202.547 62.5785C202.247 62.4499 201.829 62.3106 201.293 62.1605C200.564 61.9461 199.969 61.7371 199.508 61.5334C199.058 61.3191 198.667 61.0029 198.334 60.5848C198.013 60.1561 197.852 59.588 197.852 58.8806C197.852 58.216 198.018 57.6372 198.351 57.1441C198.683 56.6511 199.149 56.2759 199.749 56.0187C200.35 55.7507 201.036 55.6167 201.807 55.6167C202.965 55.6167 203.903 55.9007 204.621 56.4688C205.35 57.0262 205.752 57.8087 205.827 58.8162H203.351C203.329 58.4304 203.163 58.1142 202.852 57.8676C202.552 57.6104 202.15 57.4818 201.647 57.4818C201.207 57.4818 200.853 57.5943 200.585 57.8194C200.328 58.0445 200.2 58.3714 200.2 58.8002C200.2 59.1003 200.296 59.3522 200.489 59.5558C200.693 59.7488 200.939 59.9096 201.229 60.0382C201.529 60.1561 201.947 60.2954 202.483 60.4562C203.212 60.6706 203.806 60.885 204.267 61.0993C204.728 61.3137 205.125 61.6353 205.457 62.064C205.789 62.4928 205.956 63.0555 205.956 63.7522C205.956 64.3525 205.8 64.9098 205.489 65.4243C205.178 65.9388 204.723 66.3515 204.123 66.6624C203.522 66.9625 202.81 67.1125 201.984 67.1125ZM216.991 62.3534C216.991 62.675 216.97 62.9644 216.927 63.2216H210.415C210.469 63.8648 210.694 64.3685 211.09 64.733C211.487 65.0974 211.975 65.2796 212.554 65.2796C213.39 65.2796 213.985 64.9206 214.338 64.2024H216.766C216.509 65.0599 216.016 65.7673 215.287 66.3247C214.558 66.8714 213.663 67.1447 212.602 67.1447C211.744 67.1447 210.973 66.9571 210.287 66.582C209.611 66.1961 209.081 65.6548 208.695 64.9581C208.32 64.2614 208.132 63.4575 208.132 62.5464C208.132 61.6246 208.32 60.8153 208.695 60.1186C209.07 59.4219 209.595 58.8859 210.27 58.5108C210.946 58.1356 211.723 57.948 212.602 57.948C213.449 57.948 214.204 58.1302 214.869 58.4947C215.544 58.8591 216.064 59.379 216.428 60.0543C216.804 60.7188 216.991 61.4852 216.991 62.3534ZM214.66 61.7103C214.649 61.1315 214.44 60.6706 214.033 60.3276C213.625 59.9739 213.127 59.797 212.537 59.797C211.98 59.797 211.508 59.9685 211.123 60.3115C210.747 60.6438 210.517 61.1101 210.431 61.7103H214.66ZM221.689 55.1022V67H219.438V55.1022H221.689ZM232.997 62.3534C232.997 62.675 232.976 62.9644 232.933 63.2216H226.421C226.475 63.8648 226.7 64.3685 227.096 64.733C227.493 65.0974 227.981 65.2796 228.559 65.2796C229.396 65.2796 229.99 64.9206 230.344 64.2024H232.772C232.515 65.0599 232.022 65.7673 231.293 66.3247C230.564 66.8714 229.669 67.1447 228.608 67.1447C227.75 67.1447 226.978 66.9571 226.292 66.582C225.617 66.1961 225.087 65.6548 224.701 64.9581C224.326 64.2614 224.138 63.4575 224.138 62.5464C224.138 61.6246 224.326 60.8153 224.701 60.1186C225.076 59.4219 225.601 58.8859 226.276 58.5108C226.952 58.1356 227.729 57.948 228.608 57.948C229.454 57.948 230.21 58.1302 230.875 58.4947C231.55 58.8591 232.07 59.379 232.434 60.0543C232.809 60.7188 232.997 61.4852 232.997 62.3534ZM230.666 61.7103C230.655 61.1315 230.446 60.6706 230.039 60.3276C229.631 59.9739 229.133 59.797 228.543 59.797C227.986 59.797 227.514 59.9685 227.128 60.3115C226.753 60.6438 226.523 61.1101 226.437 61.7103H230.666ZM234.865 62.5464C234.865 61.6246 235.053 60.8206 235.428 60.1346C235.803 59.4379 236.323 58.902 236.987 58.5268C237.652 58.141 238.413 57.948 239.27 57.948C240.375 57.948 241.286 58.2267 242.004 58.7841C242.733 59.3307 243.22 60.1025 243.467 61.0993H241.039C240.91 60.7135 240.691 60.4133 240.38 60.199C240.08 59.9739 239.705 59.8613 239.254 59.8613C238.611 59.8613 238.102 60.0971 237.727 60.5688C237.352 61.0297 237.164 61.6889 237.164 62.5464C237.164 63.3931 237.352 64.0523 237.727 64.524C238.102 64.9849 238.611 65.2153 239.254 65.2153C240.165 65.2153 240.76 64.808 241.039 63.9934H243.467C243.22 64.9581 242.733 65.7245 242.004 66.2926C241.275 66.8607 240.364 67.1447 239.27 67.1447C238.413 67.1447 237.652 66.9571 236.987 66.582C236.323 66.1961 235.803 65.6602 235.428 64.9742C235.053 64.2774 234.865 63.4682 234.865 62.5464ZM247.061 57.0316C246.665 57.0316 246.332 56.9083 246.064 56.6618C245.807 56.4045 245.679 56.0883 245.679 55.7132C245.679 55.338 245.807 55.0272 246.064 54.7806C246.332 54.5234 246.665 54.3948 247.061 54.3948C247.458 54.3948 247.785 54.5234 248.042 54.7806C248.31 55.0272 248.444 55.338 248.444 55.7132C248.444 56.0883 248.31 56.4045 248.042 56.6618C247.785 56.9083 247.458 57.0316 247.061 57.0316ZM248.171 58.0927V67H245.92V58.0927H248.171ZM255.154 67.1447C254.296 67.1447 253.525 66.9571 252.839 66.582C252.153 66.1961 251.611 65.6548 251.215 64.9581C250.829 64.2614 250.636 63.4575 250.636 62.5464C250.636 61.6353 250.834 60.8314 251.231 60.1346C251.638 59.4379 252.19 58.902 252.887 58.5268C253.583 58.141 254.361 57.948 255.218 57.948C256.076 57.948 256.853 58.141 257.549 58.5268C258.246 58.902 258.793 59.4379 259.189 60.1346C259.597 60.8314 259.8 61.6353 259.8 62.5464C259.8 63.4575 259.591 64.2614 259.173 64.9581C258.766 65.6548 258.209 66.1961 257.501 66.582C256.804 66.9571 256.022 67.1447 255.154 67.1447ZM255.154 65.1832C255.561 65.1832 255.942 65.0867 256.295 64.8938C256.66 64.6901 256.949 64.39 257.164 63.9934C257.378 63.5968 257.485 63.1145 257.485 62.5464C257.485 61.6996 257.26 61.0511 256.81 60.6009C256.37 60.14 255.829 59.9096 255.186 59.9096C254.543 59.9096 254.001 60.14 253.562 60.6009C253.133 61.0511 252.919 61.6996 252.919 62.5464C252.919 63.3931 253.128 64.047 253.546 64.5079C253.975 64.9581 254.511 65.1832 255.154 65.1832ZM267.191 57.9641C268.253 57.9641 269.11 58.3017 269.764 58.977C270.418 59.6416 270.745 60.5741 270.745 61.7746V67H268.494V62.0801C268.494 61.3727 268.317 60.8314 267.963 60.4562C267.609 60.0703 267.127 59.8774 266.516 59.8774C265.894 59.8774 265.401 60.0703 265.037 60.4562C264.683 60.8314 264.506 61.3727 264.506 62.0801V67H262.255V58.0927H264.506V59.2021C264.806 58.8162 265.187 58.5161 265.648 58.3017C266.119 58.0767 266.634 57.9641 267.191 57.9641ZM273.11 62.5142C273.11 61.6138 273.287 60.8153 273.641 60.1186C274.005 59.4219 274.493 58.8859 275.104 58.5108C275.726 58.1356 276.417 57.948 277.178 57.948C277.843 57.948 278.421 58.082 278.914 58.35C279.418 58.6179 279.82 58.9556 280.12 59.3629V58.0927H282.387V67H280.12V65.6977C279.831 66.1157 279.429 66.4641 278.914 66.7428C278.411 67.0107 277.826 67.1447 277.162 67.1447C276.412 67.1447 275.726 66.9518 275.104 66.5659C274.493 66.18 274.005 65.6387 273.641 64.942C273.287 64.2346 273.11 63.4253 273.11 62.5142ZM280.12 62.5464C280.12 61.9997 280.013 61.5334 279.799 61.1476C279.584 60.751 279.295 60.4509 278.931 60.2472C278.566 60.0328 278.175 59.9256 277.757 59.9256C277.339 59.9256 276.953 60.0275 276.599 60.2311C276.245 60.4348 275.956 60.7349 275.731 61.1315C275.517 61.5174 275.409 61.9783 275.409 62.5142C275.409 63.0501 275.517 63.5218 275.731 63.9291C275.956 64.3257 276.245 64.6312 276.599 64.8455C276.964 65.0599 277.349 65.1671 277.757 65.1671C278.175 65.1671 278.566 65.0653 278.931 64.8616C279.295 64.6472 279.584 64.3471 279.799 63.9612C280.013 63.5646 280.12 63.093 280.12 62.5464ZM284.811 62.5142C284.811 61.6138 284.988 60.8153 285.341 60.1186C285.706 59.4219 286.199 58.8859 286.821 58.5108C287.442 58.1356 288.134 57.948 288.895 57.948C289.473 57.948 290.025 58.0767 290.551 58.3339C291.076 58.5804 291.494 58.9127 291.805 59.3307V55.1022H294.088V67H291.805V65.6816C291.526 66.1211 291.135 66.4748 290.631 66.7428C290.127 67.0107 289.543 67.1447 288.879 67.1447C288.128 67.1447 287.442 66.9518 286.821 66.5659C286.199 66.18 285.706 65.6387 285.341 64.942C284.988 64.2346 284.811 63.4253 284.811 62.5142ZM291.821 62.5464C291.821 61.9997 291.714 61.5334 291.499 61.1476C291.285 60.751 290.996 60.4509 290.631 60.2472C290.267 60.0328 289.875 59.9256 289.457 59.9256C289.039 59.9256 288.653 60.0275 288.3 60.2311C287.946 60.4348 287.657 60.7349 287.432 61.1315C287.217 61.5174 287.11 61.9783 287.11 62.5142C287.11 63.0501 287.217 63.5218 287.432 63.9291C287.657 64.3257 287.946 64.6312 288.3 64.8455C288.664 65.0599 289.05 65.1671 289.457 65.1671C289.875 65.1671 290.267 65.0653 290.631 64.8616C290.996 64.6472 291.285 64.3471 291.499 63.9612C291.714 63.5646 291.821 63.093 291.821 62.5464ZM301.045 67.1447C300.188 67.1447 299.416 66.9571 298.73 66.582C298.044 66.1961 297.503 65.6548 297.106 64.9581C296.72 64.2614 296.527 63.4575 296.527 62.5464C296.527 61.6353 296.726 60.8314 297.122 60.1346C297.53 59.4379 298.082 58.902 298.778 58.5268C299.475 58.141 300.252 57.948 301.11 57.948C301.967 57.948 302.744 58.141 303.441 58.5268C304.138 58.902 304.684 59.4379 305.081 60.1346C305.488 60.8314 305.692 61.6353 305.692 62.5464C305.692 63.4575 305.483 64.2614 305.065 64.9581C304.658 65.6548 304.1 66.1961 303.393 66.582C302.696 66.9571 301.914 67.1447 301.045 67.1447ZM301.045 65.1832C301.453 65.1832 301.833 65.0867 302.187 64.8938C302.551 64.6901 302.841 64.39 303.055 63.9934C303.27 63.5968 303.377 63.1145 303.377 62.5464C303.377 61.6996 303.152 61.0511 302.701 60.6009C302.262 60.14 301.721 59.9096 301.078 59.9096C300.434 59.9096 299.893 60.14 299.454 60.6009C299.025 61.0511 298.811 61.6996 298.811 62.5464C298.811 63.3931 299.02 64.047 299.438 64.5079C299.866 64.9581 300.402 65.1832 301.045 65.1832Z" fill="#C6C6C6"/>
<line x1="3" y1="2.5" x2="778" y2="2.5" stroke="#9B9B9B" stroke-width="5"/>
</svg>
