<svg width="20" height="21" viewBox="0 0 20 21" fill="none" xmlns="http://www.w3.org/2000/svg">
<path d="M10.0002 0.52417C4.50737 0.52417 0.0546875 4.97686 0.0546875 10.4697C0.0546875 15.9625 4.50737 20.4152 10.0002 20.4152C15.493 20.4152 19.9457 15.9625 19.9457 10.4697C19.9457 4.97686 15.493 0.52417 10.0002 0.52417ZM7.56562 14.5919H5.55165V8.11073H7.56562V14.5919ZM6.5462 7.31509C5.9101 7.31509 5.49882 6.86443 5.49882 6.30707C5.49882 5.73831 5.92254 5.30112 6.5721 5.30112C7.22167 5.30112 7.61949 5.73831 7.63192 6.30707C7.63192 6.86443 7.22167 7.31509 6.5462 7.31509ZM14.9211 14.5919H12.9072V11.0001C12.9072 10.1641 12.615 9.59634 11.8867 9.59634C11.3304 9.59634 10.9999 9.98069 10.8539 10.3505C10.8 10.4821 10.7865 10.6686 10.7865 10.854V14.5908H8.77151V10.1775C8.77151 9.36842 8.74561 8.69192 8.71867 8.10969H10.4685L10.5607 9.00997H10.6011C10.8663 8.58728 11.5158 7.96362 12.6026 7.96362C13.9276 7.96362 14.9211 8.85146 14.9211 10.7598V14.5919V14.5919Z" fill="white"/>
</svg>
