<svg width="359" height="45" viewBox="0 0 359 45" fill="none" xmlns="http://www.w3.org/2000/svg">
<rect width="359" height="45" rx="10" fill="#3792DE"/>
<path d="M157.909 28V16.3636H159.318V26.75H164.727V28H157.909ZM170.273 28.1818C169.485 28.1818 168.794 27.9943 168.199 27.6193C167.608 27.2443 167.146 26.7197 166.812 26.0455C166.483 25.3712 166.318 24.5833 166.318 23.6818C166.318 22.7727 166.483 21.9792 166.812 21.3011C167.146 20.6231 167.608 20.0966 168.199 19.7216C168.794 19.3466 169.485 19.1591 170.273 19.1591C171.061 19.1591 171.75 19.3466 172.341 19.7216C172.936 20.0966 173.398 20.6231 173.727 21.3011C174.061 21.9792 174.227 22.7727 174.227 23.6818C174.227 24.5833 174.061 25.3712 173.727 26.0455C173.398 26.7197 172.936 27.2443 172.341 27.6193C171.75 27.9943 171.061 28.1818 170.273 28.1818ZM170.273 26.9773C170.871 26.9773 171.364 26.8239 171.75 26.517C172.136 26.2102 172.422 25.8068 172.608 25.3068C172.794 24.8068 172.886 24.2652 172.886 23.6818C172.886 23.0985 172.794 22.5549 172.608 22.0511C172.422 21.5473 172.136 21.1402 171.75 20.8295C171.364 20.5189 170.871 20.3636 170.273 20.3636C169.674 20.3636 169.182 20.5189 168.795 20.8295C168.409 21.1402 168.123 21.5473 167.938 22.0511C167.752 22.5549 167.659 23.0985 167.659 23.6818C167.659 24.2652 167.752 24.8068 167.938 25.3068C168.123 25.8068 168.409 26.2102 168.795 26.517C169.182 26.8239 169.674 26.9773 170.273 26.9773ZM179.797 31.4545C179.149 31.4545 178.592 31.3712 178.126 31.2045C177.661 31.0417 177.272 30.8258 176.962 30.5568C176.655 30.2917 176.411 30.0076 176.229 29.7045L177.297 28.9545C177.418 29.1136 177.571 29.2955 177.757 29.5C177.943 29.7083 178.196 29.8883 178.518 30.0398C178.844 30.1951 179.27 30.2727 179.797 30.2727C180.501 30.2727 181.083 30.1023 181.541 29.7614C182 29.4205 182.229 28.8864 182.229 28.1591V26.3864H182.115C182.017 26.5455 181.876 26.7424 181.695 26.9773C181.517 27.2083 181.259 27.4148 180.922 27.5966C180.589 27.7746 180.138 27.8636 179.57 27.8636C178.865 27.8636 178.232 27.697 177.672 27.3636C177.115 27.0303 176.674 26.5455 176.348 25.9091C176.026 25.2727 175.865 24.5 175.865 23.5909C175.865 22.697 176.022 21.9186 176.337 21.2557C176.651 20.589 177.089 20.0739 177.649 19.7102C178.21 19.3428 178.857 19.1591 179.592 19.1591C180.161 19.1591 180.611 19.2538 180.945 19.4432C181.282 19.6288 181.539 19.8409 181.717 20.0795C181.899 20.3144 182.039 20.5076 182.138 20.6591H182.274V19.2727H183.57V28.25C183.57 29 183.399 29.6098 183.058 30.0795C182.721 30.553 182.267 30.8996 181.695 31.1193C181.126 31.3428 180.494 31.4545 179.797 31.4545ZM179.751 26.6591C180.289 26.6591 180.744 26.536 181.115 26.2898C181.486 26.0436 181.768 25.6894 181.962 25.2273C182.155 24.7652 182.251 24.2121 182.251 23.5682C182.251 22.9394 182.157 22.3845 181.967 21.9034C181.778 21.4223 181.498 21.0455 181.126 20.7727C180.755 20.5 180.297 20.3636 179.751 20.3636C179.183 20.3636 178.71 20.5076 178.331 20.7955C177.956 21.0833 177.674 21.4697 177.484 21.9545C177.299 22.4394 177.206 22.9773 177.206 23.5682C177.206 24.1742 177.301 24.7102 177.49 25.1761C177.683 25.6383 177.967 26.0019 178.342 26.267C178.721 26.5284 179.191 26.6591 179.751 26.6591ZM190.524 28V19.2727H191.865V28H190.524ZM191.206 17.8182C190.945 17.8182 190.719 17.7292 190.53 17.5511C190.344 17.3731 190.251 17.1591 190.251 16.9091C190.251 16.6591 190.344 16.4451 190.53 16.267C190.719 16.089 190.945 16 191.206 16C191.467 16 191.691 16.089 191.876 16.267C192.066 16.4451 192.161 16.6591 192.161 16.9091C192.161 17.1591 192.066 17.3731 191.876 17.5511C191.691 17.7292 191.467 17.8182 191.206 17.8182ZM195.662 22.75V28H194.321V19.2727H195.616V20.6364H195.73C195.935 20.1932 196.245 19.8371 196.662 19.5682C197.079 19.2955 197.616 19.1591 198.276 19.1591C198.866 19.1591 199.384 19.2803 199.827 19.5227C200.27 19.7614 200.615 20.125 200.861 20.6136C201.107 21.0985 201.23 21.7121 201.23 22.4545V28H199.889V22.5455C199.889 21.8598 199.711 21.3258 199.355 20.9432C198.999 20.5568 198.51 20.3636 197.889 20.3636C197.461 20.3636 197.079 20.4564 196.741 20.642C196.408 20.8277 196.145 21.0985 195.952 21.4545C195.759 21.8106 195.662 22.2424 195.662 22.75Z" fill="white"/>
</svg>
