<svg width="359" height="58" viewBox="0 0 359 58" fill="none" xmlns="http://www.w3.org/2000/svg">
<rect x="0.5" y="0.5" width="358" height="57" rx="14.5" stroke="#1E1E1E" stroke-opacity="0.2"/>
<path d="M99.5 22.81C98.7483 23.1361 97.9534 23.3516 97.14 23.45C97.9982 22.9373 98.6413 22.1308 98.95 21.18C98.1436 21.66 97.2608 21.9983 96.34 22.18C95.7245 21.5125 94.905 21.0683 94.0098 20.9168C93.1147 20.7654 92.1945 20.9153 91.3938 21.3432C90.593 21.771 89.9569 22.4525 89.5852 23.2808C89.2135 24.1091 89.1273 25.0374 89.34 25.92C87.7094 25.8375 86.1144 25.4129 84.6587 24.6738C83.2029 23.9347 81.9188 22.8977 80.89 21.63C80.5291 22.2601 80.3395 22.9738 80.34 23.7C80.3387 24.3744 80.5042 25.0386 80.8218 25.6335C81.1393 26.2285 81.599 26.7357 82.16 27.11C81.508 27.0922 80.8699 26.9173 80.3 26.6V26.65C80.3049 27.5949 80.636 28.5091 81.2373 29.2379C81.8386 29.9668 82.6733 30.4656 83.6 30.65C83.2433 30.7585 82.8729 30.8158 82.5 30.82C82.2419 30.817 81.9844 30.7936 81.73 30.75C81.9939 31.5628 82.5046 32.2731 83.1911 32.7821C83.8775 33.2911 84.7056 33.5735 85.56 33.59C84.1172 34.7252 82.3359 35.3448 80.5 35.35C80.1657 35.3511 79.8317 35.331 79.5 35.29C81.3744 36.5002 83.5588 37.1427 85.79 37.14C87.3297 37.156 88.8571 36.865 90.2831 36.2841C91.7091 35.7031 93.005 34.8439 94.0952 33.7565C95.1854 32.6691 96.048 31.3754 96.6326 29.9509C97.2172 28.5264 97.512 26.9997 97.5 25.46C97.5 25.29 97.5 25.11 97.5 24.93C98.2847 24.3448 98.9615 23.6274 99.5 22.81Z" fill="#4EA9DC"/>
<path d="M126.943 26.6477H125.17C125.102 26.2689 124.975 25.9356 124.79 25.6477C124.604 25.3598 124.377 25.1155 124.108 24.9148C123.839 24.714 123.538 24.5625 123.205 24.4602C122.875 24.358 122.525 24.3068 122.153 24.3068C121.483 24.3068 120.883 24.4754 120.352 24.8125C119.826 25.1496 119.409 25.6439 119.102 26.2955C118.799 26.947 118.648 27.7424 118.648 28.6818C118.648 29.6288 118.799 30.428 119.102 31.0795C119.409 31.7311 119.828 32.2235 120.358 32.5568C120.888 32.8902 121.485 33.0568 122.148 33.0568C122.515 33.0568 122.864 33.0076 123.193 32.9091C123.527 32.8068 123.828 32.6572 124.097 32.4602C124.366 32.2633 124.593 32.0227 124.778 31.7386C124.968 31.4508 125.098 31.1212 125.17 30.75L126.943 30.7557C126.848 31.3277 126.665 31.8542 126.392 32.3352C126.123 32.8125 125.777 33.2254 125.352 33.5739C124.932 33.9186 124.451 34.1856 123.909 34.375C123.367 34.5644 122.777 34.6591 122.136 34.6591C121.129 34.6591 120.231 34.4205 119.443 33.9432C118.655 33.4621 118.034 32.7746 117.58 31.8807C117.129 30.9867 116.903 29.9205 116.903 28.6818C116.903 27.4394 117.131 26.3731 117.585 25.483C118.04 24.589 118.661 23.9034 119.449 23.4261C120.237 22.9451 121.133 22.7045 122.136 22.7045C122.754 22.7045 123.33 22.7936 123.864 22.9716C124.402 23.1458 124.884 23.4034 125.312 23.7443C125.741 24.0814 126.095 24.4943 126.375 24.983C126.655 25.4678 126.845 26.0227 126.943 26.6477ZM132.584 34.6761C131.766 34.6761 131.052 34.4886 130.442 34.1136C129.832 33.7386 129.358 33.214 129.021 32.5398C128.684 31.8655 128.516 31.0777 128.516 30.1761C128.516 29.2708 128.684 28.4792 129.021 27.8011C129.358 27.1231 129.832 26.5966 130.442 26.2216C131.052 25.8466 131.766 25.6591 132.584 25.6591C133.402 25.6591 134.116 25.8466 134.726 26.2216C135.336 26.5966 135.809 27.1231 136.146 27.8011C136.483 28.4792 136.652 29.2708 136.652 30.1761C136.652 31.0777 136.483 31.8655 136.146 32.5398C135.809 33.214 135.336 33.7386 134.726 34.1136C134.116 34.4886 133.402 34.6761 132.584 34.6761ZM132.589 33.25C133.12 33.25 133.559 33.1098 133.908 32.8295C134.256 32.5492 134.514 32.1761 134.68 31.7102C134.851 31.2443 134.936 30.7311 134.936 30.1705C134.936 29.6136 134.851 29.1023 134.68 28.6364C134.514 28.1667 134.256 27.7898 133.908 27.5057C133.559 27.2216 133.12 27.0795 132.589 27.0795C132.055 27.0795 131.612 27.2216 131.26 27.5057C130.911 27.7898 130.652 28.1667 130.482 28.6364C130.315 29.1023 130.232 29.6136 130.232 30.1705C130.232 30.7311 130.315 31.2443 130.482 31.7102C130.652 32.1761 130.911 32.5492 131.26 32.8295C131.612 33.1098 132.055 33.25 132.589 33.25ZM140.247 29.3182V34.5H138.548V25.7727H140.179V27.1932H140.287C140.488 26.7311 140.802 26.3598 141.23 26.0795C141.662 25.7992 142.205 25.6591 142.861 25.6591C143.455 25.6591 143.976 25.7841 144.423 26.0341C144.87 26.2803 145.217 26.6477 145.463 27.1364C145.709 27.625 145.832 28.2292 145.832 28.9489V34.5H144.134V29.1534C144.134 28.5208 143.969 28.0265 143.639 27.6705C143.31 27.3106 142.857 27.1307 142.281 27.1307C141.887 27.1307 141.537 27.2159 141.23 27.3864C140.927 27.5568 140.687 27.8068 140.509 28.1364C140.334 28.4621 140.247 28.8561 140.247 29.3182ZM152.185 25.7727V27.1364H147.418V25.7727H152.185ZM148.696 23.6818H150.395V31.9375C150.395 32.267 150.444 32.5152 150.543 32.6818C150.641 32.8447 150.768 32.9564 150.923 33.017C151.082 33.0739 151.255 33.1023 151.44 33.1023C151.577 33.1023 151.696 33.0928 151.798 33.0739C151.901 33.0549 151.98 33.0398 152.037 33.0284L152.344 34.4318C152.245 34.4697 152.105 34.5076 151.923 34.5455C151.741 34.5871 151.514 34.6098 151.241 34.6136C150.795 34.6212 150.378 34.5417 149.991 34.375C149.605 34.2083 149.293 33.9508 149.054 33.6023C148.815 33.2538 148.696 32.8163 148.696 32.2898V23.6818ZM154.064 34.5V25.7727H155.763V34.5H154.064ZM154.922 24.4261C154.626 24.4261 154.373 24.3277 154.161 24.1307C153.952 23.9299 153.848 23.6913 153.848 23.4148C153.848 23.1345 153.952 22.8958 154.161 22.6989C154.373 22.4981 154.626 22.3977 154.922 22.3977C155.217 22.3977 155.469 22.4981 155.678 22.6989C155.89 22.8958 155.996 23.1345 155.996 23.4148C155.996 23.6913 155.89 23.9299 155.678 24.1307C155.469 24.3277 155.217 24.4261 154.922 24.4261ZM159.747 29.3182V34.5H158.048V25.7727H159.679V27.1932H159.787C159.988 26.7311 160.302 26.3598 160.73 26.0795C161.162 25.7992 161.705 25.6591 162.361 25.6591C162.955 25.6591 163.476 25.7841 163.923 26.0341C164.37 26.2803 164.717 26.6477 164.963 27.1364C165.209 27.625 165.332 28.2292 165.332 28.9489V34.5H163.634V29.1534C163.634 28.5208 163.469 28.0265 163.139 27.6705C162.81 27.3106 162.357 27.1307 161.781 27.1307C161.387 27.1307 161.037 27.2159 160.73 27.3864C160.427 27.5568 160.187 27.8068 160.009 28.1364C159.834 28.4621 159.747 28.8561 159.747 29.3182ZM173.139 30.8807V25.7727H174.844V34.5H173.173V32.9886H173.082C172.882 33.4545 172.56 33.8428 172.116 34.1534C171.677 34.4602 171.13 34.6136 170.474 34.6136C169.914 34.6136 169.418 34.4905 168.986 34.2443C168.558 33.9943 168.221 33.625 167.974 33.1364C167.732 32.6477 167.611 32.0436 167.611 31.3239V25.7727H169.31V31.1193C169.31 31.714 169.474 32.1875 169.804 32.5398C170.134 32.892 170.562 33.0682 171.088 33.0682C171.406 33.0682 171.723 32.9886 172.037 32.8295C172.355 32.6705 172.618 32.4299 172.827 32.108C173.039 31.786 173.143 31.3769 173.139 30.8807ZM180.888 34.6761C180.028 34.6761 179.287 34.4924 178.666 34.125C178.049 33.7538 177.571 33.233 177.234 32.5625C176.901 31.8883 176.734 31.0985 176.734 30.1932C176.734 29.2992 176.901 28.5114 177.234 27.8295C177.571 27.1477 178.041 26.6155 178.643 26.233C179.25 25.8504 179.958 25.6591 180.768 25.6591C181.261 25.6591 181.738 25.7405 182.2 25.9034C182.662 26.0663 183.077 26.322 183.445 26.6705C183.812 27.0189 184.102 27.4716 184.314 28.0284C184.526 28.5814 184.632 29.2538 184.632 30.0455V30.6477H177.695V29.375H182.967C182.967 28.928 182.876 28.5322 182.695 28.1875C182.513 27.839 182.257 27.5644 181.928 27.3636C181.602 27.1629 181.219 27.0625 180.78 27.0625C180.303 27.0625 179.886 27.1799 179.53 27.4148C179.178 27.6458 178.905 27.9489 178.712 28.3239C178.522 28.6951 178.428 29.0985 178.428 29.5341V30.5284C178.428 31.1117 178.53 31.608 178.734 32.017C178.943 32.4261 179.232 32.7386 179.604 32.9545C179.975 33.1667 180.409 33.2727 180.905 33.2727C181.227 33.2727 181.52 33.2273 181.786 33.1364C182.051 33.0417 182.28 32.9015 182.473 32.7159C182.666 32.5303 182.814 32.3011 182.916 32.0284L184.524 32.3182C184.395 32.7917 184.164 33.2064 183.831 33.5625C183.501 33.9148 183.087 34.1894 182.587 34.3864C182.09 34.5795 181.524 34.6761 180.888 34.6761ZM192.643 34.5L190.075 25.7727H191.831L193.541 32.1818H193.626L195.342 25.7727H197.098L198.803 32.1534H198.888L200.587 25.7727H202.342L199.78 34.5H198.047L196.274 28.1989H196.143L194.371 34.5H192.643ZM203.955 34.5V25.7727H205.653V34.5H203.955ZM204.812 24.4261C204.517 24.4261 204.263 24.3277 204.051 24.1307C203.843 23.9299 203.739 23.6913 203.739 23.4148C203.739 23.1345 203.843 22.8958 204.051 22.6989C204.263 22.4981 204.517 22.3977 204.812 22.3977C205.108 22.3977 205.36 22.4981 205.568 22.6989C205.78 22.8958 205.886 23.1345 205.886 23.4148C205.886 23.6913 205.78 23.9299 205.568 24.1307C205.36 24.3277 205.108 24.4261 204.812 24.4261ZM212.013 25.7727V27.1364H207.246V25.7727H212.013ZM208.524 23.6818H210.223V31.9375C210.223 32.267 210.272 32.5152 210.371 32.6818C210.469 32.8447 210.596 32.9564 210.751 33.017C210.911 33.0739 211.083 33.1023 211.268 33.1023C211.405 33.1023 211.524 33.0928 211.626 33.0739C211.729 33.0549 211.808 33.0398 211.865 33.0284L212.172 34.4318C212.073 34.4697 211.933 34.5076 211.751 34.5455C211.57 34.5871 211.342 34.6098 211.07 34.6136C210.623 34.6212 210.206 34.5417 209.82 34.375C209.433 34.2083 209.121 33.9508 208.882 33.6023C208.643 33.2538 208.524 32.8163 208.524 32.2898V23.6818ZM215.778 29.3182V34.5H214.08V22.8636H215.756V27.1932H215.864C216.068 26.7235 216.381 26.3504 216.801 26.0739C217.222 25.7973 217.771 25.6591 218.449 25.6591C219.047 25.6591 219.57 25.7822 220.017 26.0284C220.468 26.2746 220.816 26.642 221.062 27.1307C221.312 27.6155 221.438 28.2216 221.438 28.9489V34.5H219.739V29.1534C219.739 28.5133 219.574 28.017 219.244 27.6648C218.915 27.3087 218.456 27.1307 217.869 27.1307C217.468 27.1307 217.108 27.2159 216.79 27.3864C216.475 27.5568 216.227 27.8068 216.045 28.1364C215.867 28.4621 215.778 28.8561 215.778 29.3182ZM227.501 24.375V22.8636H236.507V24.375H232.876V34.5H231.126V24.375H227.501ZM239.253 34.5L236.685 25.7727H238.44L240.151 32.1818H240.236L241.952 25.7727H243.707L245.412 32.1534H245.497L247.196 25.7727H248.952L246.389 34.5H244.656L242.884 28.1989H242.753L240.98 34.5H239.253ZM250.564 34.5V25.7727H252.263V34.5H250.564ZM251.422 24.4261C251.126 24.4261 250.873 24.3277 250.661 24.1307C250.452 23.9299 250.348 23.6913 250.348 23.4148C250.348 23.1345 250.452 22.8958 250.661 22.6989C250.873 22.4981 251.126 22.3977 251.422 22.3977C251.717 22.3977 251.969 22.4981 252.178 22.6989C252.39 22.8958 252.496 23.1345 252.496 23.4148C252.496 23.6913 252.39 23.9299 252.178 24.1307C251.969 24.3277 251.717 24.4261 251.422 24.4261ZM258.622 25.7727V27.1364H253.855V25.7727H258.622ZM255.134 23.6818H256.832V31.9375C256.832 32.267 256.882 32.5152 256.98 32.6818C257.079 32.8447 257.205 32.9564 257.361 33.017C257.52 33.0739 257.692 33.1023 257.878 33.1023C258.014 33.1023 258.134 33.0928 258.236 33.0739C258.338 33.0549 258.418 33.0398 258.474 33.0284L258.781 34.4318C258.683 34.4697 258.543 34.5076 258.361 34.5455C258.179 34.5871 257.952 34.6098 257.679 34.6136C257.232 34.6212 256.815 34.5417 256.429 34.375C256.043 34.2083 255.73 33.9508 255.491 33.6023C255.253 33.2538 255.134 32.8163 255.134 32.2898V23.6818ZM264.575 25.7727V27.1364H259.808V25.7727H264.575ZM261.087 23.6818H262.786V31.9375C262.786 32.267 262.835 32.5152 262.933 32.6818C263.032 32.8447 263.159 32.9564 263.314 33.017C263.473 33.0739 263.645 33.1023 263.831 33.1023C263.967 33.1023 264.087 33.0928 264.189 33.0739C264.291 33.0549 264.371 33.0398 264.428 33.0284L264.734 34.4318C264.636 34.4697 264.496 34.5076 264.314 34.5455C264.132 34.5871 263.905 34.6098 263.632 34.6136C263.185 34.6212 262.768 34.5417 262.382 34.375C261.996 34.2083 261.683 33.9508 261.445 33.6023C261.206 33.2538 261.087 32.8163 261.087 32.2898V23.6818ZM270.122 34.6761C269.262 34.6761 268.522 34.4924 267.901 34.125C267.283 33.7538 266.806 33.233 266.469 32.5625C266.135 31.8883 265.969 31.0985 265.969 30.1932C265.969 29.2992 266.135 28.5114 266.469 27.8295C266.806 27.1477 267.276 26.6155 267.878 26.233C268.484 25.8504 269.192 25.6591 270.003 25.6591C270.495 25.6591 270.973 25.7405 271.435 25.9034C271.897 26.0663 272.312 26.322 272.679 26.6705C273.046 27.0189 273.336 27.4716 273.548 28.0284C273.76 28.5814 273.866 29.2538 273.866 30.0455V30.6477H266.929V29.375H272.202C272.202 28.928 272.111 28.5322 271.929 28.1875C271.747 27.839 271.491 27.5644 271.162 27.3636C270.836 27.1629 270.454 27.0625 270.014 27.0625C269.537 27.0625 269.12 27.1799 268.764 27.4148C268.412 27.6458 268.139 27.9489 267.946 28.3239C267.757 28.6951 267.662 29.0985 267.662 29.5341V30.5284C267.662 31.1117 267.764 31.608 267.969 32.017C268.177 32.4261 268.467 32.7386 268.838 32.9545C269.209 33.1667 269.643 33.2727 270.139 33.2727C270.461 33.2727 270.755 33.2273 271.02 33.1364C271.285 33.0417 271.514 32.9015 271.707 32.7159C271.901 32.5303 272.048 32.3011 272.151 32.0284L273.759 32.3182C273.63 32.7917 273.399 33.2064 273.065 33.5625C272.736 33.9148 272.321 34.1894 271.821 34.3864C271.325 34.5795 270.759 34.6761 270.122 34.6761ZM275.751 34.5V25.7727H277.393V27.1591H277.484C277.643 26.6894 277.924 26.3201 278.325 26.0511C278.731 25.7784 279.189 25.642 279.7 25.642C279.806 25.642 279.931 25.6458 280.075 25.6534C280.223 25.661 280.339 25.6705 280.422 25.6818V27.3068C280.354 27.2879 280.232 27.267 280.058 27.2443C279.884 27.2178 279.71 27.2045 279.536 27.2045C279.134 27.2045 278.776 27.2898 278.462 27.4602C278.151 27.6269 277.905 27.8598 277.723 28.1591C277.541 28.4545 277.45 28.7917 277.45 29.1705V34.5H275.751Z" fill="#1E1E1E"/>
</svg>
