<svg width="359" height="58" viewBox="0 0 359 58" fill="none" xmlns="http://www.w3.org/2000/svg">
<rect width="359" height="58" rx="15" fill="#5985E5"/>
<rect x="72.5" y="12" width="33" height="34" rx="10" fill="white"/>
<g clip-path="url(#clip0_104_94)">
<rect x="78" y="18" width="22" height="22" rx="5" fill="white"/>
<path d="M99.9884 29.2058C99.9884 28.3045 99.9135 27.6467 99.7516 26.9647H89.2191V31.0328H95.4014C95.2768 32.0438 94.6037 33.5663 93.108 34.5894L93.087 34.7256L96.4172 37.2466L96.6479 37.2691C98.7668 35.3568 99.9884 32.5432 99.9884 29.2058Z" fill="#3792DE"/>
<path d="M89.2191 39.9244C92.2479 39.9244 94.7906 38.95 96.6479 37.2691L93.108 34.5894C92.1607 35.235 90.8893 35.6857 89.2191 35.6857C86.2526 35.6857 83.7348 33.7734 82.8373 31.1303L82.7057 31.1412L79.243 33.76L79.1977 33.883C81.0424 37.464 84.8316 39.9244 89.2191 39.9244Z" fill="#34A853"/>
<path d="M82.8373 31.1303C82.6005 30.4482 82.4634 29.7174 82.4634 28.9622C82.4634 28.207 82.6005 27.4762 82.8249 26.7941L82.8186 26.6489L79.3124 23.988L79.1977 24.0414C78.4374 25.5274 78.0012 27.1961 78.0012 28.9622C78.0012 30.7284 78.4374 32.397 79.1977 33.883L82.8373 31.1303Z" fill="#FBBC05"/>
<path d="M89.2191 22.2387C91.3256 22.2387 92.7465 23.1278 93.5567 23.8709L96.7227 20.8502C94.7783 19.084 92.2479 18 89.2191 18C84.8316 18 81.0424 20.4604 79.1977 24.0414L82.8248 26.7941C83.7348 24.151 86.2526 22.2387 89.2191 22.2387Z" fill="#EB4335"/>
</g>
<path d="M126.443 26.6477H124.67C124.602 26.2689 124.475 25.9356 124.29 25.6477C124.104 25.3598 123.877 25.1155 123.608 24.9148C123.339 24.714 123.038 24.5625 122.705 24.4602C122.375 24.358 122.025 24.3068 121.653 24.3068C120.983 24.3068 120.383 24.4754 119.852 24.8125C119.326 25.1496 118.909 25.6439 118.602 26.2955C118.299 26.947 118.148 27.7424 118.148 28.6818C118.148 29.6288 118.299 30.428 118.602 31.0795C118.909 31.7311 119.328 32.2235 119.858 32.5568C120.388 32.8902 120.985 33.0568 121.648 33.0568C122.015 33.0568 122.364 33.0076 122.693 32.9091C123.027 32.8068 123.328 32.6572 123.597 32.4602C123.866 32.2633 124.093 32.0227 124.278 31.7386C124.468 31.4508 124.598 31.1212 124.67 30.75L126.443 30.7557C126.348 31.3277 126.165 31.8542 125.892 32.3352C125.623 32.8125 125.277 33.2254 124.852 33.5739C124.432 33.9186 123.951 34.1856 123.409 34.375C122.867 34.5644 122.277 34.6591 121.636 34.6591C120.629 34.6591 119.731 34.4205 118.943 33.9432C118.155 33.4621 117.534 32.7746 117.08 31.8807C116.629 30.9867 116.403 29.9205 116.403 28.6818C116.403 27.4394 116.631 26.3731 117.085 25.483C117.54 24.589 118.161 23.9034 118.949 23.4261C119.737 22.9451 120.633 22.7045 121.636 22.7045C122.254 22.7045 122.83 22.7936 123.364 22.9716C123.902 23.1458 124.384 23.4034 124.812 23.7443C125.241 24.0814 125.595 24.4943 125.875 24.983C126.155 25.4678 126.345 26.0227 126.443 26.6477ZM132.084 34.6761C131.266 34.6761 130.552 34.4886 129.942 34.1136C129.332 33.7386 128.858 33.214 128.521 32.5398C128.184 31.8655 128.016 31.0777 128.016 30.1761C128.016 29.2708 128.184 28.4792 128.521 27.8011C128.858 27.1231 129.332 26.5966 129.942 26.2216C130.552 25.8466 131.266 25.6591 132.084 25.6591C132.902 25.6591 133.616 25.8466 134.226 26.2216C134.836 26.5966 135.309 27.1231 135.646 27.8011C135.983 28.4792 136.152 29.2708 136.152 30.1761C136.152 31.0777 135.983 31.8655 135.646 32.5398C135.309 33.214 134.836 33.7386 134.226 34.1136C133.616 34.4886 132.902 34.6761 132.084 34.6761ZM132.089 33.25C132.62 33.25 133.059 33.1098 133.408 32.8295C133.756 32.5492 134.014 32.1761 134.18 31.7102C134.351 31.2443 134.436 30.7311 134.436 30.1705C134.436 29.6136 134.351 29.1023 134.18 28.6364C134.014 28.1667 133.756 27.7898 133.408 27.5057C133.059 27.2216 132.62 27.0795 132.089 27.0795C131.555 27.0795 131.112 27.2216 130.76 27.5057C130.411 27.7898 130.152 28.1667 129.982 28.6364C129.815 29.1023 129.732 29.6136 129.732 30.1705C129.732 30.7311 129.815 31.2443 129.982 31.7102C130.152 32.1761 130.411 32.5492 130.76 32.8295C131.112 33.1098 131.555 33.25 132.089 33.25ZM139.747 29.3182V34.5H138.048V25.7727H139.679V27.1932H139.787C139.988 26.7311 140.302 26.3598 140.73 26.0795C141.162 25.7992 141.705 25.6591 142.361 25.6591C142.955 25.6591 143.476 25.7841 143.923 26.0341C144.37 26.2803 144.717 26.6477 144.963 27.1364C145.209 27.625 145.332 28.2292 145.332 28.9489V34.5H143.634V29.1534C143.634 28.5208 143.469 28.0265 143.139 27.6705C142.81 27.3106 142.357 27.1307 141.781 27.1307C141.387 27.1307 141.037 27.2159 140.73 27.3864C140.427 27.5568 140.187 27.8068 140.009 28.1364C139.834 28.4621 139.747 28.8561 139.747 29.3182ZM151.685 25.7727V27.1364H146.918V25.7727H151.685ZM148.196 23.6818H149.895V31.9375C149.895 32.267 149.944 32.5152 150.043 32.6818C150.141 32.8447 150.268 32.9564 150.423 33.017C150.582 33.0739 150.755 33.1023 150.94 33.1023C151.077 33.1023 151.196 33.0928 151.298 33.0739C151.401 33.0549 151.48 33.0398 151.537 33.0284L151.844 34.4318C151.745 34.4697 151.605 34.5076 151.423 34.5455C151.241 34.5871 151.014 34.6098 150.741 34.6136C150.295 34.6212 149.878 34.5417 149.491 34.375C149.105 34.2083 148.793 33.9508 148.554 33.6023C148.315 33.2538 148.196 32.8163 148.196 32.2898V23.6818ZM153.564 34.5V25.7727H155.263V34.5H153.564ZM154.422 24.4261C154.126 24.4261 153.873 24.3277 153.661 24.1307C153.452 23.9299 153.348 23.6913 153.348 23.4148C153.348 23.1345 153.452 22.8958 153.661 22.6989C153.873 22.4981 154.126 22.3977 154.422 22.3977C154.717 22.3977 154.969 22.4981 155.178 22.6989C155.39 22.8958 155.496 23.1345 155.496 23.4148C155.496 23.6913 155.39 23.9299 155.178 24.1307C154.969 24.3277 154.717 24.4261 154.422 24.4261ZM159.247 29.3182V34.5H157.548V25.7727H159.179V27.1932H159.287C159.488 26.7311 159.802 26.3598 160.23 26.0795C160.662 25.7992 161.205 25.6591 161.861 25.6591C162.455 25.6591 162.976 25.7841 163.423 26.0341C163.87 26.2803 164.217 26.6477 164.463 27.1364C164.709 27.625 164.832 28.2292 164.832 28.9489V34.5H163.134V29.1534C163.134 28.5208 162.969 28.0265 162.639 27.6705C162.31 27.3106 161.857 27.1307 161.281 27.1307C160.887 27.1307 160.537 27.2159 160.23 27.3864C159.927 27.5568 159.687 27.8068 159.509 28.1364C159.334 28.4621 159.247 28.8561 159.247 29.3182ZM172.639 30.8807V25.7727H174.344V34.5H172.673V32.9886H172.582C172.382 33.4545 172.06 33.8428 171.616 34.1534C171.177 34.4602 170.63 34.6136 169.974 34.6136C169.414 34.6136 168.918 34.4905 168.486 34.2443C168.058 33.9943 167.721 33.625 167.474 33.1364C167.232 32.6477 167.111 32.0436 167.111 31.3239V25.7727H168.81V31.1193C168.81 31.714 168.974 32.1875 169.304 32.5398C169.634 32.892 170.062 33.0682 170.588 33.0682C170.906 33.0682 171.223 32.9886 171.537 32.8295C171.855 32.6705 172.118 32.4299 172.327 32.108C172.539 31.786 172.643 31.3769 172.639 30.8807ZM180.388 34.6761C179.528 34.6761 178.787 34.4924 178.166 34.125C177.549 33.7538 177.071 33.233 176.734 32.5625C176.401 31.8883 176.234 31.0985 176.234 30.1932C176.234 29.2992 176.401 28.5114 176.734 27.8295C177.071 27.1477 177.541 26.6155 178.143 26.233C178.75 25.8504 179.458 25.6591 180.268 25.6591C180.761 25.6591 181.238 25.7405 181.7 25.9034C182.162 26.0663 182.577 26.322 182.945 26.6705C183.312 27.0189 183.602 27.4716 183.814 28.0284C184.026 28.5814 184.132 29.2538 184.132 30.0455V30.6477H177.195V29.375H182.467C182.467 28.928 182.376 28.5322 182.195 28.1875C182.013 27.839 181.757 27.5644 181.428 27.3636C181.102 27.1629 180.719 27.0625 180.28 27.0625C179.803 27.0625 179.386 27.1799 179.03 27.4148C178.678 27.6458 178.405 27.9489 178.212 28.3239C178.022 28.6951 177.928 29.0985 177.928 29.5341V30.5284C177.928 31.1117 178.03 31.608 178.234 32.017C178.443 32.4261 178.732 32.7386 179.104 32.9545C179.475 33.1667 179.909 33.2727 180.405 33.2727C180.727 33.2727 181.02 33.2273 181.286 33.1364C181.551 33.0417 181.78 32.9015 181.973 32.7159C182.166 32.5303 182.314 32.3011 182.416 32.0284L184.024 32.3182C183.895 32.7917 183.664 33.2064 183.331 33.5625C183.001 33.9148 182.587 34.1894 182.087 34.3864C181.59 34.5795 181.024 34.6761 180.388 34.6761ZM192.143 34.5L189.575 25.7727H191.331L193.041 32.1818H193.126L194.842 25.7727H196.598L198.303 32.1534H198.388L200.087 25.7727H201.842L199.28 34.5H197.547L195.774 28.1989H195.643L193.871 34.5H192.143ZM203.455 34.5V25.7727H205.153V34.5H203.455ZM204.312 24.4261C204.017 24.4261 203.763 24.3277 203.551 24.1307C203.343 23.9299 203.239 23.6913 203.239 23.4148C203.239 23.1345 203.343 22.8958 203.551 22.6989C203.763 22.4981 204.017 22.3977 204.312 22.3977C204.608 22.3977 204.86 22.4981 205.068 22.6989C205.28 22.8958 205.386 23.1345 205.386 23.4148C205.386 23.6913 205.28 23.9299 205.068 24.1307C204.86 24.3277 204.608 24.4261 204.312 24.4261ZM211.513 25.7727V27.1364H206.746V25.7727H211.513ZM208.024 23.6818H209.723V31.9375C209.723 32.267 209.772 32.5152 209.871 32.6818C209.969 32.8447 210.096 32.9564 210.251 33.017C210.411 33.0739 210.583 33.1023 210.768 33.1023C210.905 33.1023 211.024 33.0928 211.126 33.0739C211.229 33.0549 211.308 33.0398 211.365 33.0284L211.672 34.4318C211.573 34.4697 211.433 34.5076 211.251 34.5455C211.07 34.5871 210.842 34.6098 210.57 34.6136C210.123 34.6212 209.706 34.5417 209.32 34.375C208.933 34.2083 208.621 33.9508 208.382 33.6023C208.143 33.2538 208.024 32.8163 208.024 32.2898V23.6818ZM215.278 29.3182V34.5H213.58V22.8636H215.256V27.1932H215.364C215.568 26.7235 215.881 26.3504 216.301 26.0739C216.722 25.7973 217.271 25.6591 217.949 25.6591C218.547 25.6591 219.07 25.7822 219.517 26.0284C219.968 26.2746 220.316 26.642 220.562 27.1307C220.812 27.6155 220.938 28.2216 220.938 28.9489V34.5H219.239V29.1534C219.239 28.5133 219.074 28.017 218.744 27.6648C218.415 27.3087 217.956 27.1307 217.369 27.1307C216.968 27.1307 216.608 27.2159 216.29 27.3864C215.975 27.5568 215.727 27.8068 215.545 28.1364C215.367 28.4621 215.278 28.8561 215.278 29.3182ZM235.45 26.5398C235.34 26.1951 235.193 25.8864 235.007 25.6136C234.825 25.3371 234.607 25.1023 234.354 24.9091C234.1 24.7121 233.81 24.5625 233.484 24.4602C233.162 24.358 232.808 24.3068 232.422 24.3068C231.767 24.3068 231.176 24.4754 230.649 24.8125C230.123 25.1496 229.706 25.6439 229.399 26.2955C229.096 26.9432 228.945 27.7367 228.945 28.6761C228.945 29.6193 229.098 30.4167 229.405 31.0682C229.712 31.7197 230.132 32.214 230.666 32.5511C231.2 32.8883 231.808 33.0568 232.49 33.0568C233.123 33.0568 233.674 32.928 234.143 32.6705C234.617 32.4129 234.982 32.0492 235.24 31.5795C235.501 31.1061 235.632 30.5492 235.632 29.9091L236.087 29.9943H232.757V28.5455H237.331V29.8693C237.331 30.8466 237.123 31.6951 236.706 32.4148C236.293 33.1307 235.721 33.6837 234.99 34.0739C234.263 34.464 233.429 34.6591 232.49 34.6591C231.437 34.6591 230.513 34.4167 229.717 33.9318C228.926 33.447 228.308 32.7595 227.865 31.8693C227.422 30.9754 227.2 29.9148 227.2 28.6875C227.2 27.7595 227.329 26.9261 227.587 26.1875C227.844 25.4489 228.206 24.822 228.672 24.3068C229.142 23.7879 229.693 23.392 230.325 23.1193C230.962 22.8428 231.657 22.7045 232.411 22.7045C233.039 22.7045 233.625 22.7973 234.166 22.983C234.712 23.1686 235.196 23.4318 235.621 23.7727C236.049 24.1136 236.403 24.5189 236.683 24.9886C236.964 25.4545 237.153 25.9716 237.251 26.5398H235.45ZM243.099 34.6761C242.281 34.6761 241.567 34.4886 240.957 34.1136C240.348 33.7386 239.874 33.214 239.537 32.5398C239.2 31.8655 239.031 31.0777 239.031 30.1761C239.031 29.2708 239.2 28.4792 239.537 27.8011C239.874 27.1231 240.348 26.5966 240.957 26.2216C241.567 25.8466 242.281 25.6591 243.099 25.6591C243.918 25.6591 244.632 25.8466 245.241 26.2216C245.851 26.5966 246.325 27.1231 246.662 27.8011C246.999 28.4792 247.168 29.2708 247.168 30.1761C247.168 31.0777 246.999 31.8655 246.662 32.5398C246.325 33.214 245.851 33.7386 245.241 34.1136C244.632 34.4886 243.918 34.6761 243.099 34.6761ZM243.105 33.25C243.635 33.25 244.075 33.1098 244.423 32.8295C244.772 32.5492 245.029 32.1761 245.196 31.7102C245.366 31.2443 245.452 30.7311 245.452 30.1705C245.452 29.6136 245.366 29.1023 245.196 28.6364C245.029 28.1667 244.772 27.7898 244.423 27.5057C244.075 27.2216 243.635 27.0795 243.105 27.0795C242.571 27.0795 242.128 27.2216 241.776 27.5057C241.427 27.7898 241.168 28.1667 240.997 28.6364C240.83 29.1023 240.747 29.6136 240.747 30.1705C240.747 30.7311 240.83 31.2443 240.997 31.7102C241.168 32.1761 241.427 32.5492 241.776 32.8295C242.128 33.1098 242.571 33.25 243.105 33.25ZM252.74 34.6761C251.922 34.6761 251.208 34.4886 250.598 34.1136C249.988 33.7386 249.515 33.214 249.178 32.5398C248.84 31.8655 248.672 31.0777 248.672 30.1761C248.672 29.2708 248.84 28.4792 249.178 27.8011C249.515 27.1231 249.988 26.5966 250.598 26.2216C251.208 25.8466 251.922 25.6591 252.74 25.6591C253.558 25.6591 254.272 25.8466 254.882 26.2216C255.492 26.5966 255.965 27.1231 256.303 27.8011C256.64 28.4792 256.808 29.2708 256.808 30.1761C256.808 31.0777 256.64 31.8655 256.303 32.5398C255.965 33.214 255.492 33.7386 254.882 34.1136C254.272 34.4886 253.558 34.6761 252.74 34.6761ZM252.746 33.25C253.276 33.25 253.715 33.1098 254.064 32.8295C254.412 32.5492 254.67 32.1761 254.837 31.7102C255.007 31.2443 255.092 30.7311 255.092 30.1705C255.092 29.6136 255.007 29.1023 254.837 28.6364C254.67 28.1667 254.412 27.7898 254.064 27.5057C253.715 27.2216 253.276 27.0795 252.746 27.0795C252.212 27.0795 251.768 27.2216 251.416 27.5057C251.068 27.7898 250.808 28.1667 250.638 28.6364C250.471 29.1023 250.388 29.6136 250.388 30.1705C250.388 30.7311 250.471 31.2443 250.638 31.7102C250.808 32.1761 251.068 32.5492 251.416 32.8295C251.768 33.1098 252.212 33.25 252.746 33.25ZM262.364 37.9545C261.67 37.9545 261.074 37.8636 260.574 37.6818C260.078 37.5 259.672 37.2595 259.358 36.9602C259.044 36.661 258.809 36.3333 258.653 35.9773L260.114 35.375C260.216 35.5417 260.352 35.7178 260.523 35.9034C260.697 36.0928 260.932 36.2538 261.227 36.3864C261.527 36.5189 261.911 36.5852 262.381 36.5852C263.025 36.5852 263.557 36.428 263.977 36.1136C264.398 35.803 264.608 35.3068 264.608 34.625V32.9091H264.5C264.398 33.0947 264.25 33.3011 264.057 33.5284C263.867 33.7557 263.606 33.9527 263.273 34.1193C262.939 34.286 262.506 34.3693 261.972 34.3693C261.282 34.3693 260.661 34.2083 260.108 33.8864C259.559 33.5606 259.123 33.0814 258.801 32.4489C258.483 31.8125 258.324 31.0303 258.324 30.1023C258.324 29.1742 258.481 28.3788 258.795 27.7159C259.114 27.053 259.549 26.5455 260.102 26.1932C260.655 25.8371 261.282 25.6591 261.983 25.6591C262.525 25.6591 262.962 25.75 263.295 25.9318C263.629 26.1098 263.888 26.3182 264.074 26.5568C264.263 26.7955 264.409 27.0057 264.511 27.1875H264.636V25.7727H266.301V34.6932C266.301 35.4432 266.127 36.0587 265.778 36.5398C265.43 37.0208 264.958 37.3769 264.364 37.608C263.773 37.839 263.106 37.9545 262.364 37.9545ZM262.347 32.9602C262.835 32.9602 263.248 32.8466 263.585 32.6193C263.926 32.3883 264.184 32.0587 264.358 31.6307C264.536 31.1989 264.625 30.6818 264.625 30.0795C264.625 29.4924 264.538 28.9754 264.364 28.5284C264.189 28.0814 263.934 27.733 263.597 27.483C263.259 27.2292 262.843 27.1023 262.347 27.1023C261.835 27.1023 261.409 27.2348 261.068 27.5C260.727 27.7614 260.47 28.1174 260.295 28.5682C260.125 29.0189 260.04 29.5227 260.04 30.0795C260.04 30.6515 260.127 31.1534 260.301 31.5852C260.475 32.017 260.733 32.3542 261.074 32.5966C261.419 32.839 261.843 32.9602 262.347 32.9602ZM270.278 22.8636V34.5H268.58V22.8636H270.278ZM276.325 34.6761C275.465 34.6761 274.725 34.4924 274.104 34.125C273.486 33.7538 273.009 33.233 272.672 32.5625C272.339 31.8883 272.172 31.0985 272.172 30.1932C272.172 29.2992 272.339 28.5114 272.672 27.8295C273.009 27.1477 273.479 26.6155 274.081 26.233C274.687 25.8504 275.395 25.6591 276.206 25.6591C276.698 25.6591 277.176 25.7405 277.638 25.9034C278.1 26.0663 278.515 26.322 278.882 26.6705C279.25 27.0189 279.539 27.4716 279.751 28.0284C279.964 28.5814 280.07 29.2538 280.07 30.0455V30.6477H273.132V29.375H278.405C278.405 28.928 278.314 28.5322 278.132 28.1875C277.95 27.839 277.695 27.5644 277.365 27.3636C277.039 27.1629 276.657 27.0625 276.217 27.0625C275.74 27.0625 275.323 27.1799 274.967 27.4148C274.615 27.6458 274.342 27.9489 274.149 28.3239C273.96 28.6951 273.865 29.0985 273.865 29.5341V30.5284C273.865 31.1117 273.967 31.608 274.172 32.017C274.38 32.4261 274.67 32.7386 275.041 32.9545C275.412 33.1667 275.846 33.2727 276.342 33.2727C276.664 33.2727 276.958 33.2273 277.223 33.1364C277.488 33.0417 277.717 32.9015 277.911 32.7159C278.104 32.5303 278.251 32.3011 278.354 32.0284L279.962 32.3182C279.833 32.7917 279.602 33.2064 279.268 33.5625C278.939 33.9148 278.524 34.1894 278.024 34.3864C277.528 34.5795 276.962 34.6761 276.325 34.6761Z" fill="white"/>
<defs>
<clipPath id="clip0_104_94">
<rect x="78" y="18" width="22" height="22" rx="5" fill="white"/>
</clipPath>
</defs>
</svg>
