<svg width="359" height="58" viewBox="0 0 359 58" fill="none" xmlns="http://www.w3.org/2000/svg">
<rect x="0.5" y="0.5" width="358" height="57" rx="14.5" stroke="#1E1E1E" stroke-opacity="0.2"/>
<path d="M80.8708 40.9999V30.0523H84.5706L85.1245 25.7859H80.8708V23.0619C80.8708 21.8267 81.2162 20.9848 82.9998 20.9848L85.2745 20.9838V17.1679C84.8809 17.1161 83.5307 17 81.9598 17C78.6802 17 76.4349 18.9882 76.4349 22.6396V25.786H72.7255V30.0524H76.4348V41L80.8708 40.9999Z" fill="#2C79EA"/>
<path d="M116.443 26.6477H114.67C114.602 26.2689 114.475 25.9356 114.29 25.6477C114.104 25.3598 113.877 25.1155 113.608 24.9148C113.339 24.714 113.038 24.5625 112.705 24.4602C112.375 24.358 112.025 24.3068 111.653 24.3068C110.983 24.3068 110.383 24.4754 109.852 24.8125C109.326 25.1496 108.909 25.6439 108.602 26.2955C108.299 26.947 108.148 27.7424 108.148 28.6818C108.148 29.6288 108.299 30.428 108.602 31.0795C108.909 31.7311 109.328 32.2235 109.858 32.5568C110.388 32.8902 110.985 33.0568 111.648 33.0568C112.015 33.0568 112.364 33.0076 112.693 32.9091C113.027 32.8068 113.328 32.6572 113.597 32.4602C113.866 32.2633 114.093 32.0227 114.278 31.7386C114.468 31.4508 114.598 31.1212 114.67 30.75L116.443 30.7557C116.348 31.3277 116.165 31.8542 115.892 32.3352C115.623 32.8125 115.277 33.2254 114.852 33.5739C114.432 33.9186 113.951 34.1856 113.409 34.375C112.867 34.5644 112.277 34.6591 111.636 34.6591C110.629 34.6591 109.731 34.4205 108.943 33.9432C108.155 33.4621 107.534 32.7746 107.08 31.8807C106.629 30.9867 106.403 29.9205 106.403 28.6818C106.403 27.4394 106.631 26.3731 107.085 25.483C107.54 24.589 108.161 23.9034 108.949 23.4261C109.737 22.9451 110.633 22.7045 111.636 22.7045C112.254 22.7045 112.83 22.7936 113.364 22.9716C113.902 23.1458 114.384 23.4034 114.812 23.7443C115.241 24.0814 115.595 24.4943 115.875 24.983C116.155 25.4678 116.345 26.0227 116.443 26.6477ZM122.084 34.6761C121.266 34.6761 120.552 34.4886 119.942 34.1136C119.332 33.7386 118.858 33.214 118.521 32.5398C118.184 31.8655 118.016 31.0777 118.016 30.1761C118.016 29.2708 118.184 28.4792 118.521 27.8011C118.858 27.1231 119.332 26.5966 119.942 26.2216C120.552 25.8466 121.266 25.6591 122.084 25.6591C122.902 25.6591 123.616 25.8466 124.226 26.2216C124.836 26.5966 125.309 27.1231 125.646 27.8011C125.983 28.4792 126.152 29.2708 126.152 30.1761C126.152 31.0777 125.983 31.8655 125.646 32.5398C125.309 33.214 124.836 33.7386 124.226 34.1136C123.616 34.4886 122.902 34.6761 122.084 34.6761ZM122.089 33.25C122.62 33.25 123.059 33.1098 123.408 32.8295C123.756 32.5492 124.014 32.1761 124.18 31.7102C124.351 31.2443 124.436 30.7311 124.436 30.1705C124.436 29.6136 124.351 29.1023 124.18 28.6364C124.014 28.1667 123.756 27.7898 123.408 27.5057C123.059 27.2216 122.62 27.0795 122.089 27.0795C121.555 27.0795 121.112 27.2216 120.76 27.5057C120.411 27.7898 120.152 28.1667 119.982 28.6364C119.815 29.1023 119.732 29.6136 119.732 30.1705C119.732 30.7311 119.815 31.2443 119.982 31.7102C120.152 32.1761 120.411 32.5492 120.76 32.8295C121.112 33.1098 121.555 33.25 122.089 33.25ZM129.747 29.3182V34.5H128.048V25.7727H129.679V27.1932H129.787C129.988 26.7311 130.302 26.3598 130.73 26.0795C131.162 25.7992 131.705 25.6591 132.361 25.6591C132.955 25.6591 133.476 25.7841 133.923 26.0341C134.37 26.2803 134.717 26.6477 134.963 27.1364C135.209 27.625 135.332 28.2292 135.332 28.9489V34.5H133.634V29.1534C133.634 28.5208 133.469 28.0265 133.139 27.6705C132.81 27.3106 132.357 27.1307 131.781 27.1307C131.387 27.1307 131.037 27.2159 130.73 27.3864C130.427 27.5568 130.187 27.8068 130.009 28.1364C129.834 28.4621 129.747 28.8561 129.747 29.3182ZM141.685 25.7727V27.1364H136.918V25.7727H141.685ZM138.196 23.6818H139.895V31.9375C139.895 32.267 139.944 32.5152 140.043 32.6818C140.141 32.8447 140.268 32.9564 140.423 33.017C140.582 33.0739 140.755 33.1023 140.94 33.1023C141.077 33.1023 141.196 33.0928 141.298 33.0739C141.401 33.0549 141.48 33.0398 141.537 33.0284L141.844 34.4318C141.745 34.4697 141.605 34.5076 141.423 34.5455C141.241 34.5871 141.014 34.6098 140.741 34.6136C140.295 34.6212 139.878 34.5417 139.491 34.375C139.105 34.2083 138.793 33.9508 138.554 33.6023C138.315 33.2538 138.196 32.8163 138.196 32.2898V23.6818ZM143.564 34.5V25.7727H145.263V34.5H143.564ZM144.422 24.4261C144.126 24.4261 143.873 24.3277 143.661 24.1307C143.452 23.9299 143.348 23.6913 143.348 23.4148C143.348 23.1345 143.452 22.8958 143.661 22.6989C143.873 22.4981 144.126 22.3977 144.422 22.3977C144.717 22.3977 144.969 22.4981 145.178 22.6989C145.39 22.8958 145.496 23.1345 145.496 23.4148C145.496 23.6913 145.39 23.9299 145.178 24.1307C144.969 24.3277 144.717 24.4261 144.422 24.4261ZM149.247 29.3182V34.5H147.548V25.7727H149.179V27.1932H149.287C149.488 26.7311 149.802 26.3598 150.23 26.0795C150.662 25.7992 151.205 25.6591 151.861 25.6591C152.455 25.6591 152.976 25.7841 153.423 26.0341C153.87 26.2803 154.217 26.6477 154.463 27.1364C154.709 27.625 154.832 28.2292 154.832 28.9489V34.5H153.134V29.1534C153.134 28.5208 152.969 28.0265 152.639 27.6705C152.31 27.3106 151.857 27.1307 151.281 27.1307C150.887 27.1307 150.537 27.2159 150.23 27.3864C149.927 27.5568 149.687 27.8068 149.509 28.1364C149.334 28.4621 149.247 28.8561 149.247 29.3182ZM162.639 30.8807V25.7727H164.344V34.5H162.673V32.9886H162.582C162.382 33.4545 162.06 33.8428 161.616 34.1534C161.177 34.4602 160.63 34.6136 159.974 34.6136C159.414 34.6136 158.918 34.4905 158.486 34.2443C158.058 33.9943 157.721 33.625 157.474 33.1364C157.232 32.6477 157.111 32.0436 157.111 31.3239V25.7727H158.81V31.1193C158.81 31.714 158.974 32.1875 159.304 32.5398C159.634 32.892 160.062 33.0682 160.588 33.0682C160.906 33.0682 161.223 32.9886 161.537 32.8295C161.855 32.6705 162.118 32.4299 162.327 32.108C162.539 31.786 162.643 31.3769 162.639 30.8807ZM170.388 34.6761C169.528 34.6761 168.787 34.4924 168.166 34.125C167.549 33.7538 167.071 33.233 166.734 32.5625C166.401 31.8883 166.234 31.0985 166.234 30.1932C166.234 29.2992 166.401 28.5114 166.734 27.8295C167.071 27.1477 167.541 26.6155 168.143 26.233C168.75 25.8504 169.458 25.6591 170.268 25.6591C170.761 25.6591 171.238 25.7405 171.7 25.9034C172.162 26.0663 172.577 26.322 172.945 26.6705C173.312 27.0189 173.602 27.4716 173.814 28.0284C174.026 28.5814 174.132 29.2538 174.132 30.0455V30.6477H167.195V29.375H172.467C172.467 28.928 172.376 28.5322 172.195 28.1875C172.013 27.839 171.757 27.5644 171.428 27.3636C171.102 27.1629 170.719 27.0625 170.28 27.0625C169.803 27.0625 169.386 27.1799 169.03 27.4148C168.678 27.6458 168.405 27.9489 168.212 28.3239C168.022 28.6951 167.928 29.0985 167.928 29.5341V30.5284C167.928 31.1117 168.03 31.608 168.234 32.017C168.443 32.4261 168.732 32.7386 169.104 32.9545C169.475 33.1667 169.909 33.2727 170.405 33.2727C170.727 33.2727 171.02 33.2273 171.286 33.1364C171.551 33.0417 171.78 32.9015 171.973 32.7159C172.166 32.5303 172.314 32.3011 172.416 32.0284L174.024 32.3182C173.895 32.7917 173.664 33.2064 173.331 33.5625C173.001 33.9148 172.587 34.1894 172.087 34.3864C171.59 34.5795 171.024 34.6761 170.388 34.6761ZM182.143 34.5L179.575 25.7727H181.331L183.041 32.1818H183.126L184.842 25.7727H186.598L188.303 32.1534H188.388L190.087 25.7727H191.842L189.28 34.5H187.547L185.774 28.1989H185.643L183.871 34.5H182.143ZM193.455 34.5V25.7727H195.153V34.5H193.455ZM194.312 24.4261C194.017 24.4261 193.763 24.3277 193.551 24.1307C193.343 23.9299 193.239 23.6913 193.239 23.4148C193.239 23.1345 193.343 22.8958 193.551 22.6989C193.763 22.4981 194.017 22.3977 194.312 22.3977C194.608 22.3977 194.86 22.4981 195.068 22.6989C195.28 22.8958 195.386 23.1345 195.386 23.4148C195.386 23.6913 195.28 23.9299 195.068 24.1307C194.86 24.3277 194.608 24.4261 194.312 24.4261ZM201.513 25.7727V27.1364H196.746V25.7727H201.513ZM198.024 23.6818H199.723V31.9375C199.723 32.267 199.772 32.5152 199.871 32.6818C199.969 32.8447 200.096 32.9564 200.251 33.017C200.411 33.0739 200.583 33.1023 200.768 33.1023C200.905 33.1023 201.024 33.0928 201.126 33.0739C201.229 33.0549 201.308 33.0398 201.365 33.0284L201.672 34.4318C201.573 34.4697 201.433 34.5076 201.251 34.5455C201.07 34.5871 200.842 34.6098 200.57 34.6136C200.123 34.6212 199.706 34.5417 199.32 34.375C198.933 34.2083 198.621 33.9508 198.382 33.6023C198.143 33.2538 198.024 32.8163 198.024 32.2898V23.6818ZM205.278 29.3182V34.5H203.58V22.8636H205.256V27.1932H205.364C205.568 26.7235 205.881 26.3504 206.301 26.0739C206.722 25.7973 207.271 25.6591 207.949 25.6591C208.547 25.6591 209.07 25.7822 209.517 26.0284C209.968 26.2746 210.316 26.642 210.562 27.1307C210.812 27.6155 210.938 28.2216 210.938 28.9489V34.5H209.239V29.1534C209.239 28.5133 209.074 28.017 208.744 27.6648C208.415 27.3087 207.956 27.1307 207.369 27.1307C206.968 27.1307 206.608 27.2159 206.29 27.3864C205.975 27.5568 205.727 27.8068 205.545 28.1364C205.367 28.4621 205.278 28.8561 205.278 29.3182ZM217.575 34.5V22.8636H224.791V24.375H219.331V27.9205H224.274V29.4261H219.331V34.5H217.575ZM229.322 34.6932C228.769 34.6932 228.269 34.5909 227.822 34.3864C227.375 34.178 227.021 33.8769 226.76 33.483C226.502 33.089 226.374 32.6061 226.374 32.0341C226.374 31.5417 226.468 31.1364 226.658 30.8182C226.847 30.5 227.103 30.2481 227.425 30.0625C227.747 29.8769 228.107 29.7367 228.504 29.642C228.902 29.5473 229.307 29.4754 229.72 29.4261C230.243 29.3655 230.667 29.3163 230.993 29.2784C231.319 29.2367 231.555 29.1705 231.703 29.0795C231.851 28.9886 231.925 28.8409 231.925 28.6364V28.5966C231.925 28.1004 231.785 27.7159 231.504 27.4432C231.228 27.1705 230.815 27.0341 230.266 27.0341C229.694 27.0341 229.243 27.161 228.913 27.4148C228.588 27.6648 228.362 27.9432 228.237 28.25L226.641 27.8864C226.83 27.3561 227.107 26.928 227.47 26.6023C227.838 26.2727 228.26 26.0341 228.737 25.8864C229.214 25.7348 229.716 25.6591 230.243 25.6591C230.591 25.6591 230.961 25.7008 231.351 25.7841C231.745 25.8636 232.112 26.0114 232.453 26.2273C232.798 26.4432 233.08 26.7519 233.3 27.1534C233.519 27.5511 233.629 28.0682 233.629 28.7045V34.5H231.97V33.3068H231.902C231.792 33.5265 231.627 33.7424 231.408 33.9545C231.188 34.1667 230.906 34.3428 230.561 34.483C230.216 34.6231 229.804 34.6932 229.322 34.6932ZM229.692 33.3295C230.161 33.3295 230.563 33.2367 230.896 33.0511C231.233 32.8655 231.489 32.6231 231.663 32.3239C231.841 32.0208 231.93 31.697 231.93 31.3523V30.2273C231.87 30.2879 231.752 30.3447 231.578 30.3977C231.408 30.447 231.213 30.4905 230.993 30.5284C230.773 30.5625 230.559 30.5947 230.351 30.625C230.143 30.6515 229.968 30.6742 229.828 30.6932C229.499 30.7348 229.197 30.8049 228.925 30.9034C228.656 31.0019 228.44 31.1439 228.277 31.3295C228.118 31.5114 228.038 31.7538 228.038 32.0568C228.038 32.4773 228.194 32.7955 228.504 33.0114C228.815 33.2235 229.211 33.3295 229.692 33.3295ZM239.568 34.6761C238.723 34.6761 237.996 34.4848 237.386 34.1023C236.78 33.7159 236.314 33.1837 235.989 32.5057C235.663 31.8277 235.5 31.0511 235.5 30.1761C235.5 29.2898 235.667 28.5076 236 27.8295C236.333 27.1477 236.803 26.6155 237.409 26.233C238.015 25.8504 238.729 25.6591 239.551 25.6591C240.214 25.6591 240.805 25.7822 241.324 26.0284C241.843 26.2708 242.261 26.6117 242.58 27.0511C242.902 27.4905 243.093 28.0038 243.153 28.5909H241.5C241.409 28.1818 241.201 27.8295 240.875 27.5341C240.553 27.2386 240.121 27.0909 239.58 27.0909C239.106 27.0909 238.691 27.2159 238.335 27.4659C237.983 27.7121 237.708 28.0644 237.511 28.5227C237.314 28.9773 237.216 29.5152 237.216 30.1364C237.216 30.7727 237.313 31.322 237.506 31.7841C237.699 32.2462 237.972 32.6042 238.324 32.858C238.68 33.1117 239.098 33.2386 239.58 33.2386C239.902 33.2386 240.193 33.1799 240.455 33.0625C240.72 32.9413 240.941 32.7689 241.119 32.5455C241.301 32.322 241.428 32.053 241.5 31.7386H243.153C243.093 32.303 242.909 32.8068 242.602 33.25C242.295 33.6932 241.884 34.0417 241.369 34.2955C240.858 34.5492 240.258 34.6761 239.568 34.6761ZM248.732 34.6761C247.872 34.6761 247.131 34.4924 246.51 34.125C245.893 33.7538 245.415 33.233 245.078 32.5625C244.745 31.8883 244.578 31.0985 244.578 30.1932C244.578 29.2992 244.745 28.5114 245.078 27.8295C245.415 27.1477 245.885 26.6155 246.487 26.233C247.093 25.8504 247.802 25.6591 248.612 25.6591C249.105 25.6591 249.582 25.7405 250.044 25.9034C250.506 26.0663 250.921 26.322 251.288 26.6705C251.656 27.0189 251.946 27.4716 252.158 28.0284C252.37 28.5814 252.476 29.2538 252.476 30.0455V30.6477H245.538V29.375H250.811C250.811 28.928 250.72 28.5322 250.538 28.1875C250.357 27.839 250.101 27.5644 249.771 27.3636C249.446 27.1629 249.063 27.0625 248.624 27.0625C248.146 27.0625 247.73 27.1799 247.374 27.4148C247.021 27.6458 246.749 27.9489 246.555 28.3239C246.366 28.6951 246.271 29.0985 246.271 29.5341V30.5284C246.271 31.1117 246.374 31.608 246.578 32.017C246.786 32.4261 247.076 32.7386 247.447 32.9545C247.819 33.1667 248.252 33.2727 248.749 33.2727C249.071 33.2727 249.364 33.2273 249.629 33.1364C249.894 33.0417 250.124 32.9015 250.317 32.7159C250.51 32.5303 250.658 32.3011 250.76 32.0284L252.368 32.3182C252.239 32.7917 252.008 33.2064 251.675 33.5625C251.345 33.9148 250.93 34.1894 250.43 34.3864C249.934 34.5795 249.368 34.6761 248.732 34.6761ZM254.497 34.5V22.8636H256.196V27.1875H256.298C256.397 27.0057 256.539 26.7955 256.724 26.5568C256.91 26.3182 257.168 26.1098 257.497 25.9318C257.827 25.75 258.262 25.6591 258.804 25.6591C259.509 25.6591 260.137 25.8371 260.69 26.1932C261.243 26.5492 261.677 27.0625 261.991 27.733C262.31 28.4034 262.469 29.2102 262.469 30.1534C262.469 31.0966 262.312 31.9053 261.997 32.5795C261.683 33.25 261.251 33.767 260.702 34.1307C260.152 34.4905 259.526 34.6705 258.821 34.6705C258.291 34.6705 257.857 34.5814 257.52 34.4034C257.187 34.2254 256.925 34.017 256.736 33.7784C256.546 33.5398 256.401 33.3277 256.298 33.142H256.156V34.5H254.497ZM256.162 30.1364C256.162 30.75 256.251 31.2879 256.429 31.75C256.607 32.2121 256.865 32.5739 257.202 32.8352C257.539 33.0928 257.952 33.2216 258.44 33.2216C258.948 33.2216 259.372 33.0871 259.713 32.8182C260.054 32.5455 260.312 32.1761 260.486 31.7102C260.664 31.2443 260.753 30.7197 260.753 30.1364C260.753 29.5606 260.666 29.0436 260.491 28.5852C260.321 28.1269 260.063 27.7652 259.719 27.5C259.378 27.2348 258.952 27.1023 258.44 27.1023C257.948 27.1023 257.531 27.2292 257.19 27.483C256.853 27.7367 256.598 28.0909 256.423 28.5455C256.249 29 256.162 29.5303 256.162 30.1364ZM268.053 34.6761C267.234 34.6761 266.52 34.4886 265.911 34.1136C265.301 33.7386 264.827 33.214 264.49 32.5398C264.153 31.8655 263.984 31.0777 263.984 30.1761C263.984 29.2708 264.153 28.4792 264.49 27.8011C264.827 27.1231 265.301 26.5966 265.911 26.2216C266.52 25.8466 267.234 25.6591 268.053 25.6591C268.871 25.6591 269.585 25.8466 270.195 26.2216C270.804 26.5966 271.278 27.1231 271.615 27.8011C271.952 28.4792 272.121 29.2708 272.121 30.1761C272.121 31.0777 271.952 31.8655 271.615 32.5398C271.278 33.214 270.804 33.7386 270.195 34.1136C269.585 34.4886 268.871 34.6761 268.053 34.6761ZM268.058 33.25C268.589 33.25 269.028 33.1098 269.376 32.8295C269.725 32.5492 269.982 32.1761 270.149 31.7102C270.32 31.2443 270.405 30.7311 270.405 30.1705C270.405 29.6136 270.32 29.1023 270.149 28.6364C269.982 28.1667 269.725 27.7898 269.376 27.5057C269.028 27.2216 268.589 27.0795 268.058 27.0795C267.524 27.0795 267.081 27.2216 266.729 27.5057C266.38 27.7898 266.121 28.1667 265.95 28.6364C265.784 29.1023 265.7 29.6136 265.7 30.1705C265.7 30.7311 265.784 31.2443 265.95 31.7102C266.121 32.1761 266.38 32.5492 266.729 32.8295C267.081 33.1098 267.524 33.25 268.058 33.25ZM277.693 34.6761C276.875 34.6761 276.161 34.4886 275.551 34.1136C274.941 33.7386 274.468 33.214 274.131 32.5398C273.794 31.8655 273.625 31.0777 273.625 30.1761C273.625 29.2708 273.794 28.4792 274.131 27.8011C274.468 27.1231 274.941 26.5966 275.551 26.2216C276.161 25.8466 276.875 25.6591 277.693 25.6591C278.511 25.6591 279.225 25.8466 279.835 26.2216C280.445 26.5966 280.919 27.1231 281.256 27.8011C281.593 28.4792 281.761 29.2708 281.761 30.1761C281.761 31.0777 281.593 31.8655 281.256 32.5398C280.919 33.214 280.445 33.7386 279.835 34.1136C279.225 34.4886 278.511 34.6761 277.693 34.6761ZM277.699 33.25C278.229 33.25 278.669 33.1098 279.017 32.8295C279.366 32.5492 279.623 32.1761 279.79 31.7102C279.96 31.2443 280.045 30.7311 280.045 30.1705C280.045 29.6136 279.96 29.1023 279.79 28.6364C279.623 28.1667 279.366 27.7898 279.017 27.5057C278.669 27.2216 278.229 27.0795 277.699 27.0795C277.165 27.0795 276.722 27.2216 276.369 27.5057C276.021 27.7898 275.761 28.1667 275.591 28.6364C275.424 29.1023 275.341 29.6136 275.341 30.1705C275.341 30.7311 275.424 31.2443 275.591 31.7102C275.761 32.1761 276.021 32.5492 276.369 32.8295C276.722 33.1098 277.165 33.25 277.699 33.25ZM285.22 31.5398L285.209 29.4659H285.504L288.982 25.7727H291.016L287.05 29.9773H286.783L285.22 31.5398ZM283.658 34.5V22.8636H285.357V34.5H283.658ZM289.169 34.5L286.044 30.3523L287.214 29.1648L291.254 34.5H289.169Z" fill="#1E1E1E"/>
</svg>
