<svg width="97" height="45" viewBox="0 0 97 45" fill="none" xmlns="http://www.w3.org/2000/svg">
<rect width="97" height="45" rx="22.5" fill="#3792DE"/>
<path d="M27.7727 19.2727C27.7045 18.697 27.428 18.25 26.9432 17.9318C26.4583 17.6136 25.8636 17.4545 25.1591 17.4545C24.6439 17.4545 24.1932 17.5379 23.8068 17.7045C23.4242 17.8712 23.125 18.1004 22.9091 18.392C22.697 18.6837 22.5909 19.0152 22.5909 19.3864C22.5909 19.697 22.6648 19.964 22.8125 20.1875C22.964 20.4072 23.1572 20.5909 23.392 20.7386C23.6269 20.8826 23.8731 21.0019 24.1307 21.0966C24.3883 21.1875 24.625 21.2614 24.8409 21.3182L26.0227 21.6364C26.3258 21.7159 26.6629 21.8258 27.0341 21.9659C27.4091 22.1061 27.767 22.2973 28.108 22.5398C28.4527 22.7784 28.7367 23.0852 28.9602 23.4602C29.1837 23.8352 29.2955 24.2955 29.2955 24.8409C29.2955 25.4697 29.1307 26.0379 28.8011 26.5455C28.4754 27.053 27.9981 27.4564 27.3693 27.7557C26.7443 28.0549 25.9848 28.2045 25.0909 28.2045C24.2576 28.2045 23.536 28.0701 22.9261 27.8011C22.3201 27.5322 21.8428 27.1572 21.4943 26.6761C21.1496 26.1951 20.9545 25.6364 20.9091 25H22.3636C22.4015 25.4394 22.5492 25.803 22.8068 26.0909C23.0682 26.375 23.3977 26.5871 23.7955 26.7273C24.197 26.8636 24.6288 26.9318 25.0909 26.9318C25.6288 26.9318 26.1117 26.8447 26.5398 26.6705C26.9678 26.4924 27.3068 26.2462 27.5568 25.9318C27.8068 25.6136 27.9318 25.2424 27.9318 24.8182C27.9318 24.4318 27.8239 24.1174 27.608 23.875C27.392 23.6326 27.108 23.4356 26.7557 23.2841C26.4034 23.1326 26.0227 23 25.6136 22.8864L24.1818 22.4773C23.2727 22.2159 22.553 21.8428 22.0227 21.358C21.4924 20.8731 21.2273 20.2386 21.2273 19.4545C21.2273 18.803 21.4034 18.2348 21.7557 17.75C22.1117 17.2614 22.589 16.8826 23.1875 16.6136C23.7898 16.3409 24.4621 16.2045 25.2045 16.2045C25.9545 16.2045 26.6212 16.339 27.2045 16.608C27.7879 16.8731 28.25 17.2367 28.5909 17.6989C28.9356 18.161 29.1174 18.6856 29.1364 19.2727H27.7727ZM31.4304 28V19.2727H32.7713V28H31.4304ZM32.1122 17.8182C31.8509 17.8182 31.6255 17.7292 31.4361 17.5511C31.2505 17.3731 31.1577 17.1591 31.1577 16.9091C31.1577 16.6591 31.2505 16.4451 31.4361 16.267C31.6255 16.089 31.8509 16 32.1122 16C32.3736 16 32.5971 16.089 32.7827 16.267C32.9721 16.4451 33.0668 16.6591 33.0668 16.9091C33.0668 17.1591 32.9721 17.3731 32.7827 17.5511C32.5971 17.7292 32.3736 17.8182 32.1122 17.8182ZM38.75 31.4545C38.1023 31.4545 37.5455 31.3712 37.0795 31.2045C36.6136 31.0417 36.2254 30.8258 35.9148 30.5568C35.608 30.2917 35.3636 30.0076 35.1818 29.7045L36.25 28.9545C36.3712 29.1136 36.5246 29.2955 36.7102 29.5C36.8958 29.7083 37.1496 29.8883 37.4716 30.0398C37.7973 30.1951 38.2235 30.2727 38.75 30.2727C39.4545 30.2727 40.036 30.1023 40.4943 29.7614C40.9527 29.4205 41.1818 28.8864 41.1818 28.1591V26.3864H41.0682C40.9697 26.5455 40.8295 26.7424 40.6477 26.9773C40.4697 27.2083 40.2121 27.4148 39.875 27.5966C39.5417 27.7746 39.0909 27.8636 38.5227 27.8636C37.8182 27.8636 37.1856 27.697 36.625 27.3636C36.0682 27.0303 35.6269 26.5455 35.3011 25.9091C34.9792 25.2727 34.8182 24.5 34.8182 23.5909C34.8182 22.697 34.9754 21.9186 35.2898 21.2557C35.6042 20.589 36.0417 20.0739 36.6023 19.7102C37.1629 19.3428 37.8106 19.1591 38.5455 19.1591C39.1136 19.1591 39.5644 19.2538 39.8977 19.4432C40.2348 19.6288 40.4924 19.8409 40.6705 20.0795C40.8523 20.3144 40.9924 20.5076 41.0909 20.6591H41.2273V19.2727H42.5227V28.25C42.5227 29 42.3523 29.6098 42.0114 30.0795C41.6742 30.553 41.2197 30.8996 40.6477 31.1193C40.0795 31.3428 39.447 31.4545 38.75 31.4545ZM38.7045 26.6591C39.2424 26.6591 39.697 26.536 40.0682 26.2898C40.4394 26.0436 40.7216 25.6894 40.9148 25.2273C41.108 24.7652 41.2045 24.2121 41.2045 23.5682C41.2045 22.9394 41.1098 22.3845 40.9205 21.9034C40.7311 21.4223 40.4508 21.0455 40.0795 20.7727C39.7083 20.5 39.25 20.3636 38.7045 20.3636C38.1364 20.3636 37.6629 20.5076 37.2841 20.7955C36.9091 21.0833 36.6269 21.4697 36.4375 21.9545C36.2519 22.4394 36.1591 22.9773 36.1591 23.5682C36.1591 24.1742 36.2538 24.7102 36.4432 25.1761C36.6364 25.6383 36.9205 26.0019 37.2955 26.267C37.6742 26.5284 38.1439 26.6591 38.7045 26.6591ZM46.3182 22.75V28H44.9773V19.2727H46.2727V20.6364H46.3864C46.5909 20.1932 46.9015 19.8371 47.3182 19.5682C47.7348 19.2955 48.2727 19.1591 48.9318 19.1591C49.5227 19.1591 50.0398 19.2803 50.483 19.5227C50.9261 19.7614 51.2708 20.125 51.517 20.6136C51.7633 21.0985 51.8864 21.7121 51.8864 22.4545V28H50.5455V22.5455C50.5455 21.8598 50.3674 21.3258 50.0114 20.9432C49.6553 20.5568 49.1667 20.3636 48.5455 20.3636C48.1174 20.3636 47.7348 20.4564 47.3977 20.642C47.0644 20.8277 46.8011 21.0985 46.608 21.4545C46.4148 21.8106 46.3182 22.2424 46.3182 22.75ZM64.3366 24.4318V19.2727H65.6776V28H64.3366V26.5227H64.2457C64.0412 26.9659 63.723 27.3428 63.2912 27.6534C62.8594 27.9602 62.3139 28.1136 61.6548 28.1136C61.1094 28.1136 60.6245 27.9943 60.2003 27.7557C59.776 27.5133 59.4427 27.1496 59.2003 26.6648C58.9579 26.1761 58.8366 25.5606 58.8366 24.8182V19.2727H60.1776V24.7273C60.1776 25.3636 60.3556 25.8712 60.7116 26.25C61.0715 26.6288 61.5298 26.8182 62.0866 26.8182C62.42 26.8182 62.759 26.733 63.1037 26.5625C63.4522 26.392 63.7438 26.1307 63.9787 25.7784C64.2173 25.4261 64.3366 24.9773 64.3366 24.4318ZM68.1335 31.2727V19.2727H69.429V20.6591H69.5881C69.6866 20.5076 69.8229 20.3144 69.9972 20.0795C70.1752 19.8409 70.429 19.6288 70.7585 19.4432C71.0919 19.2538 71.5426 19.1591 72.1108 19.1591C72.8456 19.1591 73.4934 19.3428 74.054 19.7102C74.6146 20.0777 75.0521 20.5985 75.3665 21.2727C75.6809 21.947 75.8381 22.7424 75.8381 23.6591C75.8381 24.5833 75.6809 25.3845 75.3665 26.0625C75.0521 26.7367 74.6165 27.2595 74.0597 27.6307C73.5028 27.9981 72.8608 28.1818 72.1335 28.1818C71.5729 28.1818 71.1241 28.089 70.7869 27.9034C70.4498 27.714 70.1903 27.5 70.0085 27.2614C69.8267 27.0189 69.6866 26.8182 69.5881 26.6591H69.4744V31.2727H68.1335ZM69.4517 23.6364C69.4517 24.2955 69.5483 24.8769 69.7415 25.3807C69.9347 25.8807 70.2169 26.2727 70.5881 26.5568C70.9593 26.8371 71.4138 26.9773 71.9517 26.9773C72.5123 26.9773 72.9801 26.8295 73.3551 26.5341C73.7339 26.2348 74.018 25.8333 74.2074 25.3295C74.4006 24.822 74.4972 24.2576 74.4972 23.6364C74.4972 23.0227 74.4025 22.4697 74.2131 21.9773C74.0275 21.4811 73.7453 21.089 73.3665 20.8011C72.9915 20.5095 72.5199 20.3636 71.9517 20.3636C71.4063 20.3636 70.9479 20.5019 70.5767 20.7784C70.2055 21.0511 69.9252 21.4337 69.7358 21.9261C69.5464 22.4148 69.4517 22.9848 69.4517 23.6364Z" fill="white"/>
</svg>
