<svg width="359" height="19" viewBox="0 0 359 19" fill="none" xmlns="http://www.w3.org/2000/svg">
<path d="M0 13L359 13" stroke="#1E1E1E" stroke-opacity="0.2"/>
<rect x="159" y="3" width="42" height="16" fill="#FAFAFA"/>
<path d="M176.176 14.1591C175.487 14.1591 174.882 13.995 174.362 13.6669C173.844 13.3388 173.44 12.8797 173.148 12.2898C172.86 11.6998 172.716 11.0104 172.716 10.2216C172.716 9.42614 172.86 8.73177 173.148 8.13849C173.44 7.54522 173.844 7.08452 174.362 6.75639C174.882 6.42827 175.487 6.2642 176.176 6.2642C176.866 6.2642 177.469 6.42827 177.986 6.75639C178.506 7.08452 178.911 7.54522 179.199 8.13849C179.491 8.73177 179.636 9.42614 179.636 10.2216C179.636 11.0104 179.491 11.6998 179.199 12.2898C178.911 12.8797 178.506 13.3388 177.986 13.6669C177.469 13.995 176.866 14.1591 176.176 14.1591ZM176.176 13.1051C176.7 13.1051 177.131 12.9709 177.469 12.7024C177.807 12.4339 178.057 12.081 178.219 11.6435C178.382 11.206 178.463 10.732 178.463 10.2216C178.463 9.71117 178.382 9.23556 178.219 8.79474C178.057 8.35393 177.807 7.99763 177.469 7.72585C177.131 7.45407 176.7 7.31818 176.176 7.31818C175.652 7.31818 175.222 7.45407 174.884 7.72585C174.545 7.99763 174.295 8.35393 174.133 8.79474C173.97 9.23556 173.889 9.71117 173.889 10.2216C173.889 10.732 173.97 11.206 174.133 11.6435C174.295 12.081 174.545 12.4339 174.884 12.7024C175.222 12.9709 175.652 13.1051 176.176 13.1051ZM181.427 14V6.36364H182.561V7.51705H182.64C182.78 7.1392 183.032 6.83262 183.396 6.5973C183.761 6.36198 184.172 6.24432 184.629 6.24432C184.715 6.24432 184.823 6.24597 184.952 6.24929C185.081 6.2526 185.179 6.25758 185.246 6.2642V7.45739C185.206 7.44744 185.115 7.43253 184.972 7.41264C184.833 7.38944 184.685 7.37784 184.53 7.37784C184.158 7.37784 183.827 7.45573 183.535 7.61151C183.247 7.76397 183.018 7.97609 182.849 8.24787C182.684 8.51634 182.601 8.82292 182.601 9.16761V14H181.427Z" fill="#1E1E1E" fill-opacity="0.4"/>
</svg>
