<svg width="582" height="48" viewBox="0 0 582 48" fill="none" xmlns="http://www.w3.org/2000/svg">
<g filter="url(#filter0_d_404_9133)">
<path d="M12.7344 12.9375H18.7695C20.0664 12.9375 21.1719 13.1328 22.0859 13.5234C23 13.9141 23.6992 14.4922 24.1836 15.2578C24.6758 16.0156 24.9219 16.9531 24.9219 18.0703C24.9219 18.9219 24.7656 19.6719 24.4531 20.3203C24.1406 20.9688 23.6992 21.5156 23.1289 21.9609C22.5586 22.3984 21.8789 22.7383 21.0898 22.9805L20.1992 23.4141H14.7734L14.75 21.082H18.8164C19.5195 21.082 20.1055 20.957 20.5742 20.707C21.043 20.457 21.3945 20.1172 21.6289 19.6875C21.8711 19.25 21.9922 18.7578 21.9922 18.2109C21.9922 17.6172 21.875 17.1016 21.6406 16.6641C21.4141 16.2188 21.0625 15.8789 20.5859 15.6445C20.1094 15.4023 19.5039 15.2812 18.7695 15.2812H15.6758V30H12.7344V12.9375ZM22.4727 30L18.4648 22.3359L21.5469 22.3242L25.6133 29.8477V30H22.4727ZM34.1202 30.2344C33.1827 30.2344 32.335 30.082 31.5772 29.7773C30.8272 29.4648 30.1866 29.0312 29.6553 28.4766C29.1319 27.9219 28.7295 27.2695 28.4483 26.5195C28.167 25.7695 28.0264 24.9609 28.0264 24.0938V23.625C28.0264 22.6328 28.1709 21.7344 28.46 20.9297C28.7491 20.125 29.1514 19.4375 29.667 18.8672C30.1827 18.2891 30.792 17.8477 31.4952 17.543C32.1983 17.2383 32.96 17.0859 33.7803 17.0859C34.6866 17.0859 35.4795 17.2383 36.1592 17.543C36.8389 17.8477 37.4014 18.2773 37.8467 18.832C38.2998 19.3789 38.6358 20.0312 38.8545 20.7891C39.0811 21.5469 39.1944 22.3828 39.1944 23.2969V24.5039H29.3975V22.4766H36.4053V22.2539C36.3897 21.7461 36.2881 21.2695 36.1006 20.8242C35.9209 20.3789 35.6436 20.0195 35.2686 19.7461C34.8936 19.4727 34.3936 19.3359 33.7686 19.3359C33.2998 19.3359 32.8819 19.4375 32.5147 19.6406C32.1553 19.8359 31.8545 20.1211 31.6123 20.4961C31.3702 20.8711 31.1827 21.3242 31.0498 21.8555C30.9248 22.3789 30.8623 22.9688 30.8623 23.625V24.0938C30.8623 24.6484 30.9366 25.1641 31.085 25.6406C31.2412 26.1094 31.4678 26.5195 31.7647 26.8711C32.0616 27.2227 32.4209 27.5 32.8428 27.7031C33.2647 27.8984 33.7452 27.9961 34.2842 27.9961C34.9639 27.9961 35.5694 27.8594 36.1006 27.5859C36.6319 27.3125 37.0928 26.9258 37.4834 26.4258L38.9717 27.8672C38.6983 28.2656 38.3428 28.6484 37.9053 29.0156C37.4678 29.375 36.9327 29.668 36.2998 29.8945C35.6748 30.1211 34.9483 30.2344 34.1202 30.2344ZM49.4708 26.5664C49.4708 26.2852 49.4005 26.0312 49.2598 25.8047C49.1192 25.5703 48.8497 25.3594 48.4513 25.1719C48.0606 24.9844 47.4825 24.8125 46.7169 24.6562C46.045 24.5078 45.4278 24.332 44.8653 24.1289C44.3106 23.918 43.8341 23.6641 43.4356 23.3672C43.0372 23.0703 42.7286 22.7188 42.5098 22.3125C42.2911 21.9062 42.1817 21.4375 42.1817 20.9062C42.1817 20.3906 42.295 19.9023 42.5216 19.4414C42.7481 18.9805 43.0723 18.5742 43.4942 18.2227C43.9161 17.8711 44.4278 17.5938 45.0294 17.3906C45.6388 17.1875 46.3184 17.0859 47.0684 17.0859C48.1309 17.0859 49.0411 17.2656 49.7989 17.625C50.5645 17.9766 51.1505 18.457 51.5567 19.0664C51.963 19.668 52.1661 20.3477 52.1661 21.1055H49.3419C49.3419 20.7695 49.2559 20.457 49.0841 20.168C48.92 19.8711 48.67 19.6328 48.3341 19.4531C47.9981 19.2656 47.5763 19.1719 47.0684 19.1719C46.5841 19.1719 46.1817 19.25 45.8614 19.4062C45.5489 19.5547 45.3145 19.75 45.1583 19.9922C45.0098 20.2344 44.9356 20.5 44.9356 20.7891C44.9356 21 44.9747 21.1914 45.0528 21.3633C45.1388 21.5273 45.2794 21.6797 45.4747 21.8203C45.67 21.9531 45.9356 22.0781 46.2716 22.1953C46.6153 22.3125 47.045 22.4258 47.5606 22.5352C48.5294 22.7383 49.3614 23 50.0567 23.3203C50.7598 23.6328 51.2989 24.0391 51.6739 24.5391C52.0489 25.0312 52.2364 25.6562 52.2364 26.4141C52.2364 26.9766 52.1153 27.4922 51.8731 27.9609C51.6388 28.4219 51.295 28.8242 50.8419 29.168C50.3888 29.5039 49.8458 29.7656 49.213 29.9531C48.588 30.1406 47.8848 30.2344 47.1036 30.2344C45.9552 30.2344 44.9825 30.0312 44.1856 29.625C43.3888 29.2109 42.7833 28.6836 42.3692 28.043C41.963 27.3945 41.7598 26.7227 41.7598 26.0273H44.4903C44.5216 26.5508 44.6661 26.9688 44.9239 27.2812C45.1895 27.5859 45.5177 27.8086 45.9083 27.9492C46.3067 28.082 46.7169 28.1484 47.1388 28.1484C47.6466 28.1484 48.0723 28.082 48.4161 27.9492C48.7598 27.8086 49.0216 27.6211 49.2013 27.3867C49.3809 27.1445 49.4708 26.8711 49.4708 26.5664ZM61.2589 30.2344C60.3214 30.2344 59.4738 30.082 58.7159 29.7773C57.9659 29.4648 57.3253 29.0312 56.7941 28.4766C56.2706 27.9219 55.8683 27.2695 55.587 26.5195C55.3058 25.7695 55.1652 24.9609 55.1652 24.0938V23.625C55.1652 22.6328 55.3097 21.7344 55.5988 20.9297C55.8878 20.125 56.2902 19.4375 56.8058 18.8672C57.3214 18.2891 57.9308 17.8477 58.6339 17.543C59.337 17.2383 60.0988 17.0859 60.9191 17.0859C61.8253 17.0859 62.6183 17.2383 63.298 17.543C63.9777 17.8477 64.5402 18.2773 64.9855 18.832C65.4386 19.3789 65.7745 20.0312 65.9933 20.7891C66.2198 21.5469 66.3331 22.3828 66.3331 23.2969V24.5039H56.5363V22.4766H63.5441V22.2539C63.5284 21.7461 63.4269 21.2695 63.2394 20.8242C63.0597 20.3789 62.7823 20.0195 62.4073 19.7461C62.0323 19.4727 61.5323 19.3359 60.9073 19.3359C60.4386 19.3359 60.0206 19.4375 59.6534 19.6406C59.2941 19.8359 58.9933 20.1211 58.7511 20.4961C58.5089 20.8711 58.3214 21.3242 58.1886 21.8555C58.0636 22.3789 58.0011 22.9688 58.0011 23.625V24.0938C58.0011 24.6484 58.0753 25.1641 58.2238 25.6406C58.38 26.1094 58.6066 26.5195 58.9034 26.8711C59.2003 27.2227 59.5597 27.5 59.9816 27.7031C60.4034 27.8984 60.8839 27.9961 61.423 27.9961C62.1027 27.9961 62.7081 27.8594 63.2394 27.5859C63.7706 27.3125 64.2316 26.9258 64.6222 26.4258L66.1105 27.8672C65.837 28.2656 65.4816 28.6484 65.0441 29.0156C64.6066 29.375 64.0714 29.668 63.4386 29.8945C62.8136 30.1211 62.087 30.2344 61.2589 30.2344ZM72.3322 19.7344V30H69.508V17.3203H72.2033L72.3322 19.7344ZM76.2111 17.2383L76.1877 19.8633C76.0158 19.832 75.8283 19.8086 75.6252 19.793C75.4298 19.7773 75.2345 19.7695 75.0392 19.7695C74.5548 19.7695 74.1291 19.8398 73.7619 19.9805C73.3947 20.1133 73.0861 20.3086 72.8361 20.5664C72.5939 20.8164 72.4064 21.1211 72.2736 21.4805C72.1408 21.8398 72.0627 22.2422 72.0392 22.6875L71.3947 22.7344C71.3947 21.9375 71.4728 21.1992 71.6291 20.5195C71.7853 19.8398 72.0197 19.2422 72.3322 18.7266C72.6525 18.2109 73.0509 17.8086 73.5275 17.5195C74.0119 17.2305 74.5705 17.0859 75.2033 17.0859C75.3752 17.0859 75.5588 17.1016 75.7541 17.1328C75.9572 17.1641 76.1095 17.1992 76.2111 17.2383ZM83.2766 27.7617L86.382 17.3203H89.3117L84.9055 30H83.0773L83.2766 27.7617ZM80.8977 17.3203L84.0617 27.8086L84.2141 30H82.3859L77.9563 17.3203H80.8977ZM97.4436 30.2344C96.5061 30.2344 95.6584 30.082 94.9006 29.7773C94.1506 29.4648 93.51 29.0312 92.9788 28.4766C92.4553 27.9219 92.053 27.2695 91.7717 26.5195C91.4905 25.7695 91.3498 24.9609 91.3498 24.0938V23.625C91.3498 22.6328 91.4944 21.7344 91.7834 20.9297C92.0725 20.125 92.4748 19.4375 92.9905 18.8672C93.5061 18.2891 94.1155 17.8477 94.8186 17.543C95.5217 17.2383 96.2834 17.0859 97.1038 17.0859C98.01 17.0859 98.803 17.2383 99.4827 17.543C100.162 17.8477 100.725 18.2773 101.17 18.832C101.623 19.3789 101.959 20.0312 102.178 20.7891C102.405 21.5469 102.518 22.3828 102.518 23.2969V24.5039H92.7209V22.4766H99.7288V22.2539C99.7131 21.7461 99.6116 21.2695 99.4241 20.8242C99.2444 20.3789 98.967 20.0195 98.592 19.7461C98.217 19.4727 97.717 19.3359 97.092 19.3359C96.6233 19.3359 96.2053 19.4375 95.8381 19.6406C95.4788 19.8359 95.178 20.1211 94.9358 20.4961C94.6936 20.8711 94.5061 21.3242 94.3733 21.8555C94.2483 22.3789 94.1858 22.9688 94.1858 23.625V24.0938C94.1858 24.6484 94.26 25.1641 94.4084 25.6406C94.5647 26.1094 94.7913 26.5195 95.0881 26.8711C95.385 27.2227 95.7444 27.5 96.1663 27.7031C96.5881 27.8984 97.0686 27.9961 97.6077 27.9961C98.2873 27.9961 98.8928 27.8594 99.4241 27.5859C99.9553 27.3125 100.416 26.9258 100.807 26.4258L102.295 27.8672C102.022 28.2656 101.666 28.6484 101.229 29.0156C100.791 29.375 100.256 29.668 99.6233 29.8945C98.9983 30.1211 98.2717 30.2344 97.4436 30.2344ZM121.875 25.6055C121.875 25.2539 121.821 24.9414 121.711 24.668C121.61 24.3945 121.426 24.1445 121.16 23.918C120.895 23.6914 120.52 23.4727 120.035 23.2617C119.559 23.043 118.95 22.8203 118.207 22.5938C117.395 22.3438 116.645 22.0664 115.957 21.7617C115.278 21.4492 114.684 21.0898 114.176 20.6836C113.668 20.2695 113.274 19.7969 112.993 19.2656C112.711 18.7266 112.571 18.1055 112.571 17.4023C112.571 16.707 112.715 16.0742 113.004 15.5039C113.301 14.9336 113.719 14.4414 114.258 14.0273C114.805 13.6055 115.45 13.2812 116.192 13.0547C116.934 12.8203 117.754 12.7031 118.653 12.7031C119.918 12.7031 121.008 12.9375 121.922 13.4062C122.844 13.875 123.551 14.5039 124.043 15.293C124.543 16.082 124.793 16.9531 124.793 17.9062H121.875C121.875 17.3438 121.754 16.8477 121.512 16.418C121.278 15.9805 120.918 15.6367 120.434 15.3867C119.957 15.1367 119.352 15.0117 118.618 15.0117C117.922 15.0117 117.344 15.1172 116.883 15.3281C116.422 15.5391 116.078 15.8242 115.852 16.1836C115.625 16.543 115.512 16.9492 115.512 17.4023C115.512 17.7227 115.586 18.0156 115.735 18.2812C115.883 18.5391 116.11 18.7812 116.414 19.0078C116.719 19.2266 117.102 19.4336 117.563 19.6289C118.024 19.8242 118.567 20.0117 119.192 20.1914C120.137 20.4727 120.961 20.7852 121.664 21.1289C122.368 21.4648 122.953 21.8477 123.422 22.2773C123.891 22.707 124.243 23.1953 124.477 23.7422C124.711 24.2812 124.828 24.8945 124.828 25.582C124.828 26.3008 124.684 26.9492 124.395 27.5273C124.106 28.0977 123.692 28.5859 123.153 28.9922C122.621 29.3906 121.981 29.6992 121.231 29.918C120.489 30.1289 119.66 30.2344 118.746 30.2344C117.926 30.2344 117.118 30.125 116.321 29.9062C115.532 29.6875 114.813 29.3555 114.164 28.9102C113.516 28.457 113 27.8945 112.618 27.2227C112.235 26.543 112.043 25.75 112.043 24.8438H114.985C114.985 25.3984 115.078 25.8711 115.266 26.2617C115.461 26.6523 115.731 26.9727 116.075 27.2227C116.418 27.4648 116.817 27.6445 117.27 27.7617C117.731 27.8789 118.223 27.9375 118.746 27.9375C119.434 27.9375 120.008 27.8398 120.469 27.6445C120.938 27.4492 121.289 27.1758 121.524 26.8242C121.758 26.4727 121.875 26.0664 121.875 25.6055ZM133.699 30.2344C132.761 30.2344 131.913 30.082 131.156 29.7773C130.406 29.4648 129.765 29.0312 129.234 28.4766C128.71 27.9219 128.308 27.2695 128.027 26.5195C127.745 25.7695 127.605 24.9609 127.605 24.0938V23.625C127.605 22.6328 127.749 21.7344 128.038 20.9297C128.327 20.125 128.73 19.4375 129.245 18.8672C129.761 18.2891 130.37 17.8477 131.074 17.543C131.777 17.2383 132.538 17.0859 133.359 17.0859C134.265 17.0859 135.058 17.2383 135.738 17.543C136.417 17.8477 136.98 18.2773 137.425 18.832C137.878 19.3789 138.214 20.0312 138.433 20.7891C138.66 21.5469 138.773 22.3828 138.773 23.2969V24.5039H128.976V22.4766H135.984V22.2539C135.968 21.7461 135.867 21.2695 135.679 20.8242C135.499 20.3789 135.222 20.0195 134.847 19.7461C134.472 19.4727 133.972 19.3359 133.347 19.3359C132.878 19.3359 132.46 19.4375 132.093 19.6406C131.734 19.8359 131.433 20.1211 131.191 20.4961C130.949 20.8711 130.761 21.3242 130.628 21.8555C130.503 22.3789 130.441 22.9688 130.441 23.625V24.0938C130.441 24.6484 130.515 25.1641 130.663 25.6406C130.82 26.1094 131.046 26.5195 131.343 26.8711C131.64 27.2227 131.999 27.5 132.421 27.7031C132.843 27.8984 133.324 27.9961 133.863 27.9961C134.542 27.9961 135.148 27.8594 135.679 27.5859C136.21 27.3125 136.671 26.9258 137.062 26.4258L138.55 27.8672C138.277 28.2656 137.921 28.6484 137.484 29.0156C137.046 29.375 136.511 29.668 135.878 29.8945C135.253 30.1211 134.527 30.2344 133.699 30.2344ZM149.565 27.0117V17.3203H152.401V30H149.729L149.565 27.0117ZM149.963 24.375L150.913 24.3516C150.913 25.2031 150.819 25.9883 150.631 26.707C150.444 27.418 150.155 28.0391 149.764 28.5703C149.373 29.0938 148.873 29.5039 148.264 29.8008C147.655 30.0898 146.924 30.2344 146.073 30.2344C145.455 30.2344 144.889 30.1445 144.373 29.9648C143.858 29.7852 143.413 29.5078 143.038 29.1328C142.67 28.7578 142.385 28.2695 142.182 27.668C141.979 27.0664 141.877 26.3477 141.877 25.5117V17.3203H144.702V25.5352C144.702 25.9961 144.756 26.3828 144.866 26.6953C144.975 27 145.123 27.2461 145.311 27.4336C145.498 27.6211 145.717 27.7539 145.967 27.832C146.217 27.9102 146.483 27.9492 146.764 27.9492C147.569 27.9492 148.202 27.793 148.663 27.4805C149.131 27.1602 149.463 26.7305 149.659 26.1914C149.862 25.6523 149.963 25.0469 149.963 24.375ZM170.118 15.2109L165.02 30H161.938L168.36 12.9375H170.329L170.118 15.2109ZM174.383 30L169.274 15.2109L169.051 12.9375H171.032L177.477 30H174.383ZM174.137 23.6719V26.0039H164.856V23.6719H174.137ZM187.179 26.5664C187.179 26.2852 187.109 26.0312 186.968 25.8047C186.828 25.5703 186.558 25.3594 186.16 25.1719C185.769 24.9844 185.191 24.8125 184.425 24.6562C183.753 24.5078 183.136 24.332 182.574 24.1289C182.019 23.918 181.542 23.6641 181.144 23.3672C180.746 23.0703 180.437 22.7188 180.218 22.3125C180 21.9062 179.89 21.4375 179.89 20.9062C179.89 20.3906 180.003 19.9023 180.23 19.4414C180.457 18.9805 180.781 18.5742 181.203 18.2227C181.625 17.8711 182.136 17.5938 182.738 17.3906C183.347 17.1875 184.027 17.0859 184.777 17.0859C185.839 17.0859 186.75 17.2656 187.507 17.625C188.273 17.9766 188.859 18.457 189.265 19.0664C189.671 19.668 189.875 20.3477 189.875 21.1055H187.05C187.05 20.7695 186.964 20.457 186.792 20.168C186.628 19.8711 186.378 19.6328 186.042 19.4531C185.707 19.2656 185.285 19.1719 184.777 19.1719C184.292 19.1719 183.89 19.25 183.57 19.4062C183.257 19.5547 183.023 19.75 182.867 19.9922C182.718 20.2344 182.644 20.5 182.644 20.7891C182.644 21 182.683 21.1914 182.761 21.3633C182.847 21.5273 182.988 21.6797 183.183 21.8203C183.378 21.9531 183.644 22.0781 183.98 22.1953C184.324 22.3125 184.753 22.4258 185.269 22.5352C186.238 22.7383 187.07 23 187.765 23.3203C188.468 23.6328 189.007 24.0391 189.382 24.5391C189.757 25.0312 189.945 25.6562 189.945 26.4141C189.945 26.9766 189.824 27.4922 189.582 27.9609C189.347 28.4219 189.003 28.8242 188.55 29.168C188.097 29.5039 187.554 29.7656 186.921 29.9531C186.296 30.1406 185.593 30.2344 184.812 30.2344C183.664 30.2344 182.691 30.0312 181.894 29.625C181.097 29.2109 180.492 28.6836 180.078 28.043C179.671 27.3945 179.468 26.7227 179.468 26.0273H182.199C182.23 26.5508 182.375 26.9688 182.632 27.2812C182.898 27.5859 183.226 27.8086 183.617 27.9492C184.015 28.082 184.425 28.1484 184.847 28.1484C185.355 28.1484 185.781 28.082 186.125 27.9492C186.468 27.8086 186.73 27.6211 186.91 27.3867C187.089 27.1445 187.179 26.8711 187.179 26.5664ZM200.491 26.5664C200.491 26.2852 200.42 26.0312 200.28 25.8047C200.139 25.5703 199.87 25.3594 199.471 25.1719C199.081 24.9844 198.503 24.8125 197.737 24.6562C197.065 24.5078 196.448 24.332 195.885 24.1289C195.331 23.918 194.854 23.6641 194.456 23.3672C194.057 23.0703 193.749 22.7188 193.53 22.3125C193.311 21.9062 193.202 21.4375 193.202 20.9062C193.202 20.3906 193.315 19.9023 193.542 19.4414C193.768 18.9805 194.092 18.5742 194.514 18.2227C194.936 17.8711 195.448 17.5938 196.049 17.3906C196.659 17.1875 197.338 17.0859 198.088 17.0859C199.151 17.0859 200.061 17.2656 200.819 17.625C201.585 17.9766 202.17 18.457 202.577 19.0664C202.983 19.668 203.186 20.3477 203.186 21.1055H200.362C200.362 20.7695 200.276 20.457 200.104 20.168C199.94 19.8711 199.69 19.6328 199.354 19.4531C199.018 19.2656 198.596 19.1719 198.088 19.1719C197.604 19.1719 197.202 19.25 196.881 19.4062C196.569 19.5547 196.335 19.75 196.178 19.9922C196.03 20.2344 195.956 20.5 195.956 20.7891C195.956 21 195.995 21.1914 196.073 21.3633C196.159 21.5273 196.299 21.6797 196.495 21.8203C196.69 21.9531 196.956 22.0781 197.292 22.1953C197.635 22.3125 198.065 22.4258 198.581 22.5352C199.549 22.7383 200.381 23 201.077 23.3203C201.78 23.6328 202.319 24.0391 202.694 24.5391C203.069 25.0312 203.256 25.6562 203.256 26.4141C203.256 26.9766 203.135 27.4922 202.893 27.9609C202.659 28.4219 202.315 28.8242 201.862 29.168C201.409 29.5039 200.866 29.7656 200.233 29.9531C199.608 30.1406 198.905 30.2344 198.124 30.2344C196.975 30.2344 196.003 30.0312 195.206 29.625C194.409 29.2109 193.803 28.6836 193.389 28.043C192.983 27.3945 192.78 26.7227 192.78 26.0273H195.51C195.542 26.5508 195.686 26.9688 195.944 27.2812C196.21 27.5859 196.538 27.8086 196.928 27.9492C197.327 28.082 197.737 28.1484 198.159 28.1484C198.667 28.1484 199.092 28.082 199.436 27.9492C199.78 27.8086 200.042 27.6211 200.221 27.3867C200.401 27.1445 200.491 26.8711 200.491 26.5664ZM212.279 30.2344C211.341 30.2344 210.494 30.082 209.736 29.7773C208.986 29.4648 208.345 29.0312 207.814 28.4766C207.291 27.9219 206.888 27.2695 206.607 26.5195C206.326 25.7695 206.185 24.9609 206.185 24.0938V23.625C206.185 22.6328 206.33 21.7344 206.619 20.9297C206.908 20.125 207.31 19.4375 207.826 18.8672C208.341 18.2891 208.951 17.8477 209.654 17.543C210.357 17.2383 211.119 17.0859 211.939 17.0859C212.845 17.0859 213.638 17.2383 214.318 17.543C214.998 17.8477 215.56 18.2773 216.005 18.832C216.459 19.3789 216.795 20.0312 217.013 20.7891C217.24 21.5469 217.353 22.3828 217.353 23.2969V24.5039H207.556V22.4766H214.564V22.2539C214.548 21.7461 214.447 21.2695 214.259 20.8242C214.08 20.3789 213.802 20.0195 213.427 19.7461C213.052 19.4727 212.552 19.3359 211.927 19.3359C211.459 19.3359 211.041 19.4375 210.673 19.6406C210.314 19.8359 210.013 20.1211 209.771 20.4961C209.529 20.8711 209.341 21.3242 209.209 21.8555C209.084 22.3789 209.021 22.9688 209.021 23.625V24.0938C209.021 24.6484 209.095 25.1641 209.244 25.6406C209.4 26.1094 209.627 26.5195 209.923 26.8711C210.22 27.2227 210.58 27.5 211.002 27.7031C211.423 27.8984 211.904 27.9961 212.443 27.9961C213.123 27.9961 213.728 27.8594 214.259 27.5859C214.791 27.3125 215.252 26.9258 215.642 26.4258L217.13 27.8672C216.857 28.2656 216.502 28.6484 216.064 29.0156C215.627 29.375 215.091 29.668 214.459 29.8945C213.834 30.1211 213.107 30.2344 212.279 30.2344ZM223.317 20.0273V30H220.493V17.3203H223.153L223.317 20.0273ZM222.813 23.1914L221.899 23.1797C221.907 22.2812 222.032 21.457 222.274 20.707C222.524 19.957 222.868 19.3125 223.305 18.7734C223.751 18.2344 224.282 17.8203 224.899 17.5312C225.516 17.2344 226.204 17.0859 226.962 17.0859C227.571 17.0859 228.122 17.1719 228.614 17.3438C229.114 17.5078 229.54 17.7773 229.891 18.1523C230.251 18.5273 230.524 19.0156 230.712 19.6172C230.899 20.2109 230.993 20.9414 230.993 21.8086V30H228.157V21.7969C228.157 21.1875 228.067 20.707 227.887 20.3555C227.715 19.9961 227.462 19.7422 227.126 19.5938C226.798 19.4375 226.387 19.3594 225.895 19.3594C225.411 19.3594 224.977 19.4609 224.594 19.6641C224.212 19.8672 223.887 20.1445 223.622 20.4961C223.364 20.8477 223.165 21.2539 223.024 21.7148C222.883 22.1758 222.813 22.668 222.813 23.1914ZM240.648 17.3203V19.3828H233.5V17.3203H240.648ZM235.562 14.2148H238.386V26.4961C238.386 26.8867 238.441 27.1875 238.55 27.3984C238.668 27.6016 238.828 27.7383 239.031 27.8086C239.234 27.8789 239.472 27.9141 239.746 27.9141C239.941 27.9141 240.129 27.9023 240.308 27.8789C240.488 27.8555 240.632 27.832 240.742 27.8086L240.754 29.9648C240.519 30.0352 240.246 30.0977 239.933 30.1523C239.629 30.207 239.277 30.2344 238.879 30.2344C238.23 30.2344 237.656 30.1211 237.156 29.8945C236.656 29.6602 236.265 29.2812 235.984 28.7578C235.703 28.2344 235.562 27.5391 235.562 26.6719V14.2148ZM242.967 23.8008V23.5312C242.967 22.6172 243.1 21.7695 243.366 20.9883C243.632 20.1992 244.014 19.5156 244.514 18.9375C245.022 18.3516 245.639 17.8984 246.366 17.5781C247.1 17.25 247.928 17.0859 248.85 17.0859C249.78 17.0859 250.608 17.25 251.335 17.5781C252.069 17.8984 252.69 18.3516 253.198 18.9375C253.706 19.5156 254.092 20.1992 254.358 20.9883C254.624 21.7695 254.757 22.6172 254.757 23.5312V23.8008C254.757 24.7148 254.624 25.5625 254.358 26.3438C254.092 27.125 253.706 27.8086 253.198 28.3945C252.69 28.9727 252.073 29.4258 251.346 29.7539C250.62 30.0742 249.796 30.2344 248.874 30.2344C247.944 30.2344 247.112 30.0742 246.378 29.7539C245.651 29.4258 245.034 28.9727 244.526 28.3945C244.018 27.8086 243.632 27.125 243.366 26.3438C243.1 25.5625 242.967 24.7148 242.967 23.8008ZM245.792 23.5312V23.8008C245.792 24.3711 245.85 24.9102 245.967 25.418C246.085 25.9258 246.268 26.3711 246.518 26.7539C246.768 27.1367 247.089 27.4375 247.479 27.6562C247.87 27.875 248.335 27.9844 248.874 27.9844C249.397 27.9844 249.85 27.875 250.233 27.6562C250.624 27.4375 250.944 27.1367 251.194 26.7539C251.444 26.3711 251.628 25.9258 251.745 25.418C251.87 24.9102 251.932 24.3711 251.932 23.8008V23.5312C251.932 22.9688 251.87 22.4375 251.745 21.9375C251.628 21.4297 251.44 20.9805 251.182 20.5898C250.932 20.1992 250.612 19.8945 250.221 19.6758C249.839 19.4492 249.382 19.3359 248.85 19.3359C248.319 19.3359 247.858 19.4492 247.467 19.6758C247.085 19.8945 246.768 20.1992 246.518 20.5898C246.268 20.9805 246.085 21.4297 245.967 21.9375C245.85 22.4375 245.792 22.9688 245.792 23.5312ZM270.61 30.2344C269.673 30.2344 268.825 30.082 268.067 29.7773C267.317 29.4648 266.677 29.0312 266.145 28.4766C265.622 27.9219 265.22 27.2695 264.938 26.5195C264.657 25.7695 264.516 24.9609 264.516 24.0938V23.625C264.516 22.6328 264.661 21.7344 264.95 20.9297C265.239 20.125 265.641 19.4375 266.157 18.8672C266.673 18.2891 267.282 17.8477 267.985 17.543C268.688 17.2383 269.45 17.0859 270.27 17.0859C271.177 17.0859 271.97 17.2383 272.649 17.543C273.329 17.8477 273.891 18.2773 274.337 18.832C274.79 19.3789 275.126 20.0312 275.345 20.7891C275.571 21.5469 275.684 22.3828 275.684 23.2969V24.5039H265.887V22.4766H272.895V22.2539C272.88 21.7461 272.778 21.2695 272.591 20.8242C272.411 20.3789 272.134 20.0195 271.759 19.7461C271.384 19.4727 270.884 19.3359 270.259 19.3359C269.79 19.3359 269.372 19.4375 269.005 19.6406C268.645 19.8359 268.345 20.1211 268.102 20.4961C267.86 20.8711 267.673 21.3242 267.54 21.8555C267.415 22.3789 267.352 22.9688 267.352 23.625V24.0938C267.352 24.6484 267.427 25.1641 267.575 25.6406C267.731 26.1094 267.958 26.5195 268.255 26.8711C268.552 27.2227 268.911 27.5 269.333 27.7031C269.755 27.8984 270.235 27.9961 270.774 27.9961C271.454 27.9961 272.059 27.8594 272.591 27.5859C273.122 27.3125 273.583 26.9258 273.973 26.4258L275.462 27.8672C275.188 28.2656 274.833 28.6484 274.395 29.0156C273.958 29.375 273.423 29.668 272.79 29.8945C272.165 30.1211 271.438 30.2344 270.61 30.2344ZM291.913 26.8828L296.401 12.9375H299.647L293.53 30H291.339L291.913 26.8828ZM287.765 12.9375L292.218 26.8828L292.827 30H290.624L284.53 12.9375H287.765ZM305.26 17.3203V30H302.424V17.3203H305.26ZM302.236 13.9922C302.236 13.5625 302.377 13.207 302.658 12.9258C302.947 12.6367 303.346 12.4922 303.853 12.4922C304.353 12.4922 304.748 12.6367 305.037 12.9258C305.326 13.207 305.471 13.5625 305.471 13.9922C305.471 14.4141 305.326 14.7656 305.037 15.0469C304.748 15.3281 304.353 15.4688 303.853 15.4688C303.346 15.4688 302.947 15.3281 302.658 15.0469C302.377 14.7656 302.236 14.4141 302.236 13.9922ZM313.438 27.7617L316.544 17.3203H319.474L315.067 30H313.239L313.438 27.7617ZM311.06 17.3203L314.224 27.8086L314.376 30H312.548L308.118 17.3203H311.06ZM329.141 27.457V21.4102C329.141 20.957 329.059 20.5664 328.895 20.2383C328.73 19.9102 328.48 19.6562 328.145 19.4766C327.816 19.2969 327.402 19.207 326.902 19.207C326.441 19.207 326.043 19.2852 325.707 19.4414C325.371 19.5977 325.109 19.8086 324.922 20.0742C324.734 20.3398 324.641 20.6406 324.641 20.9766H321.828C321.828 20.4766 321.949 19.9922 322.191 19.5234C322.434 19.0547 322.785 18.6367 323.246 18.2695C323.707 17.9023 324.258 17.6133 324.898 17.4023C325.539 17.1914 326.258 17.0859 327.055 17.0859C328.008 17.0859 328.852 17.2461 329.586 17.5664C330.328 17.8867 330.91 18.3711 331.332 19.0195C331.762 19.6602 331.977 20.4648 331.977 21.4336V27.0703C331.977 27.6484 332.016 28.168 332.094 28.6289C332.18 29.082 332.301 29.4766 332.457 29.8125V30H329.562C329.43 29.6953 329.324 29.3086 329.246 28.8398C329.176 28.3633 329.141 27.9023 329.141 27.457ZM329.551 22.2891L329.574 24.0352H327.547C327.023 24.0352 326.562 24.0859 326.164 24.1875C325.766 24.2812 325.434 24.4219 325.168 24.6094C324.902 24.7969 324.703 25.0234 324.57 25.2891C324.438 25.5547 324.371 25.8555 324.371 26.1914C324.371 26.5273 324.449 26.8359 324.605 27.1172C324.762 27.3906 324.988 27.6055 325.285 27.7617C325.59 27.918 325.957 27.9961 326.387 27.9961C326.965 27.9961 327.469 27.8789 327.898 27.6445C328.336 27.4023 328.68 27.1094 328.93 26.7656C329.18 26.4141 329.312 26.082 329.328 25.7695L330.242 27.0234C330.148 27.3438 329.988 27.6875 329.762 28.0547C329.535 28.4219 329.238 28.7734 328.871 29.1094C328.512 29.4375 328.078 29.707 327.57 29.918C327.07 30.1289 326.492 30.2344 325.836 30.2344C325.008 30.2344 324.27 30.0703 323.621 29.7422C322.973 29.4062 322.465 28.957 322.098 28.3945C321.73 27.8242 321.547 27.1797 321.547 26.4609C321.547 25.7891 321.672 25.1953 321.922 24.6797C322.18 24.1562 322.555 23.7188 323.047 23.3672C323.547 23.0156 324.156 22.75 324.875 22.5703C325.594 22.3828 326.414 22.2891 327.336 22.2891H329.551ZM349.975 27.457V21.4102C349.975 20.957 349.893 20.5664 349.729 20.2383C349.565 19.9102 349.315 19.6562 348.979 19.4766C348.65 19.2969 348.236 19.207 347.736 19.207C347.275 19.207 346.877 19.2852 346.541 19.4414C346.205 19.5977 345.943 19.8086 345.756 20.0742C345.568 20.3398 345.475 20.6406 345.475 20.9766H342.662C342.662 20.4766 342.783 19.9922 343.025 19.5234C343.268 19.0547 343.619 18.6367 344.08 18.2695C344.541 17.9023 345.092 17.6133 345.733 17.4023C346.373 17.1914 347.092 17.0859 347.889 17.0859C348.842 17.0859 349.686 17.2461 350.42 17.5664C351.162 17.8867 351.744 18.3711 352.166 19.0195C352.596 19.6602 352.811 20.4648 352.811 21.4336V27.0703C352.811 27.6484 352.85 28.168 352.928 28.6289C353.014 29.082 353.135 29.4766 353.291 29.8125V30H350.397C350.264 29.6953 350.158 29.3086 350.08 28.8398C350.01 28.3633 349.975 27.9023 349.975 27.457ZM350.385 22.2891L350.408 24.0352H348.381C347.858 24.0352 347.397 24.0859 346.998 24.1875C346.6 24.2812 346.268 24.4219 346.002 24.6094C345.736 24.7969 345.537 25.0234 345.404 25.2891C345.272 25.5547 345.205 25.8555 345.205 26.1914C345.205 26.5273 345.283 26.8359 345.44 27.1172C345.596 27.3906 345.822 27.6055 346.119 27.7617C346.424 27.918 346.791 27.9961 347.221 27.9961C347.799 27.9961 348.303 27.8789 348.733 27.6445C349.17 27.4023 349.514 27.1094 349.764 26.7656C350.014 26.4141 350.147 26.082 350.162 25.7695L351.076 27.0234C350.983 27.3438 350.822 27.6875 350.596 28.0547C350.369 28.4219 350.072 28.7734 349.705 29.1094C349.346 29.4375 348.912 29.707 348.404 29.918C347.904 30.1289 347.326 30.2344 346.67 30.2344C345.842 30.2344 345.104 30.0703 344.455 29.7422C343.807 29.4062 343.299 28.957 342.932 28.3945C342.565 27.8242 342.381 27.1797 342.381 26.4609C342.381 25.7891 342.506 25.1953 342.756 24.6797C343.014 24.1562 343.389 23.7188 343.881 23.3672C344.381 23.0156 344.99 22.75 345.709 22.5703C346.428 22.3828 347.248 22.2891 348.17 22.2891H350.385ZM365.137 12.9375H367.762L372.695 26.0977L377.617 12.9375H380.242L373.727 30H371.641L365.137 12.9375ZM363.942 12.9375H366.438L366.871 24.3281V30H363.942V12.9375ZM378.942 12.9375H381.449V30H378.508V24.3281L378.942 12.9375ZM392.769 27.457V21.4102C392.769 20.957 392.687 20.5664 392.523 20.2383C392.359 19.9102 392.109 19.6562 391.773 19.4766C391.445 19.2969 391.03 19.207 390.53 19.207C390.07 19.207 389.671 19.2852 389.335 19.4414C388.999 19.5977 388.737 19.8086 388.55 20.0742C388.362 20.3398 388.269 20.6406 388.269 20.9766H385.456C385.456 20.4766 385.577 19.9922 385.82 19.5234C386.062 19.0547 386.413 18.6367 386.874 18.2695C387.335 17.9023 387.886 17.6133 388.527 17.4023C389.167 17.1914 389.886 17.0859 390.683 17.0859C391.636 17.0859 392.48 17.2461 393.214 17.5664C393.956 17.8867 394.538 18.3711 394.96 19.0195C395.39 19.6602 395.605 20.4648 395.605 21.4336V27.0703C395.605 27.6484 395.644 28.168 395.722 28.6289C395.808 29.082 395.929 29.4766 396.085 29.8125V30H393.191C393.058 29.6953 392.952 29.3086 392.874 28.8398C392.804 28.3633 392.769 27.9023 392.769 27.457ZM393.179 22.2891L393.202 24.0352H391.175C390.652 24.0352 390.191 24.0859 389.792 24.1875C389.394 24.2812 389.062 24.4219 388.796 24.6094C388.53 24.7969 388.331 25.0234 388.198 25.2891C388.066 25.5547 387.999 25.8555 387.999 26.1914C387.999 26.5273 388.077 26.8359 388.234 27.1172C388.39 27.3906 388.616 27.6055 388.913 27.7617C389.218 27.918 389.585 27.9961 390.015 27.9961C390.593 27.9961 391.097 27.8789 391.527 27.6445C391.964 27.4023 392.308 27.1094 392.558 26.7656C392.808 26.4141 392.941 26.082 392.956 25.7695L393.87 27.0234C393.777 27.3438 393.616 27.6875 393.39 28.0547C393.163 28.4219 392.866 28.7734 392.499 29.1094C392.14 29.4375 391.706 29.707 391.198 29.918C390.698 30.1289 390.12 30.2344 389.464 30.2344C388.636 30.2344 387.898 30.0703 387.249 29.7422C386.601 29.4062 386.093 28.957 385.726 28.3945C385.359 27.8242 385.175 27.1797 385.175 26.4609C385.175 25.7891 385.3 25.1953 385.55 24.6797C385.808 24.1562 386.183 23.7188 386.675 23.3672C387.175 23.0156 387.784 22.75 388.503 22.5703C389.222 22.3828 390.042 22.2891 390.964 22.2891H393.179ZM407.639 17.3203H410.205V29.6484C410.205 30.7891 409.963 31.7578 409.479 32.5547C408.994 33.3516 408.319 33.957 407.451 34.3711C406.584 34.793 405.58 35.0039 404.44 35.0039C403.955 35.0039 403.416 34.9336 402.823 34.793C402.237 34.6523 401.666 34.4258 401.112 34.1133C400.565 33.8086 400.108 33.4062 399.74 32.9062L401.065 31.2422C401.518 31.7812 402.018 32.1758 402.565 32.4258C403.112 32.6758 403.686 32.8008 404.287 32.8008C404.936 32.8008 405.487 32.6797 405.94 32.4375C406.401 32.2031 406.756 31.8555 407.006 31.3945C407.256 30.9336 407.381 30.3711 407.381 29.707V20.1914L407.639 17.3203ZM399.026 23.8008V23.5547C399.026 22.5938 399.143 21.7188 399.377 20.9297C399.612 20.1328 399.948 19.4492 400.385 18.8789C400.823 18.3008 401.354 17.8594 401.979 17.5547C402.604 17.2422 403.311 17.0859 404.1 17.0859C404.92 17.0859 405.619 17.2344 406.198 17.5312C406.783 17.8281 407.272 18.2539 407.662 18.8086C408.053 19.3555 408.358 20.0117 408.576 20.7773C408.803 21.5352 408.971 22.3789 409.08 23.3086V24.0938C408.979 25 408.807 25.8281 408.565 26.5781C408.323 27.3281 408.002 27.9766 407.604 28.5234C407.205 29.0703 406.713 29.4922 406.127 29.7891C405.549 30.0859 404.865 30.2344 404.076 30.2344C403.303 30.2344 402.604 30.0742 401.979 29.7539C401.362 29.4336 400.83 28.9844 400.385 28.4062C399.948 27.8281 399.612 27.1484 399.377 26.3672C399.143 25.5781 399.026 24.7227 399.026 23.8008ZM401.85 23.5547V23.8008C401.85 24.3789 401.905 24.918 402.014 25.418C402.131 25.918 402.307 26.3594 402.541 26.7422C402.783 27.1172 403.088 27.4141 403.455 27.6328C403.83 27.8438 404.272 27.9492 404.78 27.9492C405.444 27.9492 405.987 27.8086 406.408 27.5273C406.838 27.2461 407.166 26.8672 407.393 26.3906C407.627 25.9062 407.791 25.3672 407.885 24.7734V22.6523C407.838 22.1914 407.74 21.7617 407.592 21.3633C407.451 20.9648 407.26 20.6172 407.018 20.3203C406.776 20.0156 406.471 19.7812 406.104 19.6172C405.737 19.4453 405.303 19.3594 404.803 19.3594C404.295 19.3594 403.854 19.4688 403.479 19.6875C403.104 19.9062 402.795 20.207 402.553 20.5898C402.319 20.9727 402.143 21.418 402.026 21.9258C401.908 22.4336 401.85 22.9766 401.85 23.5547ZM417.118 17.3203V30H414.283V17.3203H417.118ZM414.095 13.9922C414.095 13.5625 414.236 13.207 414.517 12.9258C414.806 12.6367 415.204 12.4922 415.712 12.4922C416.212 12.4922 416.607 12.6367 416.896 12.9258C417.185 13.207 417.329 13.5625 417.329 13.9922C417.329 14.4141 417.185 14.7656 416.896 15.0469C416.607 15.3281 416.212 15.4688 415.712 15.4688C415.204 15.4688 414.806 15.3281 414.517 15.0469C414.236 14.7656 414.095 14.4141 414.095 13.9922ZM428.321 27.457V21.4102C428.321 20.957 428.239 20.5664 428.075 20.2383C427.91 19.9102 427.66 19.6562 427.325 19.4766C426.996 19.2969 426.582 19.207 426.082 19.207C425.621 19.207 425.223 19.2852 424.887 19.4414C424.551 19.5977 424.289 19.8086 424.102 20.0742C423.914 20.3398 423.821 20.6406 423.821 20.9766H421.008C421.008 20.4766 421.129 19.9922 421.371 19.5234C421.614 19.0547 421.965 18.6367 422.426 18.2695C422.887 17.9023 423.438 17.6133 424.078 17.4023C424.719 17.1914 425.438 17.0859 426.235 17.0859C427.188 17.0859 428.032 17.2461 428.766 17.5664C429.508 17.8867 430.09 18.3711 430.512 19.0195C430.942 19.6602 431.157 20.4648 431.157 21.4336V27.0703C431.157 27.6484 431.196 28.168 431.274 28.6289C431.36 29.082 431.481 29.4766 431.637 29.8125V30H428.742C428.61 29.6953 428.504 29.3086 428.426 28.8398C428.356 28.3633 428.321 27.9023 428.321 27.457ZM428.731 22.2891L428.754 24.0352H426.727C426.203 24.0352 425.742 24.0859 425.344 24.1875C424.946 24.2812 424.614 24.4219 424.348 24.6094C424.082 24.7969 423.883 25.0234 423.75 25.2891C423.617 25.5547 423.551 25.8555 423.551 26.1914C423.551 26.5273 423.629 26.8359 423.785 27.1172C423.942 27.3906 424.168 27.6055 424.465 27.7617C424.77 27.918 425.137 27.9961 425.567 27.9961C426.145 27.9961 426.649 27.8789 427.078 27.6445C427.516 27.4023 427.86 27.1094 428.11 26.7656C428.36 26.4141 428.492 26.082 428.508 25.7695L429.422 27.0234C429.328 27.3438 429.168 27.6875 428.942 28.0547C428.715 28.4219 428.418 28.7734 428.051 29.1094C427.692 29.4375 427.258 29.707 426.75 29.918C426.25 30.1289 425.672 30.2344 425.016 30.2344C424.188 30.2344 423.45 30.0703 422.801 29.7422C422.153 29.4062 421.645 28.957 421.278 28.3945C420.91 27.8242 420.727 27.1797 420.727 26.4609C420.727 25.7891 420.852 25.1953 421.102 24.6797C421.36 24.1562 421.735 23.7188 422.227 23.3672C422.727 23.0156 423.336 22.75 424.055 22.5703C424.774 22.3828 425.594 22.2891 426.516 22.2891H428.731ZM449.741 27.375V12H452.577V30H450.01L449.741 27.375ZM441.491 23.8008V23.5547C441.491 22.5938 441.604 21.7188 441.83 20.9297C442.057 20.1328 442.385 19.4492 442.815 18.8789C443.245 18.3008 443.768 17.8594 444.385 17.5547C445.002 17.2422 445.698 17.0859 446.471 17.0859C447.237 17.0859 447.909 17.2344 448.487 17.5312C449.065 17.8281 449.557 18.2539 449.963 18.8086C450.37 19.3555 450.694 20.0117 450.936 20.7773C451.178 21.5352 451.35 22.3789 451.452 23.3086V24.0938C451.35 25 451.178 25.8281 450.936 26.5781C450.694 27.3281 450.37 27.9766 449.963 28.5234C449.557 29.0703 449.061 29.4922 448.475 29.7891C447.897 30.0859 447.221 30.2344 446.448 30.2344C445.682 30.2344 444.991 30.0742 444.373 29.7539C443.764 29.4336 443.245 28.9844 442.815 28.4062C442.385 27.8281 442.057 27.1484 441.83 26.3672C441.604 25.5781 441.491 24.7227 441.491 23.8008ZM444.315 23.5547V23.8008C444.315 24.3789 444.366 24.918 444.467 25.418C444.577 25.918 444.745 26.3594 444.971 26.7422C445.198 27.1172 445.491 27.4141 445.85 27.6328C446.217 27.8438 446.655 27.9492 447.163 27.9492C447.803 27.9492 448.33 27.8086 448.745 27.5273C449.159 27.2461 449.483 26.8672 449.717 26.3906C449.959 25.9062 450.123 25.3672 450.209 24.7734V22.6523C450.163 22.1914 450.065 21.7617 449.916 21.3633C449.776 20.9648 449.584 20.6172 449.342 20.3203C449.1 20.0156 448.799 19.7812 448.44 19.6172C448.088 19.4453 447.67 19.3594 447.186 19.3594C446.67 19.3594 446.233 19.4688 445.873 19.6875C445.514 19.9062 445.217 20.207 444.983 20.5898C444.756 20.9727 444.588 21.418 444.479 21.9258C444.37 22.4336 444.315 22.9766 444.315 23.5547ZM455.951 23.8008V23.5312C455.951 22.6172 456.083 21.7695 456.349 20.9883C456.615 20.1992 456.997 19.5156 457.497 18.9375C458.005 18.3516 458.622 17.8984 459.349 17.5781C460.083 17.25 460.912 17.0859 461.833 17.0859C462.763 17.0859 463.591 17.25 464.318 17.5781C465.052 17.8984 465.673 18.3516 466.181 18.9375C466.689 19.5156 467.076 20.1992 467.341 20.9883C467.607 21.7695 467.74 22.6172 467.74 23.5312V23.8008C467.74 24.7148 467.607 25.5625 467.341 26.3438C467.076 27.125 466.689 27.8086 466.181 28.3945C465.673 28.9727 465.056 29.4258 464.33 29.7539C463.603 30.0742 462.779 30.2344 461.857 30.2344C460.927 30.2344 460.095 30.0742 459.361 29.7539C458.634 29.4258 458.017 28.9727 457.509 28.3945C457.001 27.8086 456.615 27.125 456.349 26.3438C456.083 25.5625 455.951 24.7148 455.951 23.8008ZM458.775 23.5312V23.8008C458.775 24.3711 458.833 24.9102 458.951 25.418C459.068 25.9258 459.251 26.3711 459.501 26.7539C459.751 27.1367 460.072 27.4375 460.462 27.6562C460.853 27.875 461.318 27.9844 461.857 27.9844C462.38 27.9844 462.833 27.875 463.216 27.6562C463.607 27.4375 463.927 27.1367 464.177 26.7539C464.427 26.3711 464.611 25.9258 464.728 25.418C464.853 24.9102 464.915 24.3711 464.915 23.8008V23.5312C464.915 22.9688 464.853 22.4375 464.728 21.9375C464.611 21.4297 464.423 20.9805 464.165 20.5898C463.915 20.1992 463.595 19.8945 463.205 19.6758C462.822 19.4492 462.365 19.3359 461.833 19.3359C461.302 19.3359 460.841 19.4492 460.451 19.6758C460.068 19.8945 459.751 20.1992 459.501 20.5898C459.251 20.9805 459.068 21.4297 458.951 21.9375C458.833 22.4375 458.775 22.9688 458.775 23.5312ZM488.363 24.4453H491.293C491.199 25.5625 490.886 26.5586 490.355 27.4336C489.824 28.3008 489.078 28.9844 488.117 29.4844C487.156 29.9844 485.988 30.2344 484.613 30.2344C483.558 30.2344 482.609 30.0469 481.765 29.6719C480.921 29.2891 480.199 28.75 479.597 28.0547C478.996 27.3516 478.535 26.5039 478.214 25.5117C477.902 24.5195 477.746 23.4102 477.746 22.1836V20.7656C477.746 19.5391 477.906 18.4297 478.226 17.4375C478.554 16.4453 479.023 15.5977 479.632 14.8945C480.242 14.1836 480.972 13.6406 481.824 13.2656C482.683 12.8906 483.648 12.7031 484.718 12.7031C486.078 12.7031 487.226 12.9531 488.164 13.4531C489.101 13.9531 489.828 14.6445 490.343 15.5273C490.867 16.4102 491.187 17.4219 491.304 18.5625H488.375C488.296 17.8281 488.125 17.1992 487.859 16.6758C487.601 16.1523 487.218 15.7539 486.71 15.4805C486.203 15.1992 485.539 15.0586 484.718 15.0586C484.046 15.0586 483.46 15.1836 482.96 15.4336C482.46 15.6836 482.043 16.0508 481.707 16.5352C481.371 17.0195 481.117 17.6172 480.945 18.3281C480.781 19.0312 480.699 19.8359 480.699 20.7422V22.1836C480.699 23.043 480.773 23.8242 480.921 24.5273C481.078 25.2227 481.312 25.8203 481.625 26.3203C481.945 26.8203 482.351 27.207 482.843 27.4805C483.335 27.7539 483.925 27.8906 484.613 27.8906C485.449 27.8906 486.125 27.7578 486.64 27.4922C487.164 27.2266 487.558 26.8398 487.824 26.332C488.097 25.8164 488.277 25.1875 488.363 24.4453ZM497.667 17.3203V30H494.831V17.3203H497.667ZM494.643 13.9922C494.643 13.5625 494.784 13.207 495.065 12.9258C495.354 12.6367 495.753 12.4922 496.26 12.4922C496.76 12.4922 497.155 12.6367 497.444 12.9258C497.733 13.207 497.878 13.5625 497.878 13.9922C497.878 14.4141 497.733 14.7656 497.444 15.0469C497.155 15.3281 496.76 15.4688 496.26 15.4688C495.753 15.4688 495.354 15.3281 495.065 15.0469C494.784 14.7656 494.643 14.4141 494.643 13.9922ZM504.521 20.0273V30H501.697V17.3203H504.357L504.521 20.0273ZM504.017 23.1914L503.103 23.1797C503.111 22.2812 503.236 21.457 503.478 20.707C503.728 19.957 504.072 19.3125 504.509 18.7734C504.955 18.2344 505.486 17.8203 506.103 17.5312C506.72 17.2344 507.408 17.0859 508.166 17.0859C508.775 17.0859 509.326 17.1719 509.818 17.3438C510.318 17.5078 510.744 17.7773 511.095 18.1523C511.455 18.5273 511.728 19.0156 511.916 19.6172C512.103 20.2109 512.197 20.9414 512.197 21.8086V30H509.361V21.7969C509.361 21.1875 509.271 20.707 509.091 20.3555C508.92 19.9961 508.666 19.7422 508.33 19.5938C508.002 19.4375 507.591 19.3594 507.099 19.3594C506.615 19.3594 506.181 19.4609 505.798 19.6641C505.416 19.8672 505.091 20.1445 504.826 20.4961C504.568 20.8477 504.369 21.2539 504.228 21.7148C504.087 22.1758 504.017 22.668 504.017 23.1914ZM521.63 30.2344C520.692 30.2344 519.844 30.082 519.087 29.7773C518.337 29.4648 517.696 29.0312 517.165 28.4766C516.641 27.9219 516.239 27.2695 515.958 26.5195C515.676 25.7695 515.536 24.9609 515.536 24.0938V23.625C515.536 22.6328 515.68 21.7344 515.969 20.9297C516.258 20.125 516.661 19.4375 517.176 18.8672C517.692 18.2891 518.301 17.8477 519.005 17.543C519.708 17.2383 520.469 17.0859 521.29 17.0859C522.196 17.0859 522.989 17.2383 523.669 17.543C524.348 17.8477 524.911 18.2773 525.356 18.832C525.809 19.3789 526.145 20.0312 526.364 20.7891C526.59 21.5469 526.704 22.3828 526.704 23.2969V24.5039H516.907V22.4766H523.915V22.2539C523.899 21.7461 523.797 21.2695 523.61 20.8242C523.43 20.3789 523.153 20.0195 522.778 19.7461C522.403 19.4727 521.903 19.3359 521.278 19.3359C520.809 19.3359 520.391 19.4375 520.024 19.6406C519.665 19.8359 519.364 20.1211 519.122 20.4961C518.88 20.8711 518.692 21.3242 518.559 21.8555C518.434 22.3789 518.372 22.9688 518.372 23.625V24.0938C518.372 24.6484 518.446 25.1641 518.594 25.6406C518.751 26.1094 518.977 26.5195 519.274 26.8711C519.571 27.2227 519.93 27.5 520.352 27.7031C520.774 27.8984 521.255 27.9961 521.794 27.9961C522.473 27.9961 523.079 27.8594 523.61 27.5859C524.141 27.3125 524.602 26.9258 524.993 26.4258L526.481 27.8672C526.208 28.2656 525.852 28.6484 525.415 29.0156C524.977 29.375 524.442 29.668 523.809 29.8945C523.184 30.1211 522.458 30.2344 521.63 30.2344ZM532.691 19.8984V30H529.867V17.3203H532.527L532.691 19.8984ZM532.234 23.1914L531.273 23.1797C531.273 22.3047 531.383 21.4961 531.601 20.7539C531.82 20.0117 532.14 19.3672 532.562 18.8203C532.984 18.2656 533.508 17.8398 534.133 17.543C534.765 17.2383 535.496 17.0859 536.324 17.0859C536.902 17.0859 537.429 17.1719 537.906 17.3438C538.39 17.5078 538.808 17.7695 539.16 18.1289C539.519 18.4883 539.793 18.9492 539.98 19.5117C540.175 20.0742 540.273 20.7539 540.273 21.5508V30H537.449V21.7969C537.449 21.1797 537.355 20.6953 537.168 20.3438C536.988 19.9922 536.726 19.7422 536.383 19.5938C536.047 19.4375 535.644 19.3594 535.175 19.3594C534.644 19.3594 534.191 19.4609 533.816 19.6641C533.449 19.8672 533.148 20.1445 532.914 20.4961C532.679 20.8477 532.508 21.2539 532.398 21.7148C532.289 22.1758 532.234 22.668 532.234 23.1914ZM540.097 22.4414L538.773 22.7344C538.773 21.9688 538.879 21.2461 539.09 20.5664C539.308 19.8789 539.625 19.2773 540.039 18.7617C540.461 18.2383 540.98 17.8281 541.597 17.5312C542.215 17.2344 542.922 17.0859 543.718 17.0859C544.367 17.0859 544.945 17.1758 545.453 17.3555C545.968 17.5273 546.406 17.8008 546.765 18.1758C547.125 18.5508 547.398 19.0391 547.586 19.6406C547.773 20.2344 547.867 20.9531 547.867 21.7969V30H545.031V21.7852C545.031 21.1445 544.937 20.6484 544.75 20.2969C544.57 19.9453 544.312 19.7031 543.976 19.5703C543.64 19.4297 543.238 19.3594 542.769 19.3594C542.332 19.3594 541.945 19.4414 541.609 19.6055C541.281 19.7617 541.004 19.9844 540.777 20.2734C540.55 20.5547 540.379 20.8789 540.261 21.2461C540.152 21.6133 540.097 22.0117 540.097 22.4414ZM558.882 27.457V21.4102C558.882 20.957 558.8 20.5664 558.635 20.2383C558.471 19.9102 558.221 19.6562 557.885 19.4766C557.557 19.2969 557.143 19.207 556.643 19.207C556.182 19.207 555.784 19.2852 555.448 19.4414C555.112 19.5977 554.85 19.8086 554.663 20.0742C554.475 20.3398 554.382 20.6406 554.382 20.9766H551.569C551.569 20.4766 551.69 19.9922 551.932 19.5234C552.175 19.0547 552.526 18.6367 552.987 18.2695C553.448 17.9023 553.999 17.6133 554.639 17.4023C555.28 17.1914 555.999 17.0859 556.796 17.0859C557.749 17.0859 558.593 17.2461 559.327 17.5664C560.069 17.8867 560.651 18.3711 561.073 19.0195C561.503 19.6602 561.718 20.4648 561.718 21.4336V27.0703C561.718 27.6484 561.757 28.168 561.835 28.6289C561.921 29.082 562.042 29.4766 562.198 29.8125V30H559.303C559.171 29.6953 559.065 29.3086 558.987 28.8398C558.917 28.3633 558.882 27.9023 558.882 27.457ZM559.292 22.2891L559.315 24.0352H557.288C556.764 24.0352 556.303 24.0859 555.905 24.1875C555.507 24.2812 555.175 24.4219 554.909 24.6094C554.643 24.7969 554.444 25.0234 554.311 25.2891C554.178 25.5547 554.112 25.8555 554.112 26.1914C554.112 26.5273 554.19 26.8359 554.346 27.1172C554.503 27.3906 554.729 27.6055 555.026 27.7617C555.331 27.918 555.698 27.9961 556.128 27.9961C556.706 27.9961 557.21 27.8789 557.639 27.6445C558.077 27.4023 558.421 27.1094 558.671 26.7656C558.921 26.4141 559.053 26.082 559.069 25.7695L559.983 27.0234C559.889 27.3438 559.729 27.6875 559.503 28.0547C559.276 28.4219 558.979 28.7734 558.612 29.1094C558.253 29.4375 557.819 29.707 557.311 29.918C556.811 30.1289 556.233 30.2344 555.577 30.2344C554.749 30.2344 554.01 30.0703 553.362 29.7422C552.714 29.4062 552.206 28.957 551.839 28.3945C551.471 27.8242 551.288 27.1797 551.288 26.4609C551.288 25.7891 551.413 25.1953 551.663 24.6797C551.921 24.1562 552.296 23.7188 552.788 23.3672C553.288 23.0156 553.897 22.75 554.616 22.5703C555.335 22.3828 556.155 22.2891 557.077 22.2891H559.292ZM568.888 12.9375L568.607 24.9727H566.193L565.9 12.9375H568.888ZM565.818 28.6641C565.818 28.2344 565.959 27.875 566.24 27.5859C566.529 27.2891 566.927 27.1406 567.435 27.1406C567.935 27.1406 568.33 27.2891 568.619 27.5859C568.908 27.875 569.052 28.2344 569.052 28.6641C569.052 29.0781 568.908 29.4336 568.619 29.7305C568.33 30.0195 567.935 30.1641 567.435 30.1641C566.927 30.1641 566.529 30.0195 566.24 29.7305C565.959 29.4336 565.818 29.0781 565.818 28.6641Z" fill="white"/>
</g>
<defs>
<filter id="filter0_d_404_9133" x="0.734375" y="0" width="580.318" height="47.0039" filterUnits="userSpaceOnUse" color-interpolation-filters="sRGB">
<feFlood flood-opacity="0" result="BackgroundImageFix"/>
<feColorMatrix in="SourceAlpha" type="matrix" values="0 0 0 0 0 0 0 0 0 0 0 0 0 0 0 0 0 0 127 0" result="hardAlpha"/>
<feOffset/>
<feGaussianBlur stdDeviation="6"/>
<feComposite in2="hardAlpha" operator="out"/>
<feColorMatrix type="matrix" values="0 0 0 0 0 0 0 0 0 0 0 0 0 0 0 0 0 0 0.5 0"/>
<feBlend mode="normal" in2="BackgroundImageFix" result="effect1_dropShadow_404_9133"/>
<feBlend mode="normal" in="SourceGraphic" in2="effect1_dropShadow_404_9133" result="shape"/>
</filter>
</defs>
</svg>
