<svg width="694" height="101" viewBox="0 0 694 101" fill="none" xmlns="http://www.w3.org/2000/svg">
<path d="M19.44 48.48C15.92 48.48 12.896 47.776 10.368 46.368C7.872 44.928 5.952 42.912 4.608 40.32C3.264 37.696 2.592 34.608 2.592 31.056C2.592 27.504 3.264 24.432 4.608 21.84C5.952 19.248 7.872 17.248 10.368 15.84C12.896 14.4 15.92 13.68 19.44 13.68C21.712 13.68 23.856 14.032 25.872 14.736C27.92 15.44 29.6 16.448 30.912 17.76L28.896 22.656C27.456 21.44 25.984 20.56 24.48 20.016C22.976 19.44 21.36 19.152 19.632 19.152C16.208 19.152 13.6 20.192 11.808 22.272C10.016 24.32 9.12 27.248 9.12 31.056C9.12 34.864 10.016 37.808 11.808 39.888C13.6 41.968 16.208 43.008 19.632 43.008C21.36 43.008 22.976 42.736 24.48 42.192C25.984 41.616 27.456 40.72 28.896 39.504L30.912 44.4C29.6 45.68 27.92 46.688 25.872 47.424C23.856 48.128 21.712 48.48 19.44 48.48ZM46.6346 48.48C44.2026 48.48 42.0906 47.984 40.2986 46.992C38.5066 46 37.1146 44.592 36.1226 42.768C35.1306 40.912 34.6346 38.736 34.6346 36.24C34.6346 33.744 35.1306 31.584 36.1226 29.76C37.1146 27.936 38.5066 26.528 40.2986 25.536C42.0906 24.544 44.2026 24.048 46.6346 24.048C49.0666 24.048 51.1786 24.544 52.9706 25.536C54.7626 26.528 56.1546 27.936 57.1466 29.76C58.1386 31.584 58.6346 33.744 58.6346 36.24C58.6346 38.736 58.1386 40.912 57.1466 42.768C56.1546 44.592 54.7626 46 52.9706 46.992C51.1786 47.984 49.0666 48.48 46.6346 48.48ZM46.6346 43.92C48.4266 43.92 49.8666 43.28 50.9546 42C52.0426 40.688 52.5866 38.768 52.5866 36.24C52.5866 33.68 52.0426 31.776 50.9546 30.528C49.8666 29.248 48.4266 28.608 46.6346 28.608C44.8426 28.608 43.4026 29.248 42.3146 30.528C41.2266 31.776 40.6826 33.68 40.6826 36.24C40.6826 38.768 41.2266 40.688 42.3146 42C43.4026 43.28 44.8426 43.92 46.6346 43.92ZM65.5069 48V24.528H71.3629V28.176C72.1629 26.832 73.2349 25.808 74.5789 25.104C75.9549 24.4 77.4909 24.048 79.1869 24.048C84.7229 24.048 87.4909 27.264 87.4909 33.696V48H81.4909V33.984C81.4909 32.16 81.1389 30.832 80.4349 30C79.7629 29.168 78.7069 28.752 77.2669 28.752C75.5069 28.752 74.0989 29.312 73.0429 30.432C72.0189 31.52 71.5069 32.976 71.5069 34.8V48H65.5069ZM112.257 19.488V13.632H118.929V19.488H112.257ZM97.089 48V29.04H92.577V24.528H97.089V24.48C97.089 21.152 97.953 18.64 99.681 16.944C101.441 15.248 104.161 14.288 107.841 14.064L109.953 13.968L110.241 18.384L108.369 18.48C106.449 18.608 105.089 19.088 104.289 19.92C103.489 20.72 103.089 21.92 103.089 23.52V24.528H118.593V48H112.593V29.04H103.089V48H97.089ZM126.769 48V24.528H132.625V28.656C133.777 25.872 136.241 24.336 140.017 24.048L141.841 23.904L142.225 28.992L138.769 29.328C134.833 29.712 132.865 31.728 132.865 35.376V48H126.769ZM147.582 48V24.528H153.438V28.128C154.142 26.848 155.118 25.856 156.366 25.152C157.614 24.416 159.054 24.048 160.686 24.048C164.206 24.048 166.51 25.584 167.598 28.656C168.334 27.216 169.39 26.096 170.766 25.296C172.142 24.464 173.71 24.048 175.47 24.048C180.75 24.048 183.39 27.264 183.39 33.696V48H177.39V33.936C177.39 32.144 177.086 30.832 176.478 30C175.902 29.168 174.91 28.752 173.502 28.752C171.934 28.752 170.702 29.312 169.806 30.432C168.91 31.52 168.462 33.04 168.462 34.992V48H162.462V33.936C162.462 32.144 162.158 30.832 161.55 30C160.974 29.168 159.998 28.752 158.622 28.752C157.054 28.752 155.822 29.312 154.926 30.432C154.03 31.52 153.582 33.04 153.582 34.992V48H147.582ZM199.227 48.48C197.531 48.48 196.011 48.16 194.667 47.52C193.355 46.848 192.315 45.952 191.547 44.832C190.811 43.712 190.443 42.448 190.443 41.04C190.443 39.312 190.891 37.952 191.787 36.96C192.683 35.936 194.139 35.2 196.155 34.752C198.171 34.304 200.875 34.08 204.267 34.08H205.947V33.072C205.947 31.472 205.595 30.32 204.891 29.616C204.187 28.912 203.003 28.56 201.339 28.56C200.027 28.56 198.683 28.768 197.307 29.184C195.931 29.568 194.539 30.176 193.131 31.008L191.403 26.928C192.235 26.352 193.211 25.856 194.331 25.44C195.483 24.992 196.683 24.656 197.931 24.432C199.211 24.176 200.411 24.048 201.531 24.048C204.955 24.048 207.499 24.848 209.163 26.448C210.827 28.016 211.659 30.464 211.659 33.792V48H206.043V44.256C205.499 45.568 204.635 46.608 203.451 47.376C202.267 48.112 200.859 48.48 199.227 48.48ZM200.475 44.352C202.043 44.352 203.339 43.808 204.363 42.72C205.419 41.632 205.947 40.256 205.947 38.592V37.536H204.315C201.307 37.536 199.211 37.776 198.027 38.256C196.875 38.704 196.299 39.536 196.299 40.752C196.299 41.808 196.667 42.672 197.403 43.344C198.139 44.016 199.163 44.352 200.475 44.352ZM230.517 48.48C228.053 48.48 225.909 47.984 224.085 46.992C222.261 45.968 220.853 44.528 219.861 42.672C218.869 40.816 218.373 38.64 218.373 36.144C218.373 33.648 218.869 31.504 219.861 29.712C220.853 27.888 222.261 26.496 224.085 25.536C225.909 24.544 228.053 24.048 230.517 24.048C232.021 24.048 233.509 24.288 234.981 24.768C236.453 25.248 237.669 25.92 238.629 26.784L236.853 30.96C236.021 30.224 235.077 29.664 234.021 29.28C232.997 28.896 232.005 28.704 231.045 28.704C228.965 28.704 227.349 29.36 226.197 30.672C225.077 31.952 224.517 33.792 224.517 36.192C224.517 38.56 225.077 40.432 226.197 41.808C227.349 43.152 228.965 43.824 231.045 43.824C231.973 43.824 232.965 43.632 234.021 43.248C235.077 42.864 236.021 42.288 236.853 41.52L238.629 45.744C237.669 46.576 236.437 47.248 234.933 47.76C233.461 48.24 231.989 48.48 230.517 48.48ZM230.181 57.36C229.253 57.36 228.357 57.264 227.493 57.072C226.629 56.912 225.893 56.672 225.285 56.352L226.149 53.664C226.725 53.92 227.285 54.112 227.829 54.24C228.405 54.4 229.029 54.48 229.701 54.48C231.429 54.48 232.293 54 232.293 53.04C232.293 52.304 231.701 51.936 230.517 51.936C230.197 51.936 229.893 51.952 229.605 51.984C229.317 52.016 228.965 52.096 228.549 52.224L227.637 51.36L228.261 47.04H231.477L230.997 49.824C231.189 49.792 231.365 49.776 231.525 49.776C232.837 49.776 233.893 50.08 234.693 50.688C235.493 51.296 235.893 52.144 235.893 53.232C235.893 54.48 235.365 55.472 234.309 56.208C233.253 56.976 231.877 57.36 230.181 57.36ZM251.817 48.48C250.121 48.48 248.601 48.16 247.257 47.52C245.945 46.848 244.905 45.952 244.137 44.832C243.401 43.712 243.033 42.448 243.033 41.04C243.033 39.312 243.481 37.952 244.377 36.96C245.273 35.936 246.729 35.2 248.745 34.752C250.761 34.304 253.465 34.08 256.857 34.08H258.537V33.072C258.537 31.472 258.185 30.32 257.481 29.616C256.777 28.912 255.593 28.56 253.929 28.56C252.617 28.56 251.273 28.768 249.897 29.184C248.521 29.568 247.129 30.176 245.721 31.008L243.993 26.928C244.825 26.352 245.801 25.856 246.921 25.44C248.073 24.992 249.273 24.656 250.521 24.432C251.801 24.176 253.001 24.048 254.121 24.048C257.545 24.048 260.089 24.848 261.753 26.448C263.417 28.016 264.249 30.464 264.249 33.792V48H258.633V44.256C258.089 45.568 257.225 46.608 256.041 47.376C254.857 48.112 253.449 48.48 251.817 48.48ZM253.065 44.352C254.633 44.352 255.929 43.808 256.953 42.72C258.009 41.632 258.537 40.256 258.537 38.592V37.536H256.905C253.897 37.536 251.801 37.776 250.617 38.256C249.465 38.704 248.889 39.536 248.889 40.752C248.889 41.808 249.257 42.672 249.993 43.344C250.729 44.016 251.753 44.352 253.065 44.352ZM248.025 19.968L245.049 19.776C245.209 17.568 245.801 15.84 246.825 14.592C247.849 13.312 249.177 12.672 250.809 12.672C251.545 12.672 252.201 12.832 252.777 13.152C253.385 13.44 254.073 13.872 254.841 14.448C255.545 14.96 256.105 15.328 256.521 15.552C256.937 15.744 257.353 15.84 257.769 15.84C259.401 15.84 260.377 14.72 260.697 12.48L263.673 12.672C263.545 14.88 262.969 16.624 261.945 17.904C260.921 19.152 259.593 19.776 257.961 19.776C257.289 19.776 256.649 19.648 256.041 19.392C255.465 19.136 254.745 18.672 253.881 18C252.697 17.072 251.737 16.608 251.001 16.608C249.401 16.608 248.409 17.728 248.025 19.968ZM282.963 48.48C280.531 48.48 278.419 47.984 276.627 46.992C274.835 46 273.443 44.592 272.451 42.768C271.459 40.912 270.963 38.736 270.963 36.24C270.963 33.744 271.459 31.584 272.451 29.76C273.443 27.936 274.835 26.528 276.627 25.536C278.419 24.544 280.531 24.048 282.963 24.048C285.395 24.048 287.507 24.544 289.299 25.536C291.091 26.528 292.483 27.936 293.475 29.76C294.467 31.584 294.963 33.744 294.963 36.24C294.963 38.736 294.467 40.912 293.475 42.768C292.483 44.592 291.091 46 289.299 46.992C287.507 47.984 285.395 48.48 282.963 48.48ZM282.963 43.92C284.755 43.92 286.195 43.28 287.283 42C288.371 40.688 288.915 38.768 288.915 36.24C288.915 33.68 288.371 31.776 287.283 30.528C286.195 29.248 284.755 28.608 282.963 28.608C281.171 28.608 279.731 29.248 278.643 30.528C277.555 31.776 277.011 33.68 277.011 36.24C277.011 38.768 277.555 40.688 278.643 42C279.731 43.28 281.171 43.92 282.963 43.92ZM325.717 48.48C323.669 48.48 321.861 47.984 320.293 46.992C318.757 46 317.557 44.592 316.693 42.768C315.829 40.912 315.397 38.736 315.397 36.24C315.397 33.712 315.829 31.552 316.693 29.76C317.557 27.936 318.757 26.528 320.293 25.536C321.861 24.544 323.669 24.048 325.717 24.048C327.381 24.048 328.885 24.416 330.229 25.152C331.573 25.888 332.581 26.864 333.253 28.08V14.16H339.253V48H333.397V44.112C332.757 45.456 331.749 46.528 330.373 47.328C328.997 48.096 327.445 48.48 325.717 48.48ZM327.397 43.92C329.189 43.92 330.629 43.28 331.717 42C332.805 40.688 333.349 38.768 333.349 36.24C333.349 33.68 332.805 31.776 331.717 30.528C330.629 29.248 329.189 28.608 327.397 28.608C325.605 28.608 324.165 29.248 323.077 30.528C321.989 31.776 321.445 33.68 321.445 36.24C321.445 38.768 321.989 40.688 323.077 42C324.165 43.28 325.605 43.92 327.397 43.92ZM358.962 48.48C356.306 48.48 354.018 47.984 352.098 46.992C350.178 46 348.69 44.592 347.634 42.768C346.61 40.944 346.098 38.784 346.098 36.288C346.098 33.856 346.594 31.728 347.586 29.904C348.61 28.08 350.002 26.656 351.762 25.632C353.554 24.576 355.586 24.048 357.858 24.048C361.186 24.048 363.81 25.104 365.73 27.216C367.682 29.328 368.658 32.208 368.658 35.856V37.632H351.858C352.306 41.824 354.706 43.92 359.058 43.92C360.37 43.92 361.682 43.728 362.994 43.344C364.306 42.928 365.506 42.288 366.594 41.424L368.274 45.456C367.154 46.384 365.746 47.12 364.05 47.664C362.354 48.208 360.658 48.48 358.962 48.48ZM358.098 28.128C356.338 28.128 354.914 28.672 353.826 29.76C352.738 30.848 352.082 32.32 351.858 34.176H363.666C363.538 32.224 362.994 30.736 362.034 29.712C361.106 28.656 359.794 28.128 358.098 28.128ZM390.764 48V14.16H405.452C409.164 14.16 412.028 15.056 414.044 16.848C416.06 18.608 417.068 21.088 417.068 24.288C417.068 26.816 416.412 28.912 415.1 30.576C413.788 32.208 411.9 33.312 409.436 33.888C411.068 34.4 412.412 35.632 413.468 37.584L419.132 48H412.364L406.508 37.2C405.932 36.144 405.244 35.424 404.444 35.04C403.676 34.656 402.684 34.464 401.468 34.464H396.908V48H390.764ZM396.908 29.904H404.396C408.876 29.904 411.116 28.08 411.116 24.432C411.116 20.816 408.876 19.008 404.396 19.008H396.908V29.904ZM435.972 48.48C433.316 48.48 431.028 47.984 429.108 46.992C427.188 46 425.7 44.592 424.644 42.768C423.62 40.944 423.108 38.784 423.108 36.288C423.108 33.856 423.604 31.728 424.596 29.904C425.62 28.08 427.012 26.656 428.772 25.632C430.564 24.576 432.596 24.048 434.868 24.048C438.196 24.048 440.82 25.104 442.74 27.216C444.692 29.328 445.668 32.208 445.668 35.856V37.632H428.868C429.316 41.824 431.716 43.92 436.068 43.92C437.38 43.92 438.692 43.728 440.004 43.344C441.316 42.928 442.516 42.288 443.604 41.424L445.284 45.456C444.164 46.384 442.756 47.12 441.06 47.664C439.364 48.208 437.668 48.48 435.972 48.48ZM435.108 28.128C433.348 28.128 431.924 28.672 430.836 29.76C429.748 30.848 429.092 32.32 428.868 34.176H440.676C440.548 32.224 440.004 30.736 439.044 29.712C438.116 28.656 436.804 28.128 435.108 28.128ZM460.932 48.48C458.948 48.48 457.092 48.24 455.364 47.76C453.636 47.28 452.196 46.592 451.044 45.696L452.58 41.76C453.764 42.56 455.092 43.184 456.564 43.632C458.036 44.048 459.508 44.256 460.98 44.256C462.516 44.256 463.652 44 464.388 43.488C465.156 42.944 465.54 42.24 465.54 41.376C465.54 40.032 464.548 39.168 462.564 38.784L457.764 37.872C453.7 37.104 451.668 34.992 451.668 31.536C451.668 30 452.084 28.672 452.916 27.552C453.78 26.432 454.964 25.568 456.468 24.96C457.972 24.352 459.7 24.048 461.652 24.048C463.316 24.048 464.916 24.288 466.452 24.768C467.988 25.216 469.3 25.904 470.388 26.832L468.756 30.768C467.828 30 466.708 29.392 465.396 28.944C464.116 28.496 462.884 28.272 461.7 28.272C460.132 28.272 458.964 28.544 458.196 29.088C457.46 29.632 457.092 30.352 457.092 31.248C457.092 32.656 458.004 33.52 459.828 33.84L464.628 34.752C466.708 35.136 468.276 35.84 469.332 36.864C470.42 37.888 470.964 39.264 470.964 40.992C470.964 43.328 470.052 45.168 468.228 46.512C466.404 47.824 463.972 48.48 460.932 48.48ZM489.265 48.48C486.609 48.48 484.321 47.984 482.401 46.992C480.481 46 478.993 44.592 477.937 42.768C476.913 40.944 476.401 38.784 476.401 36.288C476.401 33.856 476.897 31.728 477.889 29.904C478.913 28.08 480.305 26.656 482.065 25.632C483.857 24.576 485.889 24.048 488.161 24.048C491.489 24.048 494.113 25.104 496.033 27.216C497.985 29.328 498.961 32.208 498.961 35.856V37.632H482.161C482.609 41.824 485.009 43.92 489.361 43.92C490.673 43.92 491.985 43.728 493.297 43.344C494.609 42.928 495.809 42.288 496.897 41.424L498.577 45.456C497.457 46.384 496.049 47.12 494.353 47.664C492.657 48.208 490.961 48.48 489.265 48.48ZM488.401 28.128C486.641 28.128 485.217 28.672 484.129 29.76C483.041 30.848 482.385 32.32 482.161 34.176H493.969C493.841 32.224 493.297 30.736 492.337 29.712C491.409 28.656 490.097 28.128 488.401 28.128ZM505.633 48V24.528H511.489V28.656C512.641 25.872 515.105 24.336 518.881 24.048L520.705 23.904L521.089 28.992L517.633 29.328C513.697 29.712 511.729 31.728 511.729 35.376V48H505.633ZM534.715 48L524.539 24.528H530.923L537.451 40.944L544.219 24.528H550.219L539.899 48H534.715ZM562.295 48.48C560.599 48.48 559.079 48.16 557.735 47.52C556.423 46.848 555.383 45.952 554.615 44.832C553.879 43.712 553.511 42.448 553.511 41.04C553.511 39.312 553.959 37.952 554.855 36.96C555.751 35.936 557.207 35.2 559.223 34.752C561.239 34.304 563.943 34.08 567.335 34.08H569.015V33.072C569.015 31.472 568.663 30.32 567.959 29.616C567.255 28.912 566.071 28.56 564.407 28.56C563.095 28.56 561.751 28.768 560.375 29.184C558.999 29.568 557.607 30.176 556.199 31.008L554.471 26.928C555.303 26.352 556.279 25.856 557.399 25.44C558.551 24.992 559.751 24.656 560.999 24.432C562.279 24.176 563.479 24.048 564.599 24.048C568.023 24.048 570.567 24.848 572.231 26.448C573.895 28.016 574.727 30.464 574.727 33.792V48H569.111V44.256C568.567 45.568 567.703 46.608 566.519 47.376C565.335 48.112 563.927 48.48 562.295 48.48ZM563.543 44.352C565.111 44.352 566.407 43.808 567.431 42.72C568.487 41.632 569.015 40.256 569.015 38.592V37.536H567.383C564.375 37.536 562.279 37.776 561.095 38.256C559.943 38.704 559.367 39.536 559.367 40.752C559.367 41.808 559.735 42.672 560.471 43.344C561.207 44.016 562.231 44.352 563.543 44.352ZM583.745 37.968L581.873 14.16H589.265L587.393 37.968H583.745ZM582.209 48V41.328H588.929V48H582.209Z" fill="white"/>
<path d="M8.75391 77.9375V95H5.83594V77.9375H8.75391ZM14.1094 77.9375V80.2812H0.527344V77.9375H14.1094ZM21.503 95.2344C20.5655 95.2344 19.7178 95.082 18.96 94.7773C18.21 94.4648 17.5694 94.0312 17.0381 93.4766C16.5147 92.9219 16.1123 92.2695 15.8311 91.5195C15.5498 90.7695 15.4092 89.9609 15.4092 89.0938V88.625C15.4092 87.6328 15.5538 86.7344 15.8428 85.9297C16.1319 85.125 16.5342 84.4375 17.0498 83.8672C17.5655 83.2891 18.1748 82.8477 18.878 82.543C19.5811 82.2383 20.3428 82.0859 21.1631 82.0859C22.0694 82.0859 22.8623 82.2383 23.542 82.543C24.2217 82.8477 24.7842 83.2773 25.2295 83.832C25.6827 84.3789 26.0186 85.0312 26.2373 85.7891C26.4639 86.5469 26.5772 87.3828 26.5772 88.2969V89.5039H16.7803V87.4766H23.7881V87.2539C23.7725 86.7461 23.6709 86.2695 23.4834 85.8242C23.3038 85.3789 23.0264 85.0195 22.6514 84.7461C22.2764 84.4727 21.7764 84.3359 21.1514 84.3359C20.6827 84.3359 20.2647 84.4375 19.8975 84.6406C19.5381 84.8359 19.2373 85.1211 18.9952 85.4961C18.753 85.8711 18.5655 86.3242 18.4327 86.8555C18.3077 87.3789 18.2452 87.9688 18.2452 88.625V89.0938C18.2452 89.6484 18.3194 90.1641 18.4678 90.6406C18.6241 91.1094 18.8506 91.5195 19.1475 91.8711C19.4444 92.2227 19.8038 92.5 20.2256 92.7031C20.6475 92.8984 21.128 92.9961 21.667 92.9961C22.3467 92.9961 22.9522 92.8594 23.4834 92.5859C24.0147 92.3125 24.4756 91.9258 24.8663 91.4258L26.3545 92.8672C26.0811 93.2656 25.7256 93.6484 25.2881 94.0156C24.8506 94.375 24.3155 94.668 23.6827 94.8945C23.0577 95.1211 22.3311 95.2344 21.503 95.2344ZM32.5645 84.8984V95H29.7403V82.3203H32.4005L32.5645 84.8984ZM32.1075 88.1914L31.1466 88.1797C31.1466 87.3047 31.2559 86.4961 31.4747 85.7539C31.6934 85.0117 32.0138 84.3672 32.4356 83.8203C32.8575 83.2656 33.3809 82.8398 34.0059 82.543C34.6388 82.2383 35.3692 82.0859 36.1973 82.0859C36.7755 82.0859 37.3028 82.1719 37.7794 82.3438C38.2638 82.5078 38.6817 82.7695 39.0333 83.1289C39.3927 83.4883 39.6661 83.9492 39.8536 84.5117C40.0489 85.0742 40.1466 85.7539 40.1466 86.5508V95H37.3223V86.7969C37.3223 86.1797 37.2286 85.6953 37.0411 85.3438C36.8614 84.9922 36.5997 84.7422 36.2559 84.5938C35.92 84.4375 35.5177 84.3594 35.0489 84.3594C34.5177 84.3594 34.0645 84.4609 33.6895 84.6641C33.3223 84.8672 33.0216 85.1445 32.7872 85.4961C32.5528 85.8477 32.3809 86.2539 32.2716 86.7148C32.1622 87.1758 32.1075 87.668 32.1075 88.1914ZM39.9708 87.4414L38.6466 87.7344C38.6466 86.9688 38.752 86.2461 38.963 85.5664C39.1817 84.8789 39.4981 84.2773 39.9122 83.7617C40.3341 83.2383 40.8536 82.8281 41.4708 82.5312C42.088 82.2344 42.795 82.0859 43.5919 82.0859C44.2403 82.0859 44.8184 82.1758 45.3263 82.3555C45.8419 82.5273 46.2794 82.8008 46.6388 83.1758C46.9981 83.5508 47.2716 84.0391 47.4591 84.6406C47.6466 85.2344 47.7403 85.9531 47.7403 86.7969V95H44.9044V86.7852C44.9044 86.1445 44.8106 85.6484 44.6231 85.2969C44.4434 84.9453 44.1856 84.7031 43.8497 84.5703C43.5138 84.4297 43.1114 84.3594 42.6427 84.3594C42.2052 84.3594 41.8184 84.4414 41.4825 84.6055C41.1544 84.7617 40.877 84.9844 40.6505 85.2734C40.4239 85.5547 40.252 85.8789 40.1348 86.2461C40.0255 86.6133 39.9708 87.0117 39.9708 87.4414ZM63.7228 92.9844C64.1838 92.9844 64.5978 92.8945 64.965 92.7148C65.34 92.5273 65.6408 92.2695 65.8673 91.9414C66.1017 91.6133 66.2306 91.2344 66.2541 90.8047H68.9142C68.8986 91.625 68.6564 92.3711 68.1877 93.043C67.7189 93.7148 67.0978 94.25 66.3244 94.6484C65.5509 95.0391 64.6955 95.2344 63.758 95.2344C62.7892 95.2344 61.9455 95.0703 61.2267 94.7422C60.508 94.4062 59.9103 93.9453 59.4338 93.3594C58.9572 92.7734 58.5978 92.0977 58.3556 91.332C58.1213 90.5664 58.0041 89.7461 58.0041 88.8711V88.4609C58.0041 87.5859 58.1213 86.7656 58.3556 86C58.5978 85.2266 58.9572 84.5469 59.4338 83.9609C59.9103 83.375 60.508 82.918 61.2267 82.5898C61.9455 82.2539 62.7853 82.0859 63.7463 82.0859C64.7619 82.0859 65.6525 82.2891 66.4181 82.6953C67.1838 83.0938 67.7853 83.6523 68.2228 84.3711C68.6681 85.082 68.8986 85.9102 68.9142 86.8555H66.2541C66.2306 86.3867 66.1134 85.9648 65.9025 85.5898C65.6994 85.207 65.4103 84.9023 65.0353 84.6758C64.6681 84.4492 64.2267 84.3359 63.7111 84.3359C63.1408 84.3359 62.6681 84.4531 62.2931 84.6875C61.9181 84.9141 61.6252 85.2266 61.4142 85.625C61.2033 86.0156 61.0509 86.457 60.9572 86.9492C60.8713 87.4336 60.8283 87.9375 60.8283 88.4609V88.8711C60.8283 89.3945 60.8713 89.9023 60.9572 90.3945C61.0431 90.8867 61.1916 91.3281 61.4025 91.7188C61.6213 92.1016 61.9181 92.4102 62.2931 92.6445C62.6681 92.8711 63.1447 92.9844 63.7228 92.9844ZM77.632 95.2344C76.6945 95.2344 75.8469 95.082 75.0891 94.7773C74.3391 94.4648 73.6984 94.0312 73.1672 93.4766C72.6438 92.9219 72.2414 92.2695 71.9602 91.5195C71.6789 90.7695 71.5383 89.9609 71.5383 89.0938V88.625C71.5383 87.6328 71.6828 86.7344 71.9719 85.9297C72.2609 85.125 72.6633 84.4375 73.1789 83.8672C73.6945 83.2891 74.3039 82.8477 75.007 82.543C75.7102 82.2383 76.4719 82.0859 77.2922 82.0859C78.1984 82.0859 78.9914 82.2383 79.6711 82.543C80.3508 82.8477 80.9133 83.2773 81.3586 83.832C81.8117 84.3789 82.1477 85.0312 82.3664 85.7891C82.593 86.5469 82.7063 87.3828 82.7063 88.2969V89.5039H72.9094V87.4766H79.9172V87.2539C79.9016 86.7461 79.8 86.2695 79.6125 85.8242C79.4328 85.3789 79.1555 85.0195 78.7805 84.7461C78.4055 84.4727 77.9055 84.3359 77.2805 84.3359C76.8117 84.3359 76.3938 84.4375 76.0266 84.6406C75.6672 84.8359 75.3664 85.1211 75.1242 85.4961C74.882 85.8711 74.6945 86.3242 74.5617 86.8555C74.4367 87.3789 74.3742 87.9688 74.3742 88.625V89.0938C74.3742 89.6484 74.4484 90.1641 74.5969 90.6406C74.7531 91.1094 74.9797 91.5195 75.2766 91.8711C75.5734 92.2227 75.9328 92.5 76.3547 92.7031C76.7766 92.8984 77.257 92.9961 77.7961 92.9961C78.4758 92.9961 79.0813 92.8594 79.6125 92.5859C80.1438 92.3125 80.6047 91.9258 80.9953 91.4258L82.4836 92.8672C82.2102 93.2656 81.8547 93.6484 81.4172 94.0156C80.9797 94.375 80.4445 94.668 79.8117 94.8945C79.1867 95.1211 78.4602 95.2344 77.632 95.2344ZM88.7053 84.7344V95H85.8811V82.3203H88.5764L88.7053 84.7344ZM92.5842 82.2383L92.5608 84.8633C92.3889 84.832 92.2014 84.8086 91.9983 84.793C91.803 84.7773 91.6077 84.7695 91.4123 84.7695C90.928 84.7695 90.5022 84.8398 90.135 84.9805C89.7678 85.1133 89.4592 85.3086 89.2092 85.5664C88.967 85.8164 88.7795 86.1211 88.6467 86.4805C88.5139 86.8398 88.4358 87.2422 88.4123 87.6875L87.7678 87.7344C87.7678 86.9375 87.8459 86.1992 88.0022 85.5195C88.1584 84.8398 88.3928 84.2422 88.7053 83.7266C89.0256 83.2109 89.4241 82.8086 89.9006 82.5195C90.385 82.2305 90.9436 82.0859 91.5764 82.0859C91.7483 82.0859 91.9319 82.1016 92.1272 82.1328C92.3303 82.1641 92.4827 82.1992 92.5842 82.2383ZM101.712 82.3203V84.3828H94.5638V82.3203H101.712ZM96.6263 79.2148H99.4505V91.4961C99.4505 91.8867 99.5052 92.1875 99.6145 92.3984C99.7317 92.6016 99.8919 92.7383 100.095 92.8086C100.298 92.8789 100.536 92.9141 100.81 92.9141C101.005 92.9141 101.193 92.9023 101.372 92.8789C101.552 92.8555 101.697 92.832 101.806 92.8086L101.818 94.9648C101.583 95.0352 101.31 95.0977 100.997 95.1523C100.693 95.207 100.341 95.2344 99.9427 95.2344C99.2942 95.2344 98.72 95.1211 98.22 94.8945C97.72 94.6602 97.3294 94.2812 97.0481 93.7578C96.7669 93.2344 96.6263 92.5391 96.6263 91.6719V79.2148ZM110.442 95.2344C109.504 95.2344 108.657 95.082 107.899 94.7773C107.149 94.4648 106.508 94.0312 105.977 93.4766C105.453 92.9219 105.051 92.2695 104.77 91.5195C104.489 90.7695 104.348 89.9609 104.348 89.0938V88.625C104.348 87.6328 104.493 86.7344 104.782 85.9297C105.071 85.125 105.473 84.4375 105.989 83.8672C106.504 83.2891 107.114 82.8477 107.817 82.543C108.52 82.2383 109.282 82.0859 110.102 82.0859C111.008 82.0859 111.801 82.2383 112.481 82.543C113.16 82.8477 113.723 83.2773 114.168 83.832C114.621 84.3789 114.957 85.0312 115.176 85.7891C115.403 86.5469 115.516 87.3828 115.516 88.2969V89.5039H105.719V87.4766H112.727V87.2539C112.711 86.7461 112.61 86.2695 112.422 85.8242C112.243 85.3789 111.965 85.0195 111.59 84.7461C111.215 84.4727 110.715 84.3359 110.09 84.3359C109.621 84.3359 109.203 84.4375 108.836 84.6406C108.477 84.8359 108.176 85.1211 107.934 85.4961C107.692 85.8711 107.504 86.3242 107.371 86.8555C107.246 87.3789 107.184 87.9688 107.184 88.625V89.0938C107.184 89.6484 107.258 90.1641 107.407 90.6406C107.563 91.1094 107.789 91.5195 108.086 91.8711C108.383 92.2227 108.743 92.5 109.164 92.7031C109.586 92.8984 110.067 92.9961 110.606 92.9961C111.285 92.9961 111.891 92.8594 112.422 92.5859C112.953 92.3125 113.414 91.9258 113.805 91.4258L115.293 92.8672C115.02 93.2656 114.664 93.6484 114.227 94.0156C113.789 94.375 113.254 94.668 112.621 94.8945C111.996 95.1211 111.27 95.2344 110.442 95.2344ZM128.488 92.75V95H119.042V92.75H128.488ZM128.23 84.0781L120.003 95H118.175V93.1836L126.355 82.3203H128.23V84.0781ZM127.14 82.3203V84.5703H118.316V82.3203H127.14ZM138.858 92.457V86.4102C138.858 85.957 138.776 85.5664 138.612 85.2383C138.448 84.9102 138.198 84.6562 137.862 84.4766C137.534 84.2969 137.12 84.207 136.62 84.207C136.159 84.207 135.76 84.2852 135.424 84.4414C135.088 84.5977 134.827 84.8086 134.639 85.0742C134.452 85.3398 134.358 85.6406 134.358 85.9766H131.545C131.545 85.4766 131.666 84.9922 131.909 84.5234C132.151 84.0547 132.502 83.6367 132.963 83.2695C133.424 82.9023 133.975 82.6133 134.616 82.4023C135.256 82.1914 135.975 82.0859 136.772 82.0859C137.725 82.0859 138.569 82.2461 139.303 82.5664C140.045 82.8867 140.627 83.3711 141.049 84.0195C141.479 84.6602 141.694 85.4648 141.694 86.4336V92.0703C141.694 92.6484 141.733 93.168 141.811 93.6289C141.897 94.082 142.018 94.4766 142.174 94.8125V95H139.28C139.147 94.6953 139.041 94.3086 138.963 93.8398C138.893 93.3633 138.858 92.9023 138.858 92.457ZM139.268 87.2891L139.291 89.0352H137.264C136.741 89.0352 136.28 89.0859 135.881 89.1875C135.483 89.2812 135.151 89.4219 134.885 89.6094C134.62 89.7969 134.42 90.0234 134.288 90.2891C134.155 90.5547 134.088 90.8555 134.088 91.1914C134.088 91.5273 134.166 91.8359 134.323 92.1172C134.479 92.3906 134.705 92.6055 135.002 92.7617C135.307 92.918 135.674 92.9961 136.104 92.9961C136.682 92.9961 137.186 92.8789 137.616 92.6445C138.053 92.4023 138.397 92.1094 138.647 91.7656C138.897 91.4141 139.03 91.082 139.045 90.7695L139.959 92.0234C139.866 92.3438 139.705 92.6875 139.479 93.0547C139.252 93.4219 138.955 93.7734 138.588 94.1094C138.229 94.4375 137.795 94.707 137.288 94.918C136.788 95.1289 136.209 95.2344 135.553 95.2344C134.725 95.2344 133.987 95.0703 133.338 94.7422C132.69 94.4062 132.182 93.957 131.815 93.3945C131.448 92.8242 131.264 92.1797 131.264 91.4609C131.264 90.7891 131.389 90.1953 131.639 89.6797C131.897 89.1562 132.272 88.7188 132.764 88.3672C133.264 88.0156 133.873 87.75 134.592 87.5703C135.311 87.3828 136.131 87.2891 137.053 87.2891H139.268ZM160.278 92.375V77H163.114V95H160.547L160.278 92.375ZM152.028 88.8008V88.5547C152.028 87.5938 152.141 86.7188 152.368 85.9297C152.594 85.1328 152.922 84.4492 153.352 83.8789C153.782 83.3008 154.305 82.8594 154.922 82.5547C155.54 82.2422 156.235 82.0859 157.008 82.0859C157.774 82.0859 158.446 82.2344 159.024 82.5312C159.602 82.8281 160.094 83.2539 160.5 83.8086C160.907 84.3555 161.231 85.0117 161.473 85.7773C161.715 86.5352 161.887 87.3789 161.989 88.3086V89.0938C161.887 90 161.715 90.8281 161.473 91.5781C161.231 92.3281 160.907 92.9766 160.5 93.5234C160.094 94.0703 159.598 94.4922 159.012 94.7891C158.434 95.0859 157.758 95.2344 156.985 95.2344C156.219 95.2344 155.528 95.0742 154.911 94.7539C154.301 94.4336 153.782 93.9844 153.352 93.4062C152.922 92.8281 152.594 92.1484 152.368 91.3672C152.141 90.5781 152.028 89.7227 152.028 88.8008ZM154.852 88.5547V88.8008C154.852 89.3789 154.903 89.918 155.004 90.418C155.114 90.918 155.282 91.3594 155.508 91.7422C155.735 92.1172 156.028 92.4141 156.387 92.6328C156.754 92.8438 157.192 92.9492 157.7 92.9492C158.34 92.9492 158.868 92.8086 159.282 92.5273C159.696 92.2461 160.02 91.8672 160.254 91.3906C160.497 90.9062 160.661 90.3672 160.747 89.7734V87.6523C160.7 87.1914 160.602 86.7617 160.454 86.3633C160.313 85.9648 160.122 85.6172 159.879 85.3203C159.637 85.0156 159.336 84.7812 158.977 84.6172C158.625 84.4453 158.208 84.3594 157.723 84.3594C157.208 84.3594 156.77 84.4688 156.411 84.6875C156.051 84.9062 155.754 85.207 155.52 85.5898C155.293 85.9727 155.125 86.418 155.016 86.9258C154.907 87.4336 154.852 87.9766 154.852 88.5547ZM172.617 95.2344C171.679 95.2344 170.832 95.082 170.074 94.7773C169.324 94.4648 168.683 94.0312 168.152 93.4766C167.628 92.9219 167.226 92.2695 166.945 91.5195C166.664 90.7695 166.523 89.9609 166.523 89.0938V88.625C166.523 87.6328 166.667 86.7344 166.957 85.9297C167.246 85.125 167.648 84.4375 168.164 83.8672C168.679 83.2891 169.289 82.8477 169.992 82.543C170.695 82.2383 171.457 82.0859 172.277 82.0859C173.183 82.0859 173.976 82.2383 174.656 82.543C175.335 82.8477 175.898 83.2773 176.343 83.832C176.796 84.3789 177.132 85.0312 177.351 85.7891C177.578 86.5469 177.691 87.3828 177.691 88.2969V89.5039H167.894V87.4766H174.902V87.2539C174.886 86.7461 174.785 86.2695 174.597 85.8242C174.417 85.3789 174.14 85.0195 173.765 84.7461C173.39 84.4727 172.89 84.3359 172.265 84.3359C171.796 84.3359 171.378 84.4375 171.011 84.6406C170.652 84.8359 170.351 85.1211 170.109 85.4961C169.867 85.8711 169.679 86.3242 169.546 86.8555C169.421 87.3789 169.359 87.9688 169.359 88.625V89.0938C169.359 89.6484 169.433 90.1641 169.582 90.6406C169.738 91.1094 169.964 91.5195 170.261 91.8711C170.558 92.2227 170.917 92.5 171.339 92.7031C171.761 92.8984 172.242 92.9961 172.781 92.9961C173.46 92.9961 174.066 92.8594 174.597 92.5859C175.128 92.3125 175.589 91.9258 175.98 91.4258L177.468 92.8672C177.195 93.2656 176.839 93.6484 176.402 94.0156C175.964 94.375 175.429 94.668 174.796 94.8945C174.171 95.1211 173.445 95.2344 172.617 95.2344ZM195.513 99.875V84.8398L195.841 82.3203H198.361V99.875H195.513ZM187.275 88.7891V88.543C187.275 87.582 187.384 86.707 187.603 85.918C187.822 85.1211 188.146 84.4375 188.576 83.8672C189.005 83.2969 189.529 82.8594 190.146 82.5547C190.763 82.2422 191.474 82.0859 192.279 82.0859C193.06 82.0859 193.74 82.2344 194.318 82.5312C194.904 82.8281 195.396 83.2539 195.795 83.8086C196.201 84.3555 196.525 85.0078 196.767 85.7656C197.009 86.5234 197.185 87.3672 197.295 88.2969V89.082C197.193 89.9883 197.021 90.8164 196.779 91.5664C196.537 92.3164 196.212 92.9648 195.806 93.5117C195.4 94.0586 194.904 94.4844 194.318 94.7891C193.732 95.0859 193.045 95.2344 192.255 95.2344C191.466 95.2344 190.763 95.0742 190.146 94.7539C189.529 94.4336 189.005 93.9844 188.576 93.4062C188.154 92.8203 187.83 92.1367 187.603 91.3555C187.384 90.5664 187.275 89.7109 187.275 88.7891ZM190.099 88.543V88.7891C190.099 89.3672 190.15 89.9102 190.252 90.418C190.361 90.918 190.533 91.3633 190.767 91.7539C191.002 92.1367 191.298 92.4375 191.658 92.6562C192.017 92.875 192.451 92.9844 192.959 92.9844C193.623 92.9844 194.166 92.8398 194.587 92.5508C195.017 92.2617 195.345 91.875 195.572 91.3906C195.806 90.8984 195.97 90.3555 196.064 89.7617V87.6406C196.009 87.1797 195.912 86.75 195.771 86.3516C195.63 85.9453 195.435 85.5938 195.185 85.2969C194.943 84.9922 194.638 84.7578 194.271 84.5938C193.912 84.4219 193.482 84.3359 192.982 84.3359C192.474 84.3359 192.037 84.4453 191.67 84.6641C191.302 84.8828 191.002 85.1875 190.767 85.5781C190.541 85.9609 190.373 86.4062 190.263 86.9141C190.154 87.4219 190.099 87.9648 190.099 88.543ZM209.973 92.0117V82.3203H212.809V95H210.137L209.973 92.0117ZM210.372 89.375L211.321 89.3516C211.321 90.2031 211.227 90.9883 211.04 91.707C210.852 92.418 210.563 93.0391 210.173 93.5703C209.782 94.0938 209.282 94.5039 208.673 94.8008C208.063 95.0898 207.333 95.2344 206.481 95.2344C205.864 95.2344 205.298 95.1445 204.782 94.9648C204.266 94.7852 203.821 94.5078 203.446 94.1328C203.079 93.7578 202.794 93.2695 202.59 92.668C202.387 92.0664 202.286 91.3477 202.286 90.5117V82.3203H205.11V90.5352C205.11 90.9961 205.165 91.3828 205.274 91.6953C205.383 92 205.532 92.2461 205.719 92.4336C205.907 92.6211 206.126 92.7539 206.376 92.832C206.626 92.9102 206.891 92.9492 207.173 92.9492C207.977 92.9492 208.61 92.793 209.071 92.4805C209.54 92.1602 209.872 91.7305 210.067 91.1914C210.27 90.6523 210.372 90.0469 210.372 89.375ZM222.254 95.2344C221.316 95.2344 220.468 95.082 219.711 94.7773C218.961 94.4648 218.32 94.0312 217.789 93.4766C217.265 92.9219 216.863 92.2695 216.582 91.5195C216.3 90.7695 216.16 89.9609 216.16 89.0938V88.625C216.16 87.6328 216.304 86.7344 216.593 85.9297C216.882 85.125 217.285 84.4375 217.8 83.8672C218.316 83.2891 218.925 82.8477 219.629 82.543C220.332 82.2383 221.093 82.0859 221.914 82.0859C222.82 82.0859 223.613 82.2383 224.293 82.543C224.972 82.8477 225.535 83.2773 225.98 83.832C226.433 84.3789 226.769 85.0312 226.988 85.7891C227.215 86.5469 227.328 87.3828 227.328 88.2969V89.5039H217.531V87.4766H224.539V87.2539C224.523 86.7461 224.422 86.2695 224.234 85.8242C224.054 85.3789 223.777 85.0195 223.402 84.7461C223.027 84.4727 222.527 84.3359 221.902 84.3359C221.433 84.3359 221.015 84.4375 220.648 84.6406C220.289 84.8359 219.988 85.1211 219.746 85.4961C219.504 85.8711 219.316 86.3242 219.183 86.8555C219.058 87.3789 218.996 87.9688 218.996 88.625V89.0938C218.996 89.6484 219.07 90.1641 219.218 90.6406C219.375 91.1094 219.601 91.5195 219.898 91.8711C220.195 92.2227 220.554 92.5 220.976 92.7031C221.398 92.8984 221.879 92.9961 222.418 92.9961C223.097 92.9961 223.703 92.8594 224.234 92.5859C224.765 92.3125 225.226 91.9258 225.617 91.4258L227.105 92.8672C226.832 93.2656 226.476 93.6484 226.039 94.0156C225.601 94.375 225.066 94.668 224.433 94.8945C223.808 95.1211 223.082 95.2344 222.254 95.2344ZM245.162 92.375V77H247.998V95H245.431L245.162 92.375ZM236.912 88.8008V88.5547C236.912 87.5938 237.025 86.7188 237.252 85.9297C237.478 85.1328 237.806 84.4492 238.236 83.8789C238.666 83.3008 239.189 82.8594 239.806 82.5547C240.424 82.2422 241.119 82.0859 241.892 82.0859C242.658 82.0859 243.33 82.2344 243.908 82.5312C244.486 82.8281 244.978 83.2539 245.385 83.8086C245.791 84.3555 246.115 85.0117 246.357 85.7773C246.599 86.5352 246.771 87.3789 246.873 88.3086V89.0938C246.771 90 246.599 90.8281 246.357 91.5781C246.115 92.3281 245.791 92.9766 245.385 93.5234C244.978 94.0703 244.482 94.4922 243.896 94.7891C243.318 95.0859 242.642 95.2344 241.869 95.2344C241.103 95.2344 240.412 95.0742 239.795 94.7539C239.185 94.4336 238.666 93.9844 238.236 93.4062C237.806 92.8281 237.478 92.1484 237.252 91.3672C237.025 90.5781 236.912 89.7227 236.912 88.8008ZM239.736 88.5547V88.8008C239.736 89.3789 239.787 89.918 239.888 90.418C239.998 90.918 240.166 91.3594 240.392 91.7422C240.619 92.1172 240.912 92.4141 241.271 92.6328C241.638 92.8438 242.076 92.9492 242.584 92.9492C243.224 92.9492 243.752 92.8086 244.166 92.5273C244.58 92.2461 244.904 91.8672 245.138 91.3906C245.381 90.9062 245.545 90.3672 245.631 89.7734V87.6523C245.584 87.1914 245.486 86.7617 245.338 86.3633C245.197 85.9648 245.006 85.6172 244.763 85.3203C244.521 85.0156 244.22 84.7812 243.861 84.6172C243.51 84.4453 243.092 84.3594 242.607 84.3594C242.092 84.3594 241.654 84.4688 241.295 84.6875C240.935 84.9062 240.638 85.207 240.404 85.5898C240.178 85.9727 240.01 86.418 239.9 86.9258C239.791 87.4336 239.736 87.9766 239.736 88.5547ZM257.501 95.2344C256.563 95.2344 255.716 95.082 254.958 94.7773C254.208 94.4648 253.567 94.0312 253.036 93.4766C252.512 92.9219 252.11 92.2695 251.829 91.5195C251.548 90.7695 251.407 89.9609 251.407 89.0938V88.625C251.407 87.6328 251.552 86.7344 251.841 85.9297C252.13 85.125 252.532 84.4375 253.048 83.8672C253.563 83.2891 254.173 82.8477 254.876 82.543C255.579 82.2383 256.341 82.0859 257.161 82.0859C258.067 82.0859 258.86 82.2383 259.54 82.543C260.22 82.8477 260.782 83.2773 261.227 83.832C261.68 84.3789 262.016 85.0312 262.235 85.7891C262.462 86.5469 262.575 87.3828 262.575 88.2969V89.5039H252.778V87.4766H259.786V87.2539C259.77 86.7461 259.669 86.2695 259.481 85.8242C259.302 85.3789 259.024 85.0195 258.649 84.7461C258.274 84.4727 257.774 84.3359 257.149 84.3359C256.68 84.3359 256.262 84.4375 255.895 84.6406C255.536 84.8359 255.235 85.1211 254.993 85.4961C254.751 85.8711 254.563 86.3242 254.43 86.8555C254.305 87.3789 254.243 87.9688 254.243 88.625V89.0938C254.243 89.6484 254.317 90.1641 254.466 90.6406C254.622 91.1094 254.848 91.5195 255.145 91.8711C255.442 92.2227 255.802 92.5 256.223 92.7031C256.645 92.8984 257.126 92.9961 257.665 92.9961C258.345 92.9961 258.95 92.8594 259.481 92.5859C260.012 92.3125 260.473 91.9258 260.864 91.4258L262.352 92.8672C262.079 93.2656 261.723 93.6484 261.286 94.0156C260.848 94.375 260.313 94.668 259.68 94.8945C259.055 95.1211 258.329 95.2344 257.501 95.2344ZM272.851 91.5664C272.851 91.2852 272.781 91.0312 272.64 90.8047C272.5 90.5703 272.23 90.3594 271.832 90.1719C271.441 89.9844 270.863 89.8125 270.098 89.6562C269.426 89.5078 268.808 89.332 268.246 89.1289C267.691 88.918 267.215 88.6641 266.816 88.3672C266.418 88.0703 266.109 87.7188 265.89 87.3125C265.672 86.9062 265.562 86.4375 265.562 85.9062C265.562 85.3906 265.676 84.9023 265.902 84.4414C266.129 83.9805 266.453 83.5742 266.875 83.2227C267.297 82.8711 267.808 82.5938 268.41 82.3906C269.019 82.1875 269.699 82.0859 270.449 82.0859C271.512 82.0859 272.422 82.2656 273.18 82.625C273.945 82.9766 274.531 83.457 274.937 84.0664C275.344 84.668 275.547 85.3477 275.547 86.1055H272.723C272.723 85.7695 272.637 85.457 272.465 85.168C272.301 84.8711 272.051 84.6328 271.715 84.4531C271.379 84.2656 270.957 84.1719 270.449 84.1719C269.965 84.1719 269.562 84.25 269.242 84.4062C268.93 84.5547 268.695 84.75 268.539 84.9922C268.39 85.2344 268.316 85.5 268.316 85.7891C268.316 86 268.355 86.1914 268.433 86.3633C268.519 86.5273 268.66 86.6797 268.855 86.8203C269.051 86.9531 269.316 87.0781 269.652 87.1953C269.996 87.3125 270.426 87.4258 270.941 87.5352C271.91 87.7383 272.742 88 273.437 88.3203C274.14 88.6328 274.68 89.0391 275.055 89.5391C275.43 90.0312 275.617 90.6562 275.617 91.4141C275.617 91.9766 275.496 92.4922 275.254 92.9609C275.019 93.4219 274.676 93.8242 274.223 94.168C273.769 94.5039 273.226 94.7656 272.594 94.9531C271.969 95.1406 271.265 95.2344 270.484 95.2344C269.336 95.2344 268.363 95.0312 267.566 94.625C266.769 94.2109 266.164 93.6836 265.75 93.043C265.344 92.3945 265.14 91.7227 265.14 91.0273H267.871C267.902 91.5508 268.047 91.9688 268.305 92.2812C268.57 92.5859 268.898 92.8086 269.289 92.9492C269.687 93.082 270.098 93.1484 270.519 93.1484C271.027 93.1484 271.453 93.082 271.797 92.9492C272.14 92.8086 272.402 92.6211 272.582 92.3867C272.762 92.1445 272.851 91.8711 272.851 91.5664ZM284.64 95.2344C283.702 95.2344 282.854 95.082 282.097 94.7773C281.347 94.4648 280.706 94.0312 280.175 93.4766C279.651 92.9219 279.249 92.2695 278.968 91.5195C278.686 90.7695 278.546 89.9609 278.546 89.0938V88.625C278.546 87.6328 278.69 86.7344 278.979 85.9297C279.268 85.125 279.671 84.4375 280.186 83.8672C280.702 83.2891 281.311 82.8477 282.015 82.543C282.718 82.2383 283.479 82.0859 284.3 82.0859C285.206 82.0859 285.999 82.2383 286.679 82.543C287.358 82.8477 287.921 83.2773 288.366 83.832C288.819 84.3789 289.155 85.0312 289.374 85.7891C289.6 86.5469 289.714 87.3828 289.714 88.2969V89.5039H279.917V87.4766H286.925V87.2539C286.909 86.7461 286.807 86.2695 286.62 85.8242C286.44 85.3789 286.163 85.0195 285.788 84.7461C285.413 84.4727 284.913 84.3359 284.288 84.3359C283.819 84.3359 283.401 84.4375 283.034 84.6406C282.675 84.8359 282.374 85.1211 282.132 85.4961C281.89 85.8711 281.702 86.3242 281.569 86.8555C281.444 87.3789 281.382 87.9688 281.382 88.625V89.0938C281.382 89.6484 281.456 90.1641 281.604 90.6406C281.761 91.1094 281.987 91.5195 282.284 91.8711C282.581 92.2227 282.94 92.5 283.362 92.7031C283.784 92.8984 284.265 92.9961 284.804 92.9961C285.483 92.9961 286.089 92.8594 286.62 92.5859C287.151 92.3125 287.612 91.9258 288.003 91.4258L289.491 92.8672C289.218 93.2656 288.862 93.6484 288.425 94.0156C287.987 94.375 287.452 94.668 286.819 94.8945C286.194 95.1211 285.468 95.2344 284.64 95.2344ZM293.017 82.3203H295.853V96.1016C295.853 96.9688 295.705 97.6992 295.408 98.293C295.111 98.8945 294.674 99.3477 294.096 99.6523C293.517 99.9648 292.81 100.121 291.975 100.121C291.725 100.121 291.467 100.102 291.201 100.062C290.928 100.031 290.67 99.9844 290.428 99.9219L290.439 97.7188C290.603 97.75 290.779 97.7734 290.967 97.7891C291.146 97.8125 291.318 97.8242 291.482 97.8242C291.818 97.8242 292.1 97.7656 292.326 97.6484C292.553 97.5312 292.725 97.3477 292.842 97.0977C292.959 96.8477 293.017 96.5156 293.017 96.1016V82.3203ZM292.771 78.9922C292.771 78.5625 292.916 78.207 293.205 77.9258C293.494 77.6367 293.889 77.4922 294.389 77.4922C294.896 77.4922 295.291 77.6367 295.572 77.9258C295.861 78.207 296.006 78.5625 296.006 78.9922C296.006 79.4141 295.861 79.7656 295.572 80.0469C295.291 80.3281 294.896 80.4688 294.389 80.4688C293.889 80.4688 293.494 80.3281 293.205 80.0469C292.916 79.7656 292.771 79.4141 292.771 78.9922ZM307.009 92.457V86.4102C307.009 85.957 306.927 85.5664 306.763 85.2383C306.599 84.9102 306.349 84.6562 306.013 84.4766C305.685 84.2969 305.27 84.207 304.77 84.207C304.31 84.207 303.911 84.2852 303.575 84.4414C303.239 84.5977 302.978 84.8086 302.79 85.0742C302.603 85.3398 302.509 85.6406 302.509 85.9766H299.696C299.696 85.4766 299.817 84.9922 300.06 84.5234C300.302 84.0547 300.653 83.6367 301.114 83.2695C301.575 82.9023 302.126 82.6133 302.767 82.4023C303.407 82.1914 304.126 82.0859 304.923 82.0859C305.876 82.0859 306.72 82.2461 307.454 82.5664C308.196 82.8867 308.778 83.3711 309.2 84.0195C309.63 84.6602 309.845 85.4648 309.845 86.4336V92.0703C309.845 92.6484 309.884 93.168 309.962 93.6289C310.048 94.082 310.169 94.4766 310.325 94.8125V95H307.431C307.298 94.6953 307.192 94.3086 307.114 93.8398C307.044 93.3633 307.009 92.9023 307.009 92.457ZM307.419 87.2891L307.442 89.0352H305.415C304.892 89.0352 304.431 89.0859 304.032 89.1875C303.634 89.2812 303.302 89.4219 303.036 89.6094C302.77 89.7969 302.571 90.0234 302.438 90.2891C302.306 90.5547 302.239 90.8555 302.239 91.1914C302.239 91.5273 302.317 91.8359 302.474 92.1172C302.63 92.3906 302.856 92.6055 303.153 92.7617C303.458 92.918 303.825 92.9961 304.255 92.9961C304.833 92.9961 305.337 92.8789 305.767 92.6445C306.204 92.4023 306.548 92.1094 306.798 91.7656C307.048 91.4141 307.181 91.082 307.196 90.7695L308.11 92.0234C308.017 92.3438 307.856 92.6875 307.63 93.0547C307.403 93.4219 307.106 93.7734 306.739 94.1094C306.38 94.4375 305.946 94.707 305.438 94.918C304.938 95.1289 304.36 95.2344 303.704 95.2344C302.876 95.2344 302.138 95.0703 301.489 94.7422C300.841 94.4062 300.333 93.957 299.966 93.3945C299.599 92.8242 299.415 92.1797 299.415 91.4609C299.415 90.7891 299.54 90.1953 299.79 89.6797C300.048 89.1562 300.423 88.7188 300.915 88.3672C301.415 88.0156 302.024 87.75 302.743 87.5703C303.462 87.3828 304.282 87.2891 305.204 87.2891H307.419ZM325.874 92.9844C326.335 92.9844 326.749 92.8945 327.116 92.7148C327.491 92.5273 327.792 92.2695 328.019 91.9414C328.253 91.6133 328.382 91.2344 328.405 90.8047H331.065C331.05 91.625 330.808 92.3711 330.339 93.043C329.87 93.7148 329.249 94.25 328.476 94.6484C327.702 95.0391 326.847 95.2344 325.909 95.2344C324.94 95.2344 324.097 95.0703 323.378 94.7422C322.659 94.4062 322.062 93.9453 321.585 93.3594C321.108 92.7734 320.749 92.0977 320.507 91.332C320.272 90.5664 320.155 89.7461 320.155 88.8711V88.4609C320.155 87.5859 320.272 86.7656 320.507 86C320.749 85.2266 321.108 84.5469 321.585 83.9609C322.062 83.375 322.659 82.918 323.378 82.5898C324.097 82.2539 324.937 82.0859 325.897 82.0859C326.913 82.0859 327.804 82.2891 328.569 82.6953C329.335 83.0938 329.937 83.6523 330.374 84.3711C330.819 85.082 331.05 85.9102 331.065 86.8555H328.405C328.382 86.3867 328.265 85.9648 328.054 85.5898C327.851 85.207 327.562 84.9023 327.187 84.6758C326.819 84.4492 326.378 84.3359 325.862 84.3359C325.292 84.3359 324.819 84.4531 324.444 84.6875C324.069 84.9141 323.776 85.2266 323.565 85.625C323.355 86.0156 323.202 86.457 323.108 86.9492C323.022 87.4336 322.98 87.9375 322.98 88.4609V88.8711C322.98 89.3945 323.022 89.9023 323.108 90.3945C323.194 90.8867 323.343 91.3281 323.554 91.7188C323.772 92.1016 324.069 92.4102 324.444 92.6445C324.819 92.8711 325.296 92.9844 325.874 92.9844ZM333.654 88.8008V88.5312C333.654 87.6172 333.787 86.7695 334.053 85.9883C334.318 85.1992 334.701 84.5156 335.201 83.9375C335.709 83.3516 336.326 82.8984 337.053 82.5781C337.787 82.25 338.615 82.0859 339.537 82.0859C340.467 82.0859 341.295 82.25 342.022 82.5781C342.756 82.8984 343.377 83.3516 343.885 83.9375C344.393 84.5156 344.779 85.1992 345.045 85.9883C345.311 86.7695 345.443 87.6172 345.443 88.5312V88.8008C345.443 89.7148 345.311 90.5625 345.045 91.3438C344.779 92.125 344.393 92.8086 343.885 93.3945C343.377 93.9727 342.76 94.4258 342.033 94.7539C341.307 95.0742 340.483 95.2344 339.561 95.2344C338.631 95.2344 337.799 95.0742 337.065 94.7539C336.338 94.4258 335.721 93.9727 335.213 93.3945C334.705 92.8086 334.318 92.125 334.053 91.3438C333.787 90.5625 333.654 89.7148 333.654 88.8008ZM336.479 88.5312V88.8008C336.479 89.3711 336.537 89.9102 336.654 90.418C336.772 90.9258 336.955 91.3711 337.205 91.7539C337.455 92.1367 337.775 92.4375 338.166 92.6562C338.557 92.875 339.022 92.9844 339.561 92.9844C340.084 92.9844 340.537 92.875 340.92 92.6562C341.311 92.4375 341.631 92.1367 341.881 91.7539C342.131 91.3711 342.315 90.9258 342.432 90.418C342.557 89.9102 342.619 89.3711 342.619 88.8008V88.5312C342.619 87.9688 342.557 87.4375 342.432 86.9375C342.315 86.4297 342.127 85.9805 341.869 85.5898C341.619 85.1992 341.299 84.8945 340.908 84.6758C340.525 84.4492 340.068 84.3359 339.537 84.3359C339.006 84.3359 338.545 84.4492 338.154 84.6758C337.772 84.8945 337.455 85.1992 337.205 85.5898C336.955 85.9805 336.772 86.4297 336.654 86.9375C336.537 87.4375 336.479 87.9688 336.479 88.5312ZM351.571 85.0273V95H348.747V82.3203H351.407L351.571 85.0273ZM351.068 88.1914L350.153 88.1797C350.161 87.2812 350.286 86.457 350.528 85.707C350.778 84.957 351.122 84.3125 351.56 83.7734C352.005 83.2344 352.536 82.8203 353.153 82.5312C353.771 82.2344 354.458 82.0859 355.216 82.0859C355.825 82.0859 356.376 82.1719 356.868 82.3438C357.368 82.5078 357.794 82.7773 358.146 83.1523C358.505 83.5273 358.778 84.0156 358.966 84.6172C359.153 85.2109 359.247 85.9414 359.247 86.8086V95H356.411V86.7969C356.411 86.1875 356.321 85.707 356.142 85.3555C355.97 84.9961 355.716 84.7422 355.38 84.5938C355.052 84.4375 354.642 84.3594 354.15 84.3594C353.665 84.3594 353.232 84.4609 352.849 84.6641C352.466 84.8672 352.142 85.1445 351.876 85.4961C351.618 85.8477 351.419 86.2539 351.278 86.7148C351.138 87.1758 351.068 87.668 351.068 88.1914ZM366.723 95H363.887V81.5C363.887 80.4766 364.09 79.6133 364.496 78.9102C364.91 78.207 365.5 77.6719 366.266 77.3047C367.039 76.9375 367.957 76.7539 369.02 76.7539C369.645 76.7539 370.246 76.8203 370.824 76.9531C371.41 77.0859 372.016 77.2539 372.641 77.457L372.207 79.7539C371.809 79.6211 371.367 79.4961 370.883 79.3789C370.399 79.2539 369.84 79.1914 369.207 79.1914C368.356 79.1914 367.727 79.3867 367.32 79.7773C366.922 80.1602 366.723 80.7344 366.723 81.5V95ZM369.266 82.3203V84.3828H361.942V82.3203H369.266ZM373.977 82.3203V95H371.152V82.3203H373.977ZM380.925 84.7344V95H378.101V82.3203H380.796L380.925 84.7344ZM384.804 82.2383L384.78 84.8633C384.609 84.832 384.421 84.8086 384.218 84.793C384.023 84.7773 383.827 84.7695 383.632 84.7695C383.148 84.7695 382.722 84.8398 382.355 84.9805C381.987 85.1133 381.679 85.3086 381.429 85.5664C381.187 85.8164 380.999 86.1211 380.866 86.4805C380.734 86.8398 380.655 87.2422 380.632 87.6875L379.987 87.7344C379.987 86.9375 380.066 86.1992 380.222 85.5195C380.378 84.8398 380.612 84.2422 380.925 83.7266C381.245 83.2109 381.644 82.8086 382.12 82.5195C382.605 82.2305 383.163 82.0859 383.796 82.0859C383.968 82.0859 384.152 82.1016 384.347 82.1328C384.55 82.1641 384.702 82.1992 384.804 82.2383ZM390.358 84.8984V95H387.533V82.3203H390.194L390.358 84.8984ZM389.901 88.1914L388.94 88.1797C388.94 87.3047 389.049 86.4961 389.268 85.7539C389.487 85.0117 389.807 84.3672 390.229 83.8203C390.651 83.2656 391.174 82.8398 391.799 82.543C392.432 82.2383 393.162 82.0859 393.99 82.0859C394.569 82.0859 395.096 82.1719 395.573 82.3438C396.057 82.5078 396.475 82.7695 396.826 83.1289C397.186 83.4883 397.459 83.9492 397.647 84.5117C397.842 85.0742 397.94 85.7539 397.94 86.5508V95H395.115V86.7969C395.115 86.1797 395.022 85.6953 394.834 85.3438C394.655 84.9922 394.393 84.7422 394.049 84.5938C393.713 84.4375 393.311 84.3594 392.842 84.3594C392.311 84.3594 391.858 84.4609 391.483 84.6641C391.115 84.8672 390.815 85.1445 390.58 85.4961C390.346 85.8477 390.174 86.2539 390.065 86.7148C389.955 87.1758 389.901 87.668 389.901 88.1914ZM397.764 87.4414L396.44 87.7344C396.44 86.9688 396.545 86.2461 396.756 85.5664C396.975 84.8789 397.291 84.2773 397.705 83.7617C398.127 83.2383 398.647 82.8281 399.264 82.5312C399.881 82.2344 400.588 82.0859 401.385 82.0859C402.033 82.0859 402.612 82.1758 403.119 82.3555C403.635 82.5273 404.073 82.8008 404.432 83.1758C404.791 83.5508 405.065 84.0391 405.252 84.6406C405.44 85.2344 405.533 85.9531 405.533 86.7969V95H402.698V86.7852C402.698 86.1445 402.604 85.6484 402.416 85.2969C402.237 84.9453 401.979 84.7031 401.643 84.5703C401.307 84.4297 400.905 84.3594 400.436 84.3594C399.998 84.3594 399.612 84.4414 399.276 84.6055C398.948 84.7617 398.67 84.9844 398.444 85.2734C398.217 85.5547 398.045 85.8789 397.928 86.2461C397.819 86.6133 397.764 87.0117 397.764 87.4414ZM416.548 92.457V86.4102C416.548 85.957 416.466 85.5664 416.302 85.2383C416.138 84.9102 415.888 84.6562 415.552 84.4766C415.224 84.2969 414.81 84.207 414.31 84.207C413.849 84.207 413.45 84.2852 413.115 84.4414C412.779 84.5977 412.517 84.8086 412.329 85.0742C412.142 85.3398 412.048 85.6406 412.048 85.9766H409.236C409.236 85.4766 409.357 84.9922 409.599 84.5234C409.841 84.0547 410.193 83.6367 410.654 83.2695C411.115 82.9023 411.665 82.6133 412.306 82.4023C412.947 82.1914 413.665 82.0859 414.462 82.0859C415.415 82.0859 416.259 82.2461 416.993 82.5664C417.736 82.8867 418.318 83.3711 418.74 84.0195C419.169 84.6602 419.384 85.4648 419.384 86.4336V92.0703C419.384 92.6484 419.423 93.168 419.501 93.6289C419.587 94.082 419.708 94.4766 419.865 94.8125V95H416.97C416.837 94.6953 416.732 94.3086 416.654 93.8398C416.583 93.3633 416.548 92.9023 416.548 92.457ZM416.958 87.2891L416.982 89.0352H414.954C414.431 89.0352 413.97 89.0859 413.572 89.1875C413.173 89.2812 412.841 89.4219 412.575 89.6094C412.31 89.7969 412.111 90.0234 411.978 90.2891C411.845 90.5547 411.779 90.8555 411.779 91.1914C411.779 91.5273 411.857 91.8359 412.013 92.1172C412.169 92.3906 412.396 92.6055 412.693 92.7617C412.997 92.918 413.365 92.9961 413.794 92.9961C414.372 92.9961 414.876 92.8789 415.306 92.6445C415.743 92.4023 416.087 92.1094 416.337 91.7656C416.587 91.4141 416.72 91.082 416.736 90.7695L417.65 92.0234C417.556 92.3438 417.396 92.6875 417.169 93.0547C416.943 93.4219 416.646 93.7734 416.279 94.1094C415.919 94.4375 415.486 94.707 414.978 94.918C414.478 95.1289 413.9 95.2344 413.243 95.2344C412.415 95.2344 411.677 95.0703 411.029 94.7422C410.38 94.4062 409.872 93.957 409.505 93.3945C409.138 92.8242 408.954 92.1797 408.954 91.4609C408.954 90.7891 409.079 90.1953 409.329 89.6797C409.587 89.1562 409.962 88.7188 410.454 88.3672C410.954 88.0156 411.564 87.75 412.283 87.5703C413.001 87.3828 413.822 87.2891 414.743 87.2891H416.958ZM426.133 84.7344V95H423.309V82.3203H426.004L426.133 84.7344ZM430.012 82.2383L429.989 84.8633C429.817 84.832 429.629 84.8086 429.426 84.793C429.231 84.7773 429.035 84.7695 428.84 84.7695C428.356 84.7695 427.93 84.8398 427.563 84.9805C427.196 85.1133 426.887 85.3086 426.637 85.5664C426.395 85.8164 426.207 86.1211 426.075 86.4805C425.942 86.8398 425.864 87.2422 425.84 87.6875L425.196 87.7344C425.196 86.9375 425.274 86.1992 425.43 85.5195C425.586 84.8398 425.821 84.2422 426.133 83.7266C426.453 83.2109 426.852 82.8086 427.328 82.5195C427.813 82.2305 428.371 82.0859 429.004 82.0859C429.176 82.0859 429.36 82.1016 429.555 82.1328C429.758 82.1641 429.91 82.1992 430.012 82.2383ZM446.827 92.457V86.4102C446.827 85.957 446.745 85.5664 446.58 85.2383C446.416 84.9102 446.166 84.6562 445.83 84.4766C445.502 84.2969 445.088 84.207 444.588 84.207C444.127 84.207 443.729 84.2852 443.393 84.4414C443.057 84.5977 442.795 84.8086 442.608 85.0742C442.42 85.3398 442.327 85.6406 442.327 85.9766H439.514C439.514 85.4766 439.635 84.9922 439.877 84.5234C440.12 84.0547 440.471 83.6367 440.932 83.2695C441.393 82.9023 441.944 82.6133 442.584 82.4023C443.225 82.1914 443.944 82.0859 444.741 82.0859C445.694 82.0859 446.538 82.2461 447.272 82.5664C448.014 82.8867 448.596 83.3711 449.018 84.0195C449.448 84.6602 449.663 85.4648 449.663 86.4336V92.0703C449.663 92.6484 449.702 93.168 449.78 93.6289C449.866 94.082 449.987 94.4766 450.143 94.8125V95H447.248C447.116 94.6953 447.01 94.3086 446.932 93.8398C446.862 93.3633 446.827 92.9023 446.827 92.457ZM447.237 87.2891L447.26 89.0352H445.233C444.709 89.0352 444.248 89.0859 443.85 89.1875C443.452 89.2812 443.12 89.4219 442.854 89.6094C442.588 89.7969 442.389 90.0234 442.256 90.2891C442.123 90.5547 442.057 90.8555 442.057 91.1914C442.057 91.5273 442.135 91.8359 442.291 92.1172C442.448 92.3906 442.674 92.6055 442.971 92.7617C443.276 92.918 443.643 92.9961 444.073 92.9961C444.651 92.9961 445.155 92.8789 445.584 92.6445C446.022 92.4023 446.366 92.1094 446.616 91.7656C446.866 91.4141 446.998 91.082 447.014 90.7695L447.928 92.0234C447.834 92.3438 447.674 92.6875 447.448 93.0547C447.221 93.4219 446.924 93.7734 446.557 94.1094C446.198 94.4375 445.764 94.707 445.256 94.918C444.756 95.1289 444.178 95.2344 443.522 95.2344C442.694 95.2344 441.955 95.0703 441.307 94.7422C440.659 94.4062 440.151 93.957 439.784 93.3945C439.416 92.8242 439.233 92.1797 439.233 91.4609C439.233 90.7891 439.358 90.1953 439.608 89.6797C439.866 89.1562 440.241 88.7188 440.733 88.3672C441.233 88.0156 441.842 87.75 442.561 87.5703C443.28 87.3828 444.1 87.2891 445.022 87.2891H447.237ZM463.348 84.7344V95H460.524V82.3203H463.219L463.348 84.7344ZM467.227 82.2383L467.204 84.8633C467.032 84.832 466.844 84.8086 466.641 84.793C466.446 84.7773 466.25 84.7695 466.055 84.7695C465.571 84.7695 465.145 84.8398 464.778 84.9805C464.411 85.1133 464.102 85.3086 463.852 85.5664C463.61 85.8164 463.422 86.1211 463.29 86.4805C463.157 86.8398 463.079 87.2422 463.055 87.6875L462.411 87.7344C462.411 86.9375 462.489 86.1992 462.645 85.5195C462.801 84.8398 463.036 84.2422 463.348 83.7266C463.668 83.2109 464.067 82.8086 464.543 82.5195C465.028 82.2305 465.586 82.0859 466.219 82.0859C466.391 82.0859 466.575 82.1016 466.77 82.1328C466.973 82.1641 467.125 82.1992 467.227 82.2383ZM475.312 95.2344C474.375 95.2344 473.527 95.082 472.769 94.7773C472.019 94.4648 471.378 94.0312 470.847 93.4766C470.324 92.9219 469.921 92.2695 469.64 91.5195C469.359 90.7695 469.218 89.9609 469.218 89.0938V88.625C469.218 87.6328 469.363 86.7344 469.652 85.9297C469.941 85.125 470.343 84.4375 470.859 83.8672C471.375 83.2891 471.984 82.8477 472.687 82.543C473.39 82.2383 474.152 82.0859 474.972 82.0859C475.878 82.0859 476.671 82.2383 477.351 82.543C478.031 82.8477 478.593 83.2773 479.039 83.832C479.492 84.3789 479.828 85.0312 480.046 85.7891C480.273 86.5469 480.386 87.3828 480.386 88.2969V89.5039H470.589V87.4766H477.597V87.2539C477.582 86.7461 477.48 86.2695 477.293 85.8242C477.113 85.3789 476.835 85.0195 476.46 84.7461C476.085 84.4727 475.585 84.3359 474.96 84.3359C474.492 84.3359 474.074 84.4375 473.707 84.6406C473.347 84.8359 473.046 85.1211 472.804 85.4961C472.562 85.8711 472.375 86.3242 472.242 86.8555C472.117 87.3789 472.054 87.9688 472.054 88.625V89.0938C472.054 89.6484 472.128 90.1641 472.277 90.6406C472.433 91.1094 472.66 91.5195 472.957 91.8711C473.253 92.2227 473.613 92.5 474.035 92.7031C474.457 92.8984 474.937 92.9961 475.476 92.9961C476.156 92.9961 476.761 92.8594 477.293 92.5859C477.824 92.3125 478.285 91.9258 478.675 91.4258L480.164 92.8672C479.89 93.2656 479.535 93.6484 479.097 94.0156C478.66 94.375 478.125 94.668 477.492 94.8945C476.867 95.1211 476.14 95.2344 475.312 95.2344ZM490.663 91.5664C490.663 91.2852 490.592 91.0312 490.452 90.8047C490.311 90.5703 490.042 90.3594 489.643 90.1719C489.253 89.9844 488.674 89.8125 487.909 89.6562C487.237 89.5078 486.62 89.332 486.057 89.1289C485.503 88.918 485.026 88.6641 484.628 88.3672C484.229 88.0703 483.92 87.7188 483.702 87.3125C483.483 86.9062 483.374 86.4375 483.374 85.9062C483.374 85.3906 483.487 84.9023 483.713 84.4414C483.94 83.9805 484.264 83.5742 484.686 83.2227C485.108 82.8711 485.62 82.5938 486.221 82.3906C486.831 82.1875 487.51 82.0859 488.26 82.0859C489.323 82.0859 490.233 82.2656 490.991 82.625C491.756 82.9766 492.342 83.457 492.749 84.0664C493.155 84.668 493.358 85.3477 493.358 86.1055H490.534C490.534 85.7695 490.448 85.457 490.276 85.168C490.112 84.8711 489.862 84.6328 489.526 84.4531C489.19 84.2656 488.768 84.1719 488.26 84.1719C487.776 84.1719 487.374 84.25 487.053 84.4062C486.741 84.5547 486.506 84.75 486.35 84.9922C486.202 85.2344 486.128 85.5 486.128 85.7891C486.128 86 486.167 86.1914 486.245 86.3633C486.331 86.5273 486.471 86.6797 486.667 86.8203C486.862 86.9531 487.128 87.0781 487.463 87.1953C487.807 87.3125 488.237 87.4258 488.753 87.5352C489.721 87.7383 490.553 88 491.249 88.3203C491.952 88.6328 492.491 89.0391 492.866 89.5391C493.241 90.0312 493.428 90.6562 493.428 91.4141C493.428 91.9766 493.307 92.4922 493.065 92.9609C492.831 93.4219 492.487 93.8242 492.034 94.168C491.581 94.5039 491.038 94.7656 490.405 94.9531C489.78 95.1406 489.077 95.2344 488.295 95.2344C487.147 95.2344 486.174 95.0312 485.378 94.625C484.581 94.2109 483.975 93.6836 483.561 93.043C483.155 92.3945 482.952 91.7227 482.952 91.0273H485.682C485.713 91.5508 485.858 91.9688 486.116 92.2812C486.381 92.5859 486.71 92.8086 487.1 92.9492C487.499 93.082 487.909 93.1484 488.331 93.1484C488.838 93.1484 489.264 93.082 489.608 92.9492C489.952 92.8086 490.213 92.6211 490.393 92.3867C490.573 92.1445 490.663 91.8711 490.663 91.5664ZM502.451 95.2344C501.513 95.2344 500.666 95.082 499.908 94.7773C499.158 94.4648 498.517 94.0312 497.986 93.4766C497.462 92.9219 497.06 92.2695 496.779 91.5195C496.498 90.7695 496.357 89.9609 496.357 89.0938V88.625C496.357 87.6328 496.502 86.7344 496.791 85.9297C497.08 85.125 497.482 84.4375 497.998 83.8672C498.513 83.2891 499.123 82.8477 499.826 82.543C500.529 82.2383 501.291 82.0859 502.111 82.0859C503.017 82.0859 503.81 82.2383 504.49 82.543C505.17 82.8477 505.732 83.2773 506.177 83.832C506.63 84.3789 506.966 85.0312 507.185 85.7891C507.412 86.5469 507.525 87.3828 507.525 88.2969V89.5039H497.728V87.4766H504.736V87.2539C504.72 86.7461 504.619 86.2695 504.431 85.8242C504.252 85.3789 503.974 85.0195 503.599 84.7461C503.224 84.4727 502.724 84.3359 502.099 84.3359C501.63 84.3359 501.212 84.4375 500.845 84.6406C500.486 84.8359 500.185 85.1211 499.943 85.4961C499.701 85.8711 499.513 86.3242 499.38 86.8555C499.255 87.3789 499.193 87.9688 499.193 88.625V89.0938C499.193 89.6484 499.267 90.1641 499.416 90.6406C499.572 91.1094 499.798 91.5195 500.095 91.8711C500.392 92.2227 500.752 92.5 501.173 92.7031C501.595 92.8984 502.076 92.9961 502.615 92.9961C503.295 92.9961 503.9 92.8594 504.431 92.5859C504.962 92.3125 505.423 91.9258 505.814 91.4258L507.302 92.8672C507.029 93.2656 506.673 93.6484 506.236 94.0156C505.798 94.375 505.263 94.668 504.63 94.8945C504.005 95.1211 503.279 95.2344 502.451 95.2344ZM513.524 84.7344V95H510.7V82.3203H513.395L513.524 84.7344ZM517.403 82.2383L517.38 84.8633C517.208 84.832 517.02 84.8086 516.817 84.793C516.622 84.7773 516.426 84.7695 516.231 84.7695C515.747 84.7695 515.321 84.8398 514.954 84.9805C514.587 85.1133 514.278 85.3086 514.028 85.5664C513.786 85.8164 513.598 86.1211 513.465 86.4805C513.333 86.8398 513.255 87.2422 513.231 87.6875L512.587 87.7344C512.587 86.9375 512.665 86.1992 512.821 85.5195C512.977 84.8398 513.212 84.2422 513.524 83.7266C513.844 83.2109 514.243 82.8086 514.719 82.5195C515.204 82.2305 515.762 82.0859 516.395 82.0859C516.567 82.0859 516.751 82.1016 516.946 82.1328C517.149 82.1641 517.301 82.1992 517.403 82.2383ZM524.468 92.7617L527.574 82.3203H530.504L526.097 95H524.269L524.468 92.7617ZM522.09 82.3203L525.254 92.8086L525.406 95H523.578L519.148 82.3203H522.09ZM540.171 92.457V86.4102C540.171 85.957 540.089 85.5664 539.925 85.2383C539.76 84.9102 539.51 84.6562 539.175 84.4766C538.846 84.2969 538.432 84.207 537.932 84.207C537.471 84.207 537.073 84.2852 536.737 84.4414C536.401 84.5977 536.139 84.8086 535.952 85.0742C535.764 85.3398 535.671 85.6406 535.671 85.9766H532.858C532.858 85.4766 532.979 84.9922 533.221 84.5234C533.464 84.0547 533.815 83.6367 534.276 83.2695C534.737 82.9023 535.288 82.6133 535.928 82.4023C536.569 82.1914 537.288 82.0859 538.085 82.0859C539.038 82.0859 539.882 82.2461 540.616 82.5664C541.358 82.8867 541.94 83.3711 542.362 84.0195C542.792 84.6602 543.007 85.4648 543.007 86.4336V92.0703C543.007 92.6484 543.046 93.168 543.124 93.6289C543.21 94.082 543.331 94.4766 543.487 94.8125V95H540.593C540.46 94.6953 540.354 94.3086 540.276 93.8398C540.206 93.3633 540.171 92.9023 540.171 92.457ZM540.581 87.2891L540.604 89.0352H538.577C538.053 89.0352 537.593 89.0859 537.194 89.1875C536.796 89.2812 536.464 89.4219 536.198 89.6094C535.932 89.7969 535.733 90.0234 535.6 90.2891C535.468 90.5547 535.401 90.8555 535.401 91.1914C535.401 91.5273 535.479 91.8359 535.635 92.1172C535.792 92.3906 536.018 92.6055 536.315 92.7617C536.62 92.918 536.987 92.9961 537.417 92.9961C537.995 92.9961 538.499 92.8789 538.928 92.6445C539.366 92.4023 539.71 92.1094 539.96 91.7656C540.21 91.4141 540.343 91.082 540.358 90.7695L541.272 92.0234C541.178 92.3438 541.018 92.6875 540.792 93.0547C540.565 93.4219 540.268 93.7734 539.901 94.1094C539.542 94.4375 539.108 94.707 538.6 94.918C538.1 95.1289 537.522 95.2344 536.866 95.2344C536.038 95.2344 535.3 95.0703 534.651 94.7422C534.003 94.4062 533.495 93.957 533.128 93.3945C532.76 92.8242 532.577 92.1797 532.577 91.4609C532.577 90.7891 532.702 90.1953 532.952 89.6797C533.21 89.1562 533.585 88.7188 534.077 88.3672C534.577 88.0156 535.186 87.75 535.905 87.5703C536.624 87.3828 537.444 87.2891 538.366 87.2891H540.581ZM552.205 89.9727H549.592C549.599 89.2461 549.662 88.6367 549.779 88.1445C549.896 87.6445 550.092 87.1914 550.365 86.7852C550.646 86.3789 551.017 85.9492 551.478 85.4961C551.838 85.1523 552.162 84.8281 552.451 84.5234C552.74 84.2109 552.97 83.8828 553.142 83.5391C553.314 83.1875 553.4 82.7852 553.4 82.332C553.4 81.8398 553.318 81.4219 553.154 81.0781C552.99 80.7344 552.748 80.4727 552.427 80.293C552.115 80.1133 551.724 80.0234 551.256 80.0234C550.865 80.0234 550.498 80.1016 550.154 80.2578C549.81 80.4062 549.533 80.6406 549.322 80.9609C549.111 81.2734 548.998 81.6875 548.982 82.2031H546.158C546.174 81.2188 546.408 80.3906 546.861 79.7188C547.314 79.0469 547.924 78.543 548.689 78.207C549.455 77.8711 550.31 77.7031 551.256 77.7031C552.302 77.7031 553.197 77.8828 553.939 78.2422C554.681 78.5938 555.248 79.1094 555.638 79.7891C556.037 80.4609 556.236 81.2734 556.236 82.2266C556.236 82.9141 556.099 83.5391 555.826 84.1016C555.552 84.6562 555.197 85.1758 554.76 85.6602C554.322 86.1367 553.849 86.6133 553.342 87.0898C552.904 87.4883 552.607 87.9219 552.451 88.3906C552.295 88.8516 552.213 89.3789 552.205 89.9727ZM549.357 93.6289C549.357 93.207 549.502 92.8516 549.791 92.5625C550.08 92.2656 550.474 92.1172 550.974 92.1172C551.474 92.1172 551.869 92.2656 552.158 92.5625C552.447 92.8516 552.592 93.207 552.592 93.6289C552.592 94.0508 552.447 94.4102 552.158 94.707C551.869 94.9961 551.474 95.1406 550.974 95.1406C550.474 95.1406 550.08 94.9961 549.791 94.707C549.502 94.4102 549.357 94.0508 549.357 93.6289Z" fill="#F3F3F3"/>
</svg>
