<svg width="961" height="127" viewBox="0 0 961 127" fill="none" xmlns="http://www.w3.org/2000/svg">
<g filter="url(#filter0_d_404_9134)">
<path d="M23.856 49V20.296H12.24V15.16H41.616V20.296H30V49H23.856ZM43.1025 49V25.528H48.9585V29.656C50.1105 26.872 52.5745 25.336 56.3505 25.048L58.1745 24.904L58.5585 29.992L55.1025 30.328C51.1665 30.712 49.1985 32.728 49.1985 36.376V49H43.1025ZM71.313 49.48C69.617 49.48 68.097 49.16 66.753 48.52C65.441 47.848 64.401 46.952 63.633 45.832C62.897 44.712 62.529 43.448 62.529 42.04C62.529 40.312 62.977 38.952 63.873 37.96C64.769 36.936 66.225 36.2 68.241 35.752C70.257 35.304 72.961 35.08 76.353 35.08H78.033V34.072C78.033 32.472 77.681 31.32 76.977 30.616C76.273 29.912 75.089 29.56 73.425 29.56C72.113 29.56 70.769 29.768 69.393 30.184C68.017 30.568 66.625 31.176 65.217 32.008L63.489 27.928C64.321 27.352 65.297 26.856 66.417 26.44C67.569 25.992 68.769 25.656 70.017 25.432C71.297 25.176 72.497 25.048 73.617 25.048C77.041 25.048 79.585 25.848 81.249 27.448C82.913 29.016 83.745 31.464 83.745 34.792V49H78.129V45.256C77.585 46.568 76.721 47.608 75.537 48.376C74.353 49.112 72.945 49.48 71.313 49.48ZM72.561 45.352C74.129 45.352 75.425 44.808 76.449 43.72C77.505 42.632 78.033 41.256 78.033 39.592V38.536H76.401C73.393 38.536 71.297 38.776 70.113 39.256C68.961 39.704 68.385 40.536 68.385 41.752C68.385 42.808 68.753 43.672 69.489 44.344C70.225 45.016 71.249 45.352 72.561 45.352ZM91.755 49V25.528H97.611V29.176C98.411 27.832 99.483 26.808 100.827 26.104C102.203 25.4 103.739 25.048 105.435 25.048C110.971 25.048 113.739 28.264 113.739 34.696V49H107.739V34.984C107.739 33.16 107.387 31.832 106.683 31C106.011 30.168 104.955 29.752 103.515 29.752C101.755 29.752 100.347 30.312 99.291 31.432C98.267 32.52 97.755 33.976 97.755 35.8V49H91.755ZM130.345 49.48C128.361 49.48 126.505 49.24 124.777 48.76C123.049 48.28 121.609 47.592 120.457 46.696L121.993 42.76C123.177 43.56 124.505 44.184 125.977 44.632C127.449 45.048 128.921 45.256 130.393 45.256C131.929 45.256 133.065 45 133.801 44.488C134.569 43.944 134.953 43.24 134.953 42.376C134.953 41.032 133.961 40.168 131.977 39.784L127.177 38.872C123.113 38.104 121.081 35.992 121.081 32.536C121.081 31 121.497 29.672 122.329 28.552C123.193 27.432 124.377 26.568 125.881 25.96C127.385 25.352 129.113 25.048 131.065 25.048C132.729 25.048 134.329 25.288 135.865 25.768C137.401 26.216 138.713 26.904 139.801 27.832L138.169 31.768C137.241 31 136.121 30.392 134.809 29.944C133.529 29.496 132.297 29.272 131.113 29.272C129.545 29.272 128.377 29.544 127.609 30.088C126.873 30.632 126.505 31.352 126.505 32.248C126.505 33.656 127.417 34.52 129.241 34.84L134.041 35.752C136.121 36.136 137.689 36.84 138.745 37.864C139.833 38.888 140.377 40.264 140.377 41.992C140.377 44.328 139.465 46.168 137.641 47.512C135.817 48.824 133.385 49.48 130.345 49.48ZM148.695 49V30.04H144.183V25.528H148.695V25.48C148.695 22.152 149.559 19.64 151.287 17.944C153.047 16.248 155.767 15.288 159.447 15.064L161.799 14.92L162.183 19.336L159.975 19.48C158.055 19.608 156.695 20.088 155.895 20.92C155.095 21.72 154.695 22.92 154.695 24.52V25.528H161.079V30.04H154.695V49H148.695ZM176.61 49.48C174.178 49.48 172.066 48.984 170.274 47.992C168.482 47 167.09 45.592 166.098 43.768C165.106 41.912 164.61 39.736 164.61 37.24C164.61 34.744 165.106 32.584 166.098 30.76C167.09 28.936 168.482 27.528 170.274 26.536C172.066 25.544 174.178 25.048 176.61 25.048C179.042 25.048 181.154 25.544 182.946 26.536C184.738 27.528 186.13 28.936 187.122 30.76C188.114 32.584 188.61 34.744 188.61 37.24C188.61 39.736 188.114 41.912 187.122 43.768C186.13 45.592 184.738 47 182.946 47.992C181.154 48.984 179.042 49.48 176.61 49.48ZM176.61 44.92C178.402 44.92 179.842 44.28 180.93 43C182.018 41.688 182.562 39.768 182.562 37.24C182.562 34.68 182.018 32.776 180.93 31.528C179.842 30.248 178.402 29.608 176.61 29.608C174.818 29.608 173.378 30.248 172.29 31.528C171.202 32.776 170.658 34.68 170.658 37.24C170.658 39.768 171.202 41.688 172.29 43C173.378 44.28 174.818 44.92 176.61 44.92ZM195.482 49V25.528H201.338V29.656C202.49 26.872 204.954 25.336 208.73 25.048L210.554 24.904L210.938 29.992L207.482 30.328C203.546 30.712 201.578 32.728 201.578 36.376V49H195.482ZM216.295 49V25.528H222.151V29.128C222.855 27.848 223.831 26.856 225.079 26.152C226.327 25.416 227.767 25.048 229.399 25.048C232.919 25.048 235.223 26.584 236.311 29.656C237.047 28.216 238.103 27.096 239.479 26.296C240.855 25.464 242.423 25.048 244.183 25.048C249.463 25.048 252.103 28.264 252.103 34.696V49H246.103V34.936C246.103 33.144 245.799 31.832 245.191 31C244.615 30.168 243.623 29.752 242.215 29.752C240.647 29.752 239.415 30.312 238.519 31.432C237.623 32.52 237.175 34.04 237.175 35.992V49H231.175V34.936C231.175 33.144 230.871 31.832 230.263 31C229.687 30.168 228.711 29.752 227.335 29.752C225.767 29.752 224.535 30.312 223.639 31.432C222.743 32.52 222.295 34.04 222.295 35.992V49H216.295ZM267.94 49.48C266.244 49.48 264.724 49.16 263.38 48.52C262.068 47.848 261.028 46.952 260.26 45.832C259.524 44.712 259.156 43.448 259.156 42.04C259.156 40.312 259.604 38.952 260.5 37.96C261.396 36.936 262.852 36.2 264.868 35.752C266.884 35.304 269.588 35.08 272.981 35.08H274.661V34.072C274.661 32.472 274.308 31.32 273.604 30.616C272.9 29.912 271.716 29.56 270.052 29.56C268.74 29.56 267.396 29.768 266.02 30.184C264.644 30.568 263.252 31.176 261.844 32.008L260.116 27.928C260.948 27.352 261.924 26.856 263.044 26.44C264.196 25.992 265.396 25.656 266.644 25.432C267.924 25.176 269.124 25.048 270.244 25.048C273.668 25.048 276.212 25.848 277.877 27.448C279.54 29.016 280.372 31.464 280.372 34.792V49H274.757V45.256C274.212 46.568 273.348 47.608 272.164 48.376C270.98 49.112 269.572 49.48 267.94 49.48ZM269.188 45.352C270.756 45.352 272.052 44.808 273.076 43.72C274.132 42.632 274.661 41.256 274.661 39.592V38.536H273.028C270.02 38.536 267.924 38.776 266.74 39.256C265.588 39.704 265.012 40.536 265.012 41.752C265.012 42.808 265.38 43.672 266.116 44.344C266.852 45.016 267.876 45.352 269.188 45.352ZM288.383 49V25.528H294.239V29.176C295.039 27.832 296.111 26.808 297.455 26.104C298.831 25.4 300.367 25.048 302.063 25.048C307.599 25.048 310.367 28.264 310.367 34.696V49H304.367V34.984C304.367 33.16 304.015 31.832 303.311 31C302.639 30.168 301.583 29.752 300.143 29.752C298.383 29.752 296.975 30.312 295.919 31.432C294.895 32.52 294.383 33.976 294.383 35.8V49H288.383ZM327.405 49.48C325.357 49.48 323.549 48.984 321.981 47.992C320.445 47 319.245 45.592 318.381 43.768C317.517 41.912 317.085 39.736 317.085 37.24C317.085 34.712 317.517 32.552 318.381 30.76C319.245 28.936 320.445 27.528 321.981 26.536C323.549 25.544 325.357 25.048 327.405 25.048C329.069 25.048 330.573 25.416 331.917 26.152C333.261 26.888 334.269 27.864 334.941 29.08V15.16H340.941V49H335.085V45.112C334.445 46.456 333.437 47.528 332.061 48.328C330.685 49.096 329.133 49.48 327.405 49.48ZM329.085 44.92C330.877 44.92 332.317 44.28 333.405 43C334.493 41.688 335.037 39.768 335.037 37.24C335.037 34.68 334.493 32.776 333.405 31.528C332.317 30.248 330.877 29.608 329.085 29.608C327.293 29.608 325.853 30.248 324.765 31.528C323.677 32.776 323.133 34.68 323.133 37.24C323.133 39.768 323.677 41.688 324.765 43C325.853 44.28 327.293 44.92 329.085 44.92ZM359.786 49.48C357.354 49.48 355.242 48.984 353.45 47.992C351.658 47 350.266 45.592 349.274 43.768C348.282 41.912 347.786 39.736 347.786 37.24C347.786 34.744 348.282 32.584 349.274 30.76C350.266 28.936 351.658 27.528 353.45 26.536C355.242 25.544 357.354 25.048 359.786 25.048C362.218 25.048 364.33 25.544 366.122 26.536C367.914 27.528 369.306 28.936 370.298 30.76C371.29 32.584 371.786 34.744 371.786 37.24C371.786 39.736 371.29 41.912 370.298 43.768C369.306 45.592 367.914 47 366.122 47.992C364.33 48.984 362.218 49.48 359.786 49.48ZM359.786 44.92C361.578 44.92 363.018 44.28 364.106 43C365.194 41.688 365.738 39.768 365.738 37.24C365.738 34.68 365.194 32.776 364.106 31.528C363.018 30.248 361.578 29.608 359.786 29.608C357.994 29.608 356.554 30.248 355.466 31.528C354.378 32.776 353.834 34.68 353.834 37.24C353.834 39.768 354.378 41.688 355.466 43C356.554 44.28 357.994 44.92 359.786 44.92ZM394.092 49V15.16H416.22V20.056H400.236V29.608H415.212V34.504H400.236V49H394.092ZM422.005 20.488V14.632H428.725V20.488H422.005ZM422.389 49V25.528H428.389V49H422.389ZM444.703 49.48C441.919 49.48 439.855 48.728 438.511 47.224C437.199 45.688 436.543 43.448 436.543 40.504V15.16H442.543V40.216C442.543 43.096 443.759 44.536 446.191 44.536C446.543 44.536 446.895 44.52 447.247 44.488C447.599 44.456 447.935 44.392 448.255 44.296L448.159 49.048C447.007 49.336 445.855 49.48 444.703 49.48ZM453.887 49V25.528H459.743V29.128C460.447 27.848 461.423 26.856 462.671 26.152C463.919 25.416 465.359 25.048 466.991 25.048C470.511 25.048 472.815 26.584 473.903 29.656C474.639 28.216 475.695 27.096 477.071 26.296C478.447 25.464 480.015 25.048 481.775 25.048C487.055 25.048 489.695 28.264 489.695 34.696V49H483.695V34.936C483.695 33.144 483.391 31.832 482.783 31C482.207 30.168 481.215 29.752 479.807 29.752C478.239 29.752 477.007 30.312 476.111 31.432C475.215 32.52 474.767 34.04 474.767 35.992V49H468.767V34.936C468.767 33.144 468.463 31.832 467.855 31C467.279 30.168 466.303 29.752 464.927 29.752C463.359 29.752 462.127 30.312 461.231 31.432C460.335 32.52 459.887 34.04 459.887 35.992V49H453.887ZM509.373 49.48C506.717 49.48 504.429 48.984 502.509 47.992C500.589 47 499.101 45.592 498.045 43.768C497.021 41.944 496.509 39.784 496.509 37.288C496.509 34.856 497.005 32.728 497.997 30.904C499.021 29.08 500.413 27.656 502.173 26.632C503.965 25.576 505.997 25.048 508.269 25.048C511.597 25.048 514.221 26.104 516.141 28.216C518.093 30.328 519.069 33.208 519.069 36.856V38.632H502.269C502.717 42.824 505.117 44.92 509.469 44.92C510.781 44.92 512.093 44.728 513.405 44.344C514.717 43.928 515.917 43.288 517.005 42.424L518.685 46.456C517.565 47.384 516.157 48.12 514.461 48.664C512.765 49.208 511.069 49.48 509.373 49.48ZM508.509 29.128C506.749 29.128 505.325 29.672 504.237 30.76C503.149 31.848 502.493 33.32 502.269 35.176H514.077C513.949 33.224 513.405 31.736 512.445 30.712C511.517 29.656 510.205 29.128 508.509 29.128ZM534.333 49.48C532.349 49.48 530.493 49.24 528.765 48.76C527.037 48.28 525.597 47.592 524.445 46.696L525.981 42.76C527.165 43.56 528.493 44.184 529.965 44.632C531.437 45.048 532.909 45.256 534.381 45.256C535.917 45.256 537.053 45 537.789 44.488C538.557 43.944 538.941 43.24 538.941 42.376C538.941 41.032 537.949 40.168 535.965 39.784L531.165 38.872C527.101 38.104 525.069 35.992 525.069 32.536C525.069 31 525.485 29.672 526.317 28.552C527.181 27.432 528.365 26.568 529.869 25.96C531.373 25.352 533.101 25.048 535.053 25.048C536.717 25.048 538.317 25.288 539.853 25.768C541.389 26.216 542.701 26.904 543.789 27.832L542.157 31.768C541.229 31 540.109 30.392 538.797 29.944C537.517 29.496 536.285 29.272 535.101 29.272C533.533 29.272 532.365 29.544 531.597 30.088C530.861 30.632 530.493 31.352 530.493 32.248C530.493 33.656 531.405 34.52 533.229 34.84L538.029 35.752C540.109 36.136 541.677 36.84 542.733 37.864C543.821 38.888 544.365 40.264 544.365 41.992C544.365 44.328 543.453 46.168 541.629 47.512C539.805 48.824 537.373 49.48 534.333 49.48ZM577.524 49.48C574.868 49.48 572.58 48.984 570.66 47.992C568.74 47 567.252 45.592 566.196 43.768C565.172 41.944 564.66 39.784 564.66 37.288C564.66 34.856 565.156 32.728 566.148 30.904C567.172 29.08 568.564 27.656 570.324 26.632C572.116 25.576 574.148 25.048 576.42 25.048C579.748 25.048 582.372 26.104 584.292 28.216C586.244 30.328 587.22 33.208 587.22 36.856V38.632H570.42C570.868 42.824 573.268 44.92 577.62 44.92C578.932 44.92 580.244 44.728 581.556 44.344C582.868 43.928 584.068 43.288 585.156 42.424L586.836 46.456C585.716 47.384 584.308 48.12 582.612 48.664C580.916 49.208 579.22 49.48 577.524 49.48ZM576.66 29.128C574.9 29.128 573.476 29.672 572.388 30.76C571.3 31.848 570.644 33.32 570.42 35.176H582.228C582.1 33.224 581.556 31.736 580.596 30.712C579.668 29.656 578.356 29.128 576.66 29.128ZM593.987 49V25.528H599.843V29.128C600.547 27.848 601.523 26.856 602.771 26.152C604.019 25.416 605.459 25.048 607.091 25.048C610.611 25.048 612.915 26.584 614.003 29.656C614.739 28.216 615.795 27.096 617.171 26.296C618.547 25.464 620.115 25.048 621.875 25.048C627.155 25.048 629.795 28.264 629.795 34.696V49H623.795V34.936C623.795 33.144 623.491 31.832 622.883 31C622.307 30.168 621.315 29.752 619.907 29.752C618.339 29.752 617.107 30.312 616.211 31.432C615.315 32.52 614.867 34.04 614.867 35.992V49H608.867V34.936C608.867 33.144 608.563 31.832 607.955 31C607.379 30.168 606.403 29.752 605.027 29.752C603.459 29.752 602.227 30.312 601.331 31.432C600.435 32.52 599.987 34.04 599.987 35.992V49H593.987ZM653.339 49V15.16H675.851V20.056H659.243V29.368H674.795V34.264H659.243V44.104H675.851V49H653.339ZM680.059 49L689.899 36.856L680.683 25.528H687.691L693.355 32.776L699.019 25.528H706.027L696.763 36.904L706.651 49H699.595L693.307 41.08L687.067 49H680.059ZM711.446 57.64V25.528H717.302V29.272C717.974 27.992 718.982 26.968 720.326 26.2C721.702 25.432 723.254 25.048 724.982 25.048C727.03 25.048 728.822 25.544 730.358 26.536C731.926 27.528 733.142 28.936 734.006 30.76C734.87 32.552 735.302 34.712 735.302 37.24C735.302 39.736 734.87 41.912 734.006 43.768C733.142 45.592 731.942 47 730.406 47.992C728.87 48.984 727.062 49.48 724.982 49.48C723.318 49.48 721.814 49.128 720.47 48.424C719.158 47.688 718.15 46.712 717.446 45.496V57.64H711.446ZM723.302 44.92C725.094 44.92 726.534 44.28 727.622 43C728.71 41.688 729.254 39.768 729.254 37.24C729.254 34.68 728.71 32.776 727.622 31.528C726.534 30.248 725.094 29.608 723.302 29.608C721.51 29.608 720.07 30.248 718.982 31.528C717.894 32.776 717.35 34.68 717.35 37.24C717.35 39.768 717.894 41.688 718.982 43C720.07 44.28 721.51 44.92 723.302 44.92ZM753.716 49.48C751.06 49.48 748.772 48.984 746.852 47.992C744.932 47 743.444 45.592 742.388 43.768C741.364 41.944 740.852 39.784 740.852 37.288C740.852 34.856 741.348 32.728 742.34 30.904C743.364 29.08 744.756 27.656 746.516 26.632C748.308 25.576 750.34 25.048 752.612 25.048C755.94 25.048 758.564 26.104 760.484 28.216C762.436 30.328 763.412 33.208 763.412 36.856V38.632H746.612C747.06 42.824 749.46 44.92 753.812 44.92C755.124 44.92 756.436 44.728 757.748 44.344C759.06 43.928 760.26 43.288 761.348 42.424L763.028 46.456C761.908 47.384 760.5 48.12 758.804 48.664C757.108 49.208 755.412 49.48 753.716 49.48ZM752.852 29.128C751.092 29.128 749.668 29.672 748.58 30.76C747.492 31.848 746.836 33.32 746.612 35.176H758.42C758.292 33.224 757.748 31.736 756.788 30.712C755.86 29.656 754.548 29.128 752.852 29.128ZM770.083 49V25.528H775.939V29.656C777.091 26.872 779.555 25.336 783.331 25.048L785.155 24.904L785.539 29.992L782.083 30.328C778.147 30.712 776.179 32.728 776.179 36.376V49H770.083ZM790.416 20.488V14.632H797.136V20.488H790.416ZM790.8 49V25.528H796.8V49H790.8ZM816.522 49.48C813.866 49.48 811.578 48.984 809.658 47.992C807.738 47 806.25 45.592 805.194 43.768C804.17 41.944 803.658 39.784 803.658 37.288C803.658 34.856 804.154 32.728 805.146 30.904C806.17 29.08 807.562 27.656 809.322 26.632C811.114 25.576 813.146 25.048 815.418 25.048C818.746 25.048 821.37 26.104 823.29 28.216C825.242 30.328 826.218 33.208 826.218 36.856V38.632H809.418C809.866 42.824 812.266 44.92 816.618 44.92C817.93 44.92 819.242 44.728 820.554 44.344C821.866 43.928 823.066 43.288 824.154 42.424L825.834 46.456C824.714 47.384 823.306 48.12 821.61 48.664C819.914 49.208 818.218 49.48 816.522 49.48ZM815.658 29.128C813.898 29.128 812.474 29.672 811.386 30.76C810.298 31.848 809.642 33.32 809.418 35.176H821.226C821.098 33.224 820.554 31.736 819.594 30.712C818.666 29.656 817.354 29.128 815.658 29.128ZM807.546 22.408L812.826 12.664H818.106L823.386 22.408H819.546L815.466 16.072L811.386 22.408H807.546ZM832.89 49V25.528H838.746V29.176C839.546 27.832 840.618 26.808 841.962 26.104C843.338 25.4 844.874 25.048 846.57 25.048C852.106 25.048 854.874 28.264 854.874 34.696V49H848.874V34.984C848.874 33.16 848.522 31.832 847.818 31C847.146 30.168 846.09 29.752 844.65 29.752C842.89 29.752 841.482 30.312 840.426 31.432C839.402 32.52 838.89 33.976 838.89 35.8V49H832.89ZM873.736 49.48C871.272 49.48 869.128 48.984 867.304 47.992C865.48 46.968 864.072 45.528 863.08 43.672C862.088 41.816 861.592 39.64 861.592 37.144C861.592 34.648 862.088 32.504 863.08 30.712C864.072 28.888 865.48 27.496 867.304 26.536C869.128 25.544 871.272 25.048 873.736 25.048C875.24 25.048 876.728 25.288 878.2 25.768C879.672 26.248 880.888 26.92 881.848 27.784L880.072 31.96C879.24 31.224 878.296 30.664 877.24 30.28C876.216 29.896 875.224 29.704 874.264 29.704C872.184 29.704 870.568 30.36 869.416 31.672C868.296 32.952 867.736 34.792 867.736 37.192C867.736 39.56 868.296 41.432 869.416 42.808C870.568 44.152 872.184 44.824 874.264 44.824C875.192 44.824 876.184 44.632 877.24 44.248C878.296 43.864 879.24 43.288 880.072 42.52L881.848 46.744C880.888 47.576 879.656 48.248 878.152 48.76C876.68 49.24 875.208 49.48 873.736 49.48ZM887.065 20.488V14.632H893.785V20.488H887.065ZM887.449 49V25.528H893.449V49H887.449ZM909.331 49.48C907.635 49.48 906.115 49.16 904.771 48.52C903.459 47.848 902.419 46.952 901.651 45.832C900.915 44.712 900.547 43.448 900.547 42.04C900.547 40.312 900.995 38.952 901.891 37.96C902.787 36.936 904.243 36.2 906.259 35.752C908.275 35.304 910.979 35.08 914.371 35.08H916.051V34.072C916.051 32.472 915.699 31.32 914.995 30.616C914.291 29.912 913.107 29.56 911.443 29.56C910.131 29.56 908.787 29.768 907.411 30.184C906.035 30.568 904.643 31.176 903.235 32.008L901.507 27.928C902.339 27.352 903.315 26.856 904.435 26.44C905.587 25.992 906.787 25.656 908.035 25.432C909.315 25.176 910.515 25.048 911.635 25.048C915.059 25.048 917.603 25.848 919.267 27.448C920.931 29.016 921.763 31.464 921.763 34.792V49H916.147V45.256C915.603 46.568 914.739 47.608 913.555 48.376C912.371 49.112 910.963 49.48 909.331 49.48ZM910.579 45.352C912.147 45.352 913.443 44.808 914.467 43.72C915.523 42.632 916.051 41.256 916.051 39.592V38.536H914.419C911.411 38.536 909.315 38.776 908.131 39.256C906.979 39.704 906.403 40.536 906.403 41.752C906.403 42.808 906.771 43.672 907.507 44.344C908.243 45.016 909.267 45.352 910.579 45.352ZM938.365 49.48C936.381 49.48 934.525 49.24 932.797 48.76C931.069 48.28 929.629 47.592 928.477 46.696L930.013 42.76C931.197 43.56 932.525 44.184 933.997 44.632C935.469 45.048 936.941 45.256 938.413 45.256C939.949 45.256 941.085 45 941.821 44.488C942.589 43.944 942.973 43.24 942.973 42.376C942.973 41.032 941.981 40.168 939.997 39.784L935.197 38.872C931.133 38.104 929.101 35.992 929.101 32.536C929.101 31 929.517 29.672 930.349 28.552C931.213 27.432 932.397 26.568 933.901 25.96C935.405 25.352 937.133 25.048 939.085 25.048C940.749 25.048 942.349 25.288 943.885 25.768C945.421 26.216 946.733 26.904 947.821 27.832L946.189 31.768C945.261 31 944.141 30.392 942.829 29.944C941.549 29.496 940.317 29.272 939.133 29.272C937.565 29.272 936.397 29.544 935.629 30.088C934.893 30.632 934.525 31.352 934.525 32.248C934.525 33.656 935.437 34.52 937.261 34.84L942.061 35.752C944.141 36.136 945.709 36.84 946.765 37.864C947.853 38.888 948.397 40.264 948.397 41.992C948.397 44.328 947.485 46.168 945.661 47.512C943.837 48.824 941.405 49.48 938.365 49.48ZM15.696 114V80.16H30.384C34.096 80.16 36.96 81.088 38.976 82.944C40.992 84.8 42 87.392 42 90.72C42 94.048 40.992 96.656 38.976 98.544C36.96 100.4 34.096 101.328 30.384 101.328H21.84V114H15.696ZM21.84 96.48H29.424C33.84 96.48 36.048 94.56 36.048 90.72C36.048 86.912 33.84 85.008 29.424 85.008H21.84V96.48ZM58.7017 114.48C56.0457 114.48 53.7577 113.984 51.8377 112.992C49.9177 112 48.4297 110.592 47.3737 108.768C46.3497 106.944 45.8377 104.784 45.8377 102.288C45.8377 99.856 46.3337 97.728 47.3257 95.904C48.3497 94.08 49.7417 92.656 51.5017 91.632C53.2937 90.576 55.3257 90.048 57.5977 90.048C60.9257 90.048 63.5497 91.104 65.4697 93.216C67.4217 95.328 68.3977 98.208 68.3977 101.856V103.632H51.5977C52.0457 107.824 54.4457 109.92 58.7977 109.92C60.1097 109.92 61.4217 109.728 62.7337 109.344C64.0457 108.928 65.2457 108.288 66.3337 107.424L68.0137 111.456C66.8937 112.384 65.4857 113.12 63.7897 113.664C62.0937 114.208 60.3977 114.48 58.7017 114.48ZM57.8377 94.128C56.0777 94.128 54.6537 94.672 53.5657 95.76C52.4777 96.848 51.8217 98.32 51.5977 100.176H63.4057C63.2777 98.224 62.7337 96.736 61.7737 95.712C60.8457 94.656 59.5337 94.128 57.8377 94.128ZM75.0694 114V90.528H80.9254V94.656C82.0774 91.872 84.5414 90.336 88.3174 90.048L90.1414 89.904L90.5254 94.992L87.0694 95.328C83.1334 95.712 81.1654 97.728 81.1654 101.376V114H75.0694ZM104.144 114.48C102.16 114.48 100.304 114.24 98.5759 113.76C96.8479 113.28 95.4079 112.592 94.2559 111.696L95.7919 107.76C96.9759 108.56 98.3039 109.184 99.7759 109.632C101.248 110.048 102.72 110.256 104.192 110.256C105.728 110.256 106.864 110 107.6 109.488C108.368 108.944 108.752 108.24 108.752 107.376C108.752 106.032 107.76 105.168 105.776 104.784L100.976 103.872C96.9119 103.104 94.8799 100.992 94.8799 97.536C94.8799 96 95.2959 94.672 96.1279 93.552C96.9919 92.432 98.1759 91.568 99.6799 90.96C101.184 90.352 102.912 90.048 104.864 90.048C106.528 90.048 108.128 90.288 109.664 90.768C111.2 91.216 112.512 91.904 113.6 92.832L111.968 96.768C111.04 96 109.92 95.392 108.608 94.944C107.328 94.496 106.096 94.272 104.912 94.272C103.344 94.272 102.176 94.544 101.408 95.088C100.672 95.632 100.304 96.352 100.304 97.248C100.304 98.656 101.216 99.52 103.04 99.84L107.84 100.752C109.92 101.136 111.488 101.84 112.544 102.864C113.632 103.888 114.176 105.264 114.176 106.992C114.176 109.328 113.264 111.168 111.44 112.512C109.616 113.824 107.184 114.48 104.144 114.48ZM131.613 114.48C129.181 114.48 127.069 113.984 125.277 112.992C123.485 112 122.093 110.592 121.101 108.768C120.109 106.912 119.613 104.736 119.613 102.24C119.613 99.744 120.109 97.584 121.101 95.76C122.093 93.936 123.485 92.528 125.277 91.536C127.069 90.544 129.181 90.048 131.613 90.048C134.045 90.048 136.157 90.544 137.949 91.536C139.741 92.528 141.133 93.936 142.125 95.76C143.117 97.584 143.613 99.744 143.613 102.24C143.613 104.736 143.117 106.912 142.125 108.768C141.133 110.592 139.741 112 137.949 112.992C136.157 113.984 134.045 114.48 131.613 114.48ZM131.613 109.92C133.405 109.92 134.845 109.28 135.933 108C137.021 106.688 137.565 104.768 137.565 102.24C137.565 99.68 137.021 97.776 135.933 96.528C134.845 95.248 133.405 94.608 131.613 94.608C129.821 94.608 128.381 95.248 127.293 96.528C126.205 97.776 125.661 99.68 125.661 102.24C125.661 104.768 126.205 106.688 127.293 108C128.381 109.28 129.821 109.92 131.613 109.92ZM150.486 114V90.528H156.342V94.176C157.142 92.832 158.214 91.808 159.558 91.104C160.934 90.4 162.47 90.048 164.166 90.048C169.702 90.048 172.47 93.264 172.47 99.696V114H166.47V99.984C166.47 98.16 166.118 96.832 165.414 96C164.742 95.168 163.686 94.752 162.246 94.752C160.486 94.752 159.078 95.312 158.022 96.432C156.998 97.52 156.486 98.976 156.486 100.8V114H150.486ZM188.212 114.48C186.516 114.48 184.996 114.16 183.652 113.52C182.34 112.848 181.3 111.952 180.532 110.832C179.796 109.712 179.428 108.448 179.428 107.04C179.428 105.312 179.876 103.952 180.772 102.96C181.668 101.936 183.124 101.2 185.14 100.752C187.156 100.304 189.86 100.08 193.252 100.08H194.932V99.072C194.932 97.472 194.58 96.32 193.876 95.616C193.172 94.912 191.988 94.56 190.324 94.56C189.012 94.56 187.668 94.768 186.292 95.184C184.916 95.568 183.524 96.176 182.116 97.008L180.388 92.928C181.22 92.352 182.196 91.856 183.316 91.44C184.468 90.992 185.668 90.656 186.916 90.432C188.196 90.176 189.396 90.048 190.516 90.048C193.94 90.048 196.484 90.848 198.148 92.448C199.812 94.016 200.644 96.464 200.644 99.792V114H195.028V110.256C194.484 111.568 193.62 112.608 192.436 113.376C191.252 114.112 189.844 114.48 188.212 114.48ZM189.46 110.352C191.028 110.352 192.324 109.808 193.348 108.72C194.404 107.632 194.932 106.256 194.932 104.592V103.536H193.3C190.292 103.536 188.196 103.776 187.012 104.256C185.86 104.704 185.284 105.536 185.284 106.752C185.284 107.808 185.652 108.672 186.388 109.344C187.124 110.016 188.148 110.352 189.46 110.352ZM216.814 114.48C214.03 114.48 211.966 113.728 210.622 112.224C209.31 110.688 208.654 108.448 208.654 105.504V80.16H214.654V105.216C214.654 108.096 215.87 109.536 218.302 109.536C218.654 109.536 219.006 109.52 219.358 109.488C219.71 109.456 220.046 109.392 220.366 109.296L220.27 114.048C219.118 114.336 217.966 114.48 216.814 114.48ZM225.518 85.488V79.632H232.238V85.488H225.518ZM225.902 114V90.528H231.902V114H225.902ZM239.288 114V110.112L251.384 95.04H239.288V90.528H257.912V94.416L245.816 109.488H258.44V114H239.288ZM272.204 114.48C270.508 114.48 268.988 114.16 267.644 113.52C266.332 112.848 265.292 111.952 264.524 110.832C263.788 109.712 263.42 108.448 263.42 107.04C263.42 105.312 263.868 103.952 264.764 102.96C265.66 101.936 267.116 101.2 269.132 100.752C271.148 100.304 273.852 100.08 277.244 100.08H278.924V99.072C278.924 97.472 278.572 96.32 277.868 95.616C277.164 94.912 275.98 94.56 274.316 94.56C273.004 94.56 271.66 94.768 270.284 95.184C268.908 95.568 267.516 96.176 266.108 97.008L264.38 92.928C265.212 92.352 266.188 91.856 267.308 91.44C268.46 90.992 269.66 90.656 270.908 90.432C272.188 90.176 273.388 90.048 274.508 90.048C277.932 90.048 280.476 90.848 282.14 92.448C283.804 94.016 284.636 96.464 284.636 99.792V114H279.02V110.256C278.476 111.568 277.612 112.608 276.428 113.376C275.244 114.112 273.836 114.48 272.204 114.48ZM273.452 110.352C275.02 110.352 276.316 109.808 277.34 108.72C278.396 107.632 278.924 106.256 278.924 104.592V103.536H277.292C274.284 103.536 272.188 103.776 271.004 104.256C269.852 104.704 269.276 105.536 269.276 106.752C269.276 107.808 269.644 108.672 270.38 109.344C271.116 110.016 272.14 110.352 273.452 110.352ZM301.67 114.48C299.622 114.48 297.814 113.984 296.246 112.992C294.71 112 293.51 110.592 292.646 108.768C291.782 106.912 291.35 104.736 291.35 102.24C291.35 99.712 291.782 97.552 292.646 95.76C293.51 93.936 294.71 92.528 296.246 91.536C297.814 90.544 299.622 90.048 301.67 90.048C303.334 90.048 304.838 90.416 306.182 91.152C307.526 91.888 308.534 92.864 309.206 94.08V80.16H315.206V114H309.35V110.112C308.71 111.456 307.702 112.528 306.326 113.328C304.95 114.096 303.398 114.48 301.67 114.48ZM303.35 109.92C305.142 109.92 306.582 109.28 307.67 108C308.758 106.688 309.302 104.768 309.302 102.24C309.302 99.68 308.758 97.776 307.67 96.528C306.582 95.248 305.142 94.608 303.35 94.608C301.558 94.608 300.118 95.248 299.03 96.528C297.942 97.776 297.398 99.68 297.398 102.24C297.398 104.768 297.942 106.688 299.03 108C300.118 109.28 301.558 109.92 303.35 109.92ZM331.076 114.48C329.38 114.48 327.86 114.16 326.516 113.52C325.204 112.848 324.164 111.952 323.396 110.832C322.66 109.712 322.292 108.448 322.292 107.04C322.292 105.312 322.74 103.952 323.636 102.96C324.532 101.936 325.988 101.2 328.004 100.752C330.02 100.304 332.724 100.08 336.116 100.08H337.796V99.072C337.796 97.472 337.444 96.32 336.74 95.616C336.036 94.912 334.852 94.56 333.188 94.56C331.876 94.56 330.532 94.768 329.156 95.184C327.78 95.568 326.388 96.176 324.98 97.008L323.252 92.928C324.084 92.352 325.06 91.856 326.18 91.44C327.332 90.992 328.532 90.656 329.78 90.432C331.06 90.176 332.26 90.048 333.38 90.048C336.804 90.048 339.348 90.848 341.012 92.448C342.676 94.016 343.508 96.464 343.508 99.792V114H337.892V110.256C337.348 111.568 336.484 112.608 335.3 113.376C334.116 114.112 332.708 114.48 331.076 114.48ZM332.324 110.352C333.892 110.352 335.188 109.808 336.212 108.72C337.268 107.632 337.796 106.256 337.796 104.592V103.536H336.164C333.156 103.536 331.06 103.776 329.876 104.256C328.724 104.704 328.148 105.536 328.148 106.752C328.148 107.808 328.516 108.672 329.252 109.344C329.988 110.016 331.012 110.352 332.324 110.352ZM360.109 114.48C358.125 114.48 356.269 114.24 354.541 113.76C352.813 113.28 351.373 112.592 350.221 111.696L351.757 107.76C352.941 108.56 354.269 109.184 355.741 109.632C357.213 110.048 358.685 110.256 360.157 110.256C361.693 110.256 362.829 110 363.565 109.488C364.333 108.944 364.717 108.24 364.717 107.376C364.717 106.032 363.725 105.168 361.741 104.784L356.941 103.872C352.877 103.104 350.845 100.992 350.845 97.536C350.845 96 351.261 94.672 352.093 93.552C352.957 92.432 354.141 91.568 355.645 90.96C357.149 90.352 358.877 90.048 360.829 90.048C362.493 90.048 364.093 90.288 365.629 90.768C367.165 91.216 368.477 91.904 369.565 92.832L367.933 96.768C367.005 96 365.885 95.392 364.573 94.944C363.293 94.496 362.061 94.272 360.877 94.272C359.309 94.272 358.141 94.544 357.373 95.088C356.637 95.632 356.269 96.352 356.269 97.248C356.269 98.656 357.181 99.52 359.005 99.84L363.805 100.752C365.885 101.136 367.453 101.84 368.509 102.864C369.597 103.888 370.141 105.264 370.141 106.992C370.141 109.328 369.229 111.168 367.405 112.512C365.581 113.824 363.149 114.48 360.109 114.48Z" fill="white"/>
</g>
<defs>
<filter id="filter0_d_404_9134" x="0.240234" y="0.664062" width="960.157" height="125.816" filterUnits="userSpaceOnUse" color-interpolation-filters="sRGB">
<feFlood flood-opacity="0" result="BackgroundImageFix"/>
<feColorMatrix in="SourceAlpha" type="matrix" values="0 0 0 0 0 0 0 0 0 0 0 0 0 0 0 0 0 0 127 0" result="hardAlpha"/>
<feOffset/>
<feGaussianBlur stdDeviation="6"/>
<feComposite in2="hardAlpha" operator="out"/>
<feColorMatrix type="matrix" values="0 0 0 0 0 0 0 0 0 0 0 0 0 0 0 0 0 0 1 0"/>
<feBlend mode="normal" in2="BackgroundImageFix" result="effect1_dropShadow_404_9134"/>
<feBlend mode="normal" in="SourceGraphic" in2="effect1_dropShadow_404_9134" result="shape"/>
</filter>
</defs>
</svg>
