<svg width="706" height="530" viewBox="0 0 706 530" fill="none" xmlns="http://www.w3.org/2000/svg">
<path fill-rule="evenodd" clip-rule="evenodd" d="M176.59 0.294243L176.531 0.294128L176.472 0.294243H44.1763C19.8108 0.294243 0.0587082 20.0464 0.0587082 44.4119V122.956C0.0587082 146.811 19.9304 165.466 41.2789 176.109C73.9036 192.373 96.3147 226.069 96.3147 265C96.3147 303.931 73.9036 337.627 41.2789 353.891C19.9304 364.534 0.0587082 383.19 0.0587082 407.044V485.588C0.0587082 509.954 19.8109 529.706 44.1764 529.706H661.823C686.189 529.706 705.941 509.954 705.941 485.588V407.044C705.941 383.19 686.069 364.534 664.721 353.891C632.096 337.627 609.685 303.931 609.685 265C609.685 226.07 632.096 192.373 664.721 176.109C686.069 165.466 705.941 146.811 705.941 122.956V44.4119C705.941 20.0464 686.189 0.294243 661.823 0.294243H176.59ZM161.825 29.706V46.25C161.825 54.3718 168.409 60.9559 176.531 60.9559C184.653 60.9559 191.237 54.3718 191.237 46.25V29.706H661.823C669.945 29.706 676.529 36.2901 676.529 44.4119V122.956C676.529 129.576 669.922 140.652 651.599 149.787C609.379 170.834 580.273 214.492 580.273 265C580.273 315.509 609.379 359.166 651.599 380.213C669.922 389.348 676.529 400.424 676.529 407.044V485.588C676.529 493.71 669.945 500.294 661.823 500.294H191.237V483.75C191.237 475.628 184.653 469.044 176.531 469.044C168.409 469.044 161.825 475.628 161.825 483.75V500.294H44.1764C36.0545 500.294 29.4705 493.71 29.4705 485.588V407.044C29.4705 400.424 36.078 389.348 54.4012 380.213C96.6209 359.166 125.726 315.509 125.726 265C125.726 214.492 96.621 170.834 54.4012 149.787C36.0781 140.652 29.4705 129.576 29.4705 122.956V44.4119C29.4705 36.29 36.0545 29.706 44.1763 29.706H161.825ZM191.237 108.75C191.237 100.628 184.653 94.0441 176.531 94.0441C168.409 94.0441 161.825 100.628 161.825 108.75V171.25C161.825 179.372 168.409 185.956 176.531 185.956C184.653 185.956 191.237 179.372 191.237 171.25V108.75ZM191.237 233.75C191.237 225.628 184.653 219.044 176.531 219.044C168.409 219.044 161.825 225.628 161.825 233.75V296.25C161.825 304.372 168.409 310.956 176.531 310.956C184.653 310.956 191.237 304.372 191.237 296.25V233.75ZM191.237 358.75C191.237 350.628 184.653 344.044 176.531 344.044C168.409 344.044 161.825 350.628 161.825 358.75V421.25C161.825 429.372 168.409 435.956 176.531 435.956C184.653 435.956 191.237 429.372 191.237 421.25V358.75ZM279.472 176.765C279.472 168.643 286.056 162.059 294.178 162.059H382.413C390.535 162.059 397.119 168.643 397.119 176.765C397.119 184.887 390.535 191.471 382.413 191.471H294.178C286.056 191.471 279.472 184.887 279.472 176.765ZM279.472 265C279.472 256.878 286.056 250.294 294.178 250.294H470.649C478.77 250.294 485.354 256.878 485.354 265C485.354 273.122 478.77 279.706 470.649 279.706H294.178C286.056 279.706 279.472 273.122 279.472 265ZM588.296 117.941C604.539 117.941 617.707 104.773 617.707 88.5294C617.707 72.2858 604.539 59.1177 588.296 59.1177C572.052 59.1177 558.884 72.2858 558.884 88.5294C558.884 104.773 572.052 117.941 588.296 117.941ZM294.178 338.529C286.056 338.529 279.472 345.113 279.472 353.235C279.472 361.357 286.056 367.941 294.178 367.941H514.766C522.888 367.941 529.472 361.357 529.472 353.235C529.472 345.113 522.888 338.529 514.766 338.529H294.178Z" fill="#d48c29"/>
</svg>
