<svg width="75" height="92" viewBox="0 0 75 92" fill="none" xmlns="http://www.w3.org/2000/svg">
<g filter="url(#filter0_d_5_5)">
<path d="M55.6556 11.5983H67.2517C69.3601 11.5983 71 13.2385 71 15.3473V18.0418C71 19.7992 69.7115 21.4393 68.0717 21.7908V77.4393C68.0717 81.0711 65.0262 84 61.278 84H13.722C9.97378 84 7.04545 81.0711 7.04545 77.4393V21.7908C5.40559 21.4393 4 19.7992 4 18.0418V15.3473C4 13.2385 5.75699 11.5983 7.86538 11.5983H19.3444V6.67782C19.3444 3.04603 22.2727 0 26.021 0H48.979C52.7273 0 55.6556 3.04603 55.6556 6.67782V11.5983ZM48.979 5.85774H26.021C25.4353 5.85774 25.0839 6.20921 25.0839 6.67782V11.5983H49.9161V6.67782C49.9161 6.20921 49.5647 5.85774 48.979 5.85774ZM15.5962 76.5021H59.521C59.9895 76.5021 60.3409 75.9163 60.3409 75.4477V21.9079H14.6591V75.4477C14.6591 75.9163 15.0105 76.5021 15.5962 76.5021ZM24.6154 72.1674H23.9126C21.8042 72.1674 20.0472 70.41 20.0472 68.3013V29.9916C20.0472 28 21.8042 26.3598 23.9126 26.3598H24.6154C26.6066 26.3598 28.3636 28 28.3636 29.9916V68.3013C28.3636 70.41 26.6066 72.1674 24.6154 72.1674ZM37.8514 72.1674H37.2657C35.1573 72.1674 33.4003 70.41 33.4003 68.3013V29.9916C33.4003 28 35.1573 26.3598 37.2657 26.3598H37.8514C39.9598 26.3598 41.7168 28 41.7168 29.9916V68.3013C41.7168 70.41 39.9598 72.1674 37.8514 72.1674ZM51.0874 72.1674H50.5017C48.3934 72.1674 46.7535 70.41 46.7535 68.3013V29.9916C46.7535 28 48.3934 26.3598 50.5017 26.3598H51.0874C53.1958 26.3598 54.9528 28 54.9528 29.9916V68.3013C54.9528 70.41 53.1958 72.1674 51.0874 72.1674Z" fill="white"/>
</g>
<defs>
<filter id="filter0_d_5_5" x="0" y="0" width="75" height="92" filterUnits="userSpaceOnUse" color-interpolation-filters="sRGB">
<feFlood flood-opacity="0" result="BackgroundImageFix"/>
<feColorMatrix in="SourceAlpha" type="matrix" values="0 0 0 0 0 0 0 0 0 0 0 0 0 0 0 0 0 0 127 0" result="hardAlpha"/>
<feOffset dy="4"/>
<feGaussianBlur stdDeviation="2"/>
<feComposite in2="hardAlpha" operator="out"/>
<feColorMatrix type="matrix" values="0 0 0 0 0 0 0 0 0 0 0 0 0 0 0 0 0 0 0.25 0"/>
<feBlend mode="normal" in2="BackgroundImageFix" result="effect1_dropShadow_5_5"/>
<feBlend mode="normal" in="SourceGraphic" in2="effect1_dropShadow_5_5" result="shape"/>
</filter>
</defs>
</svg>
